<?phpxml version="1.0" standalone="no"?>
<!DOCTYPE svg PUBLIC "-//W3C//DTD SVG 1.1//EN" "http://www.w3.org/Graphics/SVG/1.1/DTD/svg11.dtd" >
<svg xmlns="http://www.w3.org/2000/svg" xmlns:xlink="http://www.w3.org/1999/xlink" version="1.1">
<metadata></metadata>
<defs>
<font id="db_helvethaica_x65_med" horiz-adv-x="0" >
<font-face units-per-em="2048" ascent="1638" descent="-410" />
<missing-glyph horiz-adv-x="487" />
<glyph unicode="&#x2b;&#x2d;" horiz-adv-x="1174" d="M73 181h1027v-181h-1026zM73 763h424v323h181v-323h421l1 -181h-421v-324h-181v324h-424z" />
<glyph unicode="&#x2e;&#x2e;&#x2e;" horiz-adv-x="1943" d="M183 -3l2 275h276l-2 -275h-276zM829 -3l3 275h274l-3 -275h-274zM1476 -3l2 275h276l-1 -275h-277z" />
<glyph unicode="&#x3c;&#x3d;" horiz-adv-x="1250" d="M104 172h1037l3 -172h-1038zM104 714v157l1038 467v-184l-795 -363l795 -358v-184z" />
<glyph unicode="&#x3e;&#x3d;" horiz-adv-x="1250" d="M104 172h1037l3 -172h-1038zM104 249l2 184l793 358l-795 363l1 184l1037 -467l-1 -157z" />
<glyph unicode="&#xe4f;&#x22;" horiz-adv-x="1453" d="M102 585q0 86 22 165t62.5 147t98 124.5t126 95.5t148 61.5t166.5 22.5q84 0 162.5 -22.5t146.5 -61.5t124 -95.5t96 -124.5t61 -147q23 -79 23 -164.5t-22 -164.5t-62 -148t-97 -125t-124.5 -95.5t-146.5 -61.5q-80 -22 -164 -22q-86 0 -164.5 22t-148 61.5t-126 95.5 t-96.5 125t-62.5 148t-22.5 164zM272 590.5q0 -92.5 35.5 -174t96.5 -142.5t143.5 -97.5t176.5 -36.5q61 0 118 17t106 46t89.5 70t69 91t45 107.5t16.5 119t-15.5 119t-45 106.5t-70 89.5t-90.5 69.5t-106.5 45t-118.5 16q-95 0 -176 -35t-142 -95t-96.5 -141.5t-35.5 -174 zM392 591q0 66 26.5 124.5t71.5 102.5t105 71t127 27q66 0 124 -27t102.5 -71t70 -102.5t25.5 -124.5q0 -67 -25 -127.5t-69 -104.5t-102 -70t-125.5 -26t-127.5 26t-105 70t-71.5 104.5t-26.5 127.5zM475 1691h189l-24 -320h-147zM545 591q0 -38 14 -71t37 -56.5t56 -37.5 q31 -13 70 -13q37 0 67.5 13.5t54 37t36.5 56.5t12 71q0 36 -13.5 67t-36 54.5t-53 37t-65.5 13.5q-39 0 -72 -13.5t-57 -37t-37 -54.5t-13 -67zM787 1691h193l-22 -320h-149z" />
<glyph unicode="&#xe0e;&#xe3a;" horiz-adv-x="1286" d="M62 192h114v444q0 23 -4 47.5t-14.5 48.5t-29.5 45t-50 38q12 47 33 93.5t53 90t77 80.5t103 64t130 42.5t159 15.5q103 0 184.5 -19t141.5 -53t102 -80.5t67.5 -101t36.5 -115.5t11 -124l3 -1113h-230q-17 26 -40.5 50.5t-57 42.5t-80 29t-109.5 11q-50 0 -95 -11 t-86 -32t-79 -53t-74 -72l1 227q25 28 61 52t79 42t92 28t104 10q50 0 92 -7t76.5 -17.5t60.5 -23.5q26 -11 44 -22v879q0 50 -15.5 98t-51 87t-93.5 63t-145 25q-73 0 -127 -16t-91 -41.5t-58.5 -54t-27.5 -52.5q17 -17 32.5 -38.5t26 -47.5t16.5 -56q5 -31 5 -62l4 -633 h-350zM896 -643q0 34 12.5 62.5t34.5 51t51 35t63 12.5q32 0 60 -12.5t50 -35t34 -50.5q14 -29 14 -63q0 -32 -12.5 -60.5t-35 -50.5t-51 -34.5t-60.5 -12.5q-34 0 -62.5 12.5t-50.5 34.5t-34.5 50.5t-12.5 60.5z" />
<glyph unicode="&#xe0f;&#xe3a;" horiz-adv-x="1286" d="M62 192h114v444q0 23 -4 47.5t-14.5 48.5t-29.5 45t-50 38q12 47 33 93.5t53 90t77 80.5t103 64t130 42.5t159 15.5q103 0 184.5 -19t141.5 -53t102 -80.5t67.5 -101t36.5 -115.5t11 -124l3 -1113h-235q-5 20 -14.5 44.5t-25.5 45.5t-37 35t-52 14q-28 0 -49 -14 t-36 -34.5t-21 -45t-6 -45.5h-199q0 16 -4 39.5t-17 46t-34 39.5t-51 17q-26 0 -44 -13.5t-30 -33.5t-17 -45.5t-5 -49.5h-187q0 84 22.5 145t61 100.5t85 57.5t94.5 18q70 0 124 -28t89 -80q19 25 43.5 44t50.5 31.5t52.5 18.5t49.5 6q52 0 89 -15.5t63 -38.5l-1 874 q0 50 -15.5 98t-51 87t-93.5 63t-145 25q-73 0 -127 -16t-91 -41.5t-58.5 -54t-27.5 -52.5q17 -17 32.5 -38.5t26 -47.5t16.5 -56q5 -31 5 -62l4 -633h-350zM896 -643q0 34 12.5 62.5t34.5 51t51 35t63 12.5q32 0 60 -12.5t50 -35t34 -50.5q14 -29 14 -63q0 -32 -12.5 -60.5 t-35 -50.5t-51 -34.5t-60.5 -12.5q-34 0 -62.5 12.5t-50.5 34.5t-34.5 50.5t-12.5 60.5z" />
<glyph unicode="&#xe0e;&#xe38;" horiz-adv-x="1286" d="M62 192h114v444q0 23 -4 47.5t-14.5 48.5t-29.5 45t-50 38q12 47 33 93.5t53 90t77 80.5t103 64t130 42.5t159 15.5q103 0 184.5 -19t141.5 -53t102 -80.5t67.5 -101t36.5 -115.5t11 -124l3 -1113h-230q-17 26 -40.5 50.5t-57 42.5t-80 29t-109.5 11q-50 0 -95 -11 t-86 -32t-79 -53t-74 -72l1 227q25 28 61 52t79 42t92 28t104 10q50 0 92 -7t76.5 -17.5t60.5 -23.5q26 -11 44 -22v879q0 50 -15.5 98t-51 87t-93.5 63t-145 25q-73 0 -127 -16t-91 -41.5t-58.5 -54t-27.5 -52.5q17 -17 32.5 -38.5t26 -47.5t16.5 -56q5 -31 5 -62l4 -633 h-350zM853 -479h323v-439h-221l3 259h-104z" />
<glyph unicode="&#xe0f;&#xe38;" horiz-adv-x="1286" d="M62 192h114v444q0 23 -4 47.5t-14.5 48.5t-29.5 45t-50 38q12 47 33 93.5t53 90t77 80.5t103 64t130 42.5t159 15.5q103 0 184.5 -19t141.5 -53t102 -80.5t67.5 -101t36.5 -115.5t11 -124l3 -1113h-235q-5 20 -14.5 44.5t-25.5 45.5t-37 35t-52 14q-28 0 -49 -14 t-36 -34.5t-21 -45t-6 -45.5h-199q0 16 -4 39.5t-17 46t-34 39.5t-51 17q-26 0 -44 -13.5t-30 -33.5t-17 -45.5t-5 -49.5h-187q0 84 22.5 145t61 100.5t85 57.5t94.5 18q70 0 124 -28t89 -80q19 25 43.5 44t50.5 31.5t52.5 18.5t49.5 6q52 0 89 -15.5t63 -38.5l-1 874 q0 50 -15.5 98t-51 87t-93.5 63t-145 25q-73 0 -127 -16t-91 -41.5t-58.5 -54t-27.5 -52.5q17 -17 32.5 -38.5t26 -47.5t16.5 -56q5 -31 5 -62l4 -633h-350zM853 -479h323v-439h-221l3 259h-104z" />
<glyph unicode="&#xe0e;&#xe39;" horiz-adv-x="1286" d="M62 192h114v444q0 23 -4 47.5t-14.5 48.5t-29.5 45t-50 38q12 47 33 93.5t53 90t77 80.5t103 64t130 42.5t159 15.5q103 0 184.5 -19t141.5 -53t102 -80.5t67.5 -101t36.5 -115.5t11 -124l3 -1113h-230q-17 26 -40.5 50.5t-57 42.5t-80 29t-109.5 11q-50 0 -95 -11 t-86 -32t-79 -53t-74 -72l1 227q25 28 61 52t79 42t92 28t104 10q50 0 92 -7t76.5 -17.5t60.5 -23.5q26 -11 44 -22v879q0 50 -15.5 98t-51 87t-93.5 63t-145 25q-73 0 -127 -16t-91 -41.5t-58.5 -54t-27.5 -52.5q17 -17 32.5 -38.5t26 -47.5t16.5 -56q5 -31 5 -62l4 -633 h-350zM434 -479h328v-159q0 -56 23.5 -85.5t74.5 -29.5q47 0 72 29q26 30 23 86l1 159h220v-159q0 -62 -17 -116.5t-54 -95t-98 -64.5t-149 -24q-82 0 -141.5 20.5t-98 56.5t-58.5 87.5t-22 114.5h-103z" />
<glyph unicode="&#xe0f;&#xe39;" horiz-adv-x="1286" d="M62 192h114v444q0 23 -4 47.5t-14.5 48.5t-29.5 45t-50 38q12 47 33 93.5t53 90t77 80.5t103 64t130 42.5t159 15.5q103 0 184.5 -19t141.5 -53t102 -80.5t67.5 -101t36.5 -115.5t11 -124l3 -1113h-235q-5 20 -14.5 44.5t-25.5 45.5t-37 35t-52 14q-28 0 -49 -14 t-36 -34.5t-21 -45t-6 -45.5h-199q0 16 -4 39.5t-17 46t-34 39.5t-51 17q-26 0 -44 -13.5t-30 -33.5t-17 -45.5t-5 -49.5h-187q0 84 22.5 145t61 100.5t85 57.5t94.5 18q70 0 124 -28t89 -80q19 25 43.5 44t50.5 31.5t52.5 18.5t49.5 6q52 0 89 -15.5t63 -38.5l-1 874 q0 50 -15.5 98t-51 87t-93.5 63t-145 25q-73 0 -127 -16t-91 -41.5t-58.5 -54t-27.5 -52.5q17 -17 32.5 -38.5t26 -47.5t16.5 -56q5 -31 5 -62l4 -633h-350zM434 -479h328v-159q0 -56 23.5 -85.5t74.5 -29.5q47 0 72 29q26 30 23 86l1 159h220v-159q0 -62 -17 -116.5 t-54 -95t-98 -64.5t-149 -24q-82 0 -141.5 20.5t-98 56.5t-58.5 87.5t-22 114.5h-103z" />
<glyph unicode="&#xd;" horiz-adv-x="553" />
<glyph unicode=" "  horiz-adv-x="487" />
<glyph unicode="&#x09;" horiz-adv-x="487" />
<glyph unicode="&#xa0;" horiz-adv-x="487" />
<glyph unicode="!" horiz-adv-x="725" d="M221 266h279l1 -266h-277zM235 1400h252l3 -440l-53 -576h-149l-50 576z" />
<glyph unicode="&#x22;" horiz-adv-x="856" d="M199 889v511h165v-511h-165zM490 889v511h168l-1 -511h-167z" />
<glyph unicode="#" horiz-adv-x="1149" d="M70 392l1 190h212l31 236h-194l2 186h218l56 396h189l-56 -396h186l55 396h190l-53 -396h170l-2 -186h-192l-32 -236h168v-190h-197l-53 -392h-195l56 392h-181l-57 -392h-190l53 392h-185zM476 582h182l31 236h-181z" />
<glyph unicode="$" horiz-adv-x="1132" d="M46 470h233q2 -119 59 -191.5t152 -92.5v433q-95 26 -170.5 57.5t-127.5 76.5t-78.5 106.5t-26.5 147.5q0 88 32 161.5t86.5 128.5t128.5 89q72 34 156 42v134h169v-134q160 -25 254.5 -134.5t133.5 -296.5h-229q-19 84 -57.5 137t-99.5 73l-2 -398q48 -8 99 -25.5 t97.5 -42t88.5 -58t72.5 -75.5t48.5 -94q16 -52 16 -114q0 -89 -31 -164.5t-87 -131.5t-133 -91q-77 -33 -171 -41l2 -164h-171l3 167q-98 12 -176.5 50.5t-135 101t-91 148.5t-44.5 195zM329 1026q0 -40 10.5 -67.5t31 -46.5t50.5 -31.5t70 -23.5l2 358q-37 -8 -67.5 -23.5 t-51.5 -38.5t-33 -55.5t-12 -71.5zM661 178q39 5 72.5 22t58 43t38 62.5t13.5 80.5q0 40 -14 70.5t-38 52.5t-57 37q-34 17 -73 28v-396z" />
<glyph unicode="%" horiz-adv-x="1972" d="M188 997q0 53 7 105t23.5 98t42 84t61.5 66t85 43t111 15q97 0 162 -32.5t103.5 -88t54.5 -129.5t16 -157q0 -53 -8.5 -103.5t-25 -96t-43.5 -83.5t-64.5 -66t-86 -43t-108.5 -15q-90 0 -153 30.5t-102 85t-57 129t-18 158.5zM384 1001q0 -39 4 -83t18 -80.5t40 -62 t69 -25.5q31 0 52.5 11.5t38 31t26 44t15 52.5t7 56.5t1.5 55.5q0 38 -3.5 81.5t-17.5 81t-41 62t-75 24.5q-42 0 -68.5 -24.5t-40.5 -62t-19.5 -81t-5.5 -81.5zM437 -28l865 1456h227l-860 -1456h-232zM1117 389q0 81 17 157t57 132.5t105 91t160 34.5t159 -33t101.5 -88.5 t53.5 -129.5t16 -158q0 -80 -18.5 -153.5t-58.5 -129.5t-102.5 -89.5t-150.5 -33.5q-92 0 -156.5 31.5t-105 86t-59 127.5t-18.5 155zM1316 392q0 -36 4 -79t18 -80t41 -62t71 -25q45 0 71.5 23.5t41.5 60t20 81.5t5 84q0 38 -4.5 82t-18.5 81.5t-40.5 62t-68.5 24.5 q-31 0 -52.5 -11.5t-37.5 -30.5t-26 -45t-15.5 -54t-7 -57.5t-1.5 -54.5z" />
<glyph unicode="&#x26;" horiz-adv-x="1281" d="M67 367q0 81 24 142.5t65 109t98 86t121 75.5q-26 33 -50.5 67.5t-44.5 72.5t-31.5 79t-11.5 87q0 61 21.5 115.5t65 95.5t105.5 66q64 24 145 24q70 0 136 -18.5t116 -56.5t81 -94t31 -129q0 -60 -20.5 -112.5t-54 -97.5t-77.5 -81t-94 -64l198 -236q14 44 22 88 q6 44 12 94h210q-7 -44 -12.5 -80t-11 -64.5t-12 -54t-14 -48.5t-18 -47.5t-24.5 -52.5l299 -333h-285l-133 148q-35 -43 -80 -74.5t-97 -53t-108 -32t-112 -10.5q-100 0 -173 21t-124 54.5t-82.5 77t-50 86.5t-24 82.5t-5.5 67.5zM294 370q0 -47 20.5 -84t53 -63t75.5 -40 q44 -14 89 -14q83 0 148.5 34t113.5 95q-74 83 -148.5 171t-144.5 167q-42 -26 -79.5 -51t-65.5 -57t-45 -70t-17 -88zM455 1081q0 -24 9 -48.5t24.5 -49.5t35.5 -51q19 -28 42 -53q25 18 53 38.5t50.5 44.5t36.5 53q16 29 16 66q0 24 -10.5 45.5t-28 37t-42.5 25t-56 9.5 q-25 0 -48 -7t-41.5 -21.5t-29.5 -36t-11 -52.5z" />
<glyph unicode="'" horiz-adv-x="567" d="M199 889v511h165v-511h-165z" />
<glyph unicode="(" horiz-adv-x="561" d="M85 528q0 117 19 235.5t58.5 233.5t96.5 225.5t136 211.5h192q-72 -115 -122.5 -225.5t-82 -222.5t-46 -225.5t-13.5 -232.5q0 -121 14 -234t45.5 -224.5t82 -223.5t120.5 -227h-193q-69 107 -125.5 214.5t-97 219.5t-62.5 230.5t-22 244.5z" />
<glyph unicode=")" horiz-adv-x="561" d="M-27 1434h192q79 -101 136 -211.5t96.5 -225.5t59 -234t19.5 -235q0 -126 -24 -244.5t-64.5 -230.5t-98 -219.5t-125.5 -214.5h-189q70 115 119.5 227t81 223.5t46.5 225.5q16 114 16 233t-15.5 232.5t-47.5 225.5t-82 222.5t-120 225.5z" />
<glyph unicode="*" horiz-adv-x="739" d="M39 1135l51 145l201 -73l-1 207h155v-207l195 73l59 -145l-206 -71l126 -172l-129 -86l-120 174l-121 -174l-131 86l120 172z" />
<glyph unicode="+" horiz-adv-x="1204" d="M85 619h422l3 425h186l-2 -425h418l2 -186h-418l-2 -422h-187l3 422h-422z" />
<glyph unicode="," horiz-adv-x="567" d="M143 -3l3 275h274v-226q0 -60 -15.5 -114.5t-49 -101t-84.5 -82t-123 -57.5l-2 161q28 9 49 25.5t35 36t21 42t7 41.5h-115z" />
<glyph unicode="-" horiz-adv-x="928" d="M85 619h752l3 -186h-752z" />
<glyph unicode="." horiz-adv-x="567" d="M143 -3l3 275h274l-1 -275h-276z" />
<glyph unicode="/" horiz-adv-x="739" d="M-25 -28l571 1462h218l-581 -1462h-208z" />
<glyph unicode="0" horiz-adv-x="1108" d="M60 686q0 56 2 115.5t10.5 119.5t23.5 118.5t39.5 110t60.5 96.5t86.5 77t118 50.5t151.5 18.5q114 0 195.5 -32.5t136 -85.5t86.5 -124t48.5 -149t21 -160t4.5 -155q0 -59 -2.5 -120.5t-9.5 -123t-22.5 -119t-39.5 -109.5t-60 -95t-86.5 -75.5t-118 -49t-153.5 -16.5 t-152.5 16.5t-117 49t-86.5 75.5t-60.5 95t-39.5 109.5t-23.5 119t-10.5 123t-2 120.5zM298 686q0 -48 2 -104t9 -112t22.5 -107.5t43.5 -92t71.5 -65t105.5 -24.5q63 0 107 24.5t72 65t43.5 92t22.5 107.5t8 112t1 104q0 46 -2 101.5t-10.5 111.5t-24.5 108.5t-44 93 t-70 65t-103 24.5q-59 0 -101 -24.5t-70 -65t-45 -93t-25.5 -108.5t-10.5 -111.5t-2 -101.5z" />
<glyph unicode="1" horiz-adv-x="1108" d="M143 903l3 203q74 4 137.5 14.5t114 37t85.5 76.5t52 134h200l1 -1368h-226v963q-69 -32 -159.5 -45.5t-207.5 -14.5z" />
<glyph unicode="2" horiz-adv-x="1108" d="M46 0q9 85 28.5 154.5t48 126t66.5 102t80 84t88 71t91 61.5q87 56 148.5 99.5t102 84t60 85.5t19.5 104q0 47 -18 86.5t-49 66.5t-71.5 42t-87.5 15q-65 0 -111 -28t-75.5 -74.5t-42.5 -105.5q-12 -61 -8 -123h-230q-7 76 4.5 146t38.5 128.5t69 106.5t97.5 82t122 52.5 t143.5 18.5q95 0 179 -27.5t147 -80.5t99 -130t36 -178q0 -65 -15 -118.5t-39.5 -99t-58 -83.5t-72 -69t-79.5 -58q-43 -27 -82 -51q-56 -34 -110.5 -69t-102.5 -70.5t-83 -72.5t-50 -74h682l1 -204h-966z" />
<glyph unicode="3" horiz-adv-x="1108" d="M53 451h235q0 -65 15.5 -116.5t45 -87.5t75.5 -55.5t107 -19.5q58 0 107 16t84 45t54 71q19 40 19 94t-19.5 96t-54.5 69.5t-82.5 41.5t-103.5 14h-21.5h-22.5t-25 -1q-12 -2 -29 -2v190h77q45 0 86 12t72 35t50 58t19 80q0 46 -16.5 82t-44.5 59.5t-67 36.5t-84 13 q-59 0 -99.5 -22.5t-65.5 -60.5t-36.5 -89.5t-11.5 -109.5h-235q3 108 32.5 197t85.5 152.5t138.5 99.5t191.5 36q97 0 179 -24.5t142.5 -73.5t95 -123.5t34.5 -175.5q0 -84 -38 -147t-105 -110q51 -20 88.5 -51.5t62 -73.5t36.5 -94q12 -53 12 -112q0 -67 -18 -124.5 t-49 -105t-74 -84.5q-44 -38 -94 -64q-28 -15 -61 -24t-67.5 -14.5t-69.5 -7t-71 -1.5q-111 0 -199.5 29.5t-151 89.5t-95.5 149q-33 90 -33 208z" />
<glyph unicode="4" horiz-adv-x="1108" d="M48 287v200l627 881h204l-3 -870h188l1 -211h-186v-287h-225l-2 287h-604zM298 498h352l2 482q-44 -60 -87.5 -119t-87 -118.5t-87.5 -119.5t-92 -125z" />
<glyph unicode="5" horiz-adv-x="1108" d="M62 421h229q6 -51 25.5 -94.5t51.5 -76.5t77 -51t101 -18q53 0 100.5 17.5t82.5 53.5t55 89.5t20 126.5q0 58 -20 108t-55.5 85.5t-86.5 55t-113 19.5q-39 0 -72 -9t-61.5 -25.5t-55.5 -39.5q-26 -24 -52 -49l-200 6l139 749h743v-200h-558l-56 -282q47 31 101.5 41.5 t110.5 10.5q101 0 188 -31t151.5 -91t100.5 -151t36 -211q0 -93 -32 -177.5t-95.5 -149.5t-159.5 -104.5t-225 -39.5q-95 0 -179 28t-148.5 83.5t-102.5 137.5t-40 189z" />
<glyph unicode="6" horiz-adv-x="1108" d="M55 645q0 96 10.5 189t35.5 175.5t65.5 152.5t99.5 120.5t138.5 80t186.5 29.5q91 0 164.5 -24.5t128 -73.5t87.5 -123q31 -73 43 -170h-230q-11 97 -64.5 140t-142.5 43q-53 0 -94 -16t-71.5 -43t-51.5 -65t-35 -80t-22 -88t-12 -91q28 26 64.5 48t75.5 37.5t82 23.5 t86 8q109 0 193 -36t141 -98.5t87 -147t30 -180.5q0 -53 -10 -109t-33 -109t-60 -100.5t-91.5 -83.5t-127.5 -56t-167 -20q-109 0 -189.5 29t-136.5 79t-91 116.5t-54.5 140.5t-27 152t-7.5 150zM314 445q0 -56 16.5 -105t50 -84t81.5 -55t106.5 -20t105 20t78.5 56t47 83 q16 49 16 102q0 56 -15.5 105t-46.5 86.5t-77 59t-107.5 21.5t-109 -21t-80 -57.5t-49 -85.5t-16.5 -105z" />
<glyph unicode="7" horiz-adv-x="1108" d="M78 1156v212h955v-175q-70 -67 -134.5 -152t-121 -182t-103.5 -203.5t-81 -217t-56 -221.5t-27 -217h-255q11 168 51.5 328.5t106.5 306.5t152 277.5t187 243.5h-674z" />
<glyph unicode="8" horiz-adv-x="1108" d="M59 413q0 109 49 196q49 85 150 136q-35 22 -63 53t-48 67.5t-30.5 75.5t-10.5 80q0 89 36.5 158.5t97 116.5t139.5 71q77 25 164 25q121 0 206 -32.5t139 -84t80 -118t26 -136.5q-1 -184 -150 -273q100 -51 153 -136.5t53 -198.5q0 -106 -39 -186.5t-105 -136.5 t-155.5 -84t-189.5 -28q-106 0 -197.5 26.5t-159 81t-106.5 137t-39 190.5zM297 407q0 -54 19.5 -96t54.5 -71.5t83 -44.5q47 -14 106 -14q56 0 102 16t79 46.5t50.5 72.5t17.5 94q0 46 -19.5 87t-54.5 70t-81 46t-97 17q-53 0 -100.5 -15.5t-83.5 -44t-56 -70.5t-20 -93z M344 1012q0 -45 17.5 -79t48 -58t69.5 -35t81 -11t77.5 12.5t61.5 36.5t41.5 57.5t15.5 76.5q0 42 -15.5 75t-42 54t-63.5 32q-36 11 -81 11q-39 0 -78 -10.5t-68.5 -31.5t-47 -53t-16.5 -77z" />
<glyph unicode="9" horiz-adv-x="1108" d="M56 913q0 53 10 109t33.5 109t61.5 100t92.5 83t127.5 57t165 21q83 0 148 -17t116.5 -48t89 -71.5t64 -89.5t44 -104t26.5 -112.5t12.5 -115t3.5 -112.5q0 -95 -10 -188t-33.5 -175.5t-64 -152.5t-99.5 -121t-140 -79t-185 -28q-92 0 -166.5 23.5t-129 72.5t-86.5 122 t-42 171h228q10 -97 63 -140q55 -44 144 -44q53 0 94 16.5t71 43.5t51 64t35.5 80.5t23.5 89.5q8 47 12 91q-29 -26 -65 -48t-75.5 -37t-81.5 -23.5t-84 -8.5q-110 0 -194 35t-142 98t-88 147t-30 182zM290 927q0 -56 15.5 -106t46 -87t77.5 -58.5t108.5 -21.5t109 21t80 58 t49 86t16.5 105t-17.5 105t-50 84t-80.5 54.5t-109 19.5q-59 0 -104.5 -21t-77 -56t-47 -82.5t-16.5 -100.5z" />
<glyph unicode=":" horiz-adv-x="567" d="M143 -3l3 275h274l-1 -275h-276zM144 1018h276v-276h-274z" />
<glyph unicode=";" horiz-adv-x="567" d="M143 -3l3 275h274v-226q0 -60 -15.5 -114.5t-49 -101t-84.5 -82t-123 -57.5l-2 161q28 9 49 25.5t35 36t21 42t7 41.5h-115zM144 1018h276v-276h-274z" />
<glyph unicode="&#x3c;" horiz-adv-x="1278" d="M115 613l1046 468l-2 -192l-788 -358l787 -356l1 -189l-1043 465z" />
<glyph unicode="=" horiz-adv-x="1195" d="M87 241l1 180h1018l-3 -180h-1016zM87 630l1 182h1018l-3 -182h-1016z" />
<glyph unicode="&#x3e;" horiz-adv-x="1278" d="M115 -14v189l789 356l-789 358l3 192l1041 -468v-162z" />
<glyph unicode="?" horiz-adv-x="1152" d="M143 921q-3 112 28.5 206.5t93 162.5t149 106t196.5 38q98 0 178.5 -27.5t139 -80t90.5 -128.5q35 -75 35 -172q-2 -61 -19.5 -109.5t-45.5 -87t-60 -70t-63 -59.5q-28 -25 -54.5 -51t-47 -54.5t-33 -63.5t-12.5 -80l-1 -104h-230l2 121q2 58 19.5 105t44.5 85.5t58 70.5 q33 33 61 62q22 24 49 50.5t48.5 57.5t35 67t11.5 78q-5 42 -20.5 77t-41.5 60.5t-62.5 38t-82.5 12.5q-63 0 -108 -25t-74 -67t-43 -100q-12 -57 -12 -119h-229zM459 266h279l1 -266h-277z" />
<glyph unicode="@" horiz-adv-x="1628" d="M-65 903.5q8 91.5 39.5 171.5t86 145t126.5 111.5t161 71.5t191 25q92 0 182.5 -20.5t174 -58t157.5 -91.5t133 -120t100 -144t61 -165q17 -81 7 -148.5t-37.5 -120.5t-70 -93.5t-91.5 -67.5t-102 -38t-102 -8q-37 3 -74 21t-71 56q-37 -34 -84 -58.5t-100 -24.5 q-56 0 -108 22t-94 59.5t-72 88.5t-42.5 110t-12 118t14.5 112t41.5 99t67 80t91 52t114.5 18q22 0 48.5 -5.5t54.5 -18t55 -36.5q26 -24 47 -58q2 9 3.5 20t2.5 24.5t2.5 26t4.5 22.5h146l-44 -496q-1 -19 0.5 -39.5t7.5 -37.5t18 -27.5t33 -10.5q27 0 52.5 13t49 35 t41.5 53t29 70t12.5 84t-9.5 95q-25 114 -84 199.5t-141.5 143.5t-179.5 87q-96 30 -197 30q-81 0 -150.5 -21t-124.5 -59t-94.5 -91t-62 -117.5t-26.5 -139t13 -155.5q17 -80 53 -153.5t87.5 -136.5t115 -114t135 -88t150 -56.5t156.5 -19.5q64 0 127 9.5t120 32t104 57.5 t80 88h184q-42 -88 -104.5 -151t-139 -103t-164 -58t-179.5 -18q-106 0 -207 25t-195 71.5t-175.5 111.5t-147 145.5t-111.5 174.5t-68 197q-23 101 -15 192.5zM459 707q0 -38 7 -71q6 -31 22 -57t37 -45t47.5 -30t57.5 -11q34 0 61 16t48 42t36 61t22.5 71.5t8 74 t-7.5 71.5q-6 25 -18.5 49t-31.5 43.5t-42.5 32t-50.5 12.5q-39 0 -71 -15.5t-54.5 -40.5t-38 -58.5t-24 -70t-8.5 -74.5z" />
<glyph unicode="A" horiz-adv-x="1349" d="M0 0l535 1400h269l546 -1400h-278l-141 392h-533q-20 -50 -37.5 -98.5t-34.5 -97t-33 -97.5q-19 -49 -35 -99h-258zM484 608h364l-184 513z" />
<glyph unicode="B" horiz-adv-x="1349" d="M132 1400h565q63 0 127 -5.5t121 -19t107 -38t87 -63.5t58 -96.5t21 -133.5q0 -102 -36.5 -175.5t-113.5 -123.5q51 -23 90 -55t65 -74.5t40 -93t14 -106.5q0 -52 -13.5 -102.5t-39.5 -96.5t-63.5 -86t-88 -68.5t-112 -45.5t-134.5 -17h-692zM378 1187l3 -364h327 q70 0 120.5 11.5t83 34.5t47 57t14.5 81q0 44 -8.5 75.5t-24.5 52t-40 31t-54 15.5t-65.5 5.5t-74.5 0.5h-328zM379 210h419q56 0 99.5 14t73 42t44.5 68t15 90q0 56 -23.5 92t-61.5 57t-86 29t-97 8h-381z" />
<glyph unicode="C" horiz-adv-x="1422" d="M64 694q0 104 20 198t59 176.5t96.5 149t133 114t169.5 73.5t206 26q116 0 216 -30t177.5 -90.5t129.5 -150.5q53 -90 73 -211h-253q-14 73 -44.5 124t-75 84t-102 48.5t-124.5 15.5q-76 0 -137.5 -19.5t-109 -54.5t-83.5 -83t-59 -105t-34 -121t-11 -130q0 -107 25 -203 t78.5 -168t136 -114t197.5 -42q84 0 148 27t109 77t70 118q25 70 31 151h246q-14 -140 -60 -248.5t-123.5 -182t-186 -111t-248.5 -37.5q-112 0 -205.5 25t-168 70.5t-130 110.5t-92.5 145t-55 173q-19 95 -19 195z" />
<glyph unicode="D" horiz-adv-x="1387" d="M132 1400h497q168 0 297.5 -41.5t219 -124.5t135.5 -207.5t46 -292.5q0 -177 -40.5 -313.5t-126 -229.5t-216.5 -142q-132 -49 -314 -49h-496zM378 1187l1 -977h265q22 0 52.5 2t65.5 10t72 22.5t73.5 39.5t68 61.5t56 87.5t37.5 118.5t13 154.5q0 114 -23 204t-75 151.5 t-135 93.5q-85 32 -202 32h-269z" />
<glyph unicode="E" horiz-adv-x="1204" d="M132 1400h1013l-1 -213h-766l3 -364h711v-213h-711l-2 -400h769l1 -210h-1015z" />
<glyph unicode="F" horiz-adv-x="1132" d="M132 1400h964l-1 -213h-717l3 -364h626l-2 -213h-624v-610h-247z" />
<glyph unicode="G" horiz-adv-x="1493" d="M63 675q0 101 19 196t58 179t96.5 154t134.5 120.5t172 78.5t210 28t220 -26.5t187.5 -85.5t136.5 -153q55 -94 69 -228h-243q-14 78 -48.5 131.5t-82.5 87t-110 49t-129 15.5q-78 0 -141 -21t-113 -57.5t-85.5 -87.5t-58.5 -110.5t-34.5 -125.5t-11.5 -133 q0 -66 13.5 -129.5t38.5 -119.5t63 -103t87 -81.5t109 -53t133 -18.5q93 0 165.5 29t126 79.5t82.5 118.5t34 146h-439l-2 212h669l3 -766h-177l-42 129q-43 -39 -93.5 -68.5t-104.5 -48.5t-110.5 -28t-111.5 -9q-108 0 -201 25t-170 72.5t-135.5 112t-99.5 142.5t-62 166 q-22 89 -22 182z" />
<glyph unicode="H" horiz-adv-x="1422" d="M132 1400h247l2 -577h661l-3 577h246l3 -1400h-246l-3 610h-658v-610h-247z" />
<glyph unicode="I" horiz-adv-x="555" d="M153 1400h246l1 -1400h-246z" />
<glyph unicode="J" horiz-adv-x="1026" d="M22 395v106h252l-2 -85q0 -53 8 -96t29 -74.5t57.5 -48t94.5 -16.5q53 0 87 14.5t55 42.5t29.5 66t8.5 85l2 1011h247l-1 -1028q0 -50 -9 -99.5t-28.5 -94t-53.5 -82t-82 -65.5t-113 -43.5t-149 -15.5q-105 0 -186.5 27.5t-136 81t-82.5 133.5q-27 77 -27 181z" />
<glyph unicode="K" horiz-adv-x="1352" d="M132 1400h247v-626l629 626h323l-595 -571l608 -829h-297l-481 659q-48 -44 -93 -89.5t-94 -90.5l2 -479h-247z" />
<glyph unicode="L" horiz-adv-x="1086" d="M132 1400h247v-1190h698l1 -210h-944z" />
<glyph unicode="M" horiz-adv-x="1702" d="M132 1400h330l385 -1096l386 1096h332l3 -1400h-246l-3 1009q-45 -130 -90 -256t-89.5 -250.5t-90 -249t-91.5 -253.5h-213l-364 1012v-1012h-247z" />
<glyph unicode="N" horiz-adv-x="1428" d="M132 1400h282l632 -1044l-2 1044h247l3 -1400h-285l-631 1036l3 -1036h-247z" />
<glyph unicode="O" horiz-adv-x="1496" d="M55 700q0 95 18.5 187t58 173t97 149t133 117t172 77t211.5 28q116 0 212.5 -28t173.5 -77t134.5 -117t96 -149t56.5 -173t18 -187t-18 -187t-56.5 -172.5t-96.5 -147.5t-135 -116t-173 -75.5t-212 -26.5q-115 0 -211.5 26.5t-173 75.5t-134 116t-96 147.5t-57 172.5 t-18.5 187zM301 700q0 -64 10.5 -128t34.5 -122t59 -107t84 -85.5t112 -56.5q65 -20 144 -20q81 0 144 20t113.5 56.5t85.5 85.5t57.5 107t33.5 122t11 128t-11 128t-33.5 122t-58.5 107t-85.5 86t-114 57.5t-143 20.5t-142.5 -20.5t-113 -57.5t-84 -86t-59 -107t-34.5 -122 t-10.5 -128z" />
<glyph unicode="P" horiz-adv-x="1278" d="M132 1400h628q115 0 200.5 -28.5t143 -83.5t86 -134t28.5 -182q0 -101 -29.5 -179.5t-86 -133t-142.5 -82.5q-83 -27 -193 -27h-8h-381l3 -550h-247zM378 1187l3 -428h318h16q61 0 107 13q52 15 85.5 41.5t49.5 67t17 91.5q0 105 -68.5 160t-208.5 55h-319z" />
<glyph unicode="Q" horiz-adv-x="1496" d="M55 700q0 95 18.5 187t58 173t97 149t133 117t172 77t211.5 28q116 0 212.5 -28t173.5 -77t134.5 -117t96 -149t56.5 -173t18 -187q0 -76 -11 -148t-34 -138.5t-57.5 -126t-81.5 -109.5l190 -153l-132 -162l-232 186q-70 -36 -152.5 -55t-180.5 -19q-115 0 -211.5 26.5 t-173 75.5t-134 116t-96 147.5t-57 172.5t-18.5 187zM301 700q0 -64 10.5 -128t34.5 -122t59 -107t84 -85.5t112 -56.5q65 -20 144 -20q42 0 77 4.5t66 16.5l-128 105l136 161l179 -143q31 36 52 79.5t35 92.5t21 99.5t7 103.5q0 64 -11 128t-33.5 122t-58.5 107t-85.5 86 t-114 57.5t-143 20.5t-142.5 -20.5t-113 -57.5t-84 -86t-59 -107t-34.5 -122t-10.5 -128z" />
<glyph unicode="R" horiz-adv-x="1349" d="M132 1400h674q108 0 193 -26.5t142 -75t88 -119t31 -161.5q0 -55 -10 -106t-31 -95t-54 -80q-34 -34 -79 -59q48 -31 74.5 -74.5t42 -93t22.5 -102t11 -101.5q6 -38 8 -76.5t12 -77t29.5 -77t58.5 -76.5h-280q-18 20 -30 43t-18.5 50t-9 58t-4.5 67q-2 37 -5 76t-10 77 t-20.5 73.5t-36.5 63t-57 45.5t-83 21h-411l2 -574h-247zM378 780h344q56 0 109.5 9t94 33t64.5 66t24 103q0 45 -13 81.5t-40 61.5t-68.5 39t-98.5 14h-416v-407z" />
<glyph unicode="S" horiz-adv-x="1278" d="M62 493h235q0 -87 28 -146t77.5 -96.5t115.5 -53.5t140 -16q59 0 115.5 9t102 32.5t73.5 64.5t28 105q0 36 -14.5 64t-39 50t-59.5 38t-75.5 28.5t-86 22.5t-93.5 18q-62 13 -124 27.5t-119.5 34t-106.5 47.5t-85.5 68t-57.5 94t-21 125q0 73 21 132.5t57.5 106t86 81.5 t109 57t125.5 33.5t133 11.5q112 0 206.5 -26.5t164 -82.5t110 -146t47.5 -216h-235q-9 75 -32.5 124.5t-62 80.5t-90.5 43.5t-118 12.5q-51 0 -100 -10t-88.5 -33t-63 -61t-23.5 -94q0 -46 27 -76.5t73.5 -52.5t107 -36.5t128.5 -28.5q64 -14 128.5 -28t124.5 -35 t113.5 -51t92.5 -73.5t61.5 -103t22.5 -140.5q0 -79 -24 -140.5t-64.5 -108.5t-95 -80t-117.5 -54t-131.5 -30.5t-136.5 -9.5q-82 0 -157.5 12t-141 37.5t-120 67t-92 99.5t-58.5 133q-21 74 -21 169z" />
<glyph unicode="T" horiz-adv-x="1138" d="M14 1187v213h1105l-2 -213h-432l4 -1187h-247l-4 1187h-424z" />
<glyph unicode="U" horiz-adv-x="1439" d="M132 1400h247l2 -888q0 -168 87 -250q89 -81 263 -81q162 0 243 82q82 81 84 249l-2 888h246l3 -888q0 -135 -39.5 -236.5t-112 -169t-180.5 -101t-245 -33.5q-143 0 -253 31.5t-186 98t-115.5 168.5t-39.5 242z" />
<glyph unicode="V" horiz-adv-x="1250" d="M-1 1400h268l359 -1096l361 1096h262l-493 -1400h-272z" />
<glyph unicode="W" horiz-adv-x="1811" d="M-1 1400h253l249 -1022q66 258 134 511t135 511h266l272 -1028l252 1028h250l-374 -1400h-257l-284 1050l-282 -1050h-252z" />
<glyph unicode="X" horiz-adv-x="1261" d="M0 0l476 722l-452 678h298l308 -491l319 491h282l-458 -680l488 -720h-301l-333 512l-343 -512h-284z" />
<glyph unicode="Y" horiz-adv-x="1327" d="M-1 1400h298l372 -602l367 602h288l-539 -834l3 -566h-249l-1 563z" />
<glyph unicode="Z" horiz-adv-x="1297" d="M67 192l818 995h-751v213h1067l3 -196l-812 -994h837v-210h-1160z" />
<glyph unicode="[" horiz-adv-x="539" d="M120 -381l2 1815h402v-187h-180v-1443h180l-2 -185h-402z" />
<glyph unicode="\" horiz-adv-x="739" d="M-27 1434h217l572 -1462h-212z" />
<glyph unicode="]" horiz-adv-x="539" d="M13 1247l1 187h400l-1 -1815h-399l1 185h175v1443h-177z" />
<glyph unicode="^" horiz-adv-x="1195" d="M73 528l431 854h188l428 -854h-181l-343 682l-330 -682h-193z" />
<glyph unicode="_" horiz-adv-x="1012" d="M17 -132h980v-163h-980v163z" />
<glyph unicode="`" horiz-adv-x="555" d="M56 1434h266l174 -290h-180z" />
<glyph unicode="a" horiz-adv-x="1072" d="M53 274q0 66 17 113t46.5 80t70.5 54.5t89.5 37t103 26.5t110.5 25q39 10 79.5 20t74.5 22.5t55 29.5t21 40q0 41 -16.5 64t-42 34.5t-59.5 14t-67 2.5q-45 0 -80.5 -6t-63 -25t-43 -52.5t-16.5 -88.5h-235q2 108 40 180t99 115.5t142 62.5t171 19q47 0 97 -5t95.5 -17 t84.5 -33t68 -54t45 -79q16 -48 17 -109v-496q0 -32 2 -47q0 -16 14 -16q2 0 8 1t14 2t22 7t34 14v-188q-34 -23 -66 -34q-35 -10 -77 -10q-31 0 -57.5 5.5t-48 19.5t-37.5 35t-23 52q-31 -27 -69 -48.5t-79 -35.5t-86 -21t-90 -7q-74 0 -140.5 16t-115.5 51.5t-78 92.5 q-30 55 -30 136zM294 287q0 -29 12.5 -49.5t35 -33t52 -18t61.5 -5.5q73 0 122.5 17.5t82 45.5t46.5 60t14 60l1 129q-42 -17 -91 -30q-48 -12 -90 -23q-44 -12 -89 -24.5t-80 -28.5t-56 -40t-21 -60z" />
<glyph unicode="b" horiz-adv-x="1181" d="M106 1400h236v-470q28 32 63 55t72.5 38.5t78 24t80.5 8.5q82 0 150 -21t122 -57.5t94 -87t66.5 -110.5t40.5 -127.5t14 -137.5q0 -112 -29.5 -210t-89 -170.5t-150 -114.5t-213.5 -42q-39 0 -78 5.5t-77 20t-74.5 39t-69.5 61.5l2 -104h-235zM335 515q0 -64 14.5 -123.5 t47.5 -106t87 -74.5t131 -28q74 0 124.5 29t80.5 77t42 110t12 126q0 60 -15 118t-48 103.5t-84.5 73.5t-124.5 28q-74 0 -125 -29t-82.5 -77t-45.5 -106.5t-14 -120.5z" />
<glyph unicode="c" horiz-adv-x="1072" d="M52 496q0 114 31.5 213.5t93 173t156.5 116.5t224 43q91 0 171.5 -22.5t141.5 -69t101 -119t51 -174.5h-235q-10 51 -30.5 86t-48.5 56t-63.5 29.5t-77.5 8.5q-80 0 -133 -28t-86.5 -75.5t-47 -109t-13.5 -128.5q0 -61 15.5 -117.5t47.5 -100.5t82 -70.5t120 -26.5 q107 0 163 53q58 54 75 166h240q-19 -103 -57 -181.5t-96 -132.5t-138.5 -81t-186.5 -27q-125 0 -218 38.5t-156 107.5t-94.5 164.5t-31.5 207.5z" />
<glyph unicode="d" horiz-adv-x="1181" d="M56 515q0 70 12.5 137.5t39 127.5t67.5 110.5t95.5 87t123 57.5t149.5 21q39 0 80 -8t78.5 -22.5t71 -38.5t61.5 -57v470h236l2 -1400h-235l-3 104q-33 -37 -67.5 -61.5t-71.5 -39t-76 -20t-81 -5.5q-124 0 -213.5 42t-149.5 114.5t-89.5 170.5t-29.5 210zM301 525 q0 -64 13.5 -126t44 -110t80.5 -77t124 -29q78 0 131.5 28t87 74.5t49 106t15.5 123.5q0 60 -15.5 119.5t-48 107.5t-84 77t-124.5 29t-124.5 -28t-85.5 -73.5t-48.5 -103.5t-14.5 -118z" />
<glyph unicode="e" horiz-adv-x="1072" d="M53 512q0 121 36.5 218t102.5 166.5t158 107.5t204 38q87 0 158.5 -24.5t127.5 -67.5t95 -100.5t65 -125.5q24 -69 34 -143q8 -61 8 -124v-27h-749q2 -52 20.5 -97t51.5 -79t82 -54q49 -19 116 -19q42 0 79 9t67 28.5t52 53.5q20 33 34 81h230q-20 -95 -60.5 -166.5 t-100.5 -118t-137 -68.5t-168 -22q-129 0 -225 39t-158.5 110.5t-92.5 170.5q-30 97 -30 214zM294 633h500q-9 40 -30.5 77.5t-53.5 65.5t-74 44.5t-90 16.5q-50 0 -92 -16t-74.5 -43.5t-53.5 -64.5q-24 -38 -32 -80z" />
<glyph unicode="f" horiz-adv-x="656" d="M32 1018h156l1 144v6q0 66 20 116q21 53 60 88.5t98 54t134 18.5q28 0 61.5 -6.5t64.5 -18.5v-213q-32 17 -62 22.5t-51 5.5q-45 0 -69 -18q-22 -19 -22 -63v-136h183l2 -217h-185l1 -801h-235l-1 801h-154z" />
<glyph unicode="g" horiz-adv-x="1146" d="M53 504q0 59 10 122t33.5 122.5t61.5 112.5t92.5 93t128.5 64q72 24 167 24q80 0 147 -26q66 -25 119 -78v80h224v-952q0 -126 -29.5 -219t-91 -155.5t-156.5 -93.5t-226 -31q-49 0 -100 8.5t-99 27t-91.5 46.5t-76.5 66.5t-53.5 88.5t-22.5 112h232q3 -41 25.5 -69.5 t56 -48t71.5 -28.5q37 -8 74 -8q73 0 123 21.5t81 62.5t45 99t14 129l3 21q-59 -52 -133 -79t-150 -27q-120 0 -210 42t-150 112t-89.5 163.5t-29.5 197.5zM294 518q0 -59 12 -117t40.5 -105t76 -77t117.5 -30q75 0 125 30t80.5 77.5t44.5 108t14 120.5q0 56 -13 112.5 t-42 101t-77 71.5t-116 27q-72 0 -121 -26t-80.5 -70t-46 -101.5t-14.5 -121.5z" />
<glyph unicode="h" horiz-adv-x="1111" d="M106 1400h236l1 -465q29 25 64 45t72.5 34t74.5 22q40 8 73 8q111 0 183 -29t115.5 -80.5t60 -120.5t16.5 -152l2 -662h-235l-2 678q-1 75 -42.5 117t-122.5 42q-64 0 -113 -21t-81.5 -57.5t-48.5 -83.5q-17 -48 -17 -101l2 -574h-235z" />
<glyph unicode="i" horiz-adv-x="492" d="M126 1141v259h235v-259h-235zM127 1018h234l3 -1018h-235z" />
<glyph unicode="j" horiz-adv-x="492" d="M-31 -192q20 -3 34 -3.5t25 -2t20 -1.5h19q17 0 29 5.5t19 18.5t9 32.5t2 47.5l1 1113h234l3 -1138q0 -76 -21 -131.5t-56.5 -90.5t-87 -51.5t-112.5 -16.5q-28 0 -59 2t-57 8zM126 1141v259h235v-259h-235z" />
<glyph unicode="k" horiz-adv-x="1072" d="M106 1400h233l1 -749l387 367h312l-412 -380l429 -638h-285l-319 476l-113 -101l3 -375h-233z" />
<glyph unicode="l" horiz-adv-x="492" d="M126 1400h235l3 -1400h-235z" />
<glyph unicode="m" horiz-adv-x="1685" d="M106 1018h227l3 -100q56 61 126 91t160 30q42 0 84 -8.5t79.5 -25.5t70 -41.5t54.5 -57.5q56 67 131 100t166 33q84 0 152 -18.5t116 -56t74 -97.5q25 -59 25 -142l2 -725h-235l-1 671q0 37 -8 68t-26 52t-48 32t-76 11q-54 0 -95 -14.5t-70 -42t-43 -66.5 q-14 -36 -14 -83v-6v-622h-235l-1 654q0 39 -6.5 72t-23 56.5t-46 37.5t-74.5 14t-78.5 -11t-59.5 -29t-43.5 -40.5t-28.5 -46.5t-15.5 -46.5t-4.5 -38.5v-622h-235z" />
<glyph unicode="n" horiz-adv-x="1111" d="M106 1018h227v-105q51 59 122 92.5t169 33.5q111 0 184.5 -29.5t115.5 -79.5q42 -51 60 -121q17 -66 17 -143v-9l3 -657h-233l-2 675q0 75 -43.5 117t-126.5 42q-64 0 -112.5 -21t-80.5 -57t-48 -84q-15 -45 -15 -95v-6l1 -571h-235z" />
<glyph unicode="o" horiz-adv-x="1143" d="M52 507q0 112 33 210t98.5 170t162 113.5t227.5 41.5q128 0 224 -41.5t162 -113.5t98 -169q32 -99 32 -211q0 -76 -14 -143t-43.5 -126t-72.5 -107t-100.5 -82.5t-129 -52.5t-156.5 -18q-129 0 -226.5 40.5t-163 112t-98.5 168t-33 208.5zM293 507q0 -81 21.5 -141.5 t59.5 -101.5t89 -62q49 -21 108 -21q56 0 106.5 21t87.5 62t59 102q22 60 22 141q0 78 -21 139.5t-59 103.5t-87.5 64.5t-105.5 22.5q-59 0 -109.5 -22.5t-88.5 -64.5t-60 -103.5t-22 -139.5z" />
<glyph unicode="p" horiz-adv-x="1181" d="M106 -381v1399h236v-102q33 36 69.5 60t75 38.5t78.5 21t79 6.5q123 0 212.5 -43t149 -116.5t88.5 -171.5t29 -210q0 -70 -13.5 -136.5t-39.5 -126t-66.5 -110t-93.5 -87.5t-121 -57t-151 -20q-39 0 -79.5 7t-79.5 22t-74 39t-63 58v-471h-236zM335 501q0 -60 14 -119.5 t45.5 -106.5t83 -76.5t124.5 -29.5t125.5 28t85.5 73.5t48 104t15 118.5q0 64 -13 125.5t-44 109.5t-81.5 77t-124.5 29q-77 0 -131 -28t-86.5 -74t-47.5 -106q-13 -53 -13 -110v-15z" />
<glyph unicode="q" horiz-adv-x="1181" d="M56 501q0 112 29.5 210t88 171.5t148.5 116.5t213 43q39 0 79 -6.5t78.5 -21t73.5 -38.5t68 -60v102h236v-1399h-236l2 471q-28 -33 -62.5 -57.5t-73 -39.5t-78.5 -22q-42 -7 -82 -7q-82 0 -150 20t-121 57t-94 87.5t-67.5 110t-39 126t-12.5 136.5zM302 493 q0 -60 15.5 -118.5t48 -104t84 -73.5t124.5 -28q74 0 126 29.5t84 76.5t47 107t15 119q0 65 -16.5 125t-49 106t-86.5 74q-53 28 -131 28q-74 0 -124 -29t-80.5 -77t-43.5 -109.5t-13 -125.5z" />
<glyph unicode="r" horiz-adv-x="690" d="M106 1018h227l3 -126q29 38 60.5 66t72.5 46t90 26.5t114 8.5v-230q-100 0 -164.5 -24.5t-101.5 -70t-51 -111t-14 -149.5l2 -454h-235z" />
<glyph unicode="s" horiz-adv-x="1000" d="M36 364h236q4 -55 25 -90.5t53 -57t73.5 -30t86.5 -8.5q33 0 69 5t65 17.5t48 33.5t21 56q0 31 -21 52t-55.5 35.5t-79.5 25.5t-91 21q-45 9 -93 21.5t-93 30t-85 40t-70 54.5t-46.5 72.5t-16.5 94t16.5 97.5t45.5 77.5t68.5 58t85 40t95.5 24t99 8.5q88 0 165.5 -18.5 t137 -60.5t97.5 -112t45 -173h-235q-3 46 -22 76.5t-47.5 49.5t-63 27.5t-69.5 8.5q-31 0 -61.5 -4t-56.5 -15.5t-41 -28.5q-16 -19 -16 -44.5t18.5 -42t49 -30t71 -24t87.5 -21.5l72 -17q73 -17 137 -39t112 -56t77 -84t29 -122q0 -66 -20 -116t-52 -88t-75.5 -62.5 t-94 -40t-105 -21.5t-110.5 -6q-94 0 -175.5 19.5t-143.5 65.5t-100 120q-40 75 -46 181z" />
<glyph unicode="t" horiz-adv-x="642" d="M13 1018h155l-1 301h232l1 -301h185l2 -217h-187l-1 -538q0 -18 4 -28.5t14.5 -16t27.5 -7t44 -1.5h109l1 -210h-157q-72 0 -124.5 10.5t-85.5 38.5t-49 77t-16 126l1 549h-154z" />
<glyph unicode="u" horiz-adv-x="1117" d="M106 361v657h241l2 -676q0 -73 41 -114.5t120 -41.5q67 0 116 19.5t81 54.5t47.5 83.5t15.5 107.5v567h238l-1 -1021h-230l-1 101q-56 -56 -126 -88t-160 -32q-111 0 -185 28t-118 78t-62.5 121.5t-18.5 155.5z" />
<glyph unicode="v" horiz-adv-x="1043" d="M24 1018h262l243 -725l235 725h252l-371 -1018h-245z" />
<glyph unicode="w" horiz-adv-x="1535" d="M24 1018h264l188 -685l171 685h249l176 -685l188 685h249l-322 -1018h-243l-180 659l-162 -659h-252z" />
<glyph unicode="x" horiz-adv-x="1078" d="M14 0l375 533l-347 485h288l205 -298l206 298h289l-350 -471l384 -547h-290l-239 358l-240 -358h-281z" />
<glyph unicode="y" horiz-adv-x="1051" d="M18 1018h259l261 -725q61 184 123.5 362.5t122.5 362.5h246l-441 -1161q-30 -75 -61.5 -130t-69.5 -90t-84 -51t-105 -16q-31 0 -67.5 2t-75.5 18l3 224q39 -16 68.5 -21.5t51.5 -5.5q73 0 107 67l60 157z" />
<glyph unicode="z" horiz-adv-x="1057" d="M84 167l563 642h-524v209h847l-1 -158l-569 -653h563v-207h-876z" />
<glyph unicode="{" horiz-adv-x="676" d="M71 594q34 0 63.5 17.5t51 47.5t34 70.5t12.5 88.5v355q0 62 20 111t54 82t79 50.5t95 17.5h144l-1 -173h-80q-25 0 -43 -6t-29.5 -21.5t-15.5 -38t-4 -54.5v-353q0 -56 -15.5 -100t-39.5 -77.5t-50 -56.5q-24 -22 -44 -33q20 -9 45 -24t49 -46t39 -78q16 -48 17 -115 l-3 -353q3 -59 22.5 -87t71.5 -28h80l-1 -171h-143q-52 0 -96 15.5t-77.5 47.5t-53.5 81t-20 114l3 353q0 50 -13 92t-35 70.5t-51.5 45t-62.5 16.5z" />
<glyph unicode="|" horiz-adv-x="457" d="M130 -413l2 1953h194l-1 -1953h-195z" />
<glyph unicode="}" horiz-adv-x="676" d="M50 -210h80q52 0 71.5 28t19.5 87l2 353q0 67 16 114.5t38.5 78.5t48.5 47q24 14 44 23q-20 11 -45 33.5t-48.5 56t-39.5 77.5t-16 100v353q0 32 -4 54.5t-15.5 38t-28.5 21.5q-19 6 -44 6h-79v173h143q51 0 95.5 -17.5t78 -50.5t53.5 -82t18 -111l2 -355q0 -47 12.5 -88 t33.5 -71t50.5 -47.5t62.5 -17.5v-140q-33 0 -62 -16.5t-50.5 -45t-33.5 -70.5t-12 -92l-1 -353q0 -65 -19 -114t-52.5 -81t-79 -47.5t-96.5 -15.5h-141z" />
<glyph unicode="~" horiz-adv-x="1195" d="M111 451q16 38 42 73t60.5 63t78.5 44.5t100 16.5q38 0 76.5 -10.5t75.5 -26t72.5 -33.5t68 -33.5t63 -26.5t56.5 -11q22 0 46.5 15.5t47.5 39t44 51.5t38 55l104 -143q-23 -36 -49.5 -70.5t-60 -61t-76.5 -43.5t-97 -17q-38 0 -75 10t-74 25.5t-73 34t-70 34t-67 26 t-64 10.5q-22 0 -43 -14.5t-42 -38.5t-42 -54t-41 -59z" />
<glyph unicode="&#xa2;" horiz-adv-x="1080" d="M60 512q0 104 24.5 197t78 165t133 118.5t188.5 60.5l-2 185h154l2 -182q77 -9 144.5 -35.5t118.5 -72.5t84 -115t41 -158h-235q-6 40 -20.5 70.5t-34 51.5t-45 33.5t-55.5 17.5l2 -641q68 17 105.5 70t53.5 142h240q-36 -188 -132 -293.5t-267 -125.5v-210h-155l1 210 q-106 11 -186 53t-133 109.5t-79.5 157t-25.5 192.5zM295 512q-1 -51 10 -99.5t34.5 -90t59 -71.5t85.5 -44l-1 636q-53 -14 -89.5 -47t-58 -77t-31 -97.5t-9.5 -109.5z" />
<glyph unicode="&#xa3;" horiz-adv-x="1080" d="M41 143q46 26 88 63.5t72.5 79.5t49.5 89q18 48 18 95q0 17 -1.5 35.5t-7 36.5t-13.5 36t-16 32h-175v149h90q-28 53 -48 117.5t-20 144.5q0 64 18.5 119.5t50 100t75.5 80.5t97 60.5t113.5 37t123.5 12.5q115 0 206.5 -33.5t154.5 -101.5t95 -169.5t32 -237.5h-229 q-3 81 -19 145t-47 108.5t-76.5 67t-106.5 22.5q-54 0 -98.5 -17t-77.5 -46t-51 -70t-18 -87q0 -36 6 -69t18 -65t26.5 -61.5t31.5 -57.5h325v-149h-248q9 -23 14 -51q4 -30 6 -55q0 -42 -9 -81t-24.5 -74t-36.5 -67q-21 -30 -45 -58q18 6 34 7t36 1q62 0 107 -10 q46 -9 82 -20q32 -9 55 -16t40 -9.5t31 -5t28 -2.5q20 0 42 7t45.5 19t45 27.5t41.5 32.5l126 -174q-37 -32 -78 -53.5t-83 -34.5t-83.5 -17t-82.5 -4q-29 0 -55 3t-50.5 7.5t-48 11t-49.5 14.5q-53 17 -98.5 27.5t-92.5 10.5q-51 0 -100 -21.5t-102 -52.5z" />
<glyph unicode="&#xa5;" horiz-adv-x="1155" d="M-4 1400h288l304 -617l287 617h281l-338 -647h162l1 -176h-259l-22 -44v-68h281l2 -181h-280v-284h-244l-1 284h-276v181h274v68l-22 44h-252l-1 176h155z" />
<glyph unicode="&#xa9;" horiz-adv-x="1559" d="M45 692q0 100 26.5 194t74 174t115 145.5t148.5 112.5t175 73t192 26q99 0 192 -26t174.5 -73t147 -112.5t114 -145.5t74.5 -174t26 -194q0 -104 -26 -199t-74.5 -175.5t-115 -146t-147 -111.5t-173.5 -70t-192 -24q-101 0 -193.5 24t-173.5 70t-148.5 111.5t-115 146 t-74 175t-26.5 199.5zM214 692q0 -126 41.5 -233.5t115.5 -185.5t177.5 -122.5t225.5 -44.5q79 0 151 20t135 57.5t114.5 89.5t88 117t56 141.5t19.5 160.5t-19.5 159.5t-56 140t-86.5 116t-113 88t-135 56.5q-74 19 -152 19q-124 0 -226 -43.5t-177 -121t-117 -183 t-42 -231.5zM367 689q0 96 29.5 176.5t84 139.5t132 92t175.5 33q73 0 135.5 -19t111.5 -58t82.5 -99.5t48.5 -141.5h-155q-9 38 -28.5 71t-47.5 56.5t-64.5 37.5t-78.5 14q-61 0 -110 -22.5t-82.5 -63t-50.5 -95t-17 -118.5q0 -59 18 -115t52.5 -98t84 -68.5t111.5 -26.5 q39 0 75 14t64 38.5t46.5 58.5t27.5 79h157q-19 -80 -54 -142t-83 -104t-107 -64.5t-127 -22.5q-98 0 -178 33.5t-136 93.5t-86 142q-30 84 -30 179z" />
<glyph unicode="&#xab;" horiz-adv-x="900" d="M90 437v208l306 241l2 -197l-188 -150l188 -147v-200zM470 645l307 241l3 -197l-192 -150l190 -147v-200l-306 245z" />
<glyph unicode="&#xad;" horiz-adv-x="928" d="M85 619h752l3 -186h-752z" />
<glyph unicode="&#xae;" horiz-adv-x="1551" d="M45 692q0 100 26.5 194t74 174t115 145.5t148.5 112.5t175 73t192 26q99 0 192 -26t174.5 -73t147 -112.5t114 -145.5t74.5 -174t26 -194q0 -104 -26 -199t-74.5 -175.5t-115 -146t-147 -111.5t-173.5 -70t-192 -24q-101 0 -193.5 24t-173.5 70t-148.5 111.5t-115 146 t-74 175t-26.5 199.5zM214 692q0 -126 41.5 -233.5t115.5 -185.5t177.5 -122.5t225.5 -44.5q79 0 151 20t135 57.5t114.5 89.5t88 117t56 141.5t19.5 160.5t-19.5 159.5t-56 140t-86.5 116t-113 88t-135 56.5q-74 19 -152 19q-124 0 -226 -43.5t-177 -121t-117 -183 t-42 -231.5zM482 304v771h316q146 0 216 -57q72 -56 72 -181q0 -42 -13 -78.5t-36 -64.5t-54 -49t-70 -32l194 -309h-186l-185 292h-84v-292h-170zM652 736h94q32 0 63 3t55.5 14t39 31t14.5 56q0 28 -12.5 46t-32.5 28t-44.5 14t-48.5 4h-126z" />
<glyph unicode="&#xbb;" horiz-adv-x="900" d="M118 886l308 -241v-208l-307 -245l1 200l187 147l-187 150zM498 886l308 -241v-208l-305 -245v200l185 147l-185 150z" />
<glyph unicode="&#xbc;" horiz-adv-x="1633" d="M92 1210q44 2 82.5 10.5t69 25.5t52.5 46q20 30 32 76h147v-850h-167v571q-42 -19 -92 -27q-51 -6 -121 -9zM350 0l798 1400h179l-796 -1400h-181zM913 322l403 529h132l-2 -518h115l1 -155h-114v-178h-166l-1 178h-367zM1099 333h181l1 235z" />
<glyph unicode="&#xbd;" horiz-adv-x="1633" d="M92 1210q44 2 82.5 10.5t69 25.5t52.5 46q20 30 32 76h147v-850h-167v571q-42 -19 -92 -27q-51 -6 -121 -9zM290 0l796 1400h182l-798 -1400h-180zM938 0q6 84 27 143t55 102t78 73q44 29 92 57t85.5 52t63 47.5t39.5 50.5t14 63q0 52 -34 80.5t-90 28.5q-36 0 -61 -15.5 t-41.5 -42t-24 -60t-7.5 -69.5h-179q0 72 22.5 134t63 107.5t98 71t128.5 25.5q62 0 117 -18t95.5 -51.5t65 -82t24.5 -108.5q0 -64 -25.5 -114t-66.5 -90t-88.5 -70.5t-90.5 -55.5q-16 -9 -35.5 -19.5t-39 -23.5t-39 -30t-35.5 -37h411v-148h-622z" />
<glyph unicode="&#xbe;" horiz-adv-x="1633" d="M101 815h182q1 -41 9 -71t24.5 -48t42.5 -27.5t62 -9.5q28 0 55 8t48.5 22t34 35t14.5 47q0 34 -13.5 56.5t-34.5 35.5t-48.5 19.5t-55.5 6.5h-54l1 144h41q24 0 47 5.5t41 17t29.5 28t11.5 40.5t-10.5 41.5t-27 29.5t-37.5 17.5t-43 5.5q-34 0 -57.5 -10.5t-37.5 -30 t-19.5 -47t-5.5 -60.5h-177q6 70 27 126t57.5 95t89.5 59.5t123 20.5q63 0 117 -15t92.5 -45.5t61 -77t22.5 -109.5q0 -42 -23.5 -82t-62.5 -68q62 -30 91.5 -80.5t31.5 -116.5q0 -67 -28 -118t-73.5 -85t-105 -50.5t-120.5 -16.5q-67 0 -126 19t-102.5 56.5t-68.5 95.5 t-25 137zM462 0l798 1400h179l-801 -1400h-176zM941 322l403 529h132v-518h114v-155h-114v-178h-166v178h-366zM1128 333h180l2 235z" />
<glyph unicode="&#xd7;" horiz-adv-x="1003" d="M29 897l132 126l340 -364l345 364l133 -126l-352 -372l353 -371l-132 -126l-344 364l-342 -364l-131 126l347 371z" />
<glyph unicode="&#xf7;" horiz-adv-x="1166" d="M66 619h1026l3 -186h-1028zM434 140q0 31 12.5 58t32 48t46.5 34t55 13q30 0 57 -13t48 -34t32.5 -48t11.5 -58q0 -28 -11.5 -52.5t-31.5 -44t-46.5 -31.5t-54.5 -12q-29 0 -56.5 11t-48.5 30t-33.5 44.5t-12.5 54.5zM434 909q0 30 12.5 57t32 47t46.5 32.5t55 12.5 q30 0 57 -12.5t48 -32.5t33.5 -47.5t12.5 -56.5q0 -28 -12.5 -55.5t-33 -47t-46.5 -31.5t-57 -12q-29 0 -55.5 12t-47 31.5t-33 47t-12.5 55.5z" />
<glyph unicode="&#xe01;" horiz-adv-x="1237" d="M31 815q11 47 31.5 93.5t53 90t77 80.5t102.5 64t130 43q73 15 160 15q104 0 184.5 -19t141.5 -53t102 -80.5t67 -101t37 -115.5t11 -124l2 -708h-238l-4 728q0 50 -15 98t-50.5 87t-93 63t-144.5 25q-73 0 -127.5 -16t-92 -41.5t-58.5 -54t-27 -52.5q17 -17 32.5 -38.5 t26.5 -47.5t17 -56q5 -31 5 -62l3 -633h-235v636q0 23 -5 47.5t-15.5 48.5t-29.5 45q-17 21 -48 38z" />
<glyph unicode="&#xe02;" horiz-adv-x="1089" d="M25 986v190h359l189 -918l189 918h243l-260 -1176h-347l-222 986h-151z" />
<glyph unicode="&#xe03;" horiz-adv-x="1117" d="M42 1176h224q0 -22 4 -43t14 -36.5t25.5 -25.5t35 -10t35 8.5t26.5 24t17.5 36.5t6.5 46h228l1 -244q0 -33 -11 -62.5t-32 -57.5t-52 -58q-31 -29 -71 -68q-28 -28 -47.5 -52t-32.5 -47.5t-19 -48.5q-8 -26 -8 -56l3 -75q0 -54 14 -96t40 -71.5t61.5 -44t79.5 -14.5 q39 0 73.5 10.5t60 35.5t40.5 65q15 38 13 97l2 787h235l-1 -804q0 -103 -34.5 -178.5t-93.5 -124.5t-136 -73t-161 -24q-86 0 -164.5 25t-139 75.5t-95.5 126t-36 173.5v55q0 48 2 85t8.5 66.5t17 53t28 46t41 44t57.5 47.5q17 11 35 25.5t34 30.5t29 36t18 42 q-19 -14 -48.5 -23t-60.5 -9q-20 0 -48 4t-57 16.5t-58.5 33.5t-52 55t-36.5 81.5t-14 114.5z" />
<glyph unicode="&#xe04;" horiz-adv-x="1250" d="M106 680q0 66 10 130t34 122t62.5 107.5t95.5 85.5t135.5 56t180.5 20q101 0 179.5 -20t136 -56t95 -85.5t61.5 -107.5t34 -122.5t10 -129.5l1 -680h-238l-1 706q0 33 -6 66.5t-19 66t-35 60.5t-52.5 49t-72 32t-94.5 11t-94.5 -11t-72 -32t-52.5 -49t-35 -60.5 t-19.5 -66t-6.5 -66.5l-1 -159q32 47 67.5 79t79 53t96.5 29.5t121 8.5l-3 -207q-104 0 -172.5 -27t-110.5 -78t-60 -123.5t-18 -163.5l2 -118h-235z" />
<glyph unicode="&#xe05;" horiz-adv-x="1261" d="M109 0v692q0 57 6.5 113t23 108t44.5 97.5t70 82.5t99.5 63t133.5 37l141 -154l137 154q79 -11 137.5 -36.5t102 -62t71.5 -82.5t45 -98t24 -108t7 -114l3 -692h-238l-3 714q0 31 -4.5 67.5t-15.5 70.5t-30.5 63t-47.5 43l-146 -152q-5 -5 -13.5 -11.5t-25.5 -6.5 q-15 0 -26 6q-10 7 -19 12l-152 152q-27 -14 -44.5 -42t-28 -62t-14.5 -70t-4 -70v-167q32 47 67.5 79t79 53t96.5 29.5t121 8.5l-3 -207q-104 0 -172.5 -27t-110.5 -78t-60 -123.5t-18 -163.5l2 -118h-235z" />
<glyph unicode="&#xe06;" horiz-adv-x="1247" d="M42 1176h224q0 -22 4 -43t14 -36.5t25.5 -25.5t35 -10t35 8.5t26.5 24t17.5 36.5t6.5 46h228v-241q0 -45 -14 -81t-38 -67.5t-54.5 -59.5t-64.5 -56q-29 -26 -48 -45.5t-30 -42t-16 -51.5q-4 -28 -4 -73q0 -53 21 -102.5t60.5 -88t95.5 -62t126 -23.5q46 0 84.5 15 t65 41.5t41 64.5t14.5 85l2 787h238v-766q0 -96 -19.5 -176.5t-68.5 -138t-129 -89t-200 -31.5q-111 0 -197 36.5t-145 114.5l-3 -126h-227v419q0 50 1.5 87t7 66t15.5 52t27 43t39 41t53 48l34 30t31.5 31t26.5 35t20 45q-22 -11 -46 -17t-49 -6q-20 0 -48 4t-57 15 t-58.5 32t-52 55t-36.5 81.5t-14 114.5z" />
<glyph unicode="&#xe07;" horiz-adv-x="925" d="M28 706h246l181 -488q8 -23 24 -35q14 -11 33 -11q31 0 49.5 17t20.5 41l-2 761h-163v185h401l-3 -910q0 -78 -24 -134t-64.5 -91t-96.5 -52t-120 -17q-65 0 -112 15.5t-82 45t-59.5 71.5t-43.5 92z" />
<glyph unicode="&#xe08;" horiz-adv-x="1135" d="M67 818q14 86 54.5 156t104.5 120.5t151.5 77t196.5 26.5q55 0 111 -8t108.5 -26.5t97 -49t78 -75.5t52.5 -107.5t18 -143.5q0 -45 -14 -105.5t-35 -128.5t-49 -141.5t-57.5 -145.5t-60.5 -140t-57 -127h-296l-189 521h-158v187h342l159 -462q26 62 55 133.5t53 140.5 t40 134q15 66 18 117q1 115 -58.5 172.5t-178.5 57.5q-95 0 -151 -43q-55 -42 -77 -140h-258z" />
<glyph unicode="&#xe09;" horiz-adv-x="1237" d="M78 798q9 80 42.5 152t97 128t159.5 89.5t228 33.5q103 0 183 -19.5t139 -54.5t97.5 -83.5t61.5 -105t32.5 -121t11.5 -128.5v-689h-227l-7 132q-63 -84 -152 -122t-211 -38q-123 0 -205 33t-131 93t-70 144t-21 185v230h236v-252q0 -48 16 -88t44.5 -68.5t70 -44 t91.5 -15.5q83 0 144.5 26t102 73t60 110.5t19.5 137.5v175q0 51 -14 101t-46 90t-88 64.5t-140 24.5q-76 0 -126 -17.5t-82.5 -46t-48.5 -62t-22 -67.5h-245z" />
<glyph unicode="&#xe0a;" horiz-adv-x="1106" d="M45 958l3 183q36 13 69.5 22.5t63 16.5t53.5 10t38 3q67 0 120 -15.5t91 -47.5t54.5 -81t8.5 -114q-6 -32 -17 -60.5t-30 -60t-45 -68.5q-28 -38 -62 -87q-18 -25 -27 -46t-13.5 -41t-5.5 -41q1 -21 -2 -47l2 -77q0 -54 16 -96t45.5 -71.5t67.5 -44.5q37 -14 82 -14 q42 0 78.5 10.5t64 35.5t42.5 65q14 38 14 97l3 79q0 65 -15.5 103.5t-43.5 58.5t-68.5 25.5t-91.5 6.5l-1 172q69 0 115 21t74.5 64.5t40.5 107.5q12 65 14 149h238q0 -64 -9.5 -128.5t-33 -120.5t-63 -101t-97.5 -73q42 -12 71 -32t49 -44.5t31 -51.5t16.5 -54.5t7 -54 t1.5 -48.5l-1 -96q0 -68 -16.5 -125t-46.5 -101.5t-71 -77t-90 -54.5t-103 -32t-110 -10q-87 0 -167 25t-142 75.5t-100 126t-38 173.5v96q0 44 3 78t8.5 60.5t14.5 47.5t22.5 41t30 42t40.5 48q17 23 30.5 40.5t23 33.5t16.5 32t10 36q3 17 -1.5 31.5t-14 25t-22.5 16.5 q-15 7 -32 7q-20 0 -38 -3t-40.5 -9.5t-50.5 -15.5t-64 -21z" />
<glyph unicode="&#xe0b;" horiz-adv-x="1177" d="M20 1176h224q0 -22 4 -43t14 -36.5t25 -25.5t35 -10t35 8.5t26.5 24t17 36.5t5.5 46h230v-244q0 -33 -8.5 -62.5t-25.5 -57t-43.5 -57.5t-62.5 -66q-28 -28 -43.5 -63t-22.5 -71.5t-8.5 -75t-1.5 -72.5q0 -54 17 -96t45 -71.5t66 -44.5q40 -14 82 -14t78.5 10.5t63 35.5 t41.5 65q16 38 16 97v76q0 61 -15 99.5t-42 60.5t-65 29t-83 8l-2 172q64 5 109 28t73 66.5t40.5 105t12.5 142.5h235q0 -64 -10 -128.5t-32 -120.5t-61.5 -101t-99.5 -73q63 -19 99.5 -54t54 -76t21.5 -83q3 -42 3 -75v-93q0 -68 -17 -125t-47 -101.5t-71.5 -77 t-90.5 -54.5t-103.5 -32t-110.5 -10q-57 0 -112.5 11t-104.5 33.5t-91 56t-72.5 78.5t-47.5 100.5t-17 120.5q0 70 1.5 126t14 103t38.5 90t75 86q10 10 23 24t25.5 32t24 36.5t16.5 36.5q-25 -17 -54.5 -26t-59.5 -9q-20 0 -48 4t-57.5 16.5t-59 33.5t-51.5 55t-36 81.5 t-14 114.5z" />
<glyph unicode="&#xe0c;" horiz-adv-x="1854" d="M31 815q11 47 32 93.5t52.5 90t75.5 80.5t98.5 64t122.5 42.5t149 15.5q98 0 176 -19t135.5 -53t96.5 -80.5t64 -101t35.5 -116t10.5 -125.5l2 -191q0 -73 16.5 -133t50.5 -105t83 -70.5t113 -25.5q38 0 68 10.5t51 35.5t32 65q11 38 10 97l3 787h238l-2 -766 q0 -103 -18.5 -185t-62 -138t-115.5 -85.5t-180 -29.5q-51 0 -93.5 11t-80.5 32t-68.5 49t-54.5 62l-1 -126h-227l-3 728q0 48 -14 97t-46 87.5t-86 63t-133 25.5q-64 0 -113 -14t-84 -38t-56 -53t-28 -59q43 -31 63 -85q18 -55 18 -122l3 -438h126v-192h-361l-3 633 q0 25 -3.5 50t-14 49t-29.5 45q-17 21 -48 38z" />
<glyph unicode="&#xe0d;" horiz-adv-x="1854" d="M31 801q11 47 31.5 96t52.5 94t75.5 83t98.5 66.5t123 44.5t149 16q98 0 176 -19.5t135.5 -54.5t96.5 -83.5t64 -105t36.5 -121t11.5 -128.5l-3 -207q0 -61 11 -102t33 -66.5t52 -36.5t68 -11q64 0 113 27.5t82.5 74t51 109.5t17.5 136l2 563h238v-932q0 -84 -9 -148.5 t-23 -113t-32.5 -82.5t-36.5 -60l1 3q-36 -53 -80 -89.5t-95 -60t-108 -33.5q-58 -10 -117 -10q-81 0 -155.5 21t-133 64.5t-99 109t-52.5 155.5h223q11 -39 33.5 -68.5t52 -49t63 -29.5t65.5 -10q77 0 129.5 26.5t83.5 68.5t43.5 94t11.5 102l1 76q-25 -31 -57.5 -60.5 t-70 -50.5t-79.5 -34t-90 -13q-108 0 -180 30t-115.5 87.5t-61.5 142.5q-18 83 -17 192l-1 207q0 51 -14 100.5t-46 89.5t-86 65t-134 25q-64 0 -113 -14t-83.5 -37.5t-55 -54.5t-28.5 -62q43 -31 63.5 -87t20.5 -126v-418h126v-192h-361l-2 613q0 25 -4 51t-14.5 50.5 t-29.5 46.5q-19 23 -48 40z" />
<glyph unicode="&#xe0e;" horiz-adv-x="1286" d="M62 192h114v444q0 23 -4 47.5t-14.5 48.5t-29.5 45t-50 38q12 47 33 93.5t53 90t77 80.5t103 64t130 42.5t159 15.5q103 0 184.5 -19t141.5 -53t102 -80.5t67.5 -101t36.5 -115.5t11 -124l3 -1113h-230q-17 26 -40.5 50.5t-57 42.5t-80 29t-109.5 11q-50 0 -95 -11 t-86 -32t-79 -53t-74 -72l1 227q25 28 61 52t79 42t92 28t104 10q50 0 92 -7t76.5 -17.5t60.5 -23.5q26 -11 44 -22v879q0 50 -15.5 98t-51 87t-93.5 63t-145 25q-73 0 -127 -16t-91 -41.5t-58.5 -54t-27.5 -52.5q17 -17 32.5 -38.5t26 -47.5t16.5 -56q5 -31 5 -62l4 -633 h-350z" />
<glyph unicode="&#xe0f;" horiz-adv-x="1286" d="M62 192h114v444q0 23 -4 47.5t-14.5 48.5t-29.5 45t-50 38q12 47 33 93.5t53 90t77 80.5t103 64t130 42.5t159 15.5q103 0 184.5 -19t141.5 -53t102 -80.5t67.5 -101t36.5 -115.5t11 -124l3 -1113h-235q-5 20 -14.5 44.5t-25.5 45.5t-37 35t-52 14q-28 0 -49 -14 t-36 -34.5t-21 -45t-6 -45.5h-199q0 16 -4 39.5t-17 46t-34 39.5t-51 17q-26 0 -44 -13.5t-30 -33.5t-17 -45.5t-5 -49.5h-187q0 84 22.5 145t61 100.5t85 57.5t94.5 18q70 0 124 -28t89 -80q19 25 43.5 44t50.5 31.5t52.5 18.5t49.5 6q52 0 89 -15.5t63 -38.5l-1 874 q0 50 -15.5 98t-51 87t-93.5 63t-145 25q-73 0 -127 -16t-91 -41.5t-58.5 -54t-27.5 -52.5q17 -17 32.5 -38.5t26 -47.5t16.5 -56q5 -31 5 -62l4 -633h-350z" />
<glyph unicode="&#xe10;" horiz-adv-x="1129" d="M59 806q14 87 56 160t107.5 124.5t154.5 81.5q91 29 200 29q50 0 99 -7t94 -21q24 4 42 16t30 29t17.5 36.5t5.5 39.5h254q0 -34 -9.5 -70.5t-27.5 -70t-47 -60.5q-30 -26 -72 -43q38 -45 57.5 -110t18.5 -152q0 -45 -12.5 -104.5t-34.5 -128t-50 -142t-58 -145.5 t-61 -140.5t-57 -127.5h-296l-190 525h-157v183h342l159 -459q27 62 55.5 132t52.5 139t40 134q15 66 18 117q1 115 -58.5 172.5t-178.5 57.5q-95 0 -154.5 -49.5t-82.5 -145.5h-257zM127 -413q-2 57 7 100.5t27 74.5t43.5 52t51 33t51 16.5t44.5 4.5q45 0 81 -15t58 -42 q34 32 67.5 44.5t58.5 12.5q34 0 59 -9t49 -28v79h238v-323h-231q-6 50 -26 76q-22 25 -58 25q-17 0 -29.5 -8t-21 -22t-12.5 -32t-3 -39h-136q0 20 -5 38.5t-14 32.5t-23 22t-31 8q-18 0 -30.5 -8.5t-20 -22.5t-12 -32t-4.5 -38h-178z" />
<glyph unicode="&#xe11;" horiz-adv-x="1247" d="M42 1176h224q0 -24 4 -45t14 -36.5t25.5 -24.5t34.5 -9q40 0 62 31t24 84h228l-1 -84q44 32 87 54t80.5 34.5t71.5 18t59 5.5q59 0 94 -18t54.5 -52t26.5 -81.5t7 -106.5l1 -946h-238l-1 871q0 22 -1 42.5t-4.5 35t-9 23t-15.5 8.5q-43 0 -134 -76.5t-227 -232.5 q-24 -28 -42 -50t-32 -40t-23 -36.5t-14.5 -38.5t-9 -44.5t-3.5 -56.5l2 -405h-238v381q0 45 1 78.5t4.5 60.5t12 50.5t22.5 47t35 49t51 58.5q37 39 63.5 66t44.5 46.5t28 35.5t13 33q-11 -6 -25 -12t-29.5 -10.5t-31.5 -8.5t-29 -4q-20 0 -48 4t-57 15.5t-58 32.5 t-52 54.5t-37 82.5t-14 116z" />
<glyph unicode="&#xe12;" horiz-adv-x="1903" d="M106 725q0 56 6.5 108.5t22 100t42 89t68 75t97.5 57.5t133 35l144 -148l134 148q79 -11 137 -33.5t99 -55.5t68 -75t43 -90t21.5 -101.5t5.5 -109.5l1 -210q0 -73 17.5 -133t51.5 -105t83 -71q47 -25 112 -25q39 0 69.5 10.5t51 35.5t31.5 65q10 38 10 97l3 787h238 l-2 -766q0 -103 -18.5 -185t-62 -138t-116.5 -85.5t-179 -29.5q-51 0 -94 11t-80.5 32t-67.5 49t-55 62l1 -126h-229l-2 748q0 30 -2.5 62.5t-11 62t-24.5 52.5t-44 35l-150 -142q-3 -5 -14 -11t-25 -6t-27 5q-12 6 -18 12l-151 145q-24 -14 -39.5 -38.5t-24.5 -54t-13 -61 t-4 -61.5l1 -432q39 51 87.5 105.5t93.5 109.5h-84v177h341v-163l-448 -545h-224z" />
<glyph unicode="&#xe13;" horiz-adv-x="1854" d="M31 815q11 47 32 93.5t52.5 90t75.5 80.5t98.5 64t122.5 42.5t149 15.5q98 0 176 -19t135.5 -53t96.5 -80.5t64 -101t35.5 -116t10.5 -125.5l-1 -317q0 -59 12 -98t33.5 -64t51.5 -35.5t68 -10.5q65 0 114 25.5t82.5 70.5t50.5 106q16 59 16 132l2 661h238v-1176h-228 l-6 126q-25 -34 -56 -62t-68.5 -49t-80.5 -32q-44 -11 -92 -11q-108 0 -180 29.5t-115.5 85.5t-61 137t-17.5 186l-1 318q0 48 -14 97t-46 87.5t-86 63t-133 25.5q-64 0 -112.5 -13.5t-83.5 -37t-56 -53t-29 -60.5q43 -31 63 -85q18 -55 18 -122l3 -438h126v-192h-361 l-3 633q0 25 -3.5 50t-14 49t-29.5 45q-17 21 -48 38z" />
<glyph unicode="&#xe14;" horiz-adv-x="1261" d="M109 0v703q0 63 9 124t32.5 117t62.5 102.5t97 81t137 54t183 19.5q102 0 181 -19.5t136.5 -54t97 -81t63 -102.5t33.5 -117t11 -124l2 -703h-238l-3 725q0 48 -12 97.5t-43.5 89.5t-86 64.5t-141.5 24.5q-59 0 -102.5 -12t-75.5 -31.5t-53 -46t-33.5 -57.5t-18 -64 t-5.5 -65v-418l198 224h-92v180h356v-166l-471 -545h-224z" />
<glyph unicode="&#xe15;" horiz-adv-x="1269" d="M106 708q0 83 17 162t60.5 145t117.5 112t189 63l146 -146l134 146q118 -15 193.5 -60.5t119 -111.5t60 -146t16.5 -164l3 -708h-235l-4 728q0 29 -6.5 63.5t-19 66.5t-31 60t-44.5 42l-147 -142q-7 -6 -16 -11.5t-23 -5.5q-16 0 -28 5q-12 6 -17 12l-151 145 q-30 -14 -49 -40.5t-30 -58.5t-15 -68t-4 -68v-419l198 222h-92v177h358v-163l-473 -545h-224z" />
<glyph unicode="&#xe16;" horiz-adv-x="1215" d="M31 815q11 47 30.5 93.5t50.5 90t74.5 80.5t100 64t127.5 43q73 15 160 15q104 0 183.5 -19t138.5 -53t99.5 -80.5t64.5 -101t34.5 -115.5t10.5 -124l1 -708h-235l-3 728q0 50 -14 98t-47.5 87t-91 63t-142.5 25q-73 0 -125.5 -16t-87.5 -41.5t-54.5 -54.5t-25.5 -52 q22 -14 37.5 -36.5t25.5 -48t14 -56t4 -63.5l3 -441h126v-192h-361v636q0 23 -5 47.5t-15.5 48.5t-29.5 45q-17 21 -48 38z" />
<glyph unicode="&#xe17;" horiz-adv-x="1237" d="M109 0v1176h230v-143q61 84 151 127.5t211 43.5q124 0 205.5 -33.5t130.5 -94t70 -144.5t21 -184l2 -748h-235l-2 771q0 48 -15.5 88t-44 68t-69 43.5t-91.5 15.5q-84 0 -144.5 -26t-101.5 -73t-61 -110q-22 -63 -22 -139l3 -638h-238z" />
<glyph unicode="&#xe18;" horiz-adv-x="1174" d="M106 344v247h236v-247q0 -47 22 -79.5t57 -52t78.5 -28.5t85.5 -9q39 0 82.5 7t80 26t60.5 52t24 84q0 28 -4.5 50.5t-15.5 42t-33.5 38t-57.5 35t-84.5 35t-118.5 40.5q-56 17 -109 34t-98.5 35.5t-84 42t-65.5 52.5t-41 67.5t-12 89.5q1 53 20.5 95.5t51 75.5t74.5 56 t92 37t100.5 21t105.5 7q105 0 194.5 -21t154.5 -68.5t103 -121.5t38 -178h-238q0 53 -17.5 89.5t-49 60.5t-75 34.5t-99.5 10.5q-45 0 -84 -3.5t-69.5 -13.5t-48 -26.5t-17.5 -42.5q0 -18 17 -35.5t45 -33.5t63 -30t68.5 -26t63.5 -20.5t49 -13.5q68 -21 126 -41.5t106 -44 t83.5 -53t60 -69t35.5 -89.5t11 -118q0 -65 -18 -117.5t-51.5 -94t-78.5 -71t-99.5 -48.5t-114.5 -27t-123 -8q-65 0 -124.5 8t-112.5 28t-98 49t-77 70t-50.5 94t-18.5 117z" />
<glyph unicode="&#xe19;" horiz-adv-x="1237" d="M106 427l3 749h235l-2 -771q0 -48 16 -88t44.5 -68.5t70 -44t91.5 -15.5q83 0 144.5 26t102 73t60 110.5t19.5 137.5v640h238l2 -1176h-230l-4 143q-62 -84 -151.5 -127.5t-211.5 -43.5q-123 0 -205 33t-131 93t-70 144t-21 185z" />
<glyph unicode="&#xe1a;" horiz-adv-x="1237" d="M106 496l3 680h235v-703q0 -50 13 -102t44.5 -94t84 -68t131.5 -26q80 0 132.5 26t84 68t44 94t12.5 102v703h238v-686q0 -66 -9.5 -129.5t-32 -121t-60.5 -106.5t-94.5 -84t-134 -54.5t-178.5 -19.5q-102 0 -180 19.5t-135.5 56t-95 85.5t-60 107.5t-32.5 123t-10 129.5 z" />
<glyph unicode="&#xe1b;" horiz-adv-x="1237" d="M106 496l3 680h235v-703q0 -50 13 -102t44.5 -94t84 -68t131.5 -26q80 0 132.5 26t84 68t44 94t12.5 102v1215h238v-1198q0 -66 -9.5 -129.5t-32 -121t-60.5 -106.5t-94.5 -84t-134 -54.5t-178.5 -19.5q-102 0 -180 19.5t-135.5 56t-95 85.5t-60 107.5t-32.5 123 t-10 129.5z" />
<glyph unicode="&#xe1c;" horiz-adv-x="1327" d="M106 333l3 843h389l-2 -193h-154v-613q0 -54 7 -90t18.5 -60t30.5 -34.5t43 -10.5q38 0 59 19.5t30 54t11 80.5t2 98v186h235v-186q0 -53 3 -98.5t14 -80t33 -53.5q20 -20 60 -20q23 0 41.5 10.5t30.5 34.5t17.5 60t5.5 90v806h235l-1 -843q0 -92 -21 -159.5 t-59.5 -110.5t-93.5 -64t-123 -21q-84 0 -152 35t-107 99q-34 -70 -94 -102t-153 -32q-70 0 -126.5 21t-96.5 64t-62.5 110.5t-22.5 159.5z" />
<glyph unicode="&#xe1d;" horiz-adv-x="1327" d="M106 333l3 843h389l-2 -193h-154v-613q0 -54 7 -90t18.5 -60t30.5 -34.5t43 -10.5q38 0 59 19.5t30 54t11 80.5t2 98v186h235v-186q0 -53 3 -98.5t14 -80t33 -53.5q20 -20 60 -20q23 0 41.5 10.5t30.5 34.5t17.5 60t5.5 90v1318h235l-1 -1355q0 -92 -21 -159.5 t-59.5 -110.5t-93.5 -64t-123 -21q-84 0 -152 35t-107 99q-34 -70 -94 -102t-153 -32q-70 0 -126.5 21t-96.5 64t-62.5 110.5t-22.5 159.5z" />
<glyph unicode="&#xe1e;" horiz-adv-x="1556" d="M34 1176h260l171 -843l182 843h262l183 -834l169 834h258l-298 -1176h-258l-192 834l-177 -834h-261z" />
<glyph unicode="&#xe1f;" horiz-adv-x="1556" d="M34 1176h260l171 -843l182 843h262l183 -834l255 1346h257l-383 -1688h-258l-192 834l-177 -834h-261z" />
<glyph unicode="&#xe20;" horiz-adv-x="1286" d="M62 192h114v444q0 23 -4 47.5t-14.5 48.5t-29.5 45t-50 38q12 47 33 93.5t53 90t77 80.5t103 64t130 42.5t159 15.5q103 0 184.5 -19t141.5 -53t102 -80.5t67.5 -101t36.5 -115.5t11 -124l3 -708h-238l-3 728q0 50 -15.5 98t-51 87t-93.5 63t-145 25q-73 0 -127 -16 t-91 -41.5t-58.5 -54t-27.5 -52.5q17 -17 32.5 -38.5t26 -47.5t16.5 -56q5 -31 5 -62l4 -633h-350z" />
<glyph unicode="&#xe21;" horiz-adv-x="1237" d="M109 0v1176h238l-3 -640q0 -74 21 -137.5t62 -110.5t102.5 -73t143.5 -26q51 0 91.5 15.5t69 44t44 68t14.5 88.5l1 771h235v-749q0 -101 -21 -185t-70 -144t-131.5 -93t-205.5 -33q-120 0 -208.5 43.5t-152.5 127.5v-143h-230z" />
<glyph unicode="&#xe22;" horiz-adv-x="1206" d="M87 370q0 44 6 85t21.5 74.5t40.5 60.5q26 26 65 46q-42 23 -67.5 53.5t-39.5 64t-18.5 67.5t-4.5 65q0 58 15 101t40.5 75.5t59.5 54t71.5 35t76.5 19t74 5.5h178l-2 -202h-128q-17 0 -41 -2t-47 -12.5t-38.5 -31.5t-15.5 -57q0 -39 12.5 -64.5t33.5 -40t49 -21t61 -9.5 h113v-197h-115q-33 -1 -62 -8t-49 -24t-31 -48q-9 -31 -9 -81q0 -53 21 -91t57.5 -64t83.5 -38.5t98 -12.5q56 0 105 15t85 48.5t56 86.5t19 132l1 722h236l-2 -763q0 -108 -40 -190.5t-107.5 -138.5t-158.5 -84t-194 -28q-64 0 -126.5 10t-119 32t-104 54.5t-83.5 77 t-56 100.5t-20 124z" />
<glyph unicode="&#xe23;" horiz-adv-x="1043" d="M57 389h238q6 -59 22 -99.5t45 -65.5t70 -37t97 -12q32 0 69.5 6.5t68 23t51.5 46t21 77.5q0 36 -15.5 60t-45.5 45t-77 41q-47 19 -110 44q-56 22 -107 43t-95.5 43.5t-81 48t-62.5 57.5t-40.5 72.5t-14.5 91.5q0 56 15 102.5t44.5 82.5t69 62.5t85.5 43.5t95 25t97 8 q95 0 174.5 -18t138.5 -62t92.5 -117.5t39.5 -185.5h-235q-6 53 -21.5 89.5t-39 59.5t-57.5 33t-74 10q-31 0 -62.5 -7t-57.5 -22t-42.5 -40t-16.5 -62q0 -28 14.5 -49t45.5 -39t77 -37t110 -43q117 -42 193 -80.5t121 -81.5t63 -95.5t17 -120.5q0 -98 -34.5 -165t-96 -109 t-145 -60t-179.5 -18q-95 0 -176.5 21.5t-143 71t-99.5 128t-45 190.5z" />
<glyph unicode="&#xe24;" horiz-adv-x="1215" d="M31 815q11 47 30.5 93.5t50.5 90t74.5 80.5t100 64t127.5 43q73 15 160 15q104 0 183.5 -19t138.5 -53t99.5 -80.5t64.5 -101t34.5 -115.5t10.5 -124l-2 -1089h-235v1109q0 50 -14 98t-47.5 87t-91 63t-142.5 25q-73 0 -125.5 -16t-87.5 -41.5t-54.5 -54.5t-25.5 -52 q22 -14 37.5 -36.5t25.5 -48t14 -56t4 -63.5l3 -441h126v-192h-361v636q0 23 -5 47.5t-15.5 48.5t-29.5 45q-17 21 -48 38z" />
<glyph unicode="&#xe25;" horiz-adv-x="1209" d="M74 312q0 70 16 122.5t47.5 92t77 66t104 46.5t128.5 34q70 16 149 27q51 8 100 15t86.5 20t60 35t22.5 59q0 56 -21.5 91t-56 52.5t-76.5 23t-84 5.5q-56 0 -103.5 -11t-82.5 -37t-56 -69.5t-25 -106.5h-241q3 78 22.5 140.5t54.5 108.5t83.5 80t105.5 53.5t121.5 29 t133.5 9.5q54 0 109 -7t106.5 -22t95.5 -41t77 -64.5t51.5 -92t18.5 -123.5l2 -848h-235v571q-22 -10 -48 -17.5t-54 -12.5t-57 -9q-31 -4 -59 -7q-41 -6 -81 -11.5t-77.5 -14.5t-69 -23t-54.5 -35t-37 -49t-13 -67q0 -45 19 -74.5t49 -47.5t68.5 -26t77.5 -8q32 0 66.5 6 t72.5 14l-2 -186q-49 -13 -91.5 -20.5t-90.5 -7.5q-82 0 -157 18t-131 58t-89.5 104.5t-32.5 156.5z" />
<glyph unicode="&#xe26;" horiz-adv-x="1286" d="M62 192h114v444q0 23 -4 47.5t-14.5 48.5t-29.5 45t-50 38q12 47 33 93.5t53 90t77 80.5t103 64t130 42.5t159 15.5q103 0 184.5 -19t141.5 -53t102 -80.5t67.5 -101t36.5 -115.5t11 -124v-1089h-238v1109q0 50 -15.5 98t-51 87t-93.5 63t-145 25q-73 0 -127 -16 t-91 -41.5t-58.5 -54t-27.5 -52.5q17 -17 32.5 -38.5t26 -47.5t16.5 -56q5 -31 5 -62l4 -633h-350z" />
<glyph unicode="&#xe27;" horiz-adv-x="1100" d="M76 759q2 98 37 180.5t94 141.5t141.5 91t183.5 32q126 0 220 -45t154.5 -125.5t91 -193.5t30.5 -252t-29.5 -252t-91 -193.5t-155.5 -124.5q-94 -43 -220 -43q-101 0 -183.5 32t-141.5 91t-92.5 140t-37.5 181h238q4 -65 21.5 -112t46.5 -76t66.5 -44t81.5 -15 q58 0 104.5 24.5t79.5 76.5t51 130.5t18 184.5t-18 186t-50.5 131t-79.5 76q-45 26 -104 26q-45 0 -82.5 -15t-65.5 -44.5t-46.5 -77t-23.5 -111.5h-238z" />
<glyph unicode="&#xe28;" horiz-adv-x="1250" d="M106 680q0 66 10 130t34 122t62.5 107.5t95.5 85.5t135.5 56t180.5 20q68 0 124 -9q56 -8 100 -24q24 1 42.5 13t30 29.5t18 39t7.5 44.5h252q0 -34 -9.5 -73t-29 -75t-50.5 -64.5t-73 -45.5q28 -36 47.5 -78t32 -87.5t18.5 -94t6 -96.5l1 -680h-238l-1 706q0 33 -6 66.5 t-19 66t-35 60.5t-52.5 49t-72 32t-94.5 11t-94.5 -11t-72 -32t-52.5 -49t-35 -60.5t-19.5 -66t-6.5 -66.5l-1 -159q32 47 67.5 79t79 53t96.5 29.5t121 8.5l-3 -207q-104 0 -172.5 -27t-110.5 -78t-60 -123.5t-18 -163.5l2 -118h-235z" />
<glyph unicode="&#xe29;" horiz-adv-x="1237" d="M108 476l1 700h235l-2 -720q0 -50 11 -99.5t40.5 -90.5t82.5 -66t140 -25t140 25t83 66t40.5 90.5t9.5 99.5l1 91h-341v273h224v-84h117v440h238v-440h107l-2 -189h-105v-71q0 -63 -8 -125.5t-30 -117.5t-59 -102.5t-93 -82t-135 -54t-184 -19.5q-107 0 -186 19.5 t-135.5 54t-93.5 82t-59 102.5t-29.5 117.5t-7.5 125.5z" />
<glyph unicode="&#xe2a;" horiz-adv-x="1209" d="M74 312q0 79 22.5 135.5t61 98t91.5 68t113.5 44t125 28.5t128.5 20q48 5 92 13.5t78 21t56 33.5q23 21 23 55q0 56 -21.5 91t-56 52.5t-76.5 23t-84 5.5q-56 0 -103.5 -10.5t-82.5 -36.5t-57 -68q-23 -43 -26 -106h-240q2 78 23 140.5t56 108.5t83.5 79.5t105 53.5 t122.5 29.5t133 9.5q52 0 106 -7t101 -21q26 3 45.5 14t32.5 28t20 37q7 22 9 42h252q0 -33 -8.5 -70.5t-28 -72.5t-51.5 -64q-33 -29 -75 -43q23 -39 38.5 -88t15.5 -108l2 -848h-235l-1 577q-45 -20 -101.5 -32.5t-115.5 -19.5q-62 -6 -120.5 -16.5t-106.5 -30.5t-77 -56 t-29 -94q0 -45 18.5 -74.5t49 -47.5t69 -26t77.5 -8q32 0 67 5.5t71 14.5v-189q-49 -13 -91.5 -19t-90.5 -6q-82 0 -157 17.5t-131 57t-89.5 103.5t-32.5 156z" />
<glyph unicode="&#xe2b;" horiz-adv-x="1212" d="M109 0v1176h235l-2 -413l481 413h343l-262 -221q62 -25 100 -66t60 -94t30 -119t8 -140l1 -536h-235v560q0 42 -8.5 81t-24.5 73t-42 57.5t-64 32.5l-385 -331v-473h-235z" />
<glyph unicode="&#xe2c;" horiz-adv-x="1556" d="M28 1176h263l144 -864l199 679h244l208 -682q12 59 23 114.5t21.5 110l21 109t21.5 110.5q10 44 12 74t2 56q0 31 -7 54t-23.5 39.5t-44.5 24.5t-68 8l2 167q56 3 100.5 14t77.5 33t52.5 56t25.5 83h269q-9 -61 -28.5 -109.5t-48 -83.5t-65.5 -57.5t-79 -33.5 q30 -27 48.5 -61t25.5 -72t5 -79q-1 -41 -12 -83l-193 -783h-261l-213 675l-200 -675h-260z" />
<glyph unicode="&#xe2d;" horiz-adv-x="1192" d="M67 585v20v29v37h529v-187h-287q3 -70 25.5 -127t60.5 -98t89 -64t112 -23q68 0 122.5 27.5t92 80.5t58.5 130t21 175q0 202 -72.5 309t-221.5 107q-56 0 -103.5 -13.5t-84 -40.5t-59.5 -66q-21 -40 -30 -90h-249q20 94 60.5 170t105.5 130t154 83.5t206 29.5 q98 0 176 -21.5t137.5 -61.5t101.5 -96t68.5 -124.5t39 -148.5t12.5 -167q0 -81 -12.5 -158t-39 -145.5t-68.5 -124.5t-101.5 -96.5t-137.5 -63t-173 -22.5q-98 0 -175 22.5t-136.5 62t-101.5 96.5t-68.5 124t-38.5 145t-12 160z" />
<glyph unicode="&#xe2e;" horiz-adv-x="1187" d="M67 588v83h529l3 -184h-287q3 -70 24.5 -128t58 -99.5t88.5 -63t113 -21.5q68 0 122.5 27.5t92 80.5t58.5 130t21 175q0 200 -72.5 306.5t-221.5 106.5q-110 0 -181 -54t-96 -156h-249q20 94 60.5 171t105 131.5t154 84t205.5 29.5q56 0 108 -8.5t96 -25.5q23 3 40.5 13 t28.5 26.5t16.5 37.5t7.5 44h256q0 -34 -10 -69t-29.5 -68t-47.5 -60t-67 -44q34 -42 59 -95.5t42 -112t26 -124.5q10 -66 10 -133q0 -81 -12.5 -158t-39 -145.5t-68.5 -124.5t-101.5 -97t-137.5 -63t-173 -22q-98 0 -175 22t-135.5 62t-100.5 97t-69 124t-39.5 144.5 t-12.5 160.5z" />
<glyph unicode="&#xe2f;" horiz-adv-x="1215" d="M81 840q0 63 17 112.5t45.5 87t68 63t83.5 42t91 23.5q48 8 93 8h189l-2 -199h-189q-78 0 -113.5 -34t-37.5 -106q0 -33 10.5 -67.5t37 -61t72 -43.5t115.5 -17q152 0 231 55.5t79 172.5v300h235v-1176h-235l-2 547q-56 -47 -133 -70t-168 -23q-120 0 -211 26.5 t-152.5 77.5t-92.5 122.5t-31 159.5z" />
<glyph unicode="&#xe30;" horiz-adv-x="708" d="M106 183l2 268h217l-2 -87h282l1 -181h-500zM106 766v270h219v-87h281l-1 -183h-499z" />
<glyph unicode="&#xe31;" d="M-738 1355v283h217v-101h560l3 -182h-780z" />
<glyph unicode="&#xe32;" horiz-adv-x="1000" d="M31 788q0 67 16.5 123t46 101.5t71 80.5t89.5 58.5t101.5 35t109.5 11.5q91 0 168.5 -25t135 -75.5t89.5 -127.5t32 -182l2 -788h-235l-2 748q2 126 -48 184.5t-142 58.5q-81 0 -131.5 -50.5t-56.5 -152.5h-246z" />
<glyph unicode="&#xe33;" horiz-adv-x="1000" d="M-473 1557q0 46 16.5 86.5t46 70.5t69.5 48.5t86 18.5q45 0 85.5 -18.5t71.5 -48.5t50 -70.5t19 -86.5t-18.5 -87t-49 -71t-72 -48t-86.5 -18t-84.5 18t-70 48t-47 71t-16.5 87zM-330 1557q0 -17 6 -31t16.5 -25t24.5 -18t30 -7t31 7t26 18t16.5 25t5.5 31t-6 31 t-16.5 25t-26 18t-30.5 7q-17 0 -31 -7t-24.5 -18t-17 -25t-4.5 -31zM31 788q0 67 16.5 123t46 101.5t71 80.5t89.5 58.5t101.5 35t109.5 11.5q91 0 168.5 -25t135 -75.5t89.5 -127.5t32 -182l2 -788h-235l-2 748q2 126 -48 184.5t-142 58.5q-81 0 -131.5 -50.5 t-56.5 -152.5h-246z" />
<glyph unicode="&#xe34;" d="M-1135 1352l93 188h933v-188h-1026z" />
<glyph unicode="&#xe35;" d="M-1135 1352l93 188h712l-3 165h222l2 -353h-1026z" />
<glyph unicode="&#xe36;" d="M-1135 1352l93 188h549l-1 20q0 42 16 79.5t43.5 65.5t64.5 45t79 17t79.5 -17t66.5 -45t45 -65.5t16 -79.5q0 -44 -15.5 -81t-43.5 -65t-65 -45t-79 -17h-848zM-363 1560q0 -14 6.5 -28t16.5 -23.5t23 -15t27 -5.5t28 5.5t24 15t16 23.5t6 28q0 33 -22 54t-52 21 q-14 0 -28 -5.5t-23.5 -16t-15.5 -24t-6 -29.5z" />
<glyph unicode="&#xe37;" d="M-1135 1352l93 188h406l-2 165h212l2 -165h102v165h211l2 -353h-1026z" />
<glyph unicode="&#xe38;" d="M-431 -316l3 182h322v-440h-222v258h-103z" />
<glyph unicode="&#xe39;" d="M-851 -316l3 182h327l-1 -161q0 -56 23 -85.5t73 -29.5q48 0 73 29.5t25 85.5l2 161h220v-161q0 -62 -17 -116t-55 -94.5t-98 -64.5t-147 -24q-84 0 -143.5 20t-98 57t-58.5 88q-22 51 -25 113h-103z" />
<glyph unicode="&#xe3a;" d="M-400 -258q0 34 12.5 62.5t34 50.5t50.5 34.5t62 12.5q32 0 61.5 -12.5t51.5 -34.5t34.5 -50.5t10.5 -62.5q0 -32 -11.5 -60.5t-32.5 -50.5t-50 -34.5t-61 -12.5q-34 0 -63 12.5t-51.5 34.5t-35 50.5t-12.5 60.5z" />
<glyph unicode="&#xe3e;" />
<glyph unicode="&#xe3f;" horiz-adv-x="1332" d="M123 1400h429l-2 123h219l1 -126q84 -4 162.5 -21.5t140 -56.5t98.5 -106q39 -65 39 -169q0 -102 -36.5 -175.5t-113.5 -123.5q50 -23 88.5 -55t65 -74.5t40 -93t13.5 -106.5q0 -52 -12.5 -102.5t-38.5 -96.5t-64 -86t-88 -68.5t-112 -45.5t-134 -17h-47l-1 -132h-218 l2 132h-428zM370 1187l2 -364h181l-3 364h-180zM371 210h181v400h-180zM767 1187l3 -361q102 11 147.5 56t45.5 125q0 58 -12.5 92.5t-38.5 54t-62 26.5q-38 6 -83 7zM770 210h20q56 0 99 14t72.5 42t45 68t15.5 90q0 53 -21 89t-56.5 57t-81 30t-93.5 10v-400z" />
<glyph unicode="&#xe40;" horiz-adv-x="501" d="M132 0v1176h238v-1176h-238z" />
<glyph unicode="&#xe41;" horiz-adv-x="897" d="M132 0v1176h238v-1176h-238zM526 1176h238l2 -1176h-238z" />
<glyph unicode="&#xe42;" horiz-adv-x="596" d="M-8 1526l43 179h574l106 -187h-368q28 -34 42 -74.5t13 -84.5l1 -1167h123l2 -192h-359l-1 1352q0 41 -14 74t-38 54.5t-56 33.5t-68 12z" />
<glyph unicode="&#xe43;" horiz-adv-x="596" d="M-67 1394q0 93 28 161.5t74 113.5t107 67t127 22q59 0 113.5 -14t97 -43t68.5 -76q26 -46 26 -113q-1 -36 -13 -64t-31 -52.5t-42 -48t-44 -51.5q-16 -18 -24 -41t-12.5 -48t-4.5 -50.5v-47.5v-917h123l2 -192h-359l-1 1109q-1 47 3 85t15 71t31.5 63t54.5 64 q8 8 22 20.5t28 27.5t24 30q12 15 12 29q0 13 -5.5 25.5t-15 24t-26.5 17t-44 5.5q-28 0 -49.5 -12.5t-35.5 -35t-21 -56t-7 -73.5h-221z" />
<glyph unicode="&#xe44;" horiz-adv-x="596" d="M-144 1518l105 187h574l46 -179q-36 0 -69 -12t-57 -33.5t-38 -54t-14 -74.5v-1160h123l2 -192h-359l-2 1359q1 42 14 84q12 41 40 75h-365z" />
<glyph unicode="&#xe45;" horiz-adv-x="1000" d="M31 788q0 67 16.5 123t46 101.5t71 80.5t89.5 58.5t101.5 35t109.5 11.5q91 0 168.5 -25t135 -75.5t89.5 -127.5t32 -182l-1 -1169h-235l1 1129q2 126 -48 184.5t-142 58.5q-81 0 -131.5 -50.5t-56.5 -152.5h-246z" />
<glyph unicode="&#xe46;" horiz-adv-x="1146" d="M76 739q0 87 15 161t56 132.5t111 98.5q70 41 182 59l123 -129l110 126q82 -7 141.5 -29.5t99 -56.5t64 -79t37.5 -95.5t17 -106.5t4 -114l-1 -1084h-238v1106q0 32 -1 69t-7 70t-21 57.5t-40 33.5l-123 -132q-9 -7 -20 -12t-22 -5q-16 0 -26.5 5t-15.5 12l-128 129 q-47 -31 -66.5 -87t-14.5 -126q0 -25 5 -50.5t19 -45t36.5 -32t55.5 -12.5h48l1 -207h-49q-70 0 -134 19.5t-113 61.5t-77 107q-28 64 -28 156z" />
<glyph unicode="&#xe47;" d="M-1036 1625q0 72 25 122.5t68.5 84t99.5 49t119 15.5h570v-170h-552q-42 0 -65.5 -10.5t-36 -26t-15.5 -33t-3 -31.5q0 -8 1.5 -21.5t8.5 -26t21 -21t36 -8.5q37 0 55.5 28t17.5 76h160q-3 -48 13.5 -76t54.5 -28q20 0 32 8t18 21t7 33t-2 42h176q10 -76 -3.5 -129 t-42.5 -86.5t-70 -49.5t-88 -16q-31 0 -57.5 7.5t-49 21.5t-39.5 31t-28 36q-11 -19 -29 -36t-43.5 -31t-53.5 -21.5t-56 -7.5q-73 0 -120.5 24.5t-76 61.5t-40.5 81.5t-12 86.5z" />
<glyph unicode="&#xe48;" d="M-332 2181h219l1 -343h-218z" />
<glyph unicode="&#xe49;" d="M-652 2184h291l3 -174q56 0 100.5 14t75.5 38t46 56q16 30 16 66h203q0 -67 -27.5 -130t-85.5 -112t-145.5 -78.5t-205.5 -29.5h-161v176h-108z" />
<glyph unicode="&#xe4a;" d="M-692 1834q-5 78 9 135.5t40.5 95.5t63 56t75.5 18t72.5 -19.5t59.5 -53.5q21 34 58 53.5t77 19.5q55 0 98.5 -30.5t60.5 -95.5q11 14 20.5 32.5t16.5 40t11.5 46t5.5 46.5h186q0 -35 -8 -72t-24.5 -73.5t-38 -69t-47.5 -59.5t-55 -45q-30 -19 -60 -25h-150 q0 14 -1.5 35.5t-5.5 42.5t-12 37q-9 15 -20 15q-12 0 -19 -13t-11 -33t-5.5 -42t0.5 -42h-150q0 18 -1.5 41t-5.5 43t-11 33t-17 13q-11 0 -19 -15.5t-12 -36.5t-5 -42q1 -22 1 -36h-177z" />
<glyph unicode="&#xe4b;" d="M-493 1981l3 169h162v143h213v-143h165l-1 -169h-167l3 -147h-213l-1 147h-164z" />
<glyph unicode="&#xe4c;" d="M-484 1700q-2 81 27 144.5t85 108.5t134 69.5t179 24.5v-177q-105 0 -161.5 -40.5t-53.5 -129.5h-210z" />
<glyph unicode="&#xe4d;" d="M-473 1557q0 46 16.5 86.5t46 70.5t69.5 48.5t86 18.5q45 0 85.5 -18.5t71.5 -48.5t50 -70.5t19 -86.5t-18.5 -87t-49 -71t-72 -48t-86.5 -18t-84.5 18t-70 48t-47 71t-16.5 87zM-330 1557q0 -17 6 -31t16.5 -25t24.5 -18t30 -7t31 7t26 18t16.5 25t5.5 31t-6 31 t-16.5 25t-26 18t-30.5 7q-17 0 -31 -7t-24.5 -18t-17 -25t-4.5 -31z" />
<glyph unicode="&#xe4e;" d="M-540 1355q0 56 12.5 107t37.5 92.5t64.5 72.5t93.5 45q9 40 33.5 74.5t65 59.5t98.5 38.5t135 13.5l1 -181q-47 0 -77 -7t-46.5 -22.5t-22.5 -36.5t-6 -49l3 -47h-59q-38 0 -61 -11.5t-37 -32.5t-18.5 -50t-4.5 -66h-212z" />
<glyph unicode="&#xe4f;" horiz-adv-x="1453" d="M102 585q0 86 22 165t62.5 147t98 124.5t126 95.5t148 61.5t166.5 22.5q84 0 162.5 -22.5t146.5 -61.5t124 -95.5t96 -124.5t61 -147q23 -79 23 -164.5t-22 -164.5t-62 -148t-97 -125t-124.5 -95.5t-146.5 -61.5q-80 -22 -164 -22q-86 0 -164.5 22t-148 61.5t-126 95.5 t-96.5 125t-62.5 148t-22.5 164zM272 590.5q0 -92.5 35.5 -174t96.5 -142.5t143.5 -97.5t176.5 -36.5q61 0 118 17t106 46t89.5 70t69 91t45 107.5t16.5 119t-15.5 119t-45 106.5t-70 89.5t-90.5 69.5t-106.5 45t-118.5 16q-95 0 -176 -35t-142 -95t-96.5 -141.5t-35.5 -174 zM392 591q0 66 26.5 124.5t71.5 102.5t105 71t127 27q66 0 124 -27t102.5 -71t70 -102.5t25.5 -124.5q0 -67 -25 -127.5t-69 -104.5t-102 -70t-125.5 -26t-127.5 26t-105 70t-71.5 104.5t-26.5 127.5zM545 591q0 -38 14 -71t37 -56.5t56 -37.5q31 -13 70 -13q37 0 67.5 13.5 t54 37t36.5 56.5t12 71q0 36 -13.5 67t-36 54.5t-53 37t-65.5 13.5q-39 0 -72 -13.5t-57 -37t-37 -54.5t-13 -67z" />
<glyph unicode="&#xe50;" horiz-adv-x="1275" d="M83 512q0 126 37.5 225t108.5 165.5t174.5 101.5t232 35t232.5 -35t175 -101.5t110.5 -165.5t39.5 -225q0 -144 -45 -245.5t-120 -166t-175 -93.5t-215 -29q-75 0 -146.5 12.5t-133 40.5t-112 70t-87.5 102t-57.5 137t-18.5 172zM316 501q0 -71 23.5 -130.5t64.5 -104.5 t100 -69.5t133 -24.5q73 0 132.5 24.5t100.5 69.5t64.5 104.5t23.5 130.5q0 93 -26 158t-69.5 106t-101.5 59.5t-122.5 18.5t-123.5 -18.5t-103 -59.5t-70 -106t-26 -158z" />
<glyph unicode="&#xe51;" horiz-adv-x="1267" d="M7 154l186 153q37 -41 79 -67.5t88.5 -43.5t98 -23t104.5 -6q82 0 153 24.5t121.5 72t79.5 117.5t29 161q0 68 -21 125.5t-60 99.5t-99 65q-58 22 -139 22q-66 0 -120.5 -15.5t-93 -42t-60 -61t-21.5 -70.5q0 -34 14.5 -65.5t51 -53.5t94 -32t144.5 1v-171 q-45 -11 -81 -14q-34 -2 -65 -2q-81 0 -154.5 22t-127.5 65t-86 102.5t-30 130.5q0 70 21 127t57.5 101t87 75.5t109.5 51t124 29.5q66 10 131 10q117 0 219.5 -28t178.5 -87t120 -153.5t46 -228.5q0 -126 -43 -230.5t-122 -178.5t-193.5 -115t-259.5 -41q-65 0 -134.5 4.5 t-142.5 22t-144 52.5q-71 33 -140 95z" />
<glyph unicode="&#xe52;" horiz-adv-x="1447" d="M-8 983l37 199q68 0 122.5 -18.5t94.5 -57.5t61 -96.5t21 -138.5l1 -423q0 -55 26 -103t77.5 -83t130 -55.5t182.5 -20.5q98 0 168.5 19t116 50t68 71.5t22.5 83.5v284q0 31 -7.5 53.5t-21 39.5t-31.5 28t-41 17l-154 -138l-154 129q-17 -1 -32 -9t-27 -23t-20 -39 q-8 -21 -8 -52l3 -64q0 -28 1.5 -57.5t8.5 -52.5t22.5 -38t43.5 -15h88l-1 -183h-110q-67 0 -114.5 17.5t-78.5 45.5t-49 63.5t-26.5 73.5t-11 75t-4.5 65l-1 56q0 66 25 124t71.5 105t111.5 78q63 32 145 43l117 -98l101 98q81 -4 151 -30t122.5 -68.5t82.5 -99.5 q28 -57 28 -124v-269q0 -81 -20 -146t-55.5 -116t-85 -88.5t-110 -62t-129 -35.5t-138.5 -11h-115q-144 0 -256.5 33.5t-189.5 96.5t-116.5 152.5t-39.5 199.5l2 369q-2 77 -27 111.5t-78 34.5z" />
<glyph unicode="&#xe53;" horiz-adv-x="1297" d="M90 465l1 77q-1 120 27 208.5t81.5 148t131.5 93t176 44.5l141 -120l150 120q106 -6 182.5 -41t126 -88t74.5 -122q24 -71 24 -147l2 -638h-235l-2 638q0 34 -12.5 66t-32 56t-44.5 39q-27 16 -52 19l-182 -150l-177 150q-23 -6 -49 -21.5t-47 -47.5t-35 -81t-14 -123 v-77q0 -33 0.5 -65.5t4 -64t10.5 -59t20.5 -47t34.5 -31.5t52 -12q9 0 25.5 0.5t36.5 2t44.5 4.5t51.5 8l-3 -196q-17 -5 -45 -9.5t-60 -7t-63 -4t-53 1.5q-73 8 -123.5 35.5t-82.5 66t-49 86t-25.5 96.5t-9.5 98.5t-1 93.5z" />
<glyph unicode="&#xe54;" horiz-adv-x="1297" d="M90 560q0 118 39 203t112 142.5t176.5 85t232.5 27.5h197q39 0 64.5 12t40 33t20.5 49q5 30 5 64h241q0 -42 -6.5 -84.5t-21.5 -82.5t-41 -75t-66.5 -61t-96.5 -40.5t-132 -14.5h-225q-70 0 -126 -15.5t-96 -43.5t-61 -71t-21 -97v-135q0 -54 15.5 -101.5t49 -82t85 -54 t121.5 -19.5h14q-30 31 -51 73t-23 92q0 17 3 41.5t14 51.5t33 54.5t61 49t98 35.5t143 14v-197q-45 0 -70.5 -7.5t-37 -18t-14 -22.5t-2.5 -21q0 -29 12 -55t31.5 -47t43.5 -32t46 -11h318l3 -199h-644q-95 0 -168.5 19.5t-127.5 53t-90.5 78.5t-57.5 95.5t-31 101.5 q-9 52 -8 100z" />
<glyph unicode="&#xe55;" horiz-adv-x="1297" d="M90 454v112q0 98 26.5 171.5t74.5 126t114.5 86t145.5 54.5q-2 5 -2 15q-1 11 -2 20q0 42 17.5 81t46.5 67t68.5 45.5t84.5 17.5q47 0 87.5 -17.5t70 -45.5t45.5 -67q15 -39 15 -81q0 -7 1 -11v-3v-2q28 6 45.5 20.5t29 34.5t15.5 44q4 26 4 54h241q0 -42 -6.5 -85.5 t-21 -82.5t-41 -73.5t-67 -60.5t-96.5 -40t-132 -14h-214q-70 0 -128 -12.5t-99.5 -39.5t-64.5 -70t-25 -104l3 -135q0 -53 15.5 -100.5t48.5 -83.5t84.5 -56t121.5 -20h14q-30 31 -51 73t-23 92q0 17 3 41.5t14 51.5t33 54.5t61 49t98 35.5t143 14v-197q-45 0 -70.5 -7.5 t-37 -18t-14 -22.5t-2.5 -21q0 -29 12 -55t31.5 -47t43.5 -32t46 -11h318l3 -199h-644q-95 0 -168 19.5t-127.5 54.5t-90 80t-57.5 95.5t-31.5 102t-9.5 102.5zM594 1039q0 -34 19.5 -55t50.5 -21q35 0 53.5 21t18.5 55q2 33 -17.5 53t-54.5 20q-31 0 -50 -20t-20 -53z" />
<glyph unicode="&#xe56;" horiz-adv-x="1316" d="M25 1023l188 110l115 -184q30 14 69.5 29.5t85 26.5t99.5 19.5t115 11.5q104 3 183.5 -15.5t140 -51t101 -79.5t65.5 -102.5t36.5 -117.5t11.5 -125v-72q0 -66 -16 -128t-47.5 -118t-80 -101t-112 -77t-143 -49t-174.5 -14q-105 3 -191.5 28t-149 70.5t-97 109.5 t-34.5 142q0 74 25.5 128t71.5 88.5t111 50.5t147 16h96l3 -179h-90q-39 0 -64 -9.5t-40 -24t-19.5 -35.5t-4.5 -43q0 -30 18 -56t50 -45.5t78.5 -30.5t102.5 -13q61 -1 119.5 17t102.5 54.5t71 90.5t27 125l-1 69q0 76 -18 132.5t-56 93t-92 53t-122 16.5 q-55 -1 -110.5 -10t-111.5 -28.5t-114.5 -50.5t-123.5 -74z" />
<glyph unicode="&#xe57;" horiz-adv-x="1540" d="M92 462v77q0 115 28 201.5t81.5 148.5t132 97.5t177.5 46.5l111 -112l107 112q115 -14 191.5 -56t121 -105.5t63 -147t16.5 -177.5l2 -79q-2 -24 -4 -54t-6 -61t-9.5 -62.5t-14.5 -58.5q25 20 45 50t32.5 66.5t18.5 76.5t6 76l-1 370q0 78 22.5 136t61.5 96t93.5 57 t122.5 19l33 -199q-26 0 -45 -7.5t-30.5 -25t-17 -45.5t-5.5 -68v-313q0 -107 -28 -198t-87.5 -160t-149.5 -113t-215 -58l-178 123q48 46 73 88.5t37.5 83.5t15.5 84t3 91v85q0 62 -10.5 107.5t-27.5 77.5t-38.5 52t-46.5 28l-151 -153l-154 159q-23 -6 -47.5 -24 t-44.5 -52t-34 -83t-13 -117l-1 -74v-52.5t4 -58.5t11.5 -57t21.5 -50.5t36 -35t53 -12.5q5 0 17.5 0.5t30 2t36.5 3.5t39 5l5 -199q-15 -4 -38 -9t-49.5 -8t-55.5 -3q-30 0 -55 6q-70 14 -118 42t-80 66t-51.5 82.5t-28 91t-11.5 92.5t-3 88z" />
<glyph unicode="&#xe58;" horiz-adv-x="1295" d="M95 560q0 106 33 191t97.5 144.5t160.5 91t223 31.5h267q40 0 63.5 12t39 33t21.5 49q5 30 5 64h238q0 -41 -5.5 -84t-21 -83t-40.5 -76.5t-65.5 -63t-96 -42t-129.5 -15.5h-294q-67 0 -117 -19t-81.5 -50.5t-47 -70.5t-15.5 -81l3 -213q0 -32 10.5 -62t29.5 -54.5 t42 -41.5q23 -16 47 -21l190 151l188 -151q25 0 47.5 9t39.5 28t27 51q12 32 12 80q0 19 -3.5 40t-14 38.5t-28.5 31t-46 16.5q-10 3 -30 3h-40l1 182h85q68 -3 117.5 -18.5t84 -38t55.5 -52t32 -63t15 -68.5q4 -36 4 -71q0 -94 -23.5 -164.5t-72.5 -119t-124.5 -73 t-179.5 -24.5l-143 115l-145 -115q-101 6 -179 39.5t-130.5 86.5t-79 121.5t-23.5 144.5z" />
<glyph unicode="&#xe59;" horiz-adv-x="1318" d="M91 459v83q0 122 19.5 214t65 154t120 94t183.5 32q19 0 43.5 -0.5t50.5 -3t51.5 -8t47.5 -15.5q20 -14 39 -29q20 -14 38 -39l78 74q9 8 21.5 14.5t32.5 6.5h68q38 0 60.5 8.5t34.5 26.5t15 44q5 27 5 61h235q0 -42 -5.5 -83.5t-18 -80t-35 -70.5t-59.5 -56t-91 -38 t-127 -14h-17q-8 0 -19 -6t-22.5 -15t-22.5 -22t-22 -22l378 -769h-247l-336 692q-33 70 -76.5 106t-102.5 36q-32 0 -59.5 -13t-48.5 -46t-32 -88.5t-11 -139.5v-105q0 -25 2.5 -53.5t9 -56t17 -53.5t26 -44.5t38 -30.5t51.5 -12q15 0 42 2t56 8l32 -194q-17 -4 -40.5 -7.5 t-51 -6t-56 -4t-51.5 1.5q-71 8 -122 32.5t-84.5 61t-54.5 82t-31 94.5t-13.5 99.5t-3.5 97.5z" />
<glyph unicode="&#xe5a;" horiz-adv-x="1614" d="M81 840q0 63 17 112.5t45.5 87t68 63t83.5 42t91 23.5q48 8 93 8h189l-2 -199h-189q-78 0 -113.5 -34t-37.5 -106q0 -33 10.5 -67.5t37 -61t72 -43.5t115.5 -17q152 0 231 55.5t79 172.5v300h235v-1176h-235l-2 547q-56 -47 -133 -70t-168 -23q-120 0 -211 26.5 t-152.5 77.5t-92.5 122.5t-31 159.5zM1270 1176h235v-1176h-234z" />
<glyph unicode="&#xe5b;" horiz-adv-x="2520" d="M113 610q0 66 15 134t44.5 131.5t72.5 119t100.5 97.5t127.5 66t153 24q78 0 142 -19t113 -52t85 -78t59.5 -98t34 -112t11.5 -117l-220 -3q0 123 -52.5 186t-150.5 69q-71 0 -127 -28t-94 -77t-58 -115t-20 -142q0 -70 27 -136.5t74.5 -117.5t115 -81.5t148.5 -30.5 q78 0 141 25t110 70t80 108t54 135.5t31 155t11 168.5l153 85q32 -33 61.5 -69.5t55 -71.5t47.5 -68q23 -33 40 -60q18 26 40.5 59.5t46.5 67.5t47 68t44 60q19 -31 42.5 -65t45 -68.5t41 -66t35.5 -57.5l88 123h376l149 -230h-451q-20 -25 -41 -57t-43 -70t-44.5 -79.5 t-45.5 -83.5q-43 91 -83 162.5t-76 130.5q-38 -56 -83.5 -151t-90.5 -227q-42 122 -84 215t-84 155q-11 -86 -39.5 -163.5t-71.5 -143.5t-97.5 -119t-119.5 -90t-139.5 -57.5t-153.5 -20.5q-96 0 -177 24.5t-147 67t-116 101.5t-84 126t-51.5 141.5t-17.5 149.5z" />
<glyph unicode="&#x2000;" horiz-adv-x="1146" />
<glyph unicode="&#x2001;" horiz-adv-x="2293" />
<glyph unicode="&#x2002;" horiz-adv-x="1146" />
<glyph unicode="&#x2003;" horiz-adv-x="2293" />
<glyph unicode="&#x2004;" horiz-adv-x="764" />
<glyph unicode="&#x2005;" horiz-adv-x="573" />
<glyph unicode="&#x2006;" horiz-adv-x="382" />
<glyph unicode="&#x2007;" horiz-adv-x="382" />
<glyph unicode="&#x2008;" horiz-adv-x="286" />
<glyph unicode="&#x2009;" horiz-adv-x="458" />
<glyph unicode="&#x200a;" horiz-adv-x="127" />
<glyph unicode="&#x200b;" />
<glyph unicode="&#x2010;" horiz-adv-x="928" d="M85 619h752l3 -186h-752z" />
<glyph unicode="&#x2011;" horiz-adv-x="928" d="M85 619h752l3 -186h-752z" />
<glyph unicode="&#x2012;" horiz-adv-x="928" d="M85 619h752l3 -186h-752z" />
<glyph unicode="&#x2013;" horiz-adv-x="982" d="M-1 657h982l2 -220h-983z" />
<glyph unicode="&#x2014;" horiz-adv-x="1943" d="M-1 657h1943l1 -220h-1943z" />
<glyph unicode="&#x2018;" horiz-adv-x="572" d="M151 868v238q0 64 15.5 121t48.5 99.5t83.5 68t118.5 25.5v-135q-31 0 -52.5 -13t-35.5 -34t-21 -48.5t-7 -56.5h115l1 -265h-266z" />
<glyph unicode="&#x2019;" horiz-adv-x="572" d="M153 1156l1 264h266v-238q0 -65 -15.5 -121t-49 -99.5t-84 -68.5t-117.5 -25v136q31 0 52 13t35 34t20 48t6 57h-114z" />
<glyph unicode="&#x201c;" horiz-adv-x="894" d="M132 868v238q0 64 15 121t47.5 99.5t83 68t120.5 25.5v-135q-31 0 -53 -13t-36.5 -34t-21.5 -48.5t-7 -56.5h115l3 -265h-266zM496 868v238q0 64 15 121t47.5 99.5t83 68t120.5 25.5v-135q-31 0 -53 -13t-36 -34t-21 -48.5t-7 -56.5h115l2 -265h-266z" />
<glyph unicode="&#x201d;" horiz-adv-x="894" d="M130 1156v264h268v-238q0 -65 -15.5 -121t-49 -99.5t-84 -68.5t-117.5 -25v136q30 0 51 13t34.5 34t20 48t6.5 57h-114zM494 1156l2 264h266v-238q0 -65 -15.5 -121t-49 -99.5t-84 -68.5t-117.5 -25v136q30 0 51 13t34.5 34t20 48t7.5 57h-115z" />
<glyph unicode="&#x2022;" horiz-adv-x="763" d="M53 602q0 62 25.5 118t69.5 98.5t103.5 68.5t125.5 26q67 0 127 -26t105 -68.5t71 -98.5t26 -118q0 -66 -25.5 -123.5t-70 -100t-105 -67t-127.5 -24.5t-126 24.5t-103.5 67t-70 100t-25.5 123.5z" />
<glyph unicode="&#x202f;" horiz-adv-x="458" />
<glyph unicode="&#x205f;" horiz-adv-x="573" />
<glyph unicode="&#x20ac;" horiz-adv-x="1556" d="M42 759v173h188q28 110 84 201.5t137 158t189 102.5q108 37 242 37q116 0 216 -30t178 -90.5t130 -150.5q53 -90 72 -211h-252q-14 73 -44.5 124t-74.5 84t-102.5 48.5t-125.5 15.5q-80 0 -143.5 -22.5t-113 -61t-84.5 -91t-56 -114.5h408v-173h-442q-1 -13 -2 -25.5 t-1 -25.5q0 -16 2 -34q1 -19 1 -36h442v-170h-408q22 -65 57.5 -117.5t85.5 -90t113.5 -58.5t143.5 -21q84 0 148.5 27t109 77t70.5 118q25 70 30 151h247q-14 -140 -60.5 -248.5t-123.5 -182t-186 -111t-249 -37.5q-136 0 -243.5 35.5t-188 100.5t-134 156t-78.5 201h-179 v170h154v56v65h-157z" />
<glyph unicode="&#x2122;" horiz-adv-x="1926" d="M98 1400h683v-155h-252l-1 -695h-178l3 695h-254zM897 550l2 850h241l224 -563l217 563h243l-1 -850h-182v567l-221 -567h-118l-227 567v-567h-178z" />
<glyph unicode="&#x25cc;" horiz-adv-x="1307" d="M301 566l111 53q-3 -25 -4.5 -53t5.5 -56zM398 319l44 111q17 -24 34 -43.5t42 -33.5zM417 812l115 -41q-31 -15 -53 -33q-23 -16 -34 -38zM596 801l56 112l51 -109q-28 5 -57.5 3.5t-49.5 -6.5zM599 319q13 -3 25 -5.5t23.5 -2t24.5 2.5t28 8l-49 -109zM781 774l126 38 l-49 -115q-17 24 -37 43t-40 34zM783 350q25 14 43 32t34 39l30 -105zM895 512q8 24 7.5 50t-7.5 54l107 -53z" />
<glyph unicode="&#x25fc;" horiz-adv-x="1017" d="M0 0v1019h1019v-1019h-1019z" />
<glyph unicode="&#xf700;" horiz-adv-x="1129" d="M59 806q14 87 56 160t107.5 124.5t154.5 81.5q91 29 200 29q50 0 99 -7t94 -21q24 4 42 16t30 29t17.5 36.5t5.5 39.5h254q0 -34 -9.5 -70.5t-27.5 -70t-47 -60.5q-30 -26 -72 -43q38 -45 57.5 -110t18.5 -152q0 -45 -12.5 -104.5t-34.5 -128t-50 -142t-58 -145.5 t-61 -140.5t-57 -127.5h-296l-190 525h-157v183h342l159 -459q27 62 55.5 132t52.5 139t40 134q15 66 18 117q1 115 -58.5 172.5t-178.5 57.5q-95 0 -154.5 -49.5t-82.5 -145.5h-257z" />
<glyph unicode="&#xf701;" d="M-1274 1352l92 188h726v-188h-818z" />
<glyph unicode="&#xf702;" d="M-1274 1352l92 188h502v165h224v-353h-818z" />
<glyph unicode="&#xf703;" d="M-1274 1352l95 188h331l-2 20q0 42 16 79.5t44 65.5t64.5 45t81.5 17q42 0 80 -17t66.5 -45t44.5 -65.5t16 -79.5q0 -44 -15.5 -81t-43.5 -65t-65.5 -45t-81.5 -17h-631zM-718 1560q0 -14 6 -28t16.5 -23.5t24 -15t28.5 -5.5q14 0 28 5.5t24 15t16.5 23.5t6.5 28 q0 33 -22.5 54t-52.5 21q-14 0 -28.5 -5.5t-24.5 -16t-16 -24t-6 -29.5z" />
<glyph unicode="&#xf704;" d="M-1274 1352l95 188h193l-2 165h212l2 -165h106l-1 165h213v-353h-818z" />
<glyph unicode="&#xf705;" d="M-745 1711h230l1 -361h-228z" />
<glyph unicode="&#xf706;" d="M-1075 1532v170h283v-170q56 0 96.5 14t65.5 37.5t37.5 54.5t12.5 64h208q0 -67 -25.5 -128.5t-79.5 -109t-137 -76.5t-199 -29h-167l1 173h-96z" />
<glyph unicode="&#xf707;" d="M-1187 1362q-4 80 10.5 139t39.5 98t60 58.5t72 19.5q45 0 78.5 -19.5t50.5 -54.5q9 14 24 27.5t33 24t38.5 16.5t39.5 6q26 0 49 -9t43 -26.5t36.5 -42.5t24.5 -59q11 13 18 30.5t11.5 38.5t5.5 42t1 43h178q0 -60 -16 -115.5t-44 -100t-66 -75.5t-85 -41h-137 q0 24 -1.5 49t-7 46t-13.5 35q-9 13 -20.5 13t-19 -13.5t-13 -33.5t-8.5 -46t-3 -50h-133q0 24 -1.5 49t-5.5 46t-11 34.5t-20 13.5q-14 0 -22 -13.5t-13 -34.5t-6.5 -46t-2.5 -49h-164z" />
<glyph unicode="&#xf708;" d="M-983 1669h164l1 143h216l-1 -143h163v-170h-162v-147h-216v147h-162z" />
<glyph unicode="&#xf709;" d="M-916 1355q0 81 29.5 145.5t85.5 109.5t136 68.5t181 23.5v-176q-107 0 -163 -40.5t-56 -130.5h-213z" />
<glyph unicode="&#xf70a;" d="M-343 1711h228l3 -361h-227z" />
<glyph unicode="&#xf70b;" d="M-778 1534v174h295v-174q56 0 100 14t73.5 38t44.5 56q14 30 14 66h209q0 -67 -28 -130t-86 -112t-145.5 -78t-205.5 -29h-171v175h-100z" />
<glyph unicode="&#xf70c;" d="M-983 1359q-5 84 11 145t44.5 101.5t68 60.5t83.5 20q48 0 85 -20q36 -20 61 -55q13 14 29.5 27.5t36 24t41.5 17t44 6.5q28 0 54.5 -9.5t49 -27t40 -44t27.5 -59.5q11 12 22.5 30.5t19.5 40t14 44t4 44.5h203q0 -59 -21 -116t-56 -105t-81 -81.5t-97 -43.5h-155 q0 21 -2 46.5t-7.5 48t-15.5 37t-23 14.5q-14 0 -23 -14.5t-14.5 -35.5t-8.5 -47t-3 -49h-152q0 23 -2 49t-7 47t-14 35.5t-22 14.5q-14 0 -24 -14.5t-15.5 -37t-7.5 -48t-2 -46.5h-185z" />
<glyph unicode="&#xf70d;" d="M-500 1502v175h167v146h218v-146h168v-175h-168v-150h-215v150h-170z" />
<glyph unicode="&#xf70e;" d="M-486 1355q0 81 29.5 145.5t85 109.5t134.5 69q77 23 178 23l2 -176q-107 0 -163 -41q-57 -40 -57 -130h-209z" />
<glyph unicode="&#xf70f;" horiz-adv-x="1854" d="M31 801q11 47 31.5 96t52.5 94t75.5 83t98.5 66.5t123 44.5t149 16q98 0 176 -19.5t135.5 -54.5t96.5 -83.5t64 -105t36.5 -121t11.5 -128.5v-282q0 -56 16.5 -100t46 -73.5t69 -44t83.5 -14.5q42 0 80 13.5t67.5 42t46 72.5t16.5 104l2 769h238l-2 -790 q0 -70 -17.5 -128.5t-48 -105t-72.5 -80t-92 -56t-106 -33.5t-112 -11q-89 0 -171.5 26.5t-145.5 78.5t-101 130.5t-38 178.5v325q0 51 -14 100.5t-46 89.5t-86 65t-134 25q-64 0 -113 -14t-83.5 -37.5t-55 -54.5t-28.5 -62q43 -31 63.5 -87t20.5 -126v-418h126v-192h-361 l-2 613q0 25 -4 51t-14.5 50.5t-29.5 46.5q-19 23 -48 40z" />
<glyph unicode="&#xf710;" d="M-860 1355v283h217l-1 -101h756v-182h-972z" />
<glyph unicode="&#xf711;" d="M-900 1557q0 46 17.5 86.5t47 70.5t70 48.5t87.5 18.5q45 0 85.5 -18.5t71.5 -48.5t49 -70.5t18 -86.5t-18 -87t-49 -71t-71.5 -48t-85.5 -18q-46 0 -86.5 18t-70.5 48t-47.5 71t-17.5 87zM-756 1557q0 -17 5.5 -31t17 -25t25.5 -18t30 -7q17 0 32 7t26 18t17.5 25 t6.5 31t-7 31t-18.5 25t-25.5 18t-31 7q-16 0 -30 -7t-25.5 -18t-17 -25t-5.5 -31z" />
<glyph unicode="&#xf712;" d="M-1198 1623q0 71 23.5 121.5t64 84t94.5 49t113 15.5h533v-167h-518q-39 0 -62.5 -10.5t-35 -26t-14 -33.5t-2.5 -33q0 -9 1 -22t8 -26t20 -21t35 -8q34 0 50.5 28t16.5 78h151q-2 -50 14.5 -78t47.5 -28q20 0 31.5 7.5t18 21.5t7 33t-0.5 44h165q7 -76 -5 -129 t-39 -86.5t-66.5 -49.5t-83.5 -16q-30 0 -55 7.5t-45.5 21.5t-35 31t-23.5 36q-11 -19 -29 -36t-42 -31t-51 -21.5t-55 -7.5q-68 0 -112 23.5t-70.5 60.5t-37.5 81.5t-11 86.5z" />
<glyph unicode="&#xf713;" d="M-675 1838v343h216l3 -343h-219z" />
<glyph unicode="&#xf714;" d="M-994 2184h295l3 -174q56 0 101 14t75 38t45 56q16 30 14 66h203q0 -67 -26.5 -130t-84 -112t-144.5 -79q-89 -29 -207 -29h-162v176h-109z" />
<glyph unicode="&#xf715;" d="M-1019 1834q-6 78 7.5 135.5t40.5 95.5t63 56q37 18 76 18q42 0 75 -19q32 -20 57 -54q22 34 59.5 53.5t77.5 19.5q53 0 95 -30.5t62 -95.5q11 14 21 32.5t17 40t11 46t4 46.5h186q0 -35 -8 -72t-23.5 -73.5t-37.5 -69t-47.5 -59.5t-54.5 -45q-29 -19 -60 -25h-148 q0 14 -3 35.5t-7 42.5t-11 36.5t-18 15.5t-19 -13t-11.5 -33t-5 -42t-1.5 -42h-151q0 18 -2 41t-5.5 43t-10.5 33t-18 13t-19 -15.5t-11.5 -36.5t-5 -42.5t-1.5 -35.5h-173z" />
<glyph unicode="&#xf716;" d="M-841 1981l1 169h167l1 143h209l1 -143h164l-2 -169h-162l1 -147h-212l-2 147h-166z" />
<glyph unicode="&#xf717;" d="M-672 1700q-1 81 27.5 144.5t84.5 108.5t134.5 69.5t177.5 24.5l2 -177q-107 0 -161.5 -40.5t-53.5 -129.5h-211z" />
<glyph unicode="&#xf718;" d="M-431 -479h325l-3 -439h-221l2 259h-102z" />
<glyph unicode="&#xf719;" d="M-853 -479h327v-159q0 -56 24 -86q23 -29 74 -29q47 0 72 29q26 30 26 86v159h221v-159q0 -62 -17 -116.5t-54.5 -95t-98.5 -64.5t-149 -24q-83 0 -142.5 20.5t-98.5 56.5t-58 87q-18 52 -21 115h-103z" />
<glyph unicode="&#xf71a;" d="M-400 -613q0 33 13 62t35 50.5t51 34t63 12.5q32 0 61 -12.5t50 -34t33.5 -50.5t12.5 -62q0 -32 -12.5 -61t-34.5 -50.5t-50.5 -34t-62 -12.5t-61.5 12.5t-50.5 34t-35 50.5t-12.5 61z" />
<glyph unicode="&#xf71d;" horiz-adv-x="1556" d="M28 1176h263l144 -864l199 679h244l208 -682q12 59 23 114.5t21.5 110l21 109t21.5 110.5q10 44 12 74t2 56q0 31 -7 54t-23.5 39.5t-44.5 24.5t-68 8l2 167q56 3 100.5 14t77.5 33t52.5 56t25.5 83h269q-9 -61 -28.5 -109.5t-48 -83.5t-65.5 -57.5t-79 -33.5 q30 -27 48.5 -61t25.5 -72t5 -79q-1 -41 -12 -83l-193 -783h-261l-213 675l-200 -675h-260z" />
<glyph unicode="&#xf881;" horiz-adv-x="1819" d="M31 815q11 47 30.5 93.5t50.5 90t74.5 80.5t100 64t127.5 43q73 15 160 15q141 0 237 -34t159 -95q60 63 142 94.5t173 31.5t169 -25t135 -75.5t89.5 -127.5t32.5 -182l-2 -1169h-235l2 1129q0 126 -49 184.5t-142 58.5q-78 0 -128.5 -46t-61.5 -136q5 -24 8 -49.5 t2 -51.5l-2 -1089h-235v1109q1 15 0.5 31.5t-6.5 35.5q-8 39 -27.5 75.5t-54 65.5t-85.5 46.5t-122 18.5q-73 0 -125.5 -16t-87.5 -41.5t-54.5 -54.5t-25.5 -52q22 -14 37.5 -36.5t25.5 -48t14 -56t4 -63.5l3 -441h126v-192h-361v636q0 23 -5 47.5t-15.5 48.5t-29.5 45 q-17 21 -48 38z" />
<glyph unicode="&#xf882;" horiz-adv-x="1894" d="M62 192h114v444q0 23 -4 47.5t-14.5 48.5t-29.5 45t-50 38q12 47 33 93.5t53 90t77 80.5t103 64t130 42.5t159 15.5q73 0 133 -9.5t110.5 -26.5t91 -41t71.5 -54q60 64 143.5 96t176.5 32q91 0 169.5 -25t135.5 -75.5t89 -127.5q31 -77 31 -182v-1169h-236v1129 q0 126 -47.5 184.5t-139.5 58.5q-81 0 -133 -49t-58 -147q3 -22 4.5 -43t1.5 -44v-1089h-238v1109q0 50 -15.5 98t-51 87t-93.5 63t-145 25q-73 0 -127 -16t-91 -41.5t-58.5 -54t-27.5 -52.5q17 -17 32.5 -38.5t26 -47.5t16.5 -56q5 -31 5 -62l4 -633h-350z" />
<glyph d="M-941 1355q0 56 11.5 107t37 92.5t65.5 72.5t96 45q10 40 34.5 74.5t65 59.5t98 38.5t135.5 13.5l2 -181q-48 0 -78 -7t-47 -22.5t-22.5 -36.5t-5.5 -49v-47h-56q-38 0 -62.5 -11.5t-38.5 -32.5t-18.5 -50t-4.5 -66h-212z" />
<glyph horiz-adv-x="1000" d="M-902 1557q0 46 17.5 86.5t48 70.5t71 48.5t86.5 18.5q45 0 86 -18.5t72 -48.5t49 -70.5t18 -86.5t-18 -87t-49 -71t-71.5 -48t-85.5 -18q-46 0 -87 18t-70.5 48t-48 71t-18.5 87zM-757 1557q0 -17 6 -31t17.5 -25t25.5 -18t30 -7q17 0 31 7t25.5 18t18.5 25t7 31t-7 31 t-18.5 25t-25.5 18t-31 7q-16 0 -30 -7t-25.5 -18t-17.5 -25t-6 -31zM31 788q0 67 16.5 123t46 101.5t71 80.5t89.5 58.5t101.5 35t109.5 11.5q91 0 168.5 -25t135 -75.5t89.5 -127.5t32 -182l2 -788h-235l-2 748q2 126 -48 184.5t-142 58.5q-81 0 -131.5 -50.5 t-56.5 -152.5h-246z" />
<glyph horiz-adv-x="1000" d="M-902 1557q0 46 17.5 86.5t48 70.5t71 48.5t86.5 18.5q45 0 86 -18.5t72 -48.5t49 -70.5t18 -86.5t-18 -87t-49 -71t-71.5 -48t-85.5 -18q-46 0 -87 18t-70.5 48t-48 71t-18.5 87zM-757 1557q0 -17 6 -31t17.5 -25t25.5 -18t30 -7q17 0 31 7t25.5 18t18.5 25t7 31t-7 31 t-18.5 25t-25.5 18t-31 7q-16 0 -30 -7t-25.5 -18t-17.5 -25t-6 -31zM31 788q0 67 16.5 123t46 101.5t71 80.5t89.5 58.5t101.5 35t109.5 11.5q91 0 168.5 -25t135 -75.5t89.5 -127.5t32 -182l2 -788h-235l-2 748q2 126 -48 184.5t-142 58.5q-81 0 -131.5 -50.5 t-56.5 -152.5h-246z" />
<glyph d="M-963 1352l95 188h759v-188h-854z" />
<glyph d="M-963 1352l95 188h538l-3 165h222l2 -353h-854z" />
<glyph d="M-963 1352l95 188h375l-1 20q0 42 16 79.5t43.5 65.5t64.5 45t79 17t79.5 -17t66.5 -45t45 -65.5t16 -79.5q0 -44 -15.5 -81t-43.5 -65t-65 -45t-79 -17h-676zM-363 1560q0 -14 6.5 -28t16.5 -23.5t23 -15t27 -5.5t28 5.5t24 15t16 23.5t6 28q0 33 -22 54t-52 21 q-14 0 -28 -5.5t-23.5 -16t-15.5 -24t-6 -29.5z" />
<glyph d="M-963 1352l95 188h232l-2 165h212l2 -165h102v165h211l2 -353h-854z" />
<glyph d="M-1515 1352l93 188h1015v-188h-1108z" />
<glyph d="M-1515 1352l93 188h792l-3 165h224l2 -353h-1108z" />
<glyph d="M-1515 1352l95 188h628v20q0 42 16 79.5t43 65.5t65 45t80 17t80.5 -17t66 -45t43.5 -66q14 -37 14 -79q0 -44 -14.5 -81t-42 -65t-65 -45t-79.5 -17h-930zM-661 1560q0 -31 22 -51.5t54 -20.5q31 0 50.5 20.5t19.5 51.5q0 33 -19.5 54t-50.5 21q-17 0 -31 -5.5t-24 -16 t-15.5 -24t-5.5 -29.5z" />
<glyph d="M-1515 1352l95 188h482v165h211l2 -165h106l-3 165h213l2 -353h-1108z" />
<glyph d="M-627 2181h215l3 -343h-217z" />
<glyph d="M-966 2184h295l3 -174q56 0 100 14t74.5 38t45.5 56q15 30 15 66h203q0 -67 -28 -130t-85 -112t-144 -78.5t-205 -29.5h-162v176h-109z" />
<glyph d="M-963 1834q-6 78 8 135.5t40.5 95.5t63 56t75.5 18q42 0 76 -19.5t57 -53.5q21 34 59 54q35 19 77 19q25 0 50.5 -7.5t45.5 -23.5t36.5 -40t24.5 -55q11 14 21 32.5t17 40t11 46t4 46.5h188q0 -35 -8.5 -72t-24.5 -73.5t-38 -69t-48.5 -59.5t-55.5 -45q-30 -19 -60 -25 h-146q0 14 -2 35.5t-6.5 42.5t-12 36.5t-18.5 15.5t-19 -13t-11.5 -33t-5 -42t-1.5 -42h-151q0 18 -1.5 41t-5.5 43t-11 33t-18 13t-18 -15.5t-11.5 -36.5t-6 -42.5t0.5 -35.5h-175z" />
<glyph d="M-790 1981v169h167l1 143h209l-1 -143h168l-3 -169h-165l4 -147h-212l-2 147h-166z" />
<glyph d="M-1445 1352l95 188h1241v-188h-1336z" />
<glyph d="M-1445 1352l95 188h1020l-3 165h222l2 -353h-1336z" />
<glyph d="M-1445 1352l95 188h857l-1 20q0 42 16 79.5t43.5 65.5t64.5 45t79 17t79.5 -17t66.5 -45t45 -65.5t16 -79.5q0 -44 -15.5 -81t-43.5 -65t-65 -45t-79 -17h-1158zM-363 1560q0 -14 6.5 -28t16.5 -23.5t23 -15t27 -5.5t28 5.5t24 15t16 23.5t6 28q0 33 -22 54t-52 21 q-14 0 -28 -5.5t-23.5 -16t-15.5 -24t-6 -29.5z" />
<glyph d="M-1445 1352l95 188h714l-2 165h212l2 -165h102v165h211l2 -353h-1336z" />
<glyph d="M-330 1694v344h218l-1 -344h-217z" />
<glyph d="M-652 1866l1 175h293v-175q56 2 100.5 16t75.5 37.5t47.5 54.5t16.5 67h202q0 -67 -28 -130t-86 -112t-145 -78.5t-204 -29.5h-164v175h-109z" />
<glyph d="M-778 1691q-6 79 8 136t40.5 94.5t63 56t75.5 18.5q42 0 75.5 -19.5t57.5 -52.5q23 33 58.5 52.5t76.5 19.5q54 0 97.5 -30.5t60.5 -95.5q11 13 22 32t18 40.5t11 45.5q2 24 2 48h186q0 -35 -7.5 -72.5t-23 -73.5t-37 -69t-47.5 -59.5t-56 -45.5q-29 -19 -61 -25h-150 q0 13 -1.5 34.5t-5.5 42.5t-12 37q-9 15 -20 15t-17.5 -12.5t-10 -32t-3.5 -42t-1 -42.5h-153q0 18 -0.5 41.5t-5 43t-12 32t-17.5 12.5q-11 0 -19 -15.5t-12 -36.5t-5 -42q1 -21 1 -35h-176z" />
<glyph d="M-493 2008h164l1 142h213l-3 -142h167l1 -170h-165v-147h-213v147h-162z" />
<glyph d="M-704 1723l1 343h219l-3 -343h-217z" />
<glyph d="M-1022 1896v173h295v-173q56 1 101.5 14.5t76.5 37t47 55.5q16 30 16 66h200q0 -67 -28 -130t-85 -112t-145 -78q-89 -28 -206 -28h-163v175h-109z" />
<glyph d="M-1079 1721q-6 78 8 134.5t41.5 94.5t64.5 56q38 18 77 18q41 0 73 -19.5t56 -52.5q23 33 60.5 52.5t79.5 19.5q53 0 96.5 -30.5t59.5 -95.5q12 13 22 32t17 41.5t10 45.5q5 24 5 47h185q0 -35 -8.5 -72.5t-24.5 -73.5t-37.5 -69t-47.5 -59t-55 -44t-59 -25h-150 q0 12 -1 34t-5 43t-11 36t-18 15t-19.5 -13t-13 -32.5t-5.5 -42t-1 -40.5h-153q0 18 -0.5 40.5t-5 42t-10.5 32.5q-5 13 -16 13t-19.5 -15t-13 -36t-5.5 -43t-1 -34h-175z" />
<glyph d="M-871 2036h165l3 142h212l-2 -142h163l2 -170h-162l-1 -145h-212v145h-166z" />
<glyph d="M-666 -316l2 182h324l-2 -440h-221v258h-103z" />
<glyph d="M-930 -316l2 182h326v-161q-1 -56 22 -86q23 -29 73 -29q48 0 73 29.5t27 85.5l1 161h221l-1 -161q-2 -62 -18.5 -116t-53.5 -94.5t-97.5 -64.5t-148.5 -24q-84 0 -143 20t-98 57t-58.5 88t-23.5 113h-103z" />
<glyph d="M-661 -258q0 34 12.5 62.5t34.5 50.5t50.5 34.5t62.5 12.5q32 0 60.5 -12.5t50.5 -34.5t34.5 -50.5t12.5 -62.5q0 -32 -12 -60.5t-33 -50.5t-50.5 -34.5t-59.5 -12.5q-34 0 -63.5 12.5t-52 34.5t-35 50.5t-12.5 60.5z" />
<glyph d="M-638 -316l2 182h325l-3 -440h-221v258h-103z" />
<glyph d="M-1074 -316l2 182h327v-161q-1 -56 22 -85.5t73 -29.5q48 0 73 29.5t25 85.5l3 161h220l-1 -161q0 -62 -17 -116t-54 -94.5t-98 -64.5t-148 -24q-82 0 -141.5 20t-99 57t-59.5 88q-22 51 -25 113h-102z" />
<glyph d="M-616 -258q0 34 12.5 62.5t35 50.5t51 34.5t62.5 12.5q32 0 61.5 -12.5t50.5 -34.5t33.5 -50.5t12.5 -62.5q0 -32 -12.5 -60.5t-33.5 -50.5t-49 -34.5t-61.5 -12.5t-63 12.5t-51 34.5t-35 50.5t-13.5 60.5z" />
<glyph d="M-890 1355v283h218l-1 -101h900v-182h-1117z" />
<glyph d="M-686 1838v343h217l1 -343h-218z" />
<glyph d="M-986 2184h294l3 -174q56 0 101 14t75.5 38t46.5 56q15 30 12 66h205q0 -67 -27.5 -130t-85 -112t-145 -78.5t-204.5 -29.5h-163v176h-109z" />
<glyph d="M-932 1834q-6 78 8 135.5t40.5 95.5t63 56t75.5 18q42 0 75.5 -19.5t59.5 -53.5q21 34 58 53.5t77 19.5q26 0 50.5 -7.5t45.5 -23.5t36 -40t24 -55q11 14 21 32.5t17 40t11 46t5 46.5h187q0 -35 -8.5 -72t-24 -73.5t-38 -69t-48.5 -59.5t-55 -45q-29 -19 -60 -25h-147 q0 14 -1.5 35.5t-5.5 42.5t-12 37q-9 15 -20 15q-12 0 -19 -13t-11 -33t-5.5 -42t0.5 -42h-153q0 18 -1.5 41t-5.5 43t-11 33t-17 13q-11 0 -19 -15.5t-12 -36.5t-5 -42q1 -22 1 -36h-176z" />
<glyph d="M-851 1981l3 169h165v143h210l3 -143h162v-169h-165l3 -147h-213l-2 147h-166z" />
</font>
</defs>
</svg>
