<?phpxml version="1.0" standalone="no"?>
<!DOCTYPE svg PUBLIC "-//W3C//DTD SVG 1.1//EN" "http://www.w3.org/Graphics/SVG/1.1/DTD/svg11.dtd" >
<svg xmlns="http://www.w3.org/2000/svg" xmlns:xlink="http://www.w3.org/1999/xlink" version="1.1">
<metadata></metadata>
<defs>
<font id="db_ozone_xlight" horiz-adv-x="0" >
<font-face units-per-em="2048" ascent="1638" descent="-410" />
<missing-glyph horiz-adv-x="586" />
<glyph unicode="&#x2b;&#x2d;" horiz-adv-x="1159" d="M129 0v101h904v-101h-904zM129 595v104h401v401h107v-401h396v-104h-396v-398h-107v398h-401z" />
<glyph unicode="&#x2e;&#x2e;&#x2e;" horiz-adv-x="1598" d="M197 82q0 19 7 36.5t19.5 29.5t29.5 19t36 7t36 -7t29.5 -19t19.5 -29.5t7 -36.5t-7 -37t-19.5 -30t-28.5 -19t-37 -7q-19 0 -36 7t-29.5 19t-19.5 30t-7 37zM707 82q0 19 7 36.5t19 29.5t29 19q19 7 38 7t36.5 -7t29.5 -19t19.5 -29.5t7.5 -36.5t-7.5 -37t-19.5 -30 t-29.5 -19t-36.5 -7t-37 7t-30 19t-19 30t-7 37zM1211 82q0 19 7.5 36.5t20 29.5t29.5 19t36 7t37 -7t30.5 -19t19 -29.5t6.5 -36.5t-6.5 -37t-19 -30t-29.5 -19q-19 -7 -38 -7t-36 7t-29.5 19t-20 30t-7.5 37z" />
<glyph unicode="&#x3c;&#x3d;" horiz-adv-x="1161" d="M129 48h904v105h-904v-105zM129 595v104l904 350v-115l-770 -286l770 -286v-115z" />
<glyph unicode="&#x3e;&#x3d;" horiz-adv-x="1159" d="M129 48v105h904v-105h-904zM129 247v115l770 286l-770 286v115l904 -350v-104z" />
<glyph unicode="&#xe4f;&#x22;" horiz-adv-x="1433" d="M145 562q0 79 20.5 151.5t57.5 136.5t89 116.5t115 89.5t135 57.5t150 20.5q80 0 153 -20.5t137 -57.5t116 -89.5t89 -116.5t57.5 -136.5t20.5 -151.5q0 -77 -20.5 -149.5t-57.5 -135.5t-89 -115t-116 -89t-137 -57.5t-153 -20.5q-76 0 -149 20.5t-136 57.5t-115 89 t-89 115t-57.5 135t-20.5 150zM258 562q0 -63 16 -120.5t46.5 -108.5t71.5 -92.5t91.5 -71t108 -46t120.5 -16.5t122 16.5t111 46t93.5 71t71.5 92.5t46.5 108.5t16.5 120.5q0 96 -36 179.5t-99 145.5t-146.5 98.5t-179.5 36.5q-63 0 -120.5 -16.5t-108 -46.5t-91.5 -72 t-71.5 -93t-46.5 -110t-16 -122zM410 562q0 63 24 118.5t65 97t96.5 65.5t116.5 24q63 0 119.5 -24t97.5 -65.5t65.5 -97t24.5 -118.5q0 -62 -24.5 -117.5t-65.5 -96.5t-97.5 -65.5t-119.5 -24.5q-61 0 -116.5 24.5t-96.5 65.5t-65 96.5t-24 117.5zM490 1644h150l-18 -364 h-115zM522 562q0 -39 15 -74.5t41 -61.5t61 -41t73 -15q40 0 75.5 15t61.5 41t42 61q16 36 16 75t-16 74t-42 61t-61.5 42t-75.5 16q-38 0 -73 -16t-61 -42t-41 -61t-15 -74zM784 1644h148l-17 -364h-115z" />
<glyph unicode="&#xe0e;&#xe3a;" horiz-adv-x="1267" d="M93 107q55 -3 84 14t41 44.5t13.5 60t1.5 60.5v415l-104 148q86 148 208.5 222t291.5 74q118 0 205.5 -28.5t145.5 -85t87.5 -137t29.5 -184.5v-787q0 -37 -18.5 -69t-48.5 -52.5t-71 -23.5t-86 19l-259 124q-15 6 -25.5 7t-24.5 -7l-269 -140l-59 77l307 156 q13 8 24 10.5t22 2.5t22 -4t26 -9l281 -126q11 -6 20.5 -5t18.5 5.5t13.5 15t4.5 23.5v763q0 96 -23 162.5t-67 108.5t-109.5 61t-150.5 19q-50 0 -97.5 -8t-94.5 -30t-88 -59q-44 -37 -76 -97l87 -129v-460q0 -58 -12 -100t-32 -70.5t-45.5 -45.5t-53 -27t-53.5 -12.5 t-48 -2.5zM918 -436q0 20 7 37t20 30t30 20t36 7t35.5 -7t29 -20t20 -30t7.5 -37q0 -19 -7.5 -35.5t-20 -28.5t-29.5 -20q-16 -7 -35 -7t-36 7.5t-30 19.5t-20 28.5t-7 35.5z" />
<glyph unicode="&#xe0f;&#xe3a;" horiz-adv-x="1267" d="M96 104q55 -3 83.5 14.5t41 44.5t14 59.5t1.5 61.5v417l-104 148q84 148 207.5 222t292.5 74q117 0 205 -28.5t146 -85t87.5 -137t29.5 -184.5v-777q0 -49 -24 -85.5t-58 -54.5t-73 -17q-38 -1 -70 24l-146 118q-8 7 -18 8q-10 0 -18 -8l-134 -118q-32 -19 -53 -17.5 t-43 17.5l-166 123l95 58l107 -80q15 -13 31 0l136 118q14 7 24.5 11t21 4t21.5 -3.5t25 -11.5l157 -120q11 -9 22 -10t20.5 3t16 15t6.5 26v757q0 96 -23.5 162.5t-68 108.5t-110.5 61t-149 19q-49 0 -98 -8t-95.5 -30t-88.5 -59q-43 -37 -76 -97l88 -129v-460 q0 -58 -12.5 -100t-32 -70.5t-45 -45.5t-53 -27t-53.5 -12.5t-48 -2.5zM918 -436q0 20 7 37t20 30t30 20t36 7t35.5 -7t29 -20t20 -30t7.5 -37q0 -19 -7.5 -35.5t-20 -28.5t-29.5 -20q-16 -7 -35 -7t-36 7.5t-30 19.5t-20 28.5t-7 35.5z" />
<glyph unicode="&#xe0e;&#xe38;" horiz-adv-x="1267" d="M93 107q55 -3 84 14t41 44.5t13.5 60t1.5 60.5v415l-104 148q86 148 208.5 222t291.5 74q118 0 205.5 -28.5t145.5 -85t87.5 -137t29.5 -184.5v-732q0 -42 -13 -74.5t-30.5 -54.5t-35 -34t-25.5 -18q-24 -12 -58 -12.5t-62 12.5l-259 124q-15 6 -25.5 7t-24.5 -7 l-269 -140l-59 77l307 156q13 8 24 10.5t22 2.5t22 -4t26 -9l281 -126q11 -3 22 1t19 13.5t12 21.5t4 25v741q0 96 -23 162.5t-67 108.5t-109.5 61t-150.5 19q-50 0 -97.5 -8t-94.5 -30t-88 -59q-44 -37 -76 -97l87 -129v-460q0 -58 -12 -100t-32 -70.5t-45.5 -45.5t-53 -27 t-53.5 -12.5t-48 -2.5zM860 -326h52q52 0 88 -7t58.5 -29t32 -61t9.5 -102v-155h-120v153q0 32 -4.5 51.5t-14 29.5t-25 13t-37.5 3h-39v104z" />
<glyph unicode="&#xe0f;&#xe38;" horiz-adv-x="1267" d="M96 104q55 -3 83.5 14.5t41 44.5t14 59.5t1.5 61.5v417l-104 148q84 148 207.5 222t292.5 74q117 0 205 -28.5t146 -85t87.5 -137t29.5 -184.5v-724q0 -24 -7 -49.5t-21 -49.5t-37.5 -46t-54.5 -41q-17 -8 -30 -12t-25.5 -4t-24 4t-25.5 12l-146 118q-8 7 -18 8 q-10 0 -18 -8l-134 -118q-32 -19 -53 -17.5t-43 17.5l-166 123l95 58l107 -80q15 -13 31 0l136 118q14 7 24.5 11t21 4t21.5 -3.5t25 -11.5l157 -120q14 0 25.5 6.5t20.5 17.5t14 23.5t5 26.5v717q0 96 -23.5 162.5t-68 108.5t-110.5 61t-149 19q-49 0 -98 -8t-95.5 -30 t-88.5 -59q-43 -37 -76 -97l88 -129v-460q0 -58 -12.5 -100t-32 -70.5t-45 -45.5t-53 -27t-53.5 -12.5t-48 -2.5zM860 -326h52q52 0 88 -7t58.5 -29t32 -61t9.5 -102v-155h-120v153q0 32 -4.5 51.5t-14 29.5t-25 13t-37.5 3h-39v104z" />
<glyph unicode="&#xe0e;&#xe39;" horiz-adv-x="1267" d="M93 107q55 -3 84 14t41 44.5t13.5 60t1.5 60.5v415l-104 148q86 148 208.5 222t291.5 74q118 0 205.5 -28.5t145.5 -85t87.5 -137t29.5 -184.5v-732q0 -42 -13 -74.5t-30.5 -54.5t-35 -34t-25.5 -18q-24 -12 -58 -12.5t-62 12.5l-259 124q-15 6 -25.5 7t-24.5 -7 l-269 -140l-59 77l307 156q13 8 24 10.5t22 2.5t22 -4t26 -9l281 -126q11 -3 22 1t19 13.5t12 21.5t4 25v741q0 96 -23 162.5t-67 108.5t-109.5 61t-150.5 19q-50 0 -97.5 -8t-94.5 -30t-88 -59q-44 -37 -76 -97l87 -129v-460q0 -58 -12 -100t-32 -70.5t-45.5 -45.5t-53 -27 t-53.5 -12.5t-48 -2.5zM578 -323h70q40 0 66.5 -7.5t42.5 -25t22.5 -44.5t6.5 -66v-14q0 -16 4.5 -33t16 -31.5t30 -24t47.5 -9.5q30 0 48.5 9.5t29.5 24t14.5 31.5t3.5 33v157h117v-157q0 -43 -15.5 -79.5t-44.5 -62.5t-68.5 -40.5t-84.5 -14.5q-50 0 -89 14.5t-67 40.5 t-42.5 62.5t-14.5 79.5q0 33 -12 45t-43 12h-35z" />
<glyph unicode="&#xe0f;&#xe39;" horiz-adv-x="1267" d="M96 104q55 -3 83.5 14.5t41 44.5t14 59.5t1.5 61.5v417l-104 148q84 148 207.5 222t292.5 74q117 0 205 -28.5t146 -85t87.5 -137t29.5 -184.5v-724q0 -24 -7 -49.5t-21 -49.5t-37.5 -46t-54.5 -41q-17 -8 -30 -12t-25.5 -4t-24 4t-25.5 12l-146 118q-8 7 -18 8 q-10 0 -18 -8l-134 -118q-32 -19 -53 -17.5t-43 17.5l-166 123l95 58l107 -80q15 -13 31 0l136 118q14 7 24.5 11t21 4t21.5 -3.5t25 -11.5l157 -120q14 0 25.5 6.5t20.5 17.5t14 23.5t5 26.5v717q0 96 -23.5 162.5t-68 108.5t-110.5 61t-149 19q-49 0 -98 -8t-95.5 -30 t-88.5 -59q-43 -37 -76 -97l88 -129v-460q0 -58 -12.5 -100t-32 -70.5t-45 -45.5t-53 -27t-53.5 -12.5t-48 -2.5zM578 -323h70q40 0 66.5 -7.5t42.5 -25t22.5 -44.5t6.5 -66v-14q0 -16 4.5 -33t16 -31.5t30 -24t47.5 -9.5q30 0 48.5 9.5t29.5 24t14.5 31.5t3.5 33v157h117 v-157q0 -43 -15.5 -79.5t-44.5 -62.5t-68.5 -40.5t-84.5 -14.5q-50 0 -89 14.5t-67 40.5t-42.5 62.5t-14.5 79.5q0 33 -12 45t-43 12h-35z" />
<glyph unicode="&#xd;" horiz-adv-x="664" />
<glyph unicode=" "  horiz-adv-x="586" />
<glyph unicode="&#x09;" horiz-adv-x="586" />
<glyph unicode="&#xa0;" horiz-adv-x="586" />
<glyph unicode="!" horiz-adv-x="672" d="M281 79q0 20 6 35t18.5 27t27.5 18.5t34 6.5t35.5 -6.5t27.5 -18.5t18 -28q7 -14 7 -33.5t-7 -36t-18 -27.5t-27.5 -17.5t-35.5 -6.5q-38 0 -62 24.5t-24 62.5zM306 1417h124l-9 -994h-106z" />
<glyph unicode="&#x22;" horiz-adv-x="900" d="M208 1085v343h140v-343h-140zM551 1085v343h139v-343h-139z" />
<glyph unicode="#" horiz-adv-x="1365" d="M182 480v93h217l48 300h-203v97h216l78 458h113l-76 -458h362l74 458h108l-72 -458h193v-97h-207q-12 -77 -26.5 -150.5t-24.5 -149.5h199v-93h-217l-78 -483h-115l84 483h-362l-75 -483h-112l78 483h-202zM504 567h369l53 311h-373z" />
<glyph unicode="$" horiz-adv-x="1156" d="M64 179l87 81q44 -42 86 -71.5t87 -50t92 -31.5t100 -14v587l-28 2q-85 8 -156.5 34.5t-122.5 71.5t-79.5 110.5t-28.5 150.5t30.5 153.5t85 119.5t131.5 81t168 38v178h98v-178q59 -3 110 -13.5t98 -29t90.5 -46t86.5 -64.5l-78 -77q-32 27 -64 50.5t-69 41.5t-79.5 29 t-94.5 15v-578l60 -9q93 -13 164.5 -39t120.5 -70.5t76.5 -110t35.5 -154.5q0 -86 -32.5 -155t-92.5 -121t-144 -83.5t-188 -40.5v-216h-98v216q-71 3 -132 16.5t-115.5 38.5t-104.5 59t-100 79zM216 1055q0 -69 23.5 -117t64.5 -78.5t96 -49t116 -26.5v563 q-69 -9 -124.5 -32t-94.5 -60.5t-60 -88.5t-21 -111zM614 93q76 6 138.5 27.5t107 58.5t69.5 88t25 114q2 41 -8 76.5t-31.5 64.5t-50 52t-61.5 39.5t-70 27.5t-73 15l-46 7v-570z" />
<glyph unicode="%" horiz-adv-x="1660" d="M110 948v216q0 61 19 111.5t55.5 86t86.5 55.5q50 19 113 19q60 0 112 -19.5t89 -55t57.5 -86t20.5 -111.5v-216q0 -58 -20.5 -107t-57.5 -84.5t-88 -55.5q-53 -19 -113 -19q-63 0 -113 19.5t-86.5 55t-55.5 84.5t-19 107zM206 954q0 -44 9.5 -80t31.5 -60.5t56 -37.5 t80.5 -13t81 13.5t56.5 39t32 60.5q11 34 11 78v210q0 42 -10.5 76.5t-32.5 59.5t-56 38q-35 14 -81 14q-47 0 -81 -13.5t-56 -38.5t-31.5 -59.5t-9.5 -76.5v-210zM441 0l691 1417h100l-694 -1417h-97zM999 258v213q0 61 19.5 111.5t56.5 86t88 55t114 19.5 q61 0 112.5 -19.5t88.5 -55t57.5 -86t20.5 -111.5v-213q0 -61 -20.5 -111.5t-57.5 -87t-88.5 -56t-112.5 -19.5q-63 0 -114 19.5t-88 56t-56.5 87t-19.5 111.5zM1097 260q0 -44 10.5 -78.5t32.5 -60t56 -40t81 -14.5q48 0 83 14.5t56.5 40.5t32 61.5t10.5 76.5v206 q0 44 -10.5 80t-32 62t-56.5 40.5t-83 14.5q-47 0 -81 -13.5t-56 -39.5t-32.5 -62.5t-10.5 -81.5v-206z" />
<glyph unicode="&#x26;" horiz-adv-x="1497" d="M137 396q0 85 29 149.5t76.5 116.5t108.5 95t126 84q-28 33 -57.5 69.5t-52.5 76t-37.5 82.5t-14.5 90q0 60 23.5 112t64.5 90.5t97 60.5t119 22q65 0 121 -22t98 -60.5t65 -91.5t23 -114q0 -44 -12.5 -79.5t-33 -64t-47.5 -53.5t-58.5 -47.5t-66 -43.5t-65.5 -43 l426 -488q22 36 38 70t26 74t15.5 89t5.5 118h115q0 -135 -29 -244.5t-97 -191.5q24 -30 51.5 -61.5t55 -64.5t55 -64.5t50.5 -61.5h-152l-143 163q-24 -19 -65 -50t-99 -58.5t-131 -47.5q-75 -21 -162 -21q-104 0 -190 29.5t-146.5 83.5t-95 129.5t-34.5 167.5zM258 401 q0 -71 25 -128t70.5 -98t108.5 -63q61 -22 138 -22q44 0 90.5 7t95 23.5t100 46.5t107.5 77l-445 519q-52 -33 -104 -68.5t-93 -77.5t-67 -94.5t-26 -121.5zM433 1164q0 -27 7.5 -52.5t24.5 -56t44.5 -67.5t68.5 -84q33 23 72.5 47t74 53t59 66t27.5 86q0 39 -15 73t-41 60 t-61 41q-36 14 -75 14t-73 -14.5t-60 -37.5t-39.5 -56t-13.5 -72z" />
<glyph unicode="'" horiz-adv-x="557" d="M208 1085v343h140v-343h-140z" />
<glyph unicode="(" horiz-adv-x="624" d="M214 174v1223q0 28 1 53t6.5 50.5t14 51.5t22.5 54q11 24 26 44.5t32 41t39 41.5t49 45l73 -75q-18 -19 -35 -36.5t-32 -34.5t-28 -35q-13 -19 -23 -38q-17 -36 -23.5 -79.5t-6.5 -95.5v-1196q0 -52 6.5 -95.5t23.5 -78.5q10 -21 23 -39.5t28 -36t32 -34t35 -36.5 l-73 -76q-27 26 -49 47t-39 41.5t-32 41.5q-15 20 -26 48q-28 51 -36 102t-8 102z" />
<glyph unicode=")" horiz-adv-x="624" d="M142 -126q39 38 69 71q30 30 49 71q19 36 25.5 78.5t6.5 93.5v1196q0 52 -6.5 94.5t-25.5 77.5q-19 39 -49 71.5t-69 69.5l85 81q25 -24 45 -45t37.5 -41.5t33.5 -41t30 -44.5q13 -28 21.5 -54t12.5 -51.5t4.5 -50.5t0.5 -53v-1223q0 -25 -0.5 -51t-4.5 -51t-12.5 -51 t-21.5 -51q-15 -26 -30.5 -47.5t-33 -42t-37.5 -41t-45 -47.5z" />
<glyph unicode="*" horiz-adv-x="1031" d="M159 918l271 151l-271 149l49 84l263 -159l-5 311h98l-5 -311l263 159l48 -84l-270 -149l270 -151l-48 -82l-263 160l5 -311h-98l5 311l-263 -160z" />
<glyph unicode="+" horiz-adv-x="1161" d="M129 530v104h401v399h107v-399h396v-104h-396v-398h-107v398h-401z" />
<glyph unicode="," horiz-adv-x="568" d="M208 151h151v-302l-151 -149v451z" />
<glyph unicode="-" horiz-adv-x="942" d="M182 530v104h578v-104h-578z" />
<glyph unicode="." horiz-adv-x="583" d="M197 82q0 19 7 36.5t19.5 29.5t29.5 19t36 7t36 -7t29.5 -19t19.5 -29.5t7 -36.5t-7 -37t-19.5 -30t-28.5 -19t-37 -7q-19 0 -36 7t-29.5 19t-19.5 30t-7 37z" />
<glyph unicode="/" horiz-adv-x="746" d="M0 -163l629 1900h118l-632 -1900h-115z" />
<glyph unicode="0" horiz-adv-x="1023" d="M115 370v685q0 82 29 151t81 118.5t123 76.5t159 27t162 -27t127 -76.5t83.5 -118.5t30.5 -151v-685q0 -84 -30.5 -153t-83.5 -119.5t-127 -79.5t-162 -29t-159 29t-123 79.5t-81 120.5t-29 152zM227 375q0 -59 18 -111.5t53.5 -93.5t87.5 -64.5t121 -23.5 q71 0 124.5 23.5t90 64.5t55 94.5t18.5 110.5v669q0 62 -18.5 116t-55 93.5t-90 62t-124.5 22.5q-69 0 -121 -22.5t-87.5 -62t-53.5 -93.5t-18 -116v-669z" />
<glyph unicode="1" horiz-adv-x="1023" d="M252 1066v129l273 222h115v-1417h-115v1296z" />
<glyph unicode="2" horiz-adv-x="1023" d="M121 0v96l602 740q41 54 62 106.5t21 112.5q0 63 -19.5 115t-56.5 89t-90.5 57t-120.5 20q-57 0 -108.5 -16.5t-91.5 -51t-63 -88.5t-23 -128h-112q0 81 27 150t78 119t125 78.5t168 28.5q91 0 165.5 -26.5t126.5 -74t81 -117t29 -155.5q0 -41 -7 -75.5t-19.5 -67 t-32.5 -65.5q-21 -30 -48 -66l-559 -685h666v-96h-800z" />
<glyph unicode="3" horiz-adv-x="1023" d="M51 348h115q5 -73 34 -124t72.5 -83.5t98.5 -46.5q54 -15 111 -15q66 0 123.5 21t100 59t67 93t24.5 123q0 72 -19 128t-58 95.5t-100.5 60.5t-148.5 21h-24v94h24q154 0 227 72.5t73 205.5q0 71 -22.5 124.5t-62 89.5t-93 54t-113.5 18q-66 0 -117.5 -18t-89 -52.5 t-59.5 -82.5t-29 -108h-118q11 85 46 150.5t89 109.5t124.5 67.5t153.5 23.5q90 0 164 -26.5t126 -74t80 -117.5t28 -158q0 -55 -11 -103.5t-35 -89t-62 -73t-93 -54.5q120 -42 177.5 -132t57.5 -225q0 -96 -32.5 -168.5t-90 -123t-136.5 -75.5q-80 -24 -170.5 -24 t-166 21.5t-133 67t-91.5 114t-41 161.5z" />
<glyph unicode="4" horiz-adv-x="1023" d="M53 233v90l555 1094h121l-552 -1091h471v448h115v-448h201v-93h-201v-233h-115v233h-595z" />
<glyph unicode="5" horiz-adv-x="1023" d="M126 318h112q9 -55 28 -100t53 -75.5t83.5 -47t113.5 -16.5q31 0 59.5 5t56 14.5t51.5 24t40 30.5q33 32 51 69.5t27.5 78t11 82.5t1.5 80q0 44 -4 88.5t-15 86.5t-30.5 79t-49.5 64t-74.5 42t-104.5 15q-51 0 -95 -9.5t-79.5 -28.5t-60 -46.5t-35.5 -63.5h-100v727h723 v-94h-623v-487q49 49 118 72q71 24 164 24q82 0 146 -22q65 -22 109 -61q40 -38 63.5 -84t37.5 -97.5t18 -103.5t4 -101q0 -51 -2.5 -101t-15 -98.5t-36 -93t-64.5 -82.5q-52 -50 -123 -77t-169 -27q-93 0 -167 25q-75 27 -124 70q-43 42 -68 99.5t-31 139.5z" />
<glyph unicode="6" horiz-adv-x="1023" d="M93 407q0 37 4 72.5t14 73t26 78t42 87.5l372 699h118l-327 -606q36 11 83.5 19t93.5 8q99 0 175 -31.5t129.5 -89t81 -134t27.5 -165.5q0 -91 -29 -169t-82.5 -136t-131.5 -92.5t-179 -34.5q-100 0 -177.5 31.5t-131 88t-81 133t-27.5 168.5zM208 412q0 -71 20.5 -132 t60.5 -106t96 -70t125 -25q70 0 126 25t95.5 70t61 106t21.5 132q0 66 -18.5 125.5t-55.5 105t-92.5 71.5t-131.5 26q-69 0 -126 -23.5t-97.5 -66t-62.5 -102.5t-22 -136z" />
<glyph unicode="7" horiz-adv-x="1023" d="M151 1103v314h794v-91l-533 -1326h-117l530 1323h-562v-220h-112z" />
<glyph unicode="8" horiz-adv-x="1023" d="M79 384q0 63 17.5 116t48 98t74.5 79.5t96 59.5q-99 55 -151 133t-52 190q0 80 29 147.5t81 116.5t124.5 76.5t160.5 27.5q90 0 164 -27.5t127.5 -76.5t83.5 -116.5t30 -147.5q0 -106 -53 -187t-149 -136q53 -25 96 -59.5t73.5 -79.5t47 -98t16.5 -116q0 -85 -33 -158 t-90.5 -125t-137.5 -82q-82 -30 -175 -30q-91 0 -169 30t-135.5 82t-90.5 125t-33 158zM195 389q0 -62 23.5 -116.5t65.5 -96.5t99.5 -65t123.5 -23q68 0 127 23t101.5 65t67 96.5t24.5 116.5q0 64 -24.5 119.5t-67 97t-101.5 64.5t-127 23q-66 0 -123.5 -23t-99.5 -64.5 t-65.5 -96t-23.5 -120.5zM225 1060.5q0 -60.5 20.5 -111t57.5 -87t89 -56.5t115 -20q66 0 119.5 20t91.5 56.5t58.5 87t20.5 111t-20.5 111t-58.5 87.5t-91.5 58t-119.5 21q-63 0 -115 -21t-89 -58t-57.5 -87.5t-20.5 -111z" />
<glyph unicode="9" horiz-adv-x="1023" d="M93 996q0 90 27.5 169t81 138t131.5 92t177 33q101 0 180 -31.5t133 -86.5t81.5 -132t27.5 -167q0 -37 -4.5 -73.5t-15.5 -74.5t-27 -78.5t-41 -85.5l-373 -699h-115l326 606q-35 -11 -83 -19.5t-95 -8.5q-98 0 -174.5 32.5t-129 88.5t-80 132.5t-27.5 164.5zM208 1004 q0 -66 18.5 -125.5t56.5 -104.5t94 -71t130 -26q70 0 126.5 23t96.5 65.5t62 103t22 135.5q0 71 -20.5 132t-60.5 106.5t-96 70.5t-127 25q-69 0 -124.5 -25t-95 -70.5t-61 -106.5t-21.5 -132z" />
<glyph unicode=":" horiz-adv-x="645" d="M260 82q0 19 7 36.5t19.5 29.5t30 19t36.5 7q20 0 37.5 -7t30 -19t19.5 -29.5t7 -36.5t-7 -37t-19.5 -30t-30 -19t-37.5 -7q-19 0 -36.5 7t-30 19t-19.5 30t-7 37zM260 822q0 19 7 37t19.5 30t30 19t36.5 7q20 0 37.5 -7t30 -19t19.5 -30t7 -37t-7 -37t-19.5 -30t-30 -19 t-37.5 -7q-19 0 -36.5 7t-30 19t-19.5 30t-7 37z" />
<glyph unicode=";" horiz-adv-x="645" d="M260 822q0 19 7 37t19.5 30t30 19t36.5 7q20 0 37.5 -7t30 -19t19.5 -30t7 -37t-7 -37t-19.5 -30t-30 -19t-37.5 -7q-19 0 -36.5 7t-30 19t-19.5 30t-7 37zM278 151h149v-304l-149 -147v451z" />
<glyph unicode="&#x3c;" horiz-adv-x="1159" d="M129 595v104l904 350v-115l-770 -286l770 -286v-115z" />
<glyph unicode="=" horiz-adv-x="1161" d="M129 359v104h904v-104h-904zM129 699v104h904v-104h-904z" />
<glyph unicode="&#x3e;" horiz-adv-x="1159" d="M129 247v115l770 286l-770 286v115l904 -350v-104z" />
<glyph unicode="?" horiz-adv-x="993" d="M132 1085q0 74 27 140t77 114.5t119.5 76.5t151.5 28t152 -26t120.5 -74t78.5 -114t28 -142q0 -36 -7.5 -66t-19.5 -59.5t-28.5 -57.5t-35.5 -56q-43 -61 -89 -126t-90 -128q-10 -13 -17 -28.5t-11 -30.5t-5.5 -29t-1.5 -25v-98h-115v93q0 29 4 52t12 44.5t19 42t26 44.5 l174 247q14 22 28 43t23.5 43t15.5 46t6 49q0 55 -20 102.5t-55.5 82t-85 54.5t-106.5 20q-59 0 -107.5 -21.5t-83 -57t-53.5 -82.5q-19 -49 -19 -101h-112zM436 79q0 20 6 35t17.5 27t27.5 18.5t35 6.5t35 -6.5t27.5 -18.5t17.5 -28q6 -14 6 -34q0 -38 -24 -62.5t-62 -24.5 t-62 24.5t-24 62.5z" />
<glyph unicode="@" horiz-adv-x="1764" d="M134 718q6 104 36 202t81.5 182t121.5 152.5t154 118t181 76.5q98 26 202 26q108 0 204.5 -24.5t178.5 -70.5t146.5 -110t110 -145.5t68.5 -177t21 -200.5q-3 -96 -30.5 -180.5t-77 -146t-122 -98t-165.5 -36.5q-41 0 -74 10.5t-56 27.5t-38.5 41t-20.5 53 q-37 -43 -72.5 -69t-71.5 -39.5t-71.5 -18.5t-70.5 -5q-77 0 -130 25.5t-85.5 69.5t-47.5 102q-16 57 -16 123q0 27 4.5 55.5t6.5 56.5q17 90 49 170.5t82 138.5t120 92.5t163 34.5q36 0 67.5 -5.5t60 -18t53.5 -34.5t47 -55l19 93h101l-101 -575q-17 -101 7 -147 q26 -45 86 -45q44 0 81 16.5t67 44t54.5 63.5t41 78t26 87t9.5 91q3 87 -16 168.5t-57.5 152t-94.5 128.5t-127.5 99t-154.5 63q-81 23 -174 23q-87 0 -168.5 -22t-154 -61.5t-133.5 -98.5t-107 -132.5t-73 -160.5q-27 -89 -33 -188q-4 -92 16 -176t59.5 -157.5t97 -133 t129 -103t155 -66.5t175.5 -23q54 0 112 9.5t112 28t104 45.5q51 28 95 61l66 -85q-102 -74 -228 -115t-261 -41q-104 0 -201 24.5t-180.5 71t-151 114.5t-115 152t-70.5 184q-23 98 -21 210zM600 584q0 -44 9.5 -84t31 -68.5t57.5 -46.5t91 -18q52 0 92 15t70 40t52.5 58.5 t39 72.5t27 80.5t18.5 84.5q7 38 12.5 72.5t5.5 69.5q0 44 -9 84t-31 68.5t-59 45t-92 16.5q-48 0 -87 -15t-70 -41t-54.5 -60.5t-41 -74t-29 -82t-19.5 -83.5q-6 -34 -10 -68.5t-4 -65.5z" />
<glyph unicode="A" horiz-adv-x="1208" d="M5 0l548 1417h103l547 -1417h-123l-129 342h-691l-128 -342h-127zM297 444h618l-309 814z" />
<glyph unicode="B" horiz-adv-x="1312" d="M197 0v1417h526q94 0 173 -25t137 -72t90.5 -116.5t32.5 -156.5q0 -55 -15 -105t-43.5 -92t-71 -73.5t-97.5 -50.5q57 -19 103 -52t78.5 -76t48.5 -97t16 -115q0 -96 -31.5 -167.5t-89 -120.5t-138 -73.5t-179.5 -24.5h-540zM318 101h405q77 0 140 19.5t107 56.5t67 90.5 t23 118.5q0 66 -23 119.5t-67 90.5t-107 57.5t-140 20.5h-405v-573zM318 774h389q67 0 126.5 16t105 48.5t71.5 84.5t26 124t-26 123.5t-71.5 84.5t-105 48t-126.5 15h-389v-544z" />
<glyph unicode="C" horiz-adv-x="1231" d="M140 710q0 80 1 145.5t5.5 119t12 97t22 80.5t36.5 69q21 33 54 64q70 71 162.5 108t195.5 37q94 0 175 -28t144 -82t104 -132q41 -76 59 -174h-115q-14 74 -47.5 132t-80.5 99t-108 63t-131 22q-74 0 -142.5 -26.5t-122.5 -80.5q-26 -26 -44.5 -53t-30.5 -58.5t-19 -71 t-11 -88t-5.5 -108t-1.5 -134.5q0 -76 1.5 -135.5t5.5 -108t11 -87t19 -70.5t30.5 -59.5t44.5 -52.5q54 -53 121.5 -81t143.5 -28q71 0 132 22t109 64t82 101t49 132h107l3 -3q-16 -96 -59.5 -173.5t-105.5 -132t-143 -83.5t-174 -29q-102 0 -194 38q-93 36 -164 108 q-33 32 -54.5 65t-36 70t-22 81t-12 97.5t-5.5 118.5t-1 146z" />
<glyph unicode="D" horiz-adv-x="1354" d="M197 0v1417h504q113 0 193.5 -26t138.5 -72t94 -110.5t56 -140.5t27.5 -163.5t7.5 -178.5q0 -93 -6 -182t-25.5 -170t-53.5 -149.5t-91.5 -118.5t-141 -78t-199.5 -28h-504zM318 101h359q96 0 165 24t116.5 67.5t74.5 102t42.5 128.5t20 147t4.5 156q0 78 -6 153 t-22 140.5t-45.5 120.5t-76 94.5t-114.5 61.5q-66 22 -159 22h-359v-1217z" />
<glyph unicode="E" horiz-adv-x="1180" d="M197 0v1417h909v-99h-788v-549h670v-100h-670v-568h788v-101h-909z" />
<glyph unicode="F" horiz-adv-x="1111" d="M197 0v1417h880v-99h-759v-575h644v-106h-644v-637h-121z" />
<glyph unicode="G" horiz-adv-x="1245" d="M134 710q0 80 1.5 145.5t5.5 119t11.5 97t22 80.5t37.5 69q21 33 54 64q70 71 162.5 108t193.5 37q93 0 175.5 -29.5t145.5 -84t105.5 -132t59.5 -170.5h-112q-16 74 -50 132t-81.5 99t-109.5 63t-133 22q-36 0 -71.5 -7.5t-71.5 -23t-70 -38.5t-64 -53 q-31 -35 -51 -78.5t-30.5 -101.5t-13.5 -136t-3 -182q0 -76 1 -135.5t5.5 -108t11 -87t19 -70.5t31 -59.5t44.5 -52.5q53 -53 121 -81t142 -28q38 0 79.5 9.5t79 27t71 44t60.5 56.5q24 30 40.5 60t27.5 64.5t16 72.5t5 82v125h-382v97h495v-233q0 -109 -29.5 -193 t-88.5 -149q-36 -37 -77.5 -66.5t-89.5 -51.5t-100 -34.5t-107 -12.5q-101 0 -193 38q-92 36 -163 108q-33 32 -55 65t-36.5 70t-22 81t-11.5 97.5t-5.5 118.5t-1.5 146z" />
<glyph unicode="H" horiz-adv-x="1400" d="M197 0v1417h121v-648h767v648h118v-1417h-118v669h-767v-669h-121z" />
<glyph unicode="I" horiz-adv-x="541" d="M211 0v1417h118v-1417h-118z" />
<glyph unicode="J" horiz-adv-x="964" d="M14 118l82 79q22 -22 45 -41t52 -33.5t64.5 -22t84.5 -7.5q80 0 141 24t102.5 71.5t63.5 116t22 155.5v957h118v-979q0 -102 -31.5 -186.5t-89 -143.5t-140.5 -90.5t-186 -31.5q-52 0 -97 8.5t-84.5 25t-76.5 41t-70 57.5z" />
<glyph unicode="K" horiz-adv-x="1282" d="M197 0v1417h121v-874l748 874h142l-459 -544l539 -873h-143l-474 792l-353 -408v-384h-121z" />
<glyph unicode="L" horiz-adv-x="1100" d="M197 0v1417h121v-1310h759v-107h-880z" />
<glyph unicode="M" horiz-adv-x="1590" d="M197 0v1417h109l497 -1099l482 1099h107v-1417h-118v1055l8 156l-35 -129l-392 -874h-115l-398 885l-32 122l5 -160v-1055h-118z" />
<glyph unicode="N" horiz-adv-x="1433" d="M197 0v1417h109l813 -1222v1222h118v-1417h-108l-814 1223v-1223h-118z" />
<glyph unicode="O" horiz-adv-x="1250" d="M137 710q0 80 1.5 145.5t5.5 119t11.5 97t22 80.5t36.5 69q22 33 55 64q69 71 161.5 108t194.5 37q104 0 195.5 -37t161.5 -108q33 -31 55 -63.5t36.5 -69.5t22.5 -80.5t12 -97t5 -119t1 -145.5q0 -81 -1 -146t-5 -118.5t-12 -97.5t-22.5 -81t-37 -70t-54.5 -65 q-71 -72 -162 -109t-195 -37q-102 0 -193 38q-92 36 -163 108q-33 32 -55 65t-36.5 70t-22 81t-11.5 97.5t-5.5 118.5t-1.5 146zM249 710q0 -76 1.5 -135.5t5.5 -108t11 -87t19.5 -70.5t31 -59.5t44.5 -52.5q53 -53 121 -81t142 -28t143 27q70 27 125 82q25 26 43 53t30 59 t19 70.5t11 87t4.5 108t0.5 135.5q0 75 -0.5 134.5t-4.5 108t-11 88t-19 71t-30 58.5t-43 53q-55 52 -124 80q-70 27 -144 27t-142 -26.5t-121 -80.5q-26 -26 -44.5 -53t-31 -58.5t-19.5 -71t-11 -88t-5.5 -108t-1.5 -134.5z" />
<glyph unicode="P" horiz-adv-x="1226" d="M197 0v1417h524q98 0 180.5 -26t142 -78.5t93 -129t33.5 -176.5q0 -96 -33.5 -172t-93 -128t-142 -79.5t-180.5 -27.5h-403v-600h-121zM318 699h389q74 0 137.5 19t109.5 57.5t72 96.5t26 135q0 79 -26 137.5t-72 97t-109.5 57.5t-137.5 19h-389v-619z" />
<glyph unicode="Q" horiz-adv-x="1250" d="M137 710q0 80 1.5 145.5t5.5 119t11.5 97t22 80.5t36.5 69q22 33 55 64q69 71 161.5 108t194.5 37q104 0 195.5 -37t161.5 -108q33 -31 55 -63.5t36.5 -69.5t22.5 -80.5t12 -97t5 -119t1 -145.5q0 -100 -2 -178.5t-10.5 -140t-25 -110t-43.5 -86.5l201 -192l-80 -76 l-195 183q-69 -61 -154 -92q-87 -32 -180 -32q-102 0 -193 38q-92 36 -163 108q-33 32 -55 65t-36.5 70t-22 81t-11.5 97.5t-5.5 118.5t-1.5 146zM249 710q0 -76 1.5 -135.5t5.5 -108t11 -87t19.5 -70.5t31 -59.5t44.5 -52.5q53 -53 121 -81t142 -28q71 0 136.5 24.5 t116.5 72.5l-190 185l81 77l179 -176q18 33 28 73t15.5 92t7.5 119t2 155q0 75 -0.5 134.5t-4.5 108t-11 88t-19 71t-30 58.5t-43 53q-55 52 -124 80q-70 27 -144 27t-142 -26.5t-121 -80.5q-26 -26 -44.5 -53t-31 -58.5t-19.5 -71t-11 -88t-5.5 -108t-1.5 -134.5z" />
<glyph unicode="R" horiz-adv-x="1309" d="M197 0v1417h572q91 0 169.5 -25t136 -73t89 -117.5t31.5 -163.5q0 -76 -25 -140.5t-70 -114.5t-108 -83.5t-140 -48.5q89 -162 183 -325.5t180 -325.5h-141l-351 648h-405v-648h-121zM318 752h434q71 0 130 17t102.5 53t66.5 89t23 124.5t-23 123.5t-66.5 87.5t-103 53.5 t-129.5 18h-434v-566z" />
<glyph unicode="S" horiz-adv-x="1105" d="M64 177l84 83q49 -50 93.5 -82.5t92 -51.5t99.5 -26t115 -7q82 0 148.5 19.5t113 55t72 89t25.5 119t-20.5 113t-57 79.5t-86.5 51t-111 29l-166 26q-81 14 -149 41.5t-116.5 71t-75 106.5t-26.5 148q0 89 30 161t87.5 122t139.5 77t187 27q65 0 120 -8.5t103.5 -27.5 t93 -48t91.5 -70l-73 -74q-33 30 -68 55t-75 42t-89.5 26.5t-112.5 9.5q-77 0 -136.5 -20t-100.5 -58t-63 -91.5t-22 -119.5q0 -60 22 -105.5t60.5 -77t89.5 -51.5q50 -21 107 -32l150 -23q82 -14 152 -42t121 -72.5t80 -109t29 -150.5q0 -91 -33.5 -162.5t-95 -124 t-150 -80.5t-198.5 -28q-82 0 -147.5 11t-123.5 34.5t-108.5 59.5t-101.5 86z" />
<glyph unicode="T" horiz-adv-x="1046" d="M19 1315v102h1009v-102h-447v-1315h-121v1315h-441z" />
<glyph unicode="U" horiz-adv-x="1330" d="M177 490v927h118v-910q0 -92 23.5 -168t71.5 -131t116.5 -85t159.5 -30q88 0 156 30t115 85t71.5 131.5t24.5 167.5v910h121v-927q0 -108 -34.5 -200.5t-97.5 -159.5t-153.5 -105.5t-202.5 -38.5q-114 0 -205 38.5t-154 105.5t-96.5 160.5t-33.5 199.5z" />
<glyph unicode="V" horiz-adv-x="1205" d="M64 1417h121l418 -1222l419 1222h123l-492 -1417h-102z" />
<glyph unicode="W" horiz-adv-x="1801" d="M62 1417h117l314 -1229l348 1229h115l348 -1229l313 1229h123l-370 -1417h-121l-348 1229l-350 -1229h-118z" />
<glyph unicode="X" horiz-adv-x="1087" d="M19 0l455 723l-423 694h134l358 -590l358 590h132l-422 -694q112 -178 228.5 -360t229.5 -363h-140l-386 622l-392 -622h-132z" />
<glyph unicode="Y" horiz-adv-x="1119" d="M62 1417h126l379 -713l370 713h123l-441 -828v-589h-118v589z" />
<glyph unicode="Z" horiz-adv-x="1152" d="M121 0v121l783 1197h-753v99h882v-99l-792 -1217h792v-101h-912z" />
<glyph unicode="[" horiz-adv-x="639" d="M214 -163v1900h329v-101h-214v-1700h214v-99h-329z" />
<glyph unicode="\" horiz-adv-x="746" d="M0 1737h115l632 -1900h-118z" />
<glyph unicode="]" horiz-adv-x="639" d="M101 -70h220v1714h-220v93h326v-1900h-326v93z" />
<glyph unicode="^" horiz-adv-x="1135" d="M166 774l350 654h103l348 -654h-112l-288 536l-283 -536h-118z" />
<glyph unicode="_" horiz-adv-x="1135" d="M0 -269h1137v-84h-1137v84z" />
<glyph unicode="`" horiz-adv-x="1105" d="M292 1470h149l212 -325h-126z" />
<glyph unicode="a" horiz-adv-x="1068" d="M79 289q0 74 25 132.5t73 98t117 60.5q70 20 158 20h343v126q0 60 -16.5 108t-53 79.5t-93.5 49t-139 17.5q-55 0 -97.5 -8t-78 -24t-67.5 -42t-65 -62l-81 74q37 38 74.5 67t84.5 49.5t103 31.5t127 11q104 0 182.5 -23.5t129.5 -67t76.5 -109.5t25.5 -151v-726h-112 v107q-36 -33 -70.5 -56.5t-72 -37.5t-82 -20.5t-101.5 -6.5q-85 0 -156.5 16t-123.5 51.5t-81 94t-29 141.5zM192 292q0 -104 67 -155.5t210 -51.5q37 0 72.5 2.5t69 11t63.5 25t58 42.5q31 30 47 80t16 127v131h-335q-268 0 -268 -212z" />
<glyph unicode="b" horiz-adv-x="1130" d="M169 0v1545h115v-619q35 47 73 75.5t77.5 46.5t83.5 23.5t88 5.5q82 0 145 -21.5t109.5 -59t78 -89.5t50.5 -112.5t27.5 -128t8.5 -136t-8.5 -135t-28 -127t-51 -112.5t-78.5 -89.5t-109 -59t-144 -21.5q-46 0 -89 6.5t-82.5 23.5t-78 45.5t-72.5 75.5v-137h-115z M284 530q0 -55 4 -109t15.5 -103t33 -91.5t55 -74t82.5 -49.5t115 -18q67 0 117 18t84.5 49.5t56.5 74t35 91.5t17.5 103t4.5 109t-4.5 110.5t-17.5 105t-35 92.5t-56.5 74.5t-84.5 49.5t-117 18q-66 0 -115 -18t-82.5 -49.5t-55 -74.5t-33 -92.5t-15.5 -104.5t-4 -111z" />
<glyph unicode="c" horiz-adv-x="987" d="M107 530q0 128 31.5 229t91.5 172.5t146.5 108.5t196.5 37q53 0 97.5 -7t85 -26t79.5 -50.5t83 -78.5l-77 -71q-33 38 -64.5 64t-63 42t-66.5 23t-74 7q-96 0 -164 -35t-111 -97t-62.5 -144t-19.5 -174t19.5 -172.5t62.5 -141.5t111 -96t164 -35q39 0 74 7t66.5 22.5 t63 42.5t64.5 65l77 -71q-44 -50 -83 -80.5t-79.5 -50t-85 -27t-97.5 -7.5q-110 0 -196.5 38.5t-146.5 109t-91.5 171.5t-31.5 225z" />
<glyph unicode="d" horiz-adv-x="1130" d="M110 530.5q0 68.5 8 136t26.5 128t49.5 112.5t77.5 89.5t109 59t144.5 21.5q45 0 88 -5.5t83.5 -23.5t79 -46.5t73.5 -75.5v619h113v-1545h-113v137q-35 -47 -73.5 -75.5t-79 -45.5t-83.5 -23.5t-88 -6.5q-82 0 -144.5 21.5t-108.5 59t-77 89.5t-50 112.5t-27 127t-8 135 zM227 530q0 -55 4.5 -109t17.5 -103t35.5 -91.5t57.5 -74t85 -49.5t118 -18q66 0 114.5 18t82 49.5t55.5 74t33 91.5t15 103t4 109t-4 110.5t-15 105t-33 92.5t-55.5 74.5t-82 49.5t-114.5 18q-68 0 -118 -18t-85 -49.5t-57.5 -74.5t-35.5 -92.5t-17.5 -105t-4.5 -110.5z " />
<glyph unicode="e" horiz-adv-x="1076" d="M112 530q0 129 29 230.5t83.5 172t134 107.5t179.5 37q102 0 182 -35t136 -101.5t85 -163.5t29 -218v-55h-748q0 -100 22 -177.5t66.5 -131t110 -80.5t152.5 -27q48 0 87.5 6.5t74.5 23t66 40.5q32 26 66 58l87 -65q-42 -41 -82 -71.5t-86 -51.5t-101 -31.5t-121 -10.5 q-109 0 -194 36t-142.5 104.5t-86.5 169.5t-29 234zM222 597h636v13q0 67 -18 131q-20 70 -61.5 122t-102 84.5t-138.5 32.5t-138 -32.5t-101 -86t-61 -121.5q-17 -59 -16 -123v-20z" />
<glyph unicode="f" horiz-adv-x="583" d="M59 982v84h144v200q0 60 15.5 112t48 89t80.5 57.5t111 20.5h98v-101h-76q-87 0 -126 -45t-39 -130v-203h241v-84h-241v-982h-112v982h-144z" />
<glyph unicode="g" horiz-adv-x="1130" d="M110 530q0 70 8 138.5t26 129t48.5 111.5t76.5 89t108.5 58.5t144.5 20.5q47 0 90 -5.5t84 -23.5t79.5 -46.5t73.5 -75.5v140h113v-1128q0 -100 -29 -184t-86.5 -145t-141 -96t-191.5 -35q-63 0 -110.5 9t-88.5 26.5t-80.5 44t-83.5 64.5l76 72q33 -27 62 -48t62 -36.5 t71 -23t92 -7.5q87 0 151 28.5t105 77.5t60 116t19 146v190q-35 -47 -73.5 -75.5t-79.5 -45.5t-85 -23.5t-89 -6.5q-82 0 -144 20.5t-107.5 58.5t-76.5 89.5t-49.5 111.5t-26.5 127t-8 137zM219 530q0 -55 5 -109t18 -103t35.5 -91.5t58 -74t85.5 -49.5t117 -18 q69 0 118.5 18t84 49.5t56 74t33 91.5t15.5 103t4 109t-4 110.5t-15.5 105t-33 92.5t-56 74.5t-84.5 49.5t-117.5 18t-117.5 -18t-85.5 -49.5t-58 -74.5t-35.5 -92.5t-18 -104.5t-5 -111z" />
<glyph unicode="h" horiz-adv-x="1143" d="M169 0v1545h115v-613q58 69 135.5 107t175.5 38q91 0 164.5 -27.5t124 -78t77.5 -124.5t27 -165v-682h-113v660q0 77 -19 136t-56.5 100t-92.5 62.5t-126 21.5q-65 0 -119 -24t-93.5 -66.5t-62 -103t-22.5 -133.5v-653h-115z" />
<glyph unicode="i" horiz-adv-x="521" d="M174 1473q0 18 6 33.5t18 27t27.5 18.5t32.5 7t33 -7t27 -18.5t17.5 -27t6.5 -33.5q0 -17 -6.5 -32.5t-17.5 -26.5t-26 -18t-34 -7q-18 0 -33 7t-27 18t-18 26.5t-6 32.5zM203 0v1066h115v-1066h-115z" />
<glyph unicode="j" horiz-adv-x="521" d="M-33 -410h74q47 0 79 12t50.5 34t27 56t8.5 78v1296h115v-1299q0 -63 -16.5 -113t-48 -85t-79.5 -54t-113 -19h-97v94zM179 1473q0 18 6.5 33.5t18 27t27.5 18.5t32 7q18 0 33.5 -7t26.5 -18.5t18 -27t7 -33.5q0 -17 -7 -32.5t-18 -26.5t-26 -18t-34 -7q-18 0 -33 7 t-26.5 18t-18 26.5t-6.5 32.5z" />
<glyph unicode="k" horiz-adv-x="1074" d="M169 0v1545h115v-1082l527 603h140l-348 -397l430 -669h-140l-368 586l-241 -280v-306h-115z" />
<glyph unicode="l" horiz-adv-x="543" d="M169 278v1267h115v-1264q0 -45 7.5 -79.5t26.5 -56.5t50 -33q32 -11 79 -11h75v-101h-95q-65 0 -114 20t-81 56t-47.5 87.5t-15.5 114.5z" />
<glyph unicode="m" horiz-adv-x="1848" d="M169 0v1066h115v-126q58 68 137 102.5t176 34.5q120 0 207.5 -48.5t138.5 -144.5q60 96 150.5 144.5t208.5 48.5q90 0 163.5 -27.5t123.5 -79.5t76.5 -124.5t26.5 -163.5v-682h-110v660q0 77 -19 136t-56 100t-91 62.5t-125 21.5q-66 0 -121 -23t-96 -62t-64 -94 q-22 -53 -22 -119v-682h-113v660q0 77 -19 136t-56.5 100t-92.5 62.5t-126 21.5q-67 0 -122 -23t-94 -65.5t-60 -101t-21 -130.5v-660h-115z" />
<glyph unicode="n" horiz-adv-x="1143" d="M169 0v1066h115v-126q116 137 311 137q91 0 164.5 -27.5t124 -78t77.5 -124.5t27 -165v-682h-113v660q0 77 -19 136t-56.5 100t-92.5 62.5t-126 21.5q-66 0 -120.5 -23t-94.5 -65.5t-61 -101t-21 -130.5v-660h-115z" />
<glyph unicode="o" horiz-adv-x="1111" d="M110 530q0 69 9.5 136.5t31.5 128t55.5 112.5t82.5 89.5t114.5 59t149.5 21.5t149 -21.5t114.5 -59.5t84.5 -90t56 -113t31.5 -127.5t10.5 -135.5q0 -67 -10.5 -133.5t-32.5 -127.5t-56 -112.5t-84 -89t-115 -59.5t-148 -22q-82 0 -147.5 22t-115 59.5t-83.5 89 t-56 112.5t-31.5 127.5t-9.5 133.5zM219 530q0 -52 7 -106t22 -103.5t41 -92.5t63 -75t86.5 -50t115 -18t115.5 18t86.5 49.5t61 75t39.5 93t21.5 103t6.5 106.5q0 54 -6.5 107t-20.5 104t-38 94t-61 75.5t-88 51t-116.5 18.5t-116.5 -18.5t-88 -51t-61.5 -75.5t-40 -94 t-22 -104t-6.5 -107z" />
<glyph unicode="p" horiz-adv-x="1130" d="M169 -480v1546h115v-137q35 46 73 75t77.5 45.5t83.5 22t88 5.5q82 0 144 -20.5t109 -58.5t78.5 -89t51 -111.5t28 -127t8.5 -135t-8.5 -135.5t-27.5 -128t-50.5 -113t-78 -89t-109.5 -59t-145 -22q-46 0 -89 6t-82.5 23.5t-78 46t-72.5 75.5v-620h-115zM284 535.5 q0 -54.5 4 -110t15.5 -105t33 -92t55 -74t82.5 -49t115 -17.5q67 0 117 17.5t84.5 49t56.5 74t35 92t17.5 105t4.5 110t-4.5 109t-17.5 104.5t-35 92.5t-56.5 74t-84.5 49t-117 17.5q-66 0 -115 -17.5t-82.5 -49t-55 -74t-33 -92.5t-15.5 -104.5t-4 -109z" />
<glyph unicode="q" horiz-adv-x="1130" d="M110 535.5q0 68.5 8 135t27 127t50 111.5t77 89t109 58.5t144 20.5q45 0 88 -5.5t83.5 -22t79 -45.5t73.5 -75v137h113v-1546h-113v620q-35 -47 -73.5 -75.5t-79 -46t-83.5 -23.5t-88 -6q-82 0 -144.5 22t-109 59t-77.5 89t-49.5 113t-26.5 128t-8 135.5zM227 535.5 q0 -54.5 4.5 -110t17.5 -105t35.5 -92t57.5 -74t85 -49t118 -17.5q66 0 114.5 17.5t82 49t55.5 74t33 92t15 104.5t4 111q0 54 -4 108.5t-15 104.5t-33 92.5t-55.5 74t-82 49t-114.5 17.5q-68 0 -118 -17.5t-85 -49t-57.5 -74t-35.5 -92.5t-17.5 -104.5t-4.5 -109z" />
<glyph unicode="r" horiz-adv-x="731" d="M169 0v1066h115v-143q22 37 55.5 65.5t73 49t86 30t93.5 9.5q52 0 96 -9.5t81 -31.5l-68 -91q-30 17 -61.5 26t-72.5 9q-68 0 -121.5 -27t-89 -71.5t-54 -104t-18.5 -124.5v-653h-115z" />
<glyph unicode="s" horiz-adv-x="945" d="M64 137l76 85q118 -134 323 -134q144 0 220 54.5t76 160.5q0 79 -45 121t-141 53l-163 19q-146 16 -224.5 86t-78.5 189q0 72 25.5 128.5t72 96.5t113 60.5t148.5 20.5q101 0 193 -28q92 -30 160 -85l-76 -79q-59 44 -127.5 68.5t-149.5 24.5q-59 0 -105 -14.5t-78 -41 t-49.5 -65t-17.5 -86.5q0 -35 14.5 -64.5t40 -51t61.5 -34.5q37 -13 80 -18l163 -19q62 -7 116 -23t94 -47.5t62.5 -83t22.5 -127.5q0 -74 -28 -133t-80 -101t-126 -63.5t-167 -21.5q-129 0 -229 37q-99 37 -176 116z" />
<glyph unicode="t" horiz-adv-x="628" d="M51 982v84h146v340h113v-340h238v-84h-238v-704q0 -85 39.5 -131t121.5 -46h77v-101h-93q-65 0 -113.5 20.5t-80.5 57.5t-48 89t-16 114v701h-146z" />
<glyph unicode="u" horiz-adv-x="1146" d="M153 384v682h116v-659q0 -156 75 -237.5t220 -81.5q66 0 121 22t94 64t60 101t21 132v659h115v-1066h-115v126q-59 -70 -136 -103.5t-176 -33.5q-90 0 -163.5 27.5t-125 79t-79 124.5t-27.5 164z" />
<glyph unicode="v" horiz-adv-x="1020" d="M62 1066h126l322 -932l323 932h126l-395 -1066h-109z" />
<glyph unicode="w" horiz-adv-x="1646" d="M62 1066h126l275 -932l306 932h109l306 -932l275 932h126l-341 -1066h-115l-307 889l-303 -889h-112z" />
<glyph unicode="x" horiz-adv-x="926" d="M41 0l363 545l-342 521h135l266 -429l263 429h141l-345 -521l359 -545h-134l-284 449l-281 -449h-141z" />
<glyph unicode="y" horiz-adv-x="1020" d="M62 1066h126l322 -932l323 932h126l-499 -1352q-30 -93 -102 -143.5t-176 -50.5h-53v102h40q45 0 75.5 7t52 24t38 43.5t29.5 67.5l91 236z" />
<glyph unicode="z" horiz-adv-x="969" d="M104 0v107l645 857h-609v102h727v-110l-648 -855h648v-101h-763z" />
<glyph unicode="{" horiz-adv-x="698" d="M110 737v96h41q30 0 54.5 13.5t38.5 28.5q42 40 42 136v456q0 44 3 76.5t9 57t17 42t27 34.5q32 31 83 46q52 14 131 14h33v-101h-30q-30 0 -52 -1.5t-35.5 -5t-23.5 -9.5t-18 -14.5t-15 -20.5t-9.5 -28.5t-4.5 -38.5t-2 -53v-458q0 -41 -8.5 -74.5t-25.5 -59.5t-43 -48 t-62 -39q36 -16 62 -36.5t43 -47.5t25.5 -60.5t8.5 -77.5v-454q0 -32 2 -56t4.5 -41t9.5 -28.5t15 -20.5q8 -8 18 -13.5t23.5 -9t34.5 -4.5q23 -1 53 -1h30v-99h-33q-79 0 -130.5 12.5t-83.5 43.5q-16 17 -27 36t-17 43.5t-9 57t-3 77.5v455q0 96 -42 134q-14 16 -38.5 28.5 t-54.5 12.5h-41z" />
<glyph unicode="|" horiz-adv-x="698" d="M292 -163v1900h115v-1900h-115z" />
<glyph unicode="}" horiz-adv-x="698" d="M110 -64h27q30 0 52 1t37 4.5t24.5 9t18 14t14 20t9.5 28.5t6 41t2 56v454q0 44 8 77.5t24.5 60.5t42.5 47q25 21 61 37q-36 18 -61.5 39.5t-42 47.5t-24.5 58.5t-8 75.5v458q0 30 -2 52.5t-6 39t-9.5 28.5t-13.5 21q-9 9 -18.5 14.5t-24.5 9t-37 5t-52 1.5h-27v101h30 q41 0 74 -3.5t59 -11t46.5 -18.5t37 -27.5t27.5 -34t17 -42t8.5 -57t2.5 -76.5v-456q0 -96 43 -136q14 -15 37 -28.5t59 -13.5h38v-96h-38q-35 0 -58.5 -12.5t-37.5 -28.5q-43 -38 -43 -134v-455q0 -45 -2.5 -77.5t-8.5 -57t-17 -43.5t-27.5 -35.5t-37 -27t-46.5 -17.5 t-59 -9.5t-74 -2.5h-30v99z" />
<glyph unicode="~" horiz-adv-x="1135" d="M115 562q45 45 78.5 71.5t62.5 41.5t56.5 19.5t60.5 4.5q27 0 54.5 -5.5t55.5 -15t56 -22t58 -24.5q24 -11 45 -20t41.5 -16t42 -11t43.5 -4q21 0 39.5 2.5t39.5 13.5t44 31q23 21 56 54l71 -71q-45 -44 -78.5 -70.5t-62.5 -41.5t-56 -20t-59 -5q-27 0 -55 5.5t-55.5 15 t-56.5 23.5t-60 27q-24 8 -44.5 16.5t-41 15.5t-39.5 11t-41 4q-25 0 -44 -3t-39.5 -12.5t-44 -28.5t-57.5 -52z" />
<glyph unicode="&#xa2;" horiz-adv-x="1100" d="M142 732q0 105 26.5 192t75.5 150.5t118.5 103t156.5 51.5v155h95v-155q41 -1 81.5 -9.5t78.5 -26.5t75 -45t74 -68l-76 -69q-30 33 -57.5 55.5t-56.5 37t-57.5 22.5t-61.5 11v-805q31 2 60.5 9.5t58.5 23.5t57 38q27 23 57 55l74 -66v-6q-37 -41 -73.5 -68.5t-73.5 -45 t-76.5 -26t-83.5 -10.5v-191h-95v196q-87 11 -156.5 49.5t-118.5 103t-75.5 149t-26.5 189.5zM252 732q0 -66 13.5 -130.5t45 -119.5t82.5 -93t126 -52v792q-71 -14 -121.5 -51t-83 -89.5t-47.5 -118.5q-15 -67 -15 -138z" />
<glyph unicode="&#xa3;" horiz-adv-x="1057" d="M67 680v80h139v236q0 99 30.5 179t88 136t139 86.5t184.5 30.5q104 0 186 -31q81 -32 148 -90l-81 -81q-23 22 -47 40.5t-54 33.5t-67 24t-85 9q-78 0 -138.5 -24t-102 -69t-63 -111t-21.5 -149v-220h328v-80h-328v-579h657v-101h-774v680h-139z" />
<glyph unicode="&#xa5;" horiz-adv-x="1119" d="M62 1417h126l379 -713l370 713h123l-326 -606h225v-82h-266l-74 -140v-85h340v-77h-340v-427h-118v427h-345v77h345v85l-78 140h-267v82h225z" />
<glyph unicode="&#xa9;" horiz-adv-x="1801" d="M142 743q0 105 27.5 203t77 181.5t118.5 153.5t153.5 119t180.5 77q98 27 202 27q106 0 203 -27.5t181.5 -76.5t153 -119t118 -153.5t75.5 -181.5t26 -203t-26 -202t-75.5 -180.5t-118 -153.5t-153 -119.5t-182 -76.5t-202 -27t-201.5 27t-181.5 76.5t-153.5 119.5 t-118.5 153.5t-77 180.5t-27.5 202zM247 743q0 -90 24 -172.5t67 -156.5t103 -135t133 -105t156 -68q84 -24 171 -24q90 0 172.5 24t156 68t134.5 105t104.5 135t67 156.5t23.5 172.5q0 89 -23.5 173t-67 158t-104.5 134.5t-134.5 104t-157 68.5t-171 25t-171 -25 t-156.5 -68.5t-133 -104t-103 -134.5t-67 -157.5t-24 -173.5zM538 743q0 90 21.5 169.5t66.5 138.5t116 93q72 34 168 34q45 0 81.5 -7t70 -20.5t64.5 -33.5q30 -21 66 -51l-73 -70q-27 27 -52.5 44.5t-50 27.5t-50.5 13.5t-56 3.5q-78 0 -131 -27.5t-84.5 -74.5 t-44.5 -109.5t-13 -130.5q0 -69 13 -130.5t44.5 -108t83.5 -75t132 -28.5q30 0 56 3.5t50.5 14t49.5 27.5t53 44l70 -67v-5q-33 -28 -63 -47.5t-63.5 -33.5t-71 -20.5t-81.5 -6.5q-96 0 -167.5 34t-116.5 93t-66 138q-22 77 -22 168z" />
<glyph unicode="&#xab;" horiz-adv-x="1164" d="M93 586l434 433v-149l-289 -284l289 -289v-144zM551 586l434 433v-149l-289 -284l289 -289v-144z" />
<glyph unicode="&#xad;" horiz-adv-x="942" d="M182 530v104h578v-104h-578z" />
<glyph unicode="&#xae;" horiz-adv-x="1801" d="M142 743q0 105 27.5 203t77 181.5t118.5 153.5t153.5 119t180.5 77q98 27 202 27q106 0 203 -27.5t181.5 -76.5t153 -119t118 -153.5t75.5 -181.5t26 -203t-26 -202t-75.5 -180.5t-118 -153.5t-153 -119.5t-182 -76.5t-202 -27t-201.5 27t-181.5 76.5t-153.5 119.5 t-118.5 153.5t-77 180.5t-27.5 202zM244 743q0 -90 24 -173.5t67 -156.5t103.5 -135t133.5 -106.5t156 -68.5t173.5 -24t173.5 24t156 68.5t133.5 106.5t104 135t67 156.5t23.5 173.5t-23.5 174t-67 157.5t-104 134.5t-133.5 105t-157 68q-82 24 -173 24q-89 0 -172.5 -24 t-156.5 -68t-133.5 -105t-103.5 -134.5t-67 -157.5t-24 -174zM663 326v838h269q53 0 100.5 -18t83 -52t56 -79t20.5 -100q0 -45 -14 -82.5t-38.5 -66.5t-58.5 -49.5t-74 -34.5l208 -356h-118l-201 345h-136v-345h-97zM760 763h161q37 0 68.5 11t54.5 31t36 48.5t13 61.5 q0 36 -13 64.5t-36 50.5t-55.5 34.5t-67.5 12.5h-161v-314z" />
<glyph unicode="&#xbb;" horiz-adv-x="1164" d="M182 153v144l287 289l-287 284v149l432 -433zM637 153v144l289 289l-289 284v149l434 -433z" />
<glyph unicode="&#xbc;" horiz-adv-x="1598" d="M99 1170v110l164 137h99v-853h-99v748zM353 0l696 1417h113l-693 -1417h-116zM943 132v79l326 644h101l-321 -641h250v241h98v-241h110v-82h-110v-132h-98v132h-356z" />
<glyph unicode="&#xbd;" horiz-adv-x="1598" d="M99 1170v110l164 137h99v-853h-99v748zM323 0l694 1417h112l-693 -1417h-113zM1001 0v85l354 422q22 33 33 61q12 27 12 57q0 35 -10 63.5t-29.5 48t-46.5 30.5q-26 11 -62 11q-30 0 -57.5 -9t-49.5 -27.5t-35 -47.5q-13 -31 -13 -72h-96q0 53 17.5 97.5t50 76t79.5 48 t104 16.5q55 0 101 -16.5t79 -47t51.5 -73.5t18.5 -98q0 -25 -4.5 -47t-14 -43t-23 -42.5t-32.5 -43.5l-306 -364h380v-85h-501z" />
<glyph unicode="&#xbe;" horiz-adv-x="1598" d="M99 789h98q3 -41 18 -70t38.5 -46.5t52 -26.5t58.5 -9q36 0 67 11.5t53.5 33t35.5 52t13 72.5q0 71 -42 112t-132 41h-19v85h19q82 0 119.5 39.5t37.5 105.5q0 39 -12 67.5t-33.5 47t-49.5 28t-59 9.5q-69 0 -108.5 -36t-45.5 -102h-98q5 52 25.5 93.5t55 71t77.5 45 t94 15.5q57 0 103.5 -16.5t81 -47t52 -74t17.5 -98.5q0 -63 -28.5 -111t-88.5 -77q68 -23 99 -72.5t31 -125.5q0 -63 -20 -110t-55.5 -77t-83.5 -45t-106 -15q-53 0 -100.5 13t-83.5 41t-58 72q-21 44 -23 104zM504 0l696 1417h112l-698 -1417h-110zM996 132v79l316 644h107 l-319 -641h252v241h96v-241h106v-82h-106v-132h-96v132h-356z" />
<glyph unicode="&#xd7;" horiz-adv-x="1135" d="M156 241l345 343l-345 342l71 65l340 -340l343 340l70 -65l-343 -342l343 -343l-70 -70l-343 343l-340 -343z" />
<glyph unicode="&#xf7;" horiz-adv-x="1135" d="M115 530v104h904v-104h-904zM474 214q0 19 7 36t19 29.5t30 19.5t37 7t36.5 -7t29.5 -19.5t19.5 -29.5t7.5 -36t-7.5 -37t-19.5 -30.5t-29.5 -19t-36.5 -6.5t-37 6.5t-30 19t-19 30.5t-7 37zM474 948q0 19 7 37t19 30.5t30 18.5q18 7 37 7t36.5 -6.5t29.5 -19t19.5 -30.5 t7.5 -37t-7.5 -35.5t-19.5 -29t-29.5 -20.5t-36.5 -8t-37 8t-30 20.5t-19 29t-7 35.5z" />
<glyph unicode="&#xe01;" horiz-adv-x="1217" d="M85 849q85 148 207.5 222t291.5 74q117 0 205 -30t145.5 -86t86 -138.5t28.5 -186.5v-704h-117v704q0 91 -25 155t-71 104t-111 59t-144 19q-47 0 -96 -9.5t-97 -31.5t-92 -57.5t-80 -87.5l90 -137v-718h-118v701z" />
<glyph unicode="&#xe02;" horiz-adv-x="1046" d="M101 1038q17 24 39.5 42.5t49 31.5t55.5 20.5t58 7.5q52 0 93.5 -15t70.5 -44t44.5 -68.5t15.5 -89.5q0 -35 -13 -68.5t-33.5 -64.5t-46.5 -60t-52 -55.5t-48.5 -53t-36.5 -51.5q-9 -18 -14 -36t-7 -32t-2 -26.5v-17.5v-107q0 -61 15 -109.5t46 -82.5t76 -52.5 t105.5 -18.5t103.5 18.5t72 52.5t43 82.5t14 109.5v783h124v-789q0 -79 -26 -146t-73.5 -115t-113 -74t-144.5 -26q-82 0 -148.5 26t-113 74t-72.5 115t-29 146v132q0 49 14 87.5t30 57.5q14 22 36 45t46 47t48 49.5t43 51.5t30.5 53.5t11.5 54.5q0 25 -8.5 45.5t-24 34.5 t-36 22t-46.5 8q-31 0 -58.5 -15t-43.5 -38z" />
<glyph unicode="&#xe03;" horiz-adv-x="1046" d="M25 1071l71 74l115 -87l25 22q60 49 117.5 61.5t105 -3t79.5 -53.5t39.5 -89.5t-12.5 -112t-77 -120.5l-176 -188q-13 -13 -21.5 -29t-11 -31.5t-4.5 -32.5q-1 -16 -1 -33v-98q0 -58 14.5 -106.5t44 -83.5t75 -54t108.5 -19q61 0 105.5 18.5t72.5 52.5t41.5 82.5 t13.5 109.5v783h124v-789q0 -83 -26 -149.5t-73.5 -114.5t-113 -72.5t-144.5 -24.5q-90 0 -158 28t-113 77t-68.5 115.5t-23.5 140.5v124q0 49 12 87q13 39 38 66l230 233q27 29 38 59.5t7 56.5t-19 45.5t-39.5 26t-57 -2t-67.5 -39.5l-65 -53q-5 -8 -19 -8t-23 8z" />
<glyph unicode="&#xe04;" horiz-adv-x="1234" d="M169 0v723q0 107 33.5 186.5t93.5 131.5t143 78q82 26 180 26q104 0 187.5 -27t142.5 -80.5t90.5 -132t31.5 -182.5v-723h-117v723q0 83 -22 143t-66 99t-105.5 57.5t-141.5 18.5q-79 0 -141 -18.5t-104 -57.5t-65 -98q-23 -61 -23 -144v-112q11 11 24 20.5t31.5 16.5 t42.5 11t54 4h199v-96h-177q-50 0 -84 -12t-53.5 -36t-27.5 -60q-9 -37 -9 -84v-375h-117z" />
<glyph unicode="&#xe05;" horiz-adv-x="1259" d="M169 0v737q0 71 18.5 135.5t54.5 117.5t91 92t127 61l169 -173l171 173q70 -17 124 -54t91 -90.5t56.5 -120.5t19.5 -141v-737h-118v737q0 52 -8.5 95t-26 77t-43.5 60q-26 28 -62 48l-156 -147q-22 -19 -45.5 -19t-45.5 19l-156 147q-68 -42 -104.5 -109t-36.5 -171 v-123q11 11 24 20t31.5 15t41.5 10q25 4 55 4h199v-96h-177q-51 0 -84.5 -12t-53 -36t-28.5 -60q-8 -37 -8 -84v-375h-120z" />
<glyph unicode="&#xe06;" horiz-adv-x="1197" d="M38 1071l69 74l120 -87l25 22q59 49 117 60t106 -4t80.5 -53.5t40.5 -90.5t-13 -111t-82 -118l-175 -188q-16 -16 -24.5 -36.5t-11 -39.5t-3.5 -35q-1 -15 -1 -23v-8q0 -74 25.5 -137t70.5 -108.5t104 -71.5t128 -26q74 0 130 22t91.5 63t53.5 100t18 132v730h123v-730 q0 -95 -28.5 -173t-82 -132.5t-130.5 -85t-175 -30.5q-50 0 -96.5 10.5t-89 29t-77.5 46.5q-36 27 -62 62v-134h-120v447v22q0 49 11.5 87.5t38.5 65.5l228 233q27 29 38 59.5t8 56.5t-18.5 45.5t-40 26t-57 -2t-67.5 -39.5l-63 -53q-11 -8 -23.5 -8t-20.5 8z" />
<glyph unicode="&#xe07;" horiz-adv-x="882" d="M22 208l104 50q11 -39 31 -70.5t49.5 -54t67.5 -34t85 -11.5q60 0 104.5 17.5t73.5 51t43.5 81.5t14.5 107v691h-163v98h283v-789q0 -86 -23 -154t-70 -113.5t-112.5 -69.5t-150.5 -24q-69 0 -123 15t-95.5 44.5t-70.5 71t-48 93.5z" />
<glyph unicode="&#xe08;" horiz-adv-x="1020" d="M8 912q25 58 63.5 100.5t90.5 72.5t115.5 45t137.5 15q96 0 176 -26.5t138.5 -79.5t90.5 -131q32 -81 32 -185v-723h-120v375q0 47 -7.5 83.5t-27.5 60.5t-53 36t-82 12h-195v99h217q30 0 53 -4t41 -11t31 -17q12 -9 23 -20v109q0 74 -22 133t-63 100t-99.5 63t-132.5 22 q-51 0 -98 -11.5t-87.5 -34t-70.5 -57t-47 -80.5z" />
<glyph unicode="&#xe09;" horiz-adv-x="1197" d="M156 399v275h122v-275q0 -72 20 -129.5t57 -97.5t91.5 -61t123.5 -21q77 0 138.5 26t105.5 72t68.5 108.5t24.5 136.5v299q0 76 -23.5 134.5t-66 97.5t-102.5 58t-137 19q-51 0 -99.5 -11.5t-89.5 -34t-72.5 -58.5t-47.5 -82l-110 57q25 58 66 100.5t94.5 72.5t119 45 t139.5 15q96 0 178 -25t142.5 -76.5t95 -128.5t34.5 -183v-732h-121v137q-63 -74 -149.5 -112.5t-187.5 -38.5q-90 0 -166.5 29t-131 82.5t-85.5 129.5t-31 172z" />
<glyph unicode="&#xe0a;" horiz-adv-x="1052" d="M101 1049q44 47 97.5 69t116.5 22q52 0 94.5 -15t72.5 -44t46.5 -68.5t16.5 -89.5q0 -54 -20.5 -98t-61.5 -88l-151 -159q-13 -16 -21.5 -35.5t-11 -38.5t-4 -34t-1.5 -21v-107q0 -57 13 -103.5t41 -81t73.5 -52t108.5 -17.5q117 0 178 64t61 185v441q0 28 -9.5 51 t-24 42t-33 33.5t-34.5 24.5q-11 5 -18.5 10.5t-10.5 12.5t2.5 17.5t21.5 26.5l305 308l82 -78l-264 -262q30 -21 52 -49q19 -25 35.5 -59t16.5 -78v-446q0 -80 -25.5 -145t-72 -110t-112.5 -69q-68 -24 -150 -24q-88 0 -154 24.5t-110.5 71t-67 112.5t-25.5 145v132 q0 49 12 90q13 41 38 66l178 181q30 30 43.5 58.5t13.5 58.5q0 33 -10 56.5t-27 37t-40.5 20.5t-48.5 7q-16 0 -32.5 -5.5t-33 -13.5t-31.5 -19t-27 -21z" />
<glyph unicode="&#xe0b;" horiz-adv-x="1087" d="M36 1071l65 74l121 -87l25 22q46 38 91.5 53.5t85 12.5t73 -22.5t57 -49.5t33.5 -71t4.5 -86.5t-27.5 -93.5q-24 -48 -68 -94l-145 -151q-14 -16 -22 -35.5t-12.5 -38.5t-4.5 -34v-21v-107q0 -57 12.5 -103.5t41.5 -81t74 -52t111 -17.5q118 0 178 64t60 185v441 q0 28 -11 51t-26 41.5t-34 33t-36 25.5q-9 5 -16.5 10.5t-10 12.5t2.5 18t22 26l295 308l80 -78l-249 -262q30 -21 52 -49q19 -25 35.5 -59t16.5 -78v-446q0 -80 -25.5 -145t-72 -110t-113 -69t-148.5 -24q-88 0 -155 24.5t-111 71t-66 112.5t-24 145v132q0 49 10.5 88.5 t38.5 67.5l197 202q33 33 44 66t7 62t-21.5 51t-42.5 30t-57.5 1t-64.5 -36l-65 -53q-8 -8 -21.5 -8t-22.5 8z" />
<glyph unicode="&#xe0c;" horiz-adv-x="1887" d="M85 849q85 148 207.5 222t291.5 74q117 0 205 -28.5t145.5 -85t86 -137t28.5 -184.5v-289q0 -73 23.5 -133.5t63 -104t96 -68.5t120.5 -25q59 0 105.5 20t79 60t49.5 98.5t17 135.5v730h118v-727q0 -104 -27.5 -183t-75.5 -131.5t-116 -79.5t-150 -27q-46 0 -92 11 t-86 31.5t-71.5 48t-53.5 60.5v-137h-117v710q0 87 -23.5 150t-68.5 103t-111 59t-148 19q-47 0 -96 -9.5t-97 -31.5t-92 -57.5t-80 -87.5l90 -137v-458q0 -35 4 -62.5t17 -48t37.5 -31.5t65.5 -11h80v-107h-103q-59 0 -100 18t-68 50.5t-39 80.5t-12 109v443z" />
<glyph unicode="&#xe0d;" horiz-adv-x="1868" d="M85 849q85 148 207.5 222t291.5 74q117 0 205 -28.5t145.5 -85t86 -137t28.5 -184.5v-203q0 -81 17.5 -144.5t51 -107.5t83.5 -67q48 -22 114 -22t116 22.5t83.5 66.5t50.5 108t17 144v627h118v-652q0 -85 -21 -161.5t-66.5 -134t-117.5 -91.5q-73 -33 -174 -33 q-99 0 -171.5 28t-120.5 82t-72.5 133t-24.5 177v228q0 87 -23.5 150t-68.5 103t-111 59t-148 19q-47 0 -96 -9.5t-97 -31.5t-92 -57.5t-80 -87.5l90 -137v-458q0 -35 4 -62.5t17 -48t37.5 -31.5t65.5 -11h80v-107h-103q-59 0 -100 18t-68 50.5t-39 80.5t-12 109v443zM923 0 h107q0 -47 20.5 -73t66.5 -26h583v-96h-607q-30 0 -59.5 8.5t-54 30.5t-40.5 59.5t-16 96.5z" />
<glyph unicode="&#xe0e;" horiz-adv-x="1264" d="M96 107q55 -3 83.5 14t41 44.5t14 60t1.5 60.5v415l-104 148q83 148 207 222t293 74q117 0 204 -28.5t146 -85t88 -137t30 -184.5v-981q0 -39 -18.5 -74.5t-48.5 -57.5t-71 -26t-87 19l-259 124q-15 5 -25 6t-24 -6l-270 -141l-59 76l307 156q14 9 25 12.5t22 2.5t22 -4 q11 -5 26 -11l281 -126q11 -5 20.5 -3t18.5 9t14.5 18.5t5.5 25.5v981q0 89 -25.5 152t-71.5 103.5t-111 58t-143 17.5q-47 0 -95.5 -9.5t-95 -31.5t-91.5 -57q-46 -36 -84 -88l93 -137v-460q0 -58 -12 -100t-31.5 -70.5t-45.5 -45.5t-52 -27t-52 -12.5t-48 -2.5z" />
<glyph unicode="&#xe0f;" horiz-adv-x="1267" d="M96 107q55 -3 83.5 14t41 44.5t14 60t1.5 60.5v415l-104 148q83 148 207 222t293 74q117 0 205 -28.5t146 -85t87.5 -137t29.5 -184.5v-976q0 -41 -18.5 -78t-50 -59t-72.5 -26t-84 22l-198 118q-17 12 -37 0l-185 -118q-33 -19 -53.5 -18.5t-42.5 18.5l-230 171l90 54 l177 -130q8 -6 15 -6q8 0 16 6l184 117q25 17 45.5 17t47.5 -17l203 -117q11 -9 24 -9t23 6.5t18 18t8 30.5v976q0 89 -25.5 152t-71.5 103.5t-111 58t-143 17.5q-47 0 -95.5 -9.5t-95 -30.5t-90.5 -57q-44 -37 -85 -89l93 -137v-460q0 -58 -12 -100t-31.5 -70.5 t-45.5 -45.5t-52 -27t-52 -12.5t-48 -2.5z" />
<glyph unicode="&#xe10;" horiz-adv-x="1020" d="M8 912q25 58 63.5 100.5t90.5 72.5t115.5 45t137.5 15t140 -16q67 -17 119 -49l225 227l81 -78l-222 -218q46 -53 70 -125t24 -163v-723h-120v375q0 47 -7.5 83.5t-27.5 60.5t-53 36t-82 12h-195v99h217q30 0 53 -4t41 -11t31 -17q12 -9 23 -20v109q0 74 -22 133t-63 100 t-99.5 63t-132.5 22q-51 0 -98 -11.5t-87.5 -34t-70.5 -57t-47 -80.5zM79 -219l72 53l159 -123q8 -4 16 0l104 97q14 14 30.5 19.5t34 5.5t32.5 -6q16 -8 29 -19l115 -97q4 -4 13 -9.5t20 -5t19.5 9.5t8.5 34v150h120v-156q0 -38 -20 -71t-52 -51.5t-73 -15.5q-41 4 -82 37 l-121 104q-5 5 -12.5 5t-14.5 -5l-107 -101q-23 -22 -52.5 -22t-57.5 22z" />
<glyph unicode="&#xe11;" horiz-adv-x="1231" d="M48 1071l70 74l118 -87l24 22q59 48 116.5 61t105 -1t80.5 -50t41 -86l149 144q71 -1 128.5 -24t98 -64.5t62.5 -104t22 -144.5v-811h-118v803q0 49 -8 89.5t-27.5 71.5t-48.5 50q-28 19 -72 27l-452 -460q-15 -14 -22.5 -34.5t-10.5 -39.5t-3.5 -35.5t-0.5 -22.5v-449 h-123v469q0 49 13 87.5t37 65.5l231 233q27 29 37.5 59.5t7 56.5t-18.5 45.5t-40 26t-56.5 -2t-66.5 -39.5l-66 -53q-8 -8 -20.5 -8t-23.5 8z" />
<glyph unicode="&#xe12;" horiz-adv-x="1876" d="M137 295v442q0 71 19 135.5t55 117.5t90.5 92t128.5 61l156 -173l161 173q68 -17 123 -54t92.5 -90.5t56.5 -120.5t19 -141v-316q0 -73 23.5 -133.5t63 -104t96 -68.5t120.5 -25q118 0 184 74t66 228v742h117v-738q0 -104 -26.5 -181.5t-74.5 -128t-116 -75.5t-150 -25 q-46 0 -92 11t-86 31.5t-72 48t-53 60.5v-137h-117v737q0 104 -37 171t-106 109l-144 -147q-9 -11 -21 -16t-24 -5t-24 5.5t-20 15.5l-144 147q-35 -20 -62 -47t-44.5 -61t-27.5 -76q-9 -44 -9 -96v-440q0 -46 8 -82.5t28 -59.5t53.5 -35.5t82.5 -12.5h84v-107h-104 q-69 0 -120.5 20.5t-85 59t-50.5 93t-17 122.5z" />
<glyph unicode="&#xe13;" horiz-adv-x="1887" d="M85 849q85 148 207.5 222t291.5 74q117 0 205 -28.5t145.5 -85t86 -137t28.5 -184.5v-318q0 -154 66 -228t184 -74q66 0 120.5 25t95.5 68.5t64.5 104t23.5 133.5v711h118v-1132h-118v137q-22 -33 -54 -60.5t-72 -48t-86 -31.5t-92 -11q-82 0 -149.5 25t-116 75.5 t-75 128t-26.5 181.5v314q0 87 -23.5 150t-68.5 103t-111 59t-148 19q-47 0 -96 -9.5t-97 -31.5t-92 -57.5t-80 -87.5l90 -137v-458q0 -35 4 -62.5t17 -48t37.5 -31.5t65.5 -11h80v-107h-103q-59 0 -100 18t-68 50.5t-39 80.5t-12 109v443z" />
<glyph unicode="&#xe14;" horiz-adv-x="1237" d="M169 295v428q2 109 35.5 189t92 131.5t140.5 76.5q81 25 182 25q104 0 187.5 -27t142.5 -80.5t90.5 -132t31.5 -182.5v-723h-117v723q0 85 -25 145.5t-68.5 99t-105.5 56t-136 17.5t-135.5 -18.5t-105.5 -57.5t-68 -98q-24 -61 -24 -144v-426q0 -44 9 -79.5t27.5 -60 t48 -37.5t70.5 -13h104v-107h-104q-68 0 -119.5 20.5t-85 59t-50.5 93t-17 122.5z" />
<glyph unicode="&#xe15;" horiz-adv-x="1237" d="M169 295v442q0 71 18.5 135.5t54.5 117.5t91 92t127 61l156 -173l162 173q69 -17 123.5 -54t91.5 -90.5t56.5 -120.5t19.5 -141v-737h-118v737q0 104 -37 171t-106 109l-142 -147q-19 -22 -45 -21.5t-46 21.5l-142 147q-36 -20 -63.5 -47t-45 -61t-27.5 -76 q-11 -44 -11 -96v-440q0 -44 9 -79.5t27.5 -60t48 -37.5t70.5 -13h104v-107h-104q-68 0 -119.5 20.5t-85 59t-50.5 93t-17 122.5z" />
<glyph unicode="&#xe16;" horiz-adv-x="1217" d="M85 849q85 148 207.5 222t291.5 74q117 0 205 -28.5t145.5 -85t86 -137t28.5 -184.5v-710h-117v710q0 87 -23.5 150t-68.5 103t-111 59t-148 19q-47 0 -96 -9.5t-97 -31.5t-92 -57.5t-80 -87.5l90 -137v-458q0 -35 4 -62.5t17 -48t37.5 -31.5t65.5 -11h80v-107h-103 q-59 0 -100 18t-68 50.5t-39 80.5t-12 109v443z" />
<glyph unicode="&#xe17;" horiz-adv-x="1205" d="M169 0v1134h120v-135q63 74 147 110q82 36 186 36q96 0 174 -29.5t131.5 -83.5t82 -132t28.5 -177v-723h-117v723q0 77 -21.5 136t-60 99.5t-94 61.5t-123.5 21q-71 0 -132 -23t-105.5 -67t-70 -105.5t-25.5 -138.5v-707h-120z" />
<glyph unicode="&#xe18;" horiz-adv-x="1087" d="M115 858q0 65 30 118.5t84.5 90.5t128.5 57.5t161 20.5q118 0 221.5 -30t177.5 -87l-80 -80q-68 47 -145 71.5t-174 24.5q-66 0 -118.5 -12.5t-91 -35.5t-59 -57.5t-20.5 -80.5q0 -77 56 -117t177 -51l185 -16q70 -5 130 -26.5t104 -60t68.5 -96.5t24.5 -140 q0 -77 -31.5 -143.5t-90 -116t-142.5 -77.5t-189 -28q-41 0 -85.5 7t-85.5 22t-77.5 37t-63 51.5t-43 67t-16.5 84.5v233h118v-230q0 -37 21.5 -68t57.5 -53t80.5 -34.5t90.5 -12.5q82 0 146 19.5t106.5 53.5t64.5 82t22 106q0 44 -12.5 82t-38.5 65.5t-66.5 45.5t-95.5 23 l-190 19q-169 14 -254 83q-86 68 -86 189z" />
<glyph unicode="&#xe19;" horiz-adv-x="1205" d="M169 410v724h117v-724q0 -77 21.5 -135.5t60 -99.5t93 -61.5t123.5 -20.5q71 0 132 23.5t105.5 66.5t70.5 105.5t26 138.5v707h120v-1134h-120v134q-63 -74 -146.5 -109.5t-187.5 -35.5q-96 0 -173.5 29t-131.5 83.5t-82 132.5t-28 176z" />
<glyph unicode="&#xe1a;" horiz-adv-x="1205" d="M169 407v727h120v-730q0 -79 22.5 -138.5t65 -98t100 -58t126 -19.5t127.5 19.5t100 59t64.5 98.5t23.5 137v730h120v-727q0 -103 -33.5 -181.5t-92 -131.5t-139 -80.5t-170.5 -27.5q-96 0 -176 29t-137.5 83t-89 132t-31.5 177z" />
<glyph unicode="&#xe1b;" horiz-adv-x="1205" d="M169 407v727h120v-730q0 -79 22.5 -138.5t65 -98t100 -58t126 -19.5t127.5 19.5t100 59t64.5 98.5t23.5 137v1273h120v-1270q0 -103 -33.5 -181.5t-92 -131.5t-139 -80.5t-170.5 -27.5q-96 0 -176 29t-137.5 83t-89 132t-31.5 177z" />
<glyph unicode="&#xe1c;" horiz-adv-x="1237" d="M169 396v442q0 68 17 122.5t50.5 93t85 59.5t119.5 21h104v-106h-104q-41 0 -70.5 -14t-48 -38.5t-27.5 -60t-9 -79.5v-440q0 -52 10.5 -95t28 -77t45 -60.5t63.5 -45.5l142 145q20 22 46 22t45 -22l142 -145q69 40 106 107.5t37 170.5v738h118v-738q0 -74 -19.5 -140.5 t-56.5 -120t-91.5 -90.5t-123.5 -53l-162 171l-156 -171q-72 22 -127 60t-91 91.5t-54.5 118t-18.5 134.5z" />
<glyph unicode="&#xe1d;" horiz-adv-x="1237" d="M169 396v442q0 68 17 122.5t50.5 93t85 59.5t119.5 21h104v-106h-104q-41 0 -70.5 -14t-48 -38.5t-27.5 -60t-9 -79.5v-440q0 -52 10.5 -95t28 -77t45 -60.5t63.5 -45.5l142 145q20 22 46 22t45 -22l142 -145q69 40 104.5 107.5t35.5 170.5v1281h121v-1281 q0 -74 -19.5 -140.5t-56.5 -120t-91.5 -90.5t-123.5 -53l-162 171l-156 -171q-72 22 -127 60t-91 91.5t-54.5 118t-18.5 134.5z" />
<glyph unicode="&#xe1e;" horiz-adv-x="1491" d="M101 1134h124l139 -960l335 960h96l334 -960l142 960h121l-186 -1134h-121l-338 937l-340 -937h-123z" />
<glyph unicode="&#xe1f;" horiz-adv-x="1491" d="M101 1134h124l139 -960l335 960h96l334 -960l229 1503h122l-274 -1677h-121l-338 937l-340 -937h-123z" />
<glyph unicode="&#xe20;" horiz-adv-x="1267" d="M96 107q55 -3 83.5 14t41 44.5t14 60t1.5 60.5v415l-104 148q83 148 207 222t293 74q117 0 204 -28.5t146 -85t88 -137t30 -184.5v-710h-120v710q0 89 -25.5 152t-71.5 103.5t-111 58t-143 17.5q-47 0 -95.5 -9.5t-95 -30t-91.5 -56.5q-46 -35 -84 -87l93 -140v-460 q0 -58 -12 -100t-31.5 -70.5t-45.5 -45.5t-52 -27t-52 -12.5t-48 -2.5z" />
<glyph unicode="&#xe21;" horiz-adv-x="1205" d="M169 0v1134h120v-707q0 -76 25.5 -138.5t70 -105.5t105.5 -66.5t132 -23.5q68 0 123.5 20.5t94 61.5t60 100t21.5 135v724h117v-724q0 -99 -28.5 -176.5t-82 -132t-130.5 -83.5q-79 -29 -175 -29q-104 0 -186.5 35.5t-146.5 109.5v-134h-120z" />
<glyph unicode="&#xe22;" horiz-adv-x="1197" d="M118 337q0 44 10 85t33 75.5t58.5 61.5t86.5 47q-50 13 -84 37t-57 55t-33.5 68t-13.5 78q0 60 17 113.5t51.5 92.5t85.5 61.5t117 22.5h154v-106h-131q-50 0 -84.5 -12.5t-55 -35t-28.5 -56.5t-8 -77.5t17.5 -79t54.5 -61t95 -39.5q60 -14 140 -14v-94q-80 0 -139 -16.5 t-96 -46.5t-54.5 -72.5t-17.5 -97.5q0 -49 24.5 -93t68.5 -75.5t105.5 -49.5t138.5 -18q98 0 162.5 27.5t103 77t53.5 118t15 150.5v671h123v-671q0 -110 -24.5 -199t-78 -152t-141 -95.5t-213.5 -32.5q-99 0 -171.5 19t-123.5 50.5t-82.5 70.5t-48.5 78t-23 74.5t-6 60.5z " />
<glyph unicode="&#xe23;" horiz-adv-x="961" d="M67 145l81 85q33 -35 64.5 -61.5t67 -44t81 -26t105.5 -8.5q81 0 136.5 18t89.5 49.5t48.5 72.5t14.5 88q0 52 -17 88.5t-47.5 60t-69.5 39t-83 24.5l-91 21q-80 16 -141.5 39.5t-104 57.5t-64.5 80.5t-22 109.5t22 119.5t66 97.5t111 65.5t155 24.5q57 0 105 -8t89 -23 t79 -37t75 -49l-83 -80q-33 23 -60 41t-58 30.5t-66 18.5t-81 6q-63 0 -108.5 -16t-74 -44t-42.5 -65t-14 -81q0 -41 14 -69t41 -48.5t69.5 -35.5t100.5 -29l109 -24q66 -16 123 -38.5t98.5 -58.5t65.5 -88t24 -129q0 -66 -25 -126t-75 -106t-126 -73t-178 -27 q-74 0 -130 9.5t-102.5 30.5t-87.5 50q-41 28 -84 69z" />
<glyph unicode="&#xe24;" horiz-adv-x="1217" d="M85 849q85 148 207.5 222t291.5 74q117 0 205 -28.5t145.5 -85t86 -137t28.5 -184.5v-1133h-117v1133q0 87 -23.5 150t-68.5 103t-111 59t-148 19q-47 0 -96 -9.5t-97 -31.5t-92 -57.5t-80 -87.5l90 -137v-458q0 -35 4 -62.5t17 -48t37.5 -31.5t65.5 -11h80v-107h-103 q-59 0 -100 18t-68 50.5t-39 80.5t-12 109v443z" />
<glyph unicode="&#xe25;" horiz-adv-x="1164" d="M115 321q0 78 27.5 141.5t78 108.5t123 70t167.5 25h366v97q0 69 -18 121t-56.5 87t-99 52.5t-147.5 17.5q-57 0 -102.5 -8t-83.5 -26t-71 -45q-33 -25 -69 -63l-89 76q40 40 81 72.5t89.5 53.5t108.5 32.5t136 11.5q225 0 333 -95.5t108 -275.5v-774h-120v562h-354 q-145 0 -217.5 -63t-72.5 -175.5t72.5 -173t226.5 -60.5v-104q-85 3 -161 18t-133 53t-90 101.5t-33 162.5z" />
<glyph unicode="&#xe26;" horiz-adv-x="1267" d="M96 107q55 -3 83.5 14t41 44.5t14 60t1.5 60.5v415l-104 148q83 148 207 222t293 74q117 0 204 -28.5t146 -85t88 -137t30 -184.5v-1131h-120v1131q0 89 -25.5 152t-71.5 103.5t-111 58t-143 17.5q-47 0 -95.5 -9.5t-95 -30t-91.5 -56.5q-46 -35 -84 -87l93 -140v-460 q0 -58 -12 -100t-31.5 -70.5t-45.5 -45.5t-52 -27t-52 -12.5t-48 -2.5z" />
<glyph unicode="&#xe27;" horiz-adv-x="953" d="M53 926q26 52 65.5 92t88 68.5t103 43.5t113.5 15q96 0 173 -32.5t129.5 -91.5t80 -141.5t27.5 -183.5v-255q0 -92 -23.5 -174t-74 -143.5t-127 -98t-185.5 -36.5q-46 0 -92 9.5t-88.5 27.5t-78.5 45q-35 25 -63 61l81 74q19 -27 47.5 -48t60 -34.5t65.5 -20.5t68 -7 q77 0 131 26.5t90.5 74t53.5 110.5t17 137v252q0 68 -16.5 131t-50.5 110t-90.5 74t-134.5 27q-44 0 -84 -10.5t-76 -32.5t-64.5 -52.5t-47.5 -69.5z" />
<glyph unicode="&#xe28;" horiz-adv-x="1248" d="M169 0v723q0 107 33.5 186.5t93.5 131.5t143 78q82 26 180 26q81 0 150 -17q69 -18 124 -51l213 216l80 -78l-211 -208q47 -51 71.5 -122t24.5 -162v-723h-117v723q0 83 -22 143t-66 99t-105.5 57.5t-141.5 18.5q-79 0 -141 -18.5t-104 -57.5t-65 -98q-23 -61 -23 -144 v-112q11 11 24 20.5t31.5 16.5t42.5 11t54 4h199v-96h-177q-50 0 -84 -12t-53.5 -36t-27.5 -60q-9 -37 -9 -84v-375h-117z" />
<glyph unicode="&#xe29;" horiz-adv-x="1239" d="M169 407v727h120v-730q0 -79 22.5 -138.5t65 -98t100 -58t126 -19.5t127.5 19.5t100 59t64.5 98.5t23.5 137v163h-200q-30 0 -60.5 8.5t-55 29.5t-39.5 58.5t-15 96.5h108q0 -50 20 -73.5t64 -23.5h178v471h120v-471h146v-96h-146v-160q0 -103 -33.5 -181.5t-92 -131.5 t-139 -80.5t-170.5 -27.5q-96 0 -176 29t-137.5 83t-89 132t-31.5 177z" />
<glyph unicode="&#xe2a;" horiz-adv-x="1164" d="M115 321q0 78 27.5 141.5t78 108.5t123 70t167.5 25h366v97q0 69 -18 121t-56.5 87t-99 52.5t-147.5 17.5q-57 0 -102.5 -8t-83.5 -26t-71 -45q-33 -25 -69 -63l-89 76q40 40 81 72.5t89.5 53.5t108.5 32.5t136 11.5q89 0 158.5 -16.5t121.5 -46.5l208 211l82 -78 l-205 -201q38 -44 57 -104.5t19 -135.5v-774h-120v562h-354q-145 0 -217.5 -63t-72.5 -175.5t72.5 -173t226.5 -60.5v-104q-85 3 -161 18t-133 53t-90 101.5t-33 162.5z" />
<glyph unicode="&#xe2b;" horiz-adv-x="1205" d="M169 0v1134h120v-556l696 570l73 -90l-231 -188q53 -25 92.5 -65.5t65.5 -91t39.5 -108t13.5 -117.5v-488h-117v488q0 116 -47 197q-47 82 -134 115l-451 -367v-433h-120z" />
<glyph unicode="&#xe2c;" horiz-adv-x="1507" d="M101 1134h124l139 -960l335 960h96l334 -960l103 701q11 77 -28 115q-40 38 -130 40v104h96q38 0 67 10t49.5 27t34 41t20.5 54l26 92h124l-37 -129q-11 -38 -27.5 -66.5t-38.5 -50t-49 -37t-57 -26.5q43 -34 60 -78.5t7 -92.5l-143 -878h-121l-338 937l-340 -937h-123z " />
<glyph unicode="&#xe2d;" horiz-adv-x="1138" d="M126 663h419v-96h-304v-60t2 -64.5t6 -61.5q3 -30 11 -52q14 -45 40.5 -88.5t66 -76t90.5 -52t116 -19.5q67 0 118.5 18t88.5 49.5t61.5 75t38 97t20.5 112.5t7 122q0 56 -7 113t-22 109t-41.5 98.5t-68 81t-98 53.5t-132.5 19q-50 0 -91 -8t-78 -24.5t-71.5 -42.5 t-70.5 -62l-93 71q44 42 88 74.5t92 54.5t104 33t127 11q117 0 206.5 -37t151 -111t93.5 -182t32 -251q0 -135 -32 -243t-90.5 -183t-142 -115t-190.5 -40q-80 0 -147.5 22t-121 63t-92.5 100t-61 135q-9 27 -13.5 69.5t-7.5 91.5t-3.5 100.5t-0.5 95.5z" />
<glyph unicode="&#xe2e;" horiz-adv-x="1127" d="M121 663h417v-96h-302v-60t2 -64.5t6 -61.5q3 -30 11 -52q14 -45 40.5 -88.5t65.5 -76t90 -52.5q53 -19 116 -19q67 0 118 18t88.5 49.5t62 75t38.5 97t20.5 112.5t6.5 122q0 56 -6.5 113t-21.5 109t-42 98.5t-68 81t-98 53.5t-132 19q-51 0 -92 -8t-78 -24.5t-71 -42.5 t-70 -62l-93 71q44 42 87.5 74.5t91.5 54.5t104.5 33t125.5 11q74 0 139 -16q66 -17 118 -47l219 222l79 -78l-212 -210q70 -74 105 -187q36 -111 36 -265q0 -135 -31.5 -243t-90.5 -183t-143 -115q-83 -40 -190 -40q-79 0 -147 22t-121.5 63t-92.5 100t-61 135 q-8 27 -13 69.5t-7.5 91.5t-3 100.5t-0.5 95.5z" />
<glyph unicode="&#xe2f;" horiz-adv-x="1146" d="M110 822q0 66 16 123.5t50.5 98.5t85 65.5t119.5 24.5h104v-106h-84q-49 0 -82.5 -15.5t-54 -42t-29 -64t-8.5 -84.5q0 -68 21 -121.5t60.5 -90t98.5 -55.5t136 -19q154 0 233 82.5t79 245.5v270h125v-1134h-125v570q-22 -30 -57.5 -56t-78 -44t-89 -27.5t-87.5 -9.5 q-99 0 -178.5 26t-136.5 76.5t-87.5 122.5t-30.5 164z" />
<glyph unicode="&#xe30;" horiz-adv-x="669" d="M101 396h113q0 -52 17.5 -75.5t63.5 -23.5h243v-94h-267q-30 0 -60 8t-54.5 29.5t-40 59t-15.5 96.5zM101 943h113q0 -51 17.5 -75t63.5 -24h243v-95h-267q-30 0 -60 8.5t-54.5 29.5t-40 59t-15.5 97z" />
<glyph unicode="&#xe31;" d="M-640 1580h115q0 -51 17.5 -74.5t60.5 -23.5h492v-96h-514q-30 0 -60 8.5t-54.5 29.5t-40.5 59t-16 97z" />
<glyph unicode="&#xe32;" horiz-adv-x="832" d="M5 993q44 71 125 111.5t193 40.5q85 0 149.5 -24.5t107 -71t64.5 -113.5t22 -152v-784h-118v778q0 60 -12.5 108t-38.5 82.5t-69 53.5q-42 19 -105 19q-79 0 -138 -28.5t-86 -80.5z" />
<glyph unicode="&#xe33;" horiz-adv-x="832" d="M-412 1537q0 39 14 71.5t39 57.5t57.5 40t71.5 15q37 0 69 -15t57 -40t39 -57.5t14 -71.5q0 -37 -14 -69t-39 -57t-57 -39t-69 -14q-39 0 -71.5 14t-57.5 39t-39 57t-14 69zM-323 1537q0 -19 7.5 -35.5t20.5 -28t29.5 -18.5t35.5 -7t35.5 7t29.5 18.5t20.5 28t7.5 35.5 t-7.5 37t-20.5 30.5t-29.5 19t-35.5 6.5t-35.5 -6.5t-29.5 -19t-20.5 -30.5t-7.5 -37zM5 993q44 71 125 111.5t193 40.5q85 0 149.5 -24.5t107 -71t64.5 -113.5t22 -152v-784h-118v778q0 60 -12.5 108t-38.5 82.5t-69 53.5q-42 19 -105 19q-79 0 -138 -28.5t-86 -80.5z" />
<glyph unicode="&#xe34;" d="M-1038 1386v96h869v-96h-869z" />
<glyph unicode="&#xe35;" d="M-1038 1386v96h749v195h120v-291h-869z" />
<glyph unicode="&#xe36;" d="M-1036 1386v96h562q-8 11 -15 31.5t-7 40.5q0 35 13 66.5t35.5 55t53.5 36.5q30 14 65.5 14t67 -13.5t54.5 -37t37 -55t14 -67t-14 -65.5t-37 -53t-54.5 -36t-67.5 -13h-707zM-410 1554q0 -17 7 -32t18.5 -26t26.5 -17q13 -6 29 -6q18 0 34 6t28 17t19 26t7 32t-7 33 t-19 27t-27.5 18t-34.5 7q-16 0 -30 -7t-25.5 -18t-18.5 -27t-7 -33z" />
<glyph unicode="&#xe37;" d="M-1044 1386v96h548v195h107v-195h115v195h105v-291h-875z" />
<glyph unicode="&#xe38;" d="M-404 -182h48q52 0 88 -7.5t58 -29.5t31.5 -60.5t9.5 -101.5v-155h-120v152q0 33 -4 52.5t-13.5 29t-25.5 13t-38 3.5h-34v104z" />
<glyph unicode="&#xe39;" d="M-685 -182h69q39 0 66 -7.5t42 -25.5t22 -45q6 -28 6 -66v-14q0 -16 4.5 -32.5t16 -31.5t30 -24.5t48.5 -9.5t48 9.5t29 24.5t14.5 31.5t3.5 32.5v158h117v-158q0 -44 -15.5 -80t-44.5 -61.5t-68 -39.5q-37 -15 -84 -15q-49 0 -89 14.5t-67 40t-42.5 61.5t-15.5 80 q0 33 -12 44.5t-41 11.5h-37v102z" />
<glyph unicode="&#xe3a;" d="M-323 -274q0 19 7.5 35.5t20.5 29t29.5 20t35.5 7.5t35.5 -7.5t29.5 -20t20 -29.5q8 -16 8 -35t-7.5 -36t-20.5 -30t-29.5 -20t-35.5 -7t-35.5 7t-29.5 20t-20.5 30t-7.5 36z" />
<glyph unicode="&#xe3e;" />
<glyph unicode="&#xe3f;" horiz-adv-x="1338" d="M197 0v1417h392v131h118v-131h42q94 0 172.5 -25t136 -72t90.5 -116.5t33 -156.5q0 -55 -15 -105t-44 -92t-71.5 -73.5t-96.5 -50.5q58 -19 105 -52t79 -76t48.5 -97t16.5 -115q0 -96 -31 -167.5t-88.5 -120.5t-138.5 -73.5t-179 -24.5h-59v-137h-118v137h-392zM318 101 h271v573h-271v-573zM318 774h271v544h-271v-544zM707 101h45q77 0 138 19.5t104.5 56.5t67 90.5t23.5 118.5q0 66 -23.5 119.5t-67 90.5t-105.5 57.5t-137 20.5h-45v-573zM707 774h25q67 0 128 16t106 48.5t71 84.5t26 124t-26 123.5t-71 84.5t-105.5 48t-128.5 15h-25v-544 z" />
<glyph unicode="&#xe40;" horiz-adv-x="524" d="M169 258v876h120v-874q0 -35 3.5 -62.5t17 -48t37.5 -31.5t65 -11h81v-107h-104q-59 0 -100.5 18t-67.5 50.5t-39 80.5t-13 109z" />
<glyph unicode="&#xe41;" horiz-adv-x="1060" d="M169 258v876h120v-874q0 -35 3.5 -62.5t17 -48t37.5 -31.5t65 -11h81v-107h-104q-59 0 -100.5 18t-67.5 50.5t-39 80.5t-13 109zM704 258v876h121v-874q0 -35 4 -62.5t16.5 -48t37 -31.5t65.5 -11h82v-107h-104q-59 0 -100.5 18t-69 50.5t-40 80.5t-12.5 109z" />
<glyph unicode="&#xe42;" horiz-adv-x="586" d="M19 1577l22 94h625v-91h-419q31 -28 51 -61.5t32 -67t16.5 -65.5t4.5 -56v-1061q0 -36 2.5 -65t15 -50.5t37 -34t68.5 -12.5h82v-107h-104q-62 0 -105 20t-69 55.5t-37 84t-11 106.5v1067q0 55 -13.5 100t-39.5 76.5t-66 49t-92 18.5z" />
<glyph unicode="&#xe43;" horiz-adv-x="586" d="M16 1502q9 57 37.5 101t69.5 74t90 45q50 15 97 15q71 0 123 -17.5t87.5 -49t53.5 -77.5q18 -45 18 -102q0 -25 -5.5 -49t-18 -48t-31.5 -50.5t-47 -58.5l-106 -126q-17 -18 -24 -33.5t-9 -32t-1 -36t1 -40.5v-748q0 -36 2.5 -65t15 -50.5t37 -34t68.5 -12.5h82v-107 h-104q-62 0 -105 20t-69 55.5t-37 84t-11 106.5v756v48t7 44.5t20.5 48.5t42.5 60l115 135q23 28 36 49.5t19.5 37t8 26.5t1.5 20q0 41 -14.5 67.5t-38.5 42.5t-54.5 22.5t-62.5 6.5q-25 0 -54 -6t-53.5 -23t-44.5 -46t-29 -73z" />
<glyph unicode="&#xe44;" horiz-adv-x="605" d="M-41 1580v91h600l22 -94q-52 -1 -91 -18.5t-66 -49t-40.5 -76t-13.5 -100.5v-1064q0 -36 3.5 -65t15.5 -50.5t37 -34.5q23 -12 67 -12h82v-107h-101q-62 0 -105 20t-69 55.5t-38.5 84t-12.5 106.5v1064q0 25 5 56.5t16.5 65t31.5 67t51 61.5h-394z" />
<glyph unicode="&#xe45;" horiz-adv-x="832" d="M5 993q44 71 125 111.5t193 40.5q85 0 149.5 -24.5t107 -71t64.5 -113.5t22 -152v-1207h-118v1201q0 60 -12.5 108t-38.5 82.5t-69 53.5q-42 19 -105 19q-79 0 -138 -28.5t-86 -80.5z" />
<glyph unicode="&#xe46;" horiz-adv-x="1167" d="M134 838q0 63 12 111t38 84t68 61q43 27 104 43l219 -183l214 183q44 -12 81.5 -33.5t65.5 -51t46 -68.5q17 -39 17 -91v-1316h-121v1312q0 41 -19 76q-18 35 -59 54l-192 -161q-15 -11 -33.5 -11t-31.5 11l-198 161q-15 -8 -30.5 -17t-28.5 -27.5t-22 -50t-9 -86.5 q0 -31 1.5 -63t11.5 -58.5t34 -43.5t68 -17h11v-86h-30q-47 0 -86.5 12.5t-68.5 44t-45.5 83.5t-16.5 128z" />
<glyph unicode="&#xe47;" d="M-1025 1606q0 41 16.5 80t46 69.5t72.5 51.5t95 23h626v-90h-609q-33 0 -59 -14.5t-42.5 -35.5t-26 -44.5t-9.5 -39.5q0 -20 5.5 -40.5t15.5 -38t25 -32.5q17 -15 36 -25l173 104q15 11 34 10.5t34 -10.5l180 -104q19 8 34 20t23 29.5t9 40.5q1 24 -5 54h107 q11 -49 1.5 -91.5t-34 -75.5t-63 -55t-83.5 -30l-202 126l-197 -126q-44 12 -81 32t-63.5 50t-42.5 70t-16 92z" />
<glyph unicode="&#xe48;" d="M-284 1823v236h115v-236h-115z" />
<glyph unicode="&#xe49;" d="M-496 1823v90q14 0 27 2q11 2 25 4t26 6q11 3 24 8.5t24 16t18 28t7 41.5q0 39 -27 60q-28 21 -80 17v101q49 0 89 -9.5t68.5 -28.5t43.5 -50.5t15 -74.5q0 -30 -13.5 -60.5t-34.5 -51.5h351v-99h-563z" />
<glyph unicode="&#xe4a;" d="M-760 2000q0 41 11.5 73.5t29.5 56.5t39.5 40.5t42.5 29.5q10 4 20.5 7.5t23 4.5t25 -4t25.5 -16l99 -88l82 88q11 11 23.5 15t26 4t24.5 -4t19 -7q24 -13 46.5 -31t40.5 -41.5t29 -55t11 -72.5v-83h156v-94h-263v177q0 30 -8.5 50.5t-19.5 33t-22 19.5t-19 10l-83 -94 q-9 -11 -20.5 -15t-22.5 -4q-8 0 -17.5 5.5t-18.5 13.5l-101 94q-9 -3 -21.5 -8.5t-24 -18t-19 -31.5t-7.5 -49q0 -18 7.5 -34.5t21 -29.5t34 -21t45.5 -8v-98h-17q-42 0 -78.5 15t-62.5 40.5t-41.5 59t-15.5 70.5z" />
<glyph unicode="&#xe4b;" d="M-444 1970v99h166v150h109v-150h166v-99h-166v-147h-109v147h-166z" />
<glyph unicode="&#xe4c;" d="M-286 1686q0 62 15.5 100.5t40 59t55 27.5t60.5 7h219v-96h-205q-24 0 -37 -5.5t-19.5 -18t-9 -30.5t-2.5 -44h-117z" />
<glyph unicode="&#xe4d;" d="M-412 1537q0 39 14 71.5t39 57.5t57.5 40t71.5 15q37 0 69 -15t57 -40t39 -57.5t14 -71.5q0 -37 -14 -69t-39 -57t-57 -39t-69 -14q-39 0 -71.5 14t-57.5 39t-39 57t-14 69zM-323 1537q0 -19 7.5 -35.5t20.5 -28t29.5 -18.5t35.5 -7t35.5 7t29.5 18.5t20.5 28t7.5 35.5 t-7.5 37t-20.5 30.5t-29.5 19t-35.5 6.5t-35.5 -6.5t-29.5 -19t-20.5 -30.5t-7.5 -37z" />
<glyph unicode="&#xe4e;" d="M-289 1389q0 55 9 90.5t24.5 57t37 29.5t47.5 8q0 40 15.5 61t39.5 31t52 10.5t53 0.5h101v-95h-87q-24 0 -37 -3t-19.5 -13t-8.5 -28q-2 -17 -2 -47h-70q-13 0 -20.5 -8.5t-11.5 -22t-4.5 -32t-0.5 -39.5h-118z" />
<glyph unicode="&#xe4f;" horiz-adv-x="1443" d="M145 562q0 79 20.5 151.5t57.5 136.5t89 116.5t115 89.5t135 57.5t150 20.5q80 0 153 -20.5t137 -57.5t116 -89.5t89 -116.5t57.5 -136.5t20.5 -151.5q0 -77 -20.5 -149.5t-57.5 -135.5t-89 -115t-116 -89t-137 -57.5t-153 -20.5q-76 0 -149 20.5t-136 57.5t-115 89 t-89 115t-57.5 135t-20.5 150zM258 562q0 -63 16 -120.5t46.5 -108.5t71.5 -92.5t91.5 -71t108 -46t120.5 -16.5t122 16.5t111 46t93.5 71t71.5 92.5t46.5 108.5t16.5 120.5q0 96 -36 179.5t-99 145.5t-146.5 98.5t-179.5 36.5q-63 0 -120.5 -16.5t-108 -46.5t-91.5 -72 t-71.5 -93t-46.5 -110t-16 -122zM410 562q0 63 24 118.5t65 97t96.5 65.5t116.5 24q63 0 119.5 -24t97.5 -65.5t65.5 -97t24.5 -118.5q0 -62 -24.5 -117.5t-65.5 -96.5t-97.5 -65.5t-119.5 -24.5q-61 0 -116.5 24.5t-96.5 65.5t-65 96.5t-24 117.5zM522 562q0 -39 15 -74.5 t41 -61.5t61 -41t73 -15q40 0 75.5 15t61.5 41t42 61q16 36 16 75t-16 74t-42 61t-61.5 42t-75.5 16q-38 0 -73 -16t-61 -42t-41 -61t-15 -74z" />
<glyph unicode="&#xe50;" horiz-adv-x="1279" d="M101 499q0 107 36 200t104.5 162t169 109.5t229.5 40.5t229.5 -40.5t169 -109.5t104 -162t35.5 -200t-35.5 -200t-104 -163t-168.5 -110t-230 -40q-129 0 -229.5 40t-169 110t-104.5 163t-36 200zM222 499q0 -87 30 -161.5t85 -130.5t132.5 -89t170.5 -33q63 0 117.5 15 t101.5 42.5t83 64.5t62 83t40 98.5t14 110.5q0 85 -30.5 159t-85 128.5t-132 86t-170.5 34.5q-93 -1 -170.5 -33.5t-132.5 -87t-85 -128.5t-30 -159z" />
<glyph unicode="&#xe51;" horiz-adv-x="1279" d="M101 493q0 115 40.5 209.5t112.5 162t170.5 105t215.5 37.5q122 0 220.5 -40.5t167.5 -113.5t107 -176.5t38 -229.5q0 -121 -30.5 -218t-85 -174t-130.5 -136t-167 -104l-56 81q80 44 144 97.5t110 120.5t71.5 149t25.5 186t-33 188.5t-89 144t-131.5 92.5t-161.5 36 q-55 0 -106.5 -15t-98 -40t-85 -62t-66.5 -83t-43.5 -100t-15.5 -117q0 -178 82 -265.5t246 -90.5q-1 0 -1.5 -15t-0.5 -34q0 -22 2 -50q-123 0 -209 34.5t-139.5 96t-78.5 144t-25 180.5z" />
<glyph unicode="&#xe52;" horiz-adv-x="1389" d="M118 430v866h120v-863q0 -63 20.5 -112.5t55 -87.5t82.5 -65.5t102 -45.5t112.5 -26t116 -8t113 8t104.5 26t91 45.5t72 65.5t46.5 87.5t16.5 112.5v151q0 52 -9.5 100t-29.5 86t-49 66q-27 28 -65 42l-153 -141q-19 -22 -45 -21q-26 -1 -45 21l-121 141 q-52 -19 -83.5 -61t-42.5 -99l-112 37q12 52 37 93.5t59 73.5t76 53q43 22 90 36l140 -173l174 173q76 -22 132.5 -61.5t92.5 -91.5t54 -116.5t18 -135.5v-173q0 -115 -42 -200t-116.5 -138.5t-177.5 -79.5t-226 -26q-82 0 -158 11t-144 34.5t-124 59t-96.5 84t-63 111 t-22.5 141.5z" />
<glyph unicode="&#xe53;" horiz-adv-x="1365" d="M101 499q0 90 24 170t66.5 146t99.5 116t124 83l267 -219l266 219q66 -32 124 -82t101.5 -115.5t68 -145t24.5 -170.5q0 -85 -16 -158.5t-41 -138t-59.5 -118t-69.5 -94.5l-98 56q26 36 55 80.5t53 100t39.5 123t15.5 147.5q0 60 -15 119t-40.5 108t-60 87.5t-75.5 61.5 l-231 -187q-22 -19 -43 -19t-40 19l-225 187q-36 -21 -69.5 -60.5t-61.5 -88.5t-45 -107q-17 -60 -17 -120q0 -85 19 -159t59 -129t99 -88t139 -33q-1 0 -1 -15v-34q0 -22 1 -49q-80 0 -144 20.5t-112.5 57.5t-83 85.5t-56 105.5t-31.5 117t-10 121z" />
<glyph unicode="&#xe54;" horiz-adv-x="1430" d="M101 499q0 107 30.5 198t92 157.5t152.5 104t213 37.5h519l207 207l82 -78l-230 -226h-578q-86 -2 -154 -32.5t-116 -84t-72.5 -126t-24.5 -157.5q0 -87 24.5 -160t72.5 -126.5t116 -83.5t154 -30h238q-21 17 -42.5 44t-38 60t-26.5 70t-10 78q0 78 22 134t65.5 92.5 t106.5 53.5t145 17h31v-97h-20q-52 0 -95 -9.5t-74 -33t-47.5 -60.5t-16.5 -95q0 -126 74 -189q73 -63 210 -65h112v-99h-634q-122 0 -213 37.5t-152.5 104t-92 158.5t-30.5 199z" />
<glyph unicode="&#xe55;" horiz-adv-x="1430" d="M101 499q0 107 30.5 198t92 157.5t152.5 104t213 37.5h101q-24 37 -24 84q0 38 13.5 71t38.5 57.5t58 39.5q32 15 71 15q37 0 69.5 -15t56.5 -39.5t39.5 -57.5t15.5 -71q0 -47 -27 -84h107l213 207l82 -74l-241 -230h-573q-86 -2 -154 -32.5t-116 -84t-72.5 -126 t-24.5 -157.5q0 -87 24.5 -160t72.5 -126.5t116 -83.5t154 -30h233q-22 17 -43 44t-37.5 60t-27 70t-10.5 78q0 78 22 134t66 92.5t107 53.5t145 17h30v-97h-19q-52 0 -95 -9.5t-74 -33t-47.5 -60.5t-16.5 -95q0 -126 73 -189q74 -63 211 -65h117v-99h-634q-122 0 -213 37.5 t-152.5 104t-92 158.5t-30.5 199zM755 1079.5q0 -19.5 7.5 -35.5t20 -28t28.5 -18.5t36 -6.5q19 0 36 6.5t30 18.5t20 28t7 35.5t-7 37t-20 30t-30 19.5t-36 7q-20 0 -36 -7t-28.5 -19.5t-20 -30t-7.5 -37z" />
<glyph unicode="&#xe56;" horiz-adv-x="1389" d="M48 1129l81 77l270 -277q27 14 64.5 29t81.5 27t95.5 20.5t106.5 8.5q137 0 238 -41t169 -111t101 -163t33 -200t-33.5 -200t-101.5 -161t-169.5 -107t-236.5 -39q-111 0 -199 27.5t-151.5 74t-100.5 110t-44 136.5q-4 44 2 78t17 62t27.5 48.5t34.5 36t34.5 25.5 t28.5 16l59 -96q-15 -10 -31 -20t-27 -28t-17.5 -47t-4.5 -73q3 -38 21 -71t45.5 -60t63 -48t76 -34.5t83 -20.5t83.5 -7q101 0 180 29.5t132 83t80.5 127t27.5 158.5t-27.5 159.5t-81.5 130t-132.5 87t-178.5 34.5q-69 0 -121.5 -10t-96 -26t-78.5 -38q-37 -19 -70 -44z " />
<glyph unicode="&#xe57;" horiz-adv-x="1419" d="M101 471q0 104 29 188.5t77.5 151t109.5 116.5q61 51 127 87l249 -219l250 219q19 -7 41 -20.5t46.5 -31t49 -38t45 -42.5t35.5 -43.5t24 -41.5v406h118v-729q0 -92 -22 -168t-53.5 -137t-68.5 -105.5t-67 -71.5l-98 56q26 27 59 66t62 90.5t48 118t19 148.5 q0 67 -21.5 129t-55 114.5t-75 92.5t-81.5 66l-214 -188q-22 -19 -43 -19t-40 19l-213 188q-35 -30 -73.5 -66.5t-70 -84.5t-52 -109.5t-20.5 -141.5q0 -92 24.5 -162.5t68.5 -119.5t103 -74t127 -25q-1 0 -2 -15v-34q0 -22 2 -49q-79 0 -143.5 19t-114 52.5t-84 79.5 t-57.5 99.5t-34 111.5t-11 117z" />
<glyph unicode="&#xe58;" horiz-adv-x="1382" d="M101 504q0 60 11 120.5t36 115.5t62 101.5t88 80.5t116.5 54t147.5 20h518l202 207l83 -78l-225 -226h-578q-80 -2 -143 -32t-106.5 -82.5t-67 -124t-23.5 -156.5q0 -60 18 -115t46.5 -101.5t65 -85t71.5 -68.5l225 187q19 19 41 19q21 0 43 -19l224 -192q32 15 58.5 36 t46.5 48.5t31 62.5t11 77q0 33 -9 60.5t-24 48t-34 37t-40 26.5l32 100q43 -14 77.5 -38t59 -57.5t37.5 -78.5t13 -100q0 -59 -15.5 -110t-48.5 -95.5t-83.5 -82.5t-119.5 -71l-258 219l-257 -219q-66 31 -126 81t-106 116t-73 145.5t-27 169.5z" />
<glyph unicode="&#xe59;" horiz-adv-x="1539" d="M101 499q0 107 34 200t99 162t159.5 109.5t214.5 40.5q66 0 121.5 -16.5t103 -46.5t88.5 -74t78 -100q5 52 21 94t46 70.5t78 44.5t116 16h220v-92h-200q-51 0 -84.5 -11t-55.5 -30t-33 -45t-16 -57t-5.5 -64.5t-0.5 -67.5l310 -584l-104 -48l-340 634 q-77 140 -160.5 206.5t-182.5 66.5q-86 0 -156.5 -31.5t-122 -87t-79.5 -130t-28 -159.5q0 -87 28 -161.5t79.5 -130t122.5 -87.5t156 -32v-102q-122 0 -216.5 40t-159.5 110t-98 163t-33 200z" />
<glyph unicode="&#xe5a;" horiz-adv-x="1512" d="M110 822q0 66 16 123.5t50.5 98.5t85 65.5t119.5 24.5h104v-106h-84q-49 0 -82.5 -15.5t-54 -42t-29 -64t-8.5 -84.5q0 -68 21 -121.5t60.5 -90t98.5 -55.5t136 -19q154 0 233 82.5t79 245.5v270h125v-1134h-125v570q-19 -32 -55 -57t-79.5 -43t-90 -27.5t-87.5 -9.5 q-99 0 -178.5 26t-136.5 76.5t-87.5 122.5t-30.5 164zM1221 0v1134h123v-1134h-123z" />
<glyph unicode="&#xe5b;" horiz-adv-x="2479" d="M159 578q0 77 18 142t47 116.5t69.5 89.5t86 64.5t94.5 38.5t98.5 12t87 -9t66 -22t47.5 -29.5t35 -29.5l-79 -87q-41 36 -81 52t-81 16q-55 0 -107.5 -23t-93.5 -67.5t-66.5 -110t-25.5 -153.5q0 -107 37.5 -182t100 -123t143.5 -71t166 -23q63 0 121.5 20t111 55.5 t95 84.5t74 105.5t47.5 119.5t16 126q0 39 -4 73t-15 67l82 59q25 -25 52.5 -58.5t57.5 -74.5t61 -85t59 -86t53.5 -82t44.5 -70q14 22 29.5 50.5t32 61.5l33 66l31.5 63t26.5 55t18.5 42l54 18l128 -178h385v-89h-424l-89 121q-13 -27 -30.5 -61.5t-38.5 -73.5t-42.5 -80.5 t-43.5 -79t-42.5 -70.5t-35.5 -56q-22 41 -53 96t-66.5 113t-74 113.5t-73.5 98.5q-20 -127 -70 -230t-126 -178.5t-173 -116.5t-210 -41q-141 0 -246.5 38t-176 105.5t-106 159t-35.5 198.5z" />
<glyph unicode="&#x2000;" horiz-adv-x="1109" />
<glyph unicode="&#x2001;" horiz-adv-x="2219" />
<glyph unicode="&#x2002;" horiz-adv-x="1109" />
<glyph unicode="&#x2003;" horiz-adv-x="2219" />
<glyph unicode="&#x2004;" horiz-adv-x="739" />
<glyph unicode="&#x2005;" horiz-adv-x="554" />
<glyph unicode="&#x2006;" horiz-adv-x="369" />
<glyph unicode="&#x2007;" horiz-adv-x="369" />
<glyph unicode="&#x2008;" horiz-adv-x="277" />
<glyph unicode="&#x2009;" horiz-adv-x="443" />
<glyph unicode="&#x200a;" horiz-adv-x="123" />
<glyph unicode="&#x200b;" />
<glyph unicode="&#x2010;" horiz-adv-x="942" d="M182 530v104h578v-104h-578z" />
<glyph unicode="&#x2011;" horiz-adv-x="942" d="M182 530v104h578v-104h-578z" />
<glyph unicode="&#x2012;" horiz-adv-x="942" d="M182 530v104h578v-104h-578z" />
<glyph unicode="&#x2013;" horiz-adv-x="1135" d="M115 530v104h904v-104h-904z" />
<glyph unicode="&#x2014;" horiz-adv-x="1924" d="M182 530v104h1563v-104h-1563z" />
<glyph unicode="&#x2018;" horiz-adv-x="575" d="M208 1285v169l156 143v-312h-156z" />
<glyph unicode="&#x2019;" horiz-adv-x="575" d="M208 1184v309h156v-170z" />
<glyph unicode="&#x201c;" horiz-adv-x="919" d="M208 1285v169l156 143v-312h-156zM553 1285v169l157 143v-312h-157z" />
<glyph unicode="&#x201d;" horiz-adv-x="919" d="M208 1184v309h156v-170zM553 1184v309h157v-170z" />
<glyph unicode="&#x2022;" horiz-adv-x="1259" d="M375 573q0 52 20.5 98.5t55 80.5t81 54.5t100.5 20.5q52 0 98.5 -20.5t81.5 -54.5t54.5 -80.5t19.5 -98.5t-19.5 -99t-54.5 -81.5t-81.5 -54.5t-98.5 -20t-99.5 20t-82 54.5t-55 81.5t-20.5 99z" />
<glyph unicode="&#x202f;" horiz-adv-x="443" />
<glyph unicode="&#x205f;" horiz-adv-x="554" />
<glyph unicode="&#x20ac;" horiz-adv-x="1267" d="M30 545v100h149v65q0 44 -0.5 83.5t0.5 76.5h-149v100h155q4 55 12.5 98.5t22.5 80.5t36.5 70t55.5 66q70 71 162 108q93 37 195 37q94 0 174 -28t143 -82t106 -132q42 -76 59 -174h-115q-14 74 -47.5 132t-81 99t-108.5 63q-59 22 -130 22q-74 0 -142.5 -26.5 t-122.5 -80.5q-25 -24 -43.5 -49.5t-30 -56.5t-19 -67t-11.5 -80h385v-100h-393v-160v-65h393v-100h-393q3 -68 9 -119t18.5 -92t33 -74t51.5 -63q52 -53 121 -81q70 -28 144 -28q71 0 131 22t109 64t82.5 101t49.5 132h107l3 -3q-17 -96 -59.5 -173.5t-105.5 -132 t-143.5 -83.5t-173.5 -29q-102 0 -195 38q-93 36 -162 108q-41 38 -65.5 79t-39 89t-20.5 107t-8 138h-149z" />
<glyph unicode="&#x2122;" horiz-adv-x="1705" d="M70 1336v81h610v-81h-259v-772h-95v772h-256zM836 564v853h96l276 -533l277 533h95v-853h-98v644l-227 -424h-93l-228 424v-644h-98z" />
<glyph unicode="&#x25cc;" horiz-adv-x="1574" d="M381 674l107 52q-6 -30 -6 -57.5t6 -49.5zM496 384l37 112q30 -47 75 -75zM510 959l106 -36q-43 -28 -73 -71zM732 970l57 107l49 -104q-24 2 -46 2q-33 0 -60 -5zM737 367q25 -5 55 -5q22 0 41 5l-44 -98zM962 923l118 36l-42 -110q-32 44 -76 74zM964 415q42 28 69 67 l27 -98zM1091 625q5 19 6 44q-1 24 -6 52l98 -52z" />
<glyph unicode="&#x25fc;" horiz-adv-x="1064" d="M0 0v1066h1066v-1066h-1066z" />
<glyph unicode="&#xf700;" horiz-adv-x="1023" d="M0 912q25 58 63 100.5t90.5 72.5t116 45t137.5 15q77 0 138 -17q61 -18 118 -51l226 230l81 -78l-223 -222q46 -51 72 -121q25 -72 25 -163v-723h-121v375q0 47 -7.5 83.5t-27 60.5t-52.5 36t-83 12h-194v99h216q31 0 54 -4t41 -11t31 -17q11 -9 22 -20v79q0 170 -78 259 t-238 89q-51 0 -97.5 -11.5t-86 -34t-68.5 -58.5t-45 -82q-31 14 -55 27q-11 6 -20.5 10.5t-17 9t-12.5 6.5z" />
<glyph unicode="&#xf701;" d="M-1148 1386v96h730v-96h-730z" />
<glyph unicode="&#xf702;" d="M-1148 1386v96h610v195h120v-291h-730z" />
<glyph unicode="&#xf703;" d="M-1197 1386v96h490q-3 4 -7 12t-7.5 18.5t-5.5 21.5t-2 20q0 35 13 66.5t35.5 55t53.5 36.5q30 14 65.5 14t67 -13.5t55 -37t37 -55t13.5 -67t-13.5 -65.5t-37 -53t-55 -36t-67.5 -13h-635zM-643 1554q0 -17 7 -32t18.5 -26t26.5 -17q13 -6 29 -6q18 0 34 6t28 17t19 26 t7 32t-7 33t-19 27t-27.5 18t-34.5 7q-16 0 -30 -7t-25.5 -18t-18.5 -27t-7 -33z" />
<glyph unicode="&#xf704;" d="M-1203 1386v96h456v195h107v-195h115v195h107v-291h-785z" />
<glyph unicode="&#xf705;" d="M-645 1386v348h120v-348h-120zM-645 1386v348h120v-348h-120z" />
<glyph unicode="&#xf706;" d="M-967 1386v89q13 0 27 3q11 2 25 4q14 3 26 6q11 3 24 8.5t24 16t17.5 27t6.5 42.5q0 39 -26.5 60t-79.5 16v101q49 0 88.5 -9.5t68.5 -28.5t44 -50q15 -30 15 -74q0 -30 -14 -61q-13 -29 -34 -51h377v-99h-589z" />
<glyph unicode="&#xf707;" d="M-1066 1562q0 41 11 74t29 56t40 40t43 30q10 4 21 8t22.5 5t25.5 -4t27 -17l98 -88l80 88q11 11 25 15.5t26 4t23 -4t20 -7.5q23 -14 45.5 -32t40.5 -41t29 -54.5t11 -72.5v-82h160v-94h-267v176q0 30 -7.5 50.5t-18 33.5t-22.5 20q-12 5 -18 8l-85 -92 q-8 -11 -19.5 -15.5t-22.5 -4.5q-9 0 -18 6q-11 6 -19 14l-100 92q-10 -3 -22.5 -8.5t-24 -17t-19 -31.5t-7.5 -48q0 -18 7 -34.5t20.5 -30t34 -21.5t48.5 -8v-97h-18q-43 0 -79 15t-63 40.5t-42 59t-15 69.5z" />
<glyph unicode="&#xf708;" d="M-849 1521v98h164v151h110v-151h165v-98h-165v-146h-110v146h-164z" />
<glyph unicode="&#xf709;" d="M-747 1386q0 63 16 100t40.5 58.5t54.5 28.5t61 7h176v-95h-176q-22 0 -34.5 -6t-19.5 -18.5t-9 -31t-2 -43.5h-107z" />
<glyph unicode="&#xf70a;" d="M-289 1386v348h120v-348h-120z" />
<glyph unicode="&#xf70b;" d="M-680 1386v89q14 0 28 3q11 2 25 4q16 3 27 6t24 8.5t23 16t18 27t8 42.5q0 39 -27 60t-80 16v101q49 0 89.5 -9.5t68.5 -28.5t43 -50q15 -30 15 -74q0 -30 -13 -61q-13 -29 -35 -51h396v-99h-610z" />
<glyph unicode="&#xf70c;" d="M-889 1562q0 41 11.5 74t29.5 56t40 40t42 30q10 4 21 8t23 5t24.5 -4t26.5 -17l98 -88l83 88q10 11 22.5 15.5t25.5 4t24.5 -4t18.5 -7.5q24 -14 46.5 -32t40 -41t29.5 -54.5t12 -72.5v-82h233v-94h-340v176q0 30 -8.5 50.5t-19 33.5t-21.5 20q-11 5 -20 8l-83 -92 q-8 -11 -20 -15.5t-23 -4.5q-8 0 -17.5 6t-17.5 14l-102 92q-9 -3 -22 -8.5t-24 -17t-19.5 -31.5t-8.5 -48q0 -18 7.5 -34.5t22 -30t35 -21.5t45.5 -8v-97h-16q-42 0 -79 15t-63 40.5t-41.5 59t-15.5 69.5z" />
<glyph unicode="&#xf70d;" d="M-447 1532v98h166v151h110v-151h166v-98h-166v-146h-110v146h-166z" />
<glyph unicode="&#xf70e;" d="M-474 1386q0 63 15.5 100t40.5 58.5t55.5 28.5t59.5 7h241v-95h-241q-22 0 -34 -6t-19 -18.5t-9 -31t-2 -43.5h-107z" />
<glyph unicode="&#xf70f;" horiz-adv-x="1885" d="M79 849q85 148 208 222t291 74q118 0 205.5 -28.5t145 -85t86.5 -137t29 -184.5v-277q0 -71 11 -134t42.5 -110t85 -73t138.5 -26t138 26t84 73t43 109q11 64 11 135v701h121v-727q0 -103 -26.5 -181.5t-76.5 -131.5t-124 -80.5t-170 -27.5q-95 0 -168 27.5t-124 80.5 t-77 131.5t-26 181.5v283q0 96 -23 162.5t-68.5 108.5t-110 61t-149.5 19q-49 0 -97.5 -8t-94.5 -30t-88.5 -59t-75.5 -97l81 -129v-458q0 -35 4 -62.5t17 -48t37 -31.5t65 -11h81v-107h-103q-59 0 -100.5 18t-68 50.5t-38.5 80.5t-12 109v443z" />
<glyph unicode="&#xf710;" d="M-792 1580h126q0 -25 3 -43.5t9.5 -31t20.5 -18t36 -5.5h638v-96h-660q-30 0 -60.5 8.5t-55 29.5t-41 59t-16.5 97z" />
<glyph unicode="&#xf711;" d="M-763 1537q0 39 14.5 71.5t39 57.5t57.5 40t71 15q37 0 69 -15t57 -40t39.5 -57.5t14.5 -71.5q0 -37 -14.5 -69t-39.5 -57t-57 -39t-69 -14q-38 0 -71 14t-57.5 39t-39 57t-14.5 69zM-674 1537q0 -19 7.5 -35.5t20.5 -28t29.5 -18.5t35.5 -7t35.5 7t29.5 18.5t20.5 28 t7.5 35.5t-7.5 37t-20.5 30.5t-29.5 19t-35.5 6.5t-35.5 -6.5t-29.5 -19t-20.5 -30.5t-7.5 -37z" />
<glyph unicode="&#xf712;" d="M-1100 1585q0 41 15.5 80t46 70.5t73 52t95.5 22.5h500v-92h-482q-33 0 -59 -14.5t-44 -34.5t-27 -43t-9 -41q0 -19 5 -39.5t16 -38.5t26 -32.5t34 -23.5l115 103q15 11 33.5 11t35.5 -11l120 -103q20 8 35 19.5t23 29.5t9 41q-1 24 -6 54h107q11 -50 1 -92.5t-34.5 -75 t-62.5 -55.5q-36 -23 -82 -31l-144 126l-139 -126q-44 13 -80 33.5t-63 50.5t-42.5 69.5t-15.5 90.5z" />
<glyph unicode="&#xf713;" d="M-534 1823v236h115v-236h-115z" />
<glyph unicode="&#xf714;" d="M-747 1826v91q15 -2 29 1q11 1 24.5 3t24.5 7q11 2 25 7.5t25 16.5t17.5 28t6.5 42q0 38 -27 59.5t-79 17.5v101q49 0 88.5 -9.5t68.5 -28.5t44 -50.5t15 -74.5q0 -30 -13.5 -61t-34.5 -51h396v-99h-610z" />
<glyph unicode="&#xf715;" d="M-1038 2003q0 41 10.5 73t28.5 56t40 40.5t44 30.5q9 4 20 7.5t23 4t25.5 -4t27.5 -17.5l98 -86l81 86q11 11 24 16t25.5 5t24.5 -4q10 -4 18 -7q23 -14 45.5 -31.5t40.5 -41.5t29 -55t11 -72v-85h121v-92h-226v177q0 30 -8 50t-18.5 33t-22.5 20q-10 7 -19 9l-85 -93 q-8 -11 -19 -15t-22 -4q-8 0 -18 5.5t-19 13.5l-101 93q-10 -2 -22 -7.5t-23 -18t-19.5 -31.5t-8.5 -50q0 -17 7 -34.5t21.5 -29.5t34.5 -20.5t47 -8.5v-98h-16q-43 0 -79.5 15t-63.5 41t-42 59.5t-15 70.5z" />
<glyph unicode="&#xf716;" d="M-693 1970v99h166v150h109v-150h166v-99h-166v-147h-109v147h-166z" />
<glyph unicode="&#xf717;" d="M-533 1686q0 62 16 100.5t40.5 59t54.5 27.5t60 7h191v-96h-191q-22 0 -34 -5.5t-19 -18t-9.5 -30.5t-2.5 -44h-106z" />
<glyph unicode="&#xf718;" d="M-410 -399h54q52 0 88 -7.5t58 -29.5t31.5 -60t9.5 -101v-155h-120v152q0 33 -4 52t-13.5 29.5t-25.5 14t-38 3.5h-34z" />
<glyph unicode="&#xf719;" d="M-688 -401h72q39 0 66 -7.5t42 -25t22 -44.5q6 -29 6 -67v-14q0 -16 4.5 -32.5t16 -31.5t30 -24t48.5 -9t48 9t29 24t14 32q4 16 4 32v158h117v-158q0 -44 -15.5 -79.5t-44.5 -61.5t-68 -40q-37 -15 -84 -15q-49 0 -89 14.5t-67 40.5t-42.5 61.5t-15.5 79.5 q0 33 -12 45.5t-41 12.5h-37z" />
<glyph unicode="&#xf71a;" d="M-356 -485q0 19 7 35.5t20 29t30 20.5t36 8t35.5 -8t29 -20.5t20 -29t7.5 -35.5t-7.5 -35.5t-20 -29.5t-29 -20.5t-35.5 -7.5t-36 7.5t-30 20.5t-20 29.5t-7 35.5z" />
<glyph unicode="&#xf71d;" horiz-adv-x="1507" d="M101 1134h124l139 -960l335 960h96l334 -960l103 701q11 77 -28 115q-40 38 -130 40v104h96q38 0 67 10t49.5 27t34 41t20.5 54l26 92h124l-37 -129q-11 -38 -27.5 -66.5t-38.5 -50t-49 -37t-57 -26.5q43 -34 60 -78.5t7 -92.5l-143 -878h-121l-338 937l-340 -937h-123z " />
<glyph unicode="&#xf881;" horiz-adv-x="2039" d="M85 849l103 -148v-443q0 -61 12 -109t39 -80.5t68 -50.5t100 -18h103v107h-80q-41 0 -65.5 11t-37.5 31.5t-17 48.5q-4 27 -4 62v458l-90 137q37 52 80.5 87.5t91.5 57.5t97 31.5t96 9.5q82 0 148 -19t111 -59t68.5 -103t23.5 -150v-1133h117v1133q0 104 -28.5 184.5 t-86 137t-145.5 85t-205 28.5q-169 0 -292 -74q-122 -74 -207 -222zM1211 993q44 71 125 111.5t193 40.5q85 0 149.5 -24.5t107 -71t64 -113.5t21.5 -152v-1207h-117v1201q0 60 -12 108t-38.5 82.5t-69 53.5t-105.5 19q-78 0 -137.5 -28.5t-87.5 -80.5z" />
<glyph unicode="&#xf882;" horiz-adv-x="2090" d="M96 107q55 -3 83.5 14t41 44.5t14 60t1.5 60.5v415l-104 148q83 148 207 222t293 74q117 0 204 -28.5t146 -85t88 -137t30 -184.5v-1131h-120v1131q0 89 -25.5 152t-71.5 103.5t-111 58t-143 17.5q-47 0 -95.5 -9.5t-95 -30t-91.5 -56.5q-46 -35 -84 -87l93 -140v-460 q0 -58 -12 -100t-31.5 -70.5t-45.5 -45.5t-52 -27t-52 -12.5t-48 -2.5zM1263 993q44 71 124 111.5t193 40.5q85 0 149 -24.5t107.5 -71t64.5 -113.5t21 -152v-1207h-118v1201q0 60 -11.5 108t-38 82.5t-70 53.5t-104.5 19q-80 0 -138 -28.5t-87 -80.5z" />
<glyph d="M-747 1386q0 55 9 90.5t25 56.5t37 29.5t47 8.5q0 40 16 61.5t40.5 30t52 10t51.5 1.5h83v-94h-69q-23 0 -36 -3.5t-20 -13t-9 -28.5q-2 -17 -2 -47h-70q-12 0 -19.5 -8.5t-11.5 -22t-5 -32.5q-1 -17 -1 -39h-118z" />
<glyph horiz-adv-x="838" d="M-763 1537q0 39 14.5 71.5t39 57.5t57.5 40t71 15q37 0 69 -15t57 -40t39.5 -57.5t14.5 -71.5q0 -37 -14.5 -69t-39.5 -57t-57 -39t-69 -14q-38 0 -71 14t-57.5 39t-39 57t-14.5 69zM-674 1537q0 -19 7.5 -35.5t20.5 -28t29.5 -18.5t35.5 -7t35.5 7t29.5 18.5t20.5 28 t7.5 35.5t-7.5 37t-20.5 30.5t-29.5 19t-35.5 6.5t-35.5 -6.5t-29.5 -19t-20.5 -30.5t-7.5 -37zM11 993q44 71 124.5 111.5t193.5 40.5q85 0 149.5 -24.5t106.5 -71t64 -113.5t22 -152v-784h-118v778q0 60 -12 108t-38 82.5t-69 53.5q-42 19 -105 19q-78 0 -137.5 -28.5 t-87.5 -80.5z" />
<glyph horiz-adv-x="838" d="M-763 1537q0 39 14.5 71.5t39 57.5t57.5 40t71 15q37 0 69 -15t57 -40t39.5 -57.5t14.5 -71.5q0 -37 -14.5 -69t-39.5 -57t-57 -39t-69 -14q-38 0 -71 14t-57.5 39t-39 57t-14.5 69zM-674 1537q0 -19 7.5 -35.5t20.5 -28t29.5 -18.5t35.5 -7t35.5 7t29.5 18.5t20.5 28 t7.5 35.5t-7.5 37t-20.5 30.5t-29.5 19t-35.5 6.5t-35.5 -6.5t-29.5 -19t-20.5 -30.5t-7.5 -37zM11 993q44 71 124.5 111.5t193.5 40.5q85 0 149.5 -24.5t106.5 -71t64 -113.5t22 -152v-784h-118v778q0 60 -12 108t-38 82.5t-69 53.5q-42 19 -105 19q-78 0 -137.5 -28.5 t-87.5 -80.5z" />
<glyph d="M-926 1386v96h757v-96h-757z" />
<glyph d="M-926 1386v96h637v195h120v-291h-757z" />
<glyph d="M-926 1386v96h452q-8 11 -15 31.5t-7 40.5q0 35 13 66.5t35.5 55t53.5 36.5q30 14 65.5 14t67 -13.5t54.5 -37t37 -55t14 -67t-14 -65.5t-37 -53t-54.5 -36t-67.5 -13h-597zM-410 1554q0 -17 7 -32t18.5 -26t26.5 -17q13 -6 29 -6q18 0 34 6t28 17t19 26t7 32t-7 33 t-19 27t-27.5 18t-34.5 7q-16 0 -30 -7t-25.5 -18t-18.5 -27t-7 -33z" />
<glyph d="M-926 1386v96h430v195h107v-195h115v195h105v-291h-757z" />
<glyph d="M-1370 1386v96h1047v-96h-1047z" />
<glyph d="M-1370 1386v96h926v195h121v-291h-1047z" />
<glyph d="M-1370 1386v96h738q-2 4 -6.5 12t-7.5 18.5t-5 21.5t-2 20q0 35 13 66.5t36 55t53 37t66 13.5t67.5 -13.5t54 -37t35.5 -55t13 -67t-13 -65.5t-35.5 -53t-54 -36t-67.5 -13h-885zM-567 1554q0 -17 7 -32t18.5 -26t26 -17t30.5 -6q18 0 33.5 6t27.5 17t18.5 26t6.5 32 t-6.5 33t-18.5 27t-28.5 18t-32.5 7t-30.5 -7t-26 -18t-18.5 -27t-7 -33z" />
<glyph d="M-1370 1386v96h719v195h106v-195h115v195h107v-291h-1047z" />
<glyph d="M-438 1823v236h115v-236h-115z" />
<glyph d="M-651 1823v90q14 0 28 2q11 2 25 4t25 6q11 3 25 8.5t24 16t17.5 28t7.5 41.5q0 39 -27 60t-80 17v101q50 0 89.5 -9.5t68.5 -28.5t44 -50.5t15 -74.5q0 -30 -13.5 -60.5t-35.5 -51.5h350v-99h-563z" />
<glyph d="M-918 2000q0 41 11.5 73.5t29.5 56.5t40 40q20 17 42 30q10 4 21.5 7.5t23.5 4.5t25 -4t26 -17l99 -87l82 87q11 11 23.5 15.5t25.5 4.5t24.5 -4t18.5 -7q23 -13 45.5 -31t40.5 -42t29 -55t11 -72v-85h121v-92h-227v177q0 30 -8 50t-19 33t-22 20t-19 10l-85 -94 q-8 -11 -19 -15t-22 -4q-8 0 -17.5 5.5t-18.5 13.5l-101 94q-10 -3 -23 -8.5t-24 -18t-19 -31.5t-8 -49q0 -18 7.5 -35t22 -29.5t34.5 -20.5q18 -8 46 -8v-99h-17q-42 0 -78.5 15t-63 41t-42.5 59.5t-16 70.5z" />
<glyph d="M-600 1970v99h164v150h110v-150h167v-99h-167v-147h-110v147h-164z" />
<glyph d="M-1352 1386v96h1183v-96h-1183z" />
<glyph d="M-1352 1386v96h1063v195h120v-291h-1183z" />
<glyph d="M-1352 1386v96h878q-8 11 -15 31.5t-7 40.5q0 35 13 66.5t35.5 55t53.5 36.5q30 14 65.5 14t67 -13.5t54.5 -37t37 -55t14 -67t-14 -65.5t-37 -53t-54.5 -36t-67.5 -13h-1023zM-410 1554q0 -17 7 -32t18.5 -26t26.5 -17q13 -6 29 -6q18 0 34 6t28 17t19 26t7 32t-7 33 t-19 27t-27.5 18t-34.5 7q-16 0 -30 -7t-25.5 -18t-18.5 -27t-7 -33z" />
<glyph d="M-1352 1386v96h856v195h107v-195h115v195h105v-291h-1183z" />
<glyph d="M-284 1755v304h115v-304h-115z" />
<glyph d="M-496 1755v89q14 0 27 3q11 1 25 3t26 6q11 3 24 8.5t24 16.5t18 28t7 42q0 38 -27 59q-28 22 -80 18v101q49 0 89 -9.5t68.5 -29t43.5 -51t15 -73.5q0 -30 -13.5 -61t-34.5 -51h351v-99h-563z" />
<glyph d="M-760 1932q0 41 11.5 73t29.5 56t39.5 40.5t42.5 30.5q10 4 20.5 7.5t23 4t25 -4.5t25.5 -15l99 -88l82 88q11 10 23.5 14.5t26 4.5t24.5 -4.5t19 -6.5q24 -14 46.5 -32t40.5 -41t29 -54.5t11 -72.5v-84h156v-93h-263v177q0 30 -8.5 50.5t-19.5 33t-22 19t-19 9.5 l-83 -93q-9 -11 -20.5 -15t-22.5 -4q-8 0 -17.5 5.5t-18.5 13.5l-101 93q-9 -3 -21.5 -8.5t-24 -17.5t-19 -31.5t-7.5 -49.5q0 -18 7.5 -34.5t21 -29.5t34 -21t45.5 -8v-97h-17q-42 0 -78.5 15t-62.5 40.5t-41.5 59t-15.5 70.5z" />
<glyph d="M-444 1902v98h166v151h109v-151h166v-98h-166v-147h-109v147h-166z" />
<glyph d="M-1071 1386v96h868v-96h-868z" />
<glyph d="M-1071 1386v96h748v195h120v-291h-868z" />
<glyph d="M-474 1330q0 62 15.5 100.5t40.5 59t55.5 27t59.5 6.5h207v-95h-193q-23 0 -37 -5.5t-20.5 -18t-8 -30.5t-1.5 -44h-118z" />
<glyph horiz-adv-x="1017" d="M148 351v433q0 79 26 146t74 115t113.5 75.5t145.5 27.5q79 0 146.5 -27.5t114.5 -75.5t73 -115t26 -146v-433q0 -80 -26 -147t-73 -115t-114 -75q-68 -28 -147 -28q-80 0 -145.5 27.5t-113.5 75.5t-74 115t-26 147zM260 362q0 -58 16.5 -108.5t48 -87.5t77.5 -58 q45 -20 105 -20t106.5 20.5t78 57.5t47.5 87.5t16 108.5v409q0 58 -16 108.5t-47.5 87.5t-77.5 58q-47 22 -107 22t-105.5 -21.5t-77 -58.5t-48 -87t-16.5 -109v-409z" />
<glyph horiz-adv-x="878" d="M195 792v134l249 214h107v-1140h-113v1004z" />
<glyph horiz-adv-x="1017" d="M134 0v96l488 460q58 58 92.5 123.5t34.5 139.5q0 50 -19.5 93.5t-53 76.5t-79.5 52t-101 19q-51 0 -95.5 -19t-78 -52t-53.5 -79.5t-20 -101.5h-112q0 73 26.5 136.5t74 111.5t113.5 76q65 27 145 27q82 0 150 -26.5t115 -72.5t72 -108t25 -133q0 -50 -11 -94.5 t-31 -84.5t-48 -77t-64 -73l-418 -389h610v-101h-762z" />
<glyph horiz-adv-x="1017" d="M123 121h113q5 -69 29.5 -117t63 -78t86.5 -44t99 -14q57 0 107 18.5t87 55t59 87.5q22 50 22 116t-16.5 116.5t-50.5 86.5t-88 54q-56 19 -130 19h-30v104h30q130 0 194.5 66.5t64.5 192.5q0 64 -20 112.5t-54 82t-80 51.5q-47 17 -99 17q-58 0 -102 -17.5t-76.5 -49.5 t-52.5 -77q-21 -45 -27 -100h-112q8 82 39.5 145.5t81 108t112.5 68.5q63 23 137 23q80 0 148 -26t116 -74t74.5 -115t26.5 -149q0 -102 -41.5 -180t-132.5 -124q102 -43 151 -127t49 -208q0 -93 -30 -163t-82 -118t-122.5 -72.5t-152.5 -24.5t-151.5 21.5t-121.5 65 t-83 110t-35 157.5z" />
<glyph horiz-adv-x="1017" d="M85 0v96l515 1041h118l-510 -1036h445v426h113v-426h179v-101h-179v-286h-113v286h-568z" />
<glyph horiz-adv-x="1017" d="M148 90h112q15 -106 74 -165q58 -59 170 -59q54 0 101 17.5t80 49.5q29 27 44.5 63t22.5 74t9 78t2 77q0 41 -3.5 82.5t-13 80.5t-26 72t-42.5 58.5t-64.5 40t-91.5 14.5q-45 0 -84 -10t-70 -27.5t-53 -43.5t-31 -59h-99v701h659v-101h-558v-444q44 47 106.5 67.5 t140.5 20.5q74 0 131 -23.5t99 -61.5q36 -37 58 -81t34 -91t16 -97t4 -98q0 -50 -2.5 -98.5t-13.5 -94.5t-32 -89q-21 -42 -58 -80q-50 -49 -113.5 -74t-151.5 -25q-85 0 -150.5 23.5t-112.5 70.5q-38 41 -62 97q-26 56 -31 135z" />
<glyph horiz-adv-x="1017" d="M90 407q0 37 4.5 72.5t14 73t26 78t42.5 87.5l371 699h118l-326 -606q35 11 82.5 19t93.5 8q99 0 175 -31.5t129.5 -89t81 -134t27.5 -165.5q0 -91 -29 -169t-82.5 -136t-131.5 -92.5t-179 -34.5q-100 0 -177.5 31.5t-131 88t-81 133t-27.5 168.5zM206 412 q0 -71 20.5 -132t60 -106t95.5 -70t125 -25q70 0 126 25t96 70t61 106t21 132q0 66 -18.5 125.5t-55.5 105t-92.5 71.5t-130.5 26q-70 0 -127 -23.5t-97.5 -66t-62 -102.5t-21.5 -136z" />
<glyph horiz-adv-x="1017" d="M121 819v315h794v-90l-534 -1328h-118l532 1325h-562v-222h-112z" />
<glyph horiz-adv-x="1017" d="M77 384q0 63 17 116t48 98t74.5 79.5t95.5 59.5q-98 55 -150 133t-52 190q0 80 28.5 147.5t80.5 116.5t124.5 76.5t160.5 27.5q89 0 164 -27.5t128 -76.5t83.5 -116.5t30.5 -147.5q0 -106 -53.5 -187t-149.5 -136q53 -25 96.5 -59.5t73.5 -79.5t46.5 -98t16.5 -116 q0 -85 -33 -158t-90.5 -125t-137.5 -82q-82 -30 -175 -30q-90 0 -168 30t-136 82t-90.5 125t-32.5 158zM192 389q0 -62 24 -116.5t65.5 -96.5t99 -65t123.5 -23q69 0 127.5 23t101 65t67.5 96.5t25 116.5q0 64 -25 119.5t-67.5 97t-101 64.5t-127.5 23q-66 0 -123.5 -23 t-99 -64.5t-65.5 -96t-24 -120.5zM222 1060.5q0 -60.5 20.5 -111t57.5 -87t89 -56.5t115 -20q66 0 119.5 20t92 56.5t59 87t20.5 111t-20.5 111t-59 87.5t-92 58t-119.5 21q-63 0 -115 -21t-89 -58t-57.5 -87.5t-20.5 -111z" />
<glyph horiz-adv-x="1017" d="M90 715q0 91 27.5 170t81 137t131.5 92t177 34q101 0 180 -31.5t133 -87.5t81.5 -133t27.5 -167q0 -37 -4 -73.5t-15 -74t-27.5 -78t-41.5 -85.5l-372 -699h-116l327 607q-36 -11 -84 -20t-95 -9q-98 0 -174 32.5t-129 88.5t-80.5 132.5t-27.5 164.5zM206 723 q0 -65 18 -125t56 -104.5t94 -71t130 -26.5q70 0 127 23.5t96.5 66.5t61.5 103t22 134q0 72 -20.5 133.5t-60.5 106t-96 70t-127 25.5q-69 0 -124.5 -25.5t-95 -70t-60.5 -106t-21 -133.5z" />
<glyph d="M-870 1606q0 41 16 80t46 69.5t72.5 51.5t95.5 23h492v-90h-474q-33 0 -59 -14.5t-44 -35.5t-26.5 -44.5t-8.5 -39.5q0 -20 4.5 -40.5t15.5 -38t26 -32.5t34 -25l116 92q13 11 32.5 11t35.5 -11l121 -95q19 8 34 21.5t23 30.5t9 40q-1 25 -6 55h107q11 -49 1.5 -91.5 t-34.5 -75.5t-62 -55t-83 -30l-144 113l-139 -113q-43 12 -79.5 32t-63 50t-42.5 70t-16 92z" />
<glyph d="M-284 1712v347h115v-347h-115z" />
<glyph d="M-496 1684v89q14 0 27 3q11 1 25 3t26 5q11 2 24 7.5t24 16.5t18 29t7 43q0 38 -27 59q-28 20 -80 17v100q49 0 89 -8.5t68.5 -28.5t43.5 -51t15 -75q0 -30 -13.5 -60t-34.5 -52h351v-97h-563z" />
<glyph d="M-760 1860q0 42 11.5 74t29.5 56t39.5 40.5t42.5 29.5q10 5 20.5 8t23 4t25 -4t25.5 -16l99 -87l82 87q11 11 23.5 15t26 4t24.5 -4t19 -7q24 -13 46.5 -31t40.5 -41t29 -54.5t11 -73.5v-83h156v-93h-263v176q0 31 -8.5 51.5t-19.5 32.5t-22 19t-19 10l-83 -93 q-9 -11 -20.5 -15.5t-22.5 -4.5q-8 0 -17.5 5.5t-18.5 14.5l-101 93q-9 -3 -21.5 -8.5t-24 -18t-19 -31.5t-7.5 -49q0 -18 7.5 -34.5t21 -29.5t34 -21t45.5 -8v-97h-17q-42 0 -78.5 15t-62.5 40t-41.5 58.5t-15.5 70.5z" />
<glyph d="M-444 1830v98h166v152h109v-152h166v-98h-166v-146h-109v146h-166z" />
<glyph d="M-792 1580h126q0 -25 3 -43.5t9.5 -31t20.5 -18t36 -5.5h723v-96h-745q-30 0 -60.5 8.5t-55 29.5t-41 59t-16.5 97z" />
<glyph d="M-538 1686v348h120v-348h-120z" />
<glyph d="M-999 1715v89q14 -1 28 2q11 1 25 3t25 6q11 3 25 8.5t25 16.5t17.5 28t6.5 42q0 38 -27 59.5t-80 16.5v102q50 0 89.5 -9.5t68.5 -29t44 -51t15 -73.5q0 -30 -13.5 -61t-35.5 -51h368v-98h-581z" />
<glyph d="M-1137 1863q0 41 11.5 73.5t29.5 56.5t40 40q20 17 42 30q10 4 21.5 7.5t23 4.5t24.5 -4t27 -17l99 -87l82 87q11 11 23.5 15.5t25.5 4.5t24.5 -4t18.5 -7q23 -13 45.5 -31t40.5 -42t29 -55t11 -72v-85h120v-92h-226v177q0 30 -8 50t-19 33t-22 20t-19 10l-85 -94 q-8 -11 -19 -15t-22 -4q-8 0 -18 5.5t-18 13.5l-101 94q-10 -3 -23 -8.5t-24 -18t-19 -31.5t-8 -49q0 -18 7.5 -35t22 -29.5t33.5 -20.5t46 -8v-99h-16q-43 0 -79 15t-63 41t-42.5 59.5t-15.5 70.5z" />
<glyph d="M-707 1830v98h164v152h110v-152h167v-98h-167v-146h-110v146h-164z" />
<glyph d="M-630 1823v236h115v-236h-115z" />
<glyph d="M-789 1970v99h166v150h109v-150h166v-99h-166v-147h-109v147h-166z" />
</font>
</defs>
</svg>
