<?phpxml version="1.0" standalone="no"?>
<!DOCTYPE svg PUBLIC "-//W3C//DTD SVG 1.1//EN" "http://www.w3.org/Graphics/SVG/1.1/DTD/svg11.dtd" >
<svg xmlns="http://www.w3.org/2000/svg" xmlns:xlink="http://www.w3.org/1999/xlink" version="1.1">
<metadata></metadata>
<defs>
<font id="db_ozone_xultrali" horiz-adv-x="0" >
<font-face units-per-em="2048" ascent="1638" descent="-410" />
<missing-glyph horiz-adv-x="586" />
<glyph unicode="&#x2b;&#x2d;" horiz-adv-x="1159" d="M142 14v74h877v-74h-877zM142 608v77h403v400h77v-400h397v-77h-397v-400h-77v400h-403z" />
<glyph unicode="&#x2e;&#x2e;&#x2e;" horiz-adv-x="1571" d="M195 70q0 18 6 33t17.5 26.5t26.5 17.5t33 6t33 -6t26 -17.5t18 -26.5t7 -33t-7 -33t-18 -26t-26 -18t-33 -7t-33 7t-26.5 18t-17.5 26t-6 33zM701 70q0 18 7 33t18 26.5t26 17.5t34 6q18 0 33 -6t27 -17.5t18 -26.5t6 -33t-6 -33t-18 -26t-27.5 -18t-32.5 -7t-33 7 t-27 18t-18 26t-7 33zM1208 70q0 18 7 33t18 26.5t26.5 17.5t33.5 6t34 -6t27 -17.5t17.5 -26.5t6.5 -33t-6.5 -33t-17.5 -26t-27 -18t-34 -7t-33.5 7t-26.5 18t-18 26t-7 33z" />
<glyph unicode="&#x3c;&#x3d;" horiz-adv-x="1161" d="M142 64v78h877v-78h-877zM142 606v82l877 345v-88l-794 -297l794 -297v-85z" />
<glyph unicode="&#x3e;&#x3d;" horiz-adv-x="1159" d="M142 64v78h877v-78h-877zM142 266v85l795 297l-795 297v88l877 -345v-82z" />
<glyph unicode="&#xe4f;&#x22;" horiz-adv-x="1433" d="M145 562q0 79 20.5 151.5t57.5 136.5t89 116.5t115 89.5t135 57.5t150 20.5q80 0 153 -20.5t137 -57.5t116 -89.5t89 -116.5t57.5 -136.5t20.5 -151.5q0 -77 -20.5 -149.5t-57.5 -135.5t-89 -115t-116 -89t-137 -57.5t-153 -20.5q-76 0 -149 20.5t-136 57.5t-115 89 t-89 115t-57.5 135t-20.5 150zM241 562q0 -66 16.5 -126.5t47.5 -112.5t74 -95.5t95 -74t112.5 -47t125.5 -16.5q68 0 128.5 16.5t114 47t97 74t74 95.5t47 112.5t16.5 126.5q0 100 -37 187t-101.5 151t-151.5 101t-187 37q-98 0 -183.5 -37t-149.5 -101t-101 -151t-37 -187 zM410 562q0 63 24 118.5t65 97t96.5 65.5t116.5 24q63 0 119.5 -24t97.5 -65.5t65.5 -97t24.5 -118.5q0 -62 -24.5 -117.5t-65.5 -96.5t-97.5 -65.5t-119.5 -24.5q-61 0 -116.5 24.5t-96.5 65.5t-65 96.5t-24 117.5zM501 562q0 -44 17.5 -82.5t45.5 -67t66.5 -45t82 -16.5 t82.5 16.5t68.5 45t46 67t16.5 82.5t-16.5 82t-46 67t-68.5 46t-82.5 17t-82 -17t-66.5 -46t-45.5 -67t-17.5 -82zM504 1644h118l-16 -364h-84zM800 1644h118l-17 -364h-84z" />
<glyph unicode="&#xe0e;&#xe3a;" horiz-adv-x="1239" d="M99 79q46 3 73.5 21t41 44t18 56t4.5 55v452l-102 148q82 145 201 216q117 72 281 72q116 0 200.5 -30.5t141 -86t85 -137t28.5 -185.5v-901q0 -41 -14 -75.5t-41 -55t-65.5 -23t-83.5 18.5l-259 129q-16 8 -28.5 8t-31.5 -11l-259 -136l-42 68l289 153q22 11 41.5 10 t41.5 -12l280 -129q38 -17 60.5 -3t22.5 58v901q0 95 -26.5 162.5t-74.5 111.5t-116 65q-69 20 -151 20q-50 0 -99 -9.5t-98.5 -33.5t-96 -63t-87.5 -99l90 -143v-460q0 -80 -21 -128.5t-52.5 -76.5t-68 -39t-66.5 -14zM943 -556q0 16 6.5 30.5t17 25t25 17t30.5 6.5 t30 -6.5t25 -17t17 -25t6 -30.5q0 -17 -6 -30.5t-17 -24.5t-26 -17q-13 -6 -29 -6t-30.5 6t-25 17t-17 24.5t-6.5 30.5z" />
<glyph unicode="&#xe0f;&#xe3a;" horiz-adv-x="1239" d="M99 79q46 3 73.5 21t41 44t18 56t4.5 55v452l-102 148q82 145 201 216q117 72 281 72q116 0 200.5 -30.5t141 -86t85 -137t28.5 -185.5v-892q0 -44 -16.5 -78.5t-43.5 -56t-64 -23.5t-77 20l-199 120q-16 14 -28 13q-13 -2 -29 -13l-187 -123q-21 -15 -38 -13 q-16 0 -33 13l-216 170l66 47l167 -126q12 -11 22.5 -11t25.5 11l185 120q21 14 36.5 14t39.5 -14l207 -123q17 -10 34 -12.5t30 3.5t21 21t8 41v892q0 95 -26.5 162.5t-74.5 111.5t-116 65q-69 20 -151 20q-50 0 -100 -9.5t-98.5 -33.5t-95 -63t-87.5 -99l90 -143v-460 q0 -80 -21 -128.5t-52.5 -76.5t-68 -39t-66.5 -14zM943 -556q0 16 6.5 30.5t17 25t25 17t30.5 6.5t30 -6.5t25 -17t17 -25t6 -30.5q0 -17 -6 -30.5t-17 -24.5t-26 -17q-13 -6 -29 -6t-30.5 6t-25 17t-17 24.5t-6.5 30.5z" />
<glyph unicode="&#xe0e;&#xe38;" horiz-adv-x="1239" d="M99 79q46 3 73.5 21t41 44t18 56t4.5 55v452l-102 148q82 145 201 216q117 72 281 72q116 0 200.5 -30.5t141 -86t85 -137t28.5 -185.5v-901q0 -41 -14 -75.5t-41 -55t-65.5 -23t-83.5 18.5l-259 129q-16 8 -28.5 8t-31.5 -11l-259 -136l-42 68l289 153q22 11 41.5 10 t41.5 -12l280 -129q38 -17 60.5 -3t22.5 58v901q0 95 -26.5 162.5t-74.5 111.5t-116 65q-69 20 -151 20q-50 0 -99 -9.5t-98.5 -33.5t-96 -63t-87.5 -99l90 -143v-460q0 -80 -21 -128.5t-52.5 -76.5t-68 -39t-66.5 -14zM864 -510h35q48 0 80.5 -6.5t53.5 -26t29.5 -55.5 t8.5 -95v-156h-86v156q0 37 -3.5 58t-13 32t-27.5 14t-48 3h-29v76z" />
<glyph unicode="&#xe0f;&#xe38;" horiz-adv-x="1239" d="M99 79q46 3 73.5 21t41 44t18 56t4.5 55v452l-102 148q82 145 201 216q117 72 281 72q116 0 200.5 -30.5t141 -86t85 -137t28.5 -185.5v-892q0 -44 -16.5 -78.5t-43.5 -56t-64 -23.5t-77 20l-199 120q-16 14 -28 13q-13 -2 -29 -13l-187 -123q-21 -15 -38 -13 q-16 0 -33 13l-216 170l66 47l167 -126q12 -11 22.5 -11t25.5 11l185 120q21 14 36.5 14t39.5 -14l207 -123q17 -10 34 -12.5t30 3.5t21 21t8 41v892q0 95 -26.5 162.5t-74.5 111.5t-116 65q-69 20 -151 20q-50 0 -100 -9.5t-98.5 -33.5t-95 -63t-87.5 -99l90 -143v-460 q0 -80 -21 -128.5t-52.5 -76.5t-68 -39t-66.5 -14zM864 -510h35q48 0 80.5 -6.5t53.5 -26t29.5 -55.5t8.5 -95v-156h-86v156q0 37 -3.5 58t-13 32t-27.5 14t-48 3h-29v76z" />
<glyph unicode="&#xe0e;&#xe39;" horiz-adv-x="1237" d="M99 79q46 3 73.5 21t41 44t18 56t4.5 55v452l-102 148q82 145 201 216q117 72 281 72q116 0 200.5 -30.5t141 -86t85 -137t28.5 -185.5v-901q0 -41 -14 -75.5t-41 -55t-65.5 -23t-83.5 18.5l-259 129q-16 8 -28.5 8t-31.5 -11l-259 -136l-42 68l289 153q22 11 41.5 10 t41.5 -12l280 -129q38 -17 60.5 -3t22.5 58v901q0 95 -26.5 162.5t-74.5 111.5t-116 65q-69 20 -151 20q-50 0 -99 -9.5t-98.5 -33.5t-96 -63t-87.5 -99l90 -143v-460q0 -80 -21 -128.5t-52.5 -76.5t-68 -39t-66.5 -14zM584 -514h53q36 0 60 -7.5t37.5 -22.5t19.5 -39.5 t6 -59.5v-28q0 -18 5.5 -38t18.5 -36.5t34.5 -27.5t54.5 -11t55.5 11t34.5 27.5t17 37t5 37.5v157h86v-157q0 -41 -15 -74t-41 -57.5t-63 -37t-79 -12.5q-47 0 -83 12.5t-61.5 37t-38.5 57.5t-13 74q0 24 -1.5 40.5t-7 26t-15 14t-24.5 4.5h-45v72z" />
<glyph unicode="&#xe0f;&#xe39;" horiz-adv-x="1239" d="M99 79q46 3 73.5 21t41 44t18 56t4.5 55v452l-102 148q82 145 201 216q117 72 281 72q116 0 200.5 -30.5t141 -86t85 -137t28.5 -185.5v-892q0 -44 -16.5 -78.5t-43.5 -56t-64 -23.5t-77 20l-199 120q-16 14 -28 13q-13 -2 -29 -13l-187 -123q-21 -15 -38 -13 q-16 0 -33 13l-216 170l66 47l167 -126q12 -11 22.5 -11t25.5 11l185 120q21 14 36.5 14t39.5 -14l207 -123q17 -10 34 -12.5t30 3.5t21 21t8 41v892q0 95 -26.5 162.5t-74.5 111.5t-116 65q-69 20 -151 20q-50 0 -100 -9.5t-98.5 -33.5t-95 -63t-87.5 -99l90 -143v-460 q0 -80 -21 -128.5t-52.5 -76.5t-68 -39t-66.5 -14zM584 -514h53q36 0 60 -7.5t37.5 -22.5t19.5 -39.5t6 -59.5v-28q0 -18 5.5 -38t18.5 -36.5t34.5 -27.5t54.5 -11t55.5 11t34.5 27.5t17 37t5 37.5v157h86v-157q0 -41 -15 -74t-41 -57.5t-63 -37t-79 -12.5q-47 0 -83 12.5 t-61.5 37t-38.5 57.5t-13 74q0 24 -1.5 40.5t-7 26t-15 14t-24.5 4.5h-45v72z" />
<glyph unicode="&#xd;" horiz-adv-x="664" />
<glyph unicode=" "  horiz-adv-x="586" />
<glyph unicode="&#x09;" horiz-adv-x="586" />
<glyph unicode="&#xa0;" horiz-adv-x="586" />
<glyph unicode="!" horiz-adv-x="645" d="M281 64q0 15 6 29t15.5 23.5t23.5 15t27 5.5q14 0 28 -5.5t24 -15t16 -23.5t6 -29q0 -16 -6 -29t-16 -24t-24 -16.5t-28 -5.5q-13 0 -27 5.5t-23.5 16.5t-15.5 24t-6 29zM306 1417h98l-8 -994h-81z" />
<glyph unicode="&#x22;" horiz-adv-x="872" d="M208 1111v317h115v-317h-115zM551 1111v317h115v-317h-115z" />
<glyph unicode="#" horiz-adv-x="1382" d="M171 482v69h213q13 79 27 161.5t27 162.5h-202v73h213l78 460h87l-78 -460h387l73 460h84l-73 -460h199v-73h-210l-53 -324h202v-69h-211l-79 -482h-89l81 482h-387l-76 -482h-87l78 482h-204zM471 551h384l55 324h-383z" />
<glyph unicode="$" horiz-adv-x="1130" d="M101 166l68 72q43 -43 85 -73.5t84.5 -50t89 -30t99.5 -14.5v607q-90 16 -163.5 47t-125.5 77t-80.5 106t-28.5 137q0 86 28 155.5t79.5 118.5t125.5 78t165 32v191h76v-191q53 -3 100.5 -12t91 -27t83.5 -43t78 -61l-57 -64q-32 26 -64 48t-66.5 39t-75.5 27t-90 14 v-594q108 -18 189 -47.5t134.5 -74.5t80 -109t26.5 -149t-30 -153.5t-86.5 -119t-136 -80.5t-177.5 -36v-216h-76v214q-67 2 -126 15t-111 36t-98.5 55.5t-90.5 75.5zM222 1049q0 -41 13.5 -77t36.5 -65.5t53.5 -53.5t64 -41t69.5 -29.5t68 -16.5v586q-71 -4 -127 -27 t-96 -63t-61 -93.5t-21 -119.5zM597 64q80 3 144.5 25t109 61t68.5 95t24 128q0 74 -24 124.5t-68.5 85.5t-109 56t-144.5 35v-610z" />
<glyph unicode="%" horiz-adv-x="1638" d="M110 948v214q0 59 19 107t53 82t83.5 52.5t107.5 18.5q59 0 107.5 -18.5t83.5 -52.5t54 -82t19 -107v-214q0 -55 -19 -103t-54 -82t-83 -53.5t-108 -19.5q-59 0 -108 19.5t-83 53.5t-53 82t-19 103zM188 951q0 -85 47 -133.5t137.5 -48.5t137.5 48q46 46 46 134v211 q0 41 -12 75t-34 59t-56.5 38t-80.5 13t-80 -13t-58 -38t-35.5 -59t-11.5 -75v-211zM436 0l683 1417h87l-684 -1417h-86zM1001 249v211q0 61 19.5 109.5t54.5 82.5t83 52.5t108 18.5t108 -18.5t82.5 -52.5t53.5 -82.5t19 -109.5v-211q0 -56 -19 -103t-53.5 -81.5 t-82.5 -53.5t-108 -19q-59 0 -107.5 19t-83.5 53.5t-54.5 82.5t-19.5 102zM1074 255q0 -91 49.5 -141t142.5 -50t141.5 49t48.5 142v205q0 93 -48.5 143t-141.5 50t-142.5 -50t-49.5 -143v-205z" />
<glyph unicode="&#x26;" horiz-adv-x="1472" d="M137 384q0 80 30 144t78 116t111 96t129 85q-32 35 -62.5 73.5t-54 79t-38.5 82t-15 85.5q0 58 22 108t61.5 87.5t93 58t114.5 20.5t115 -22t94 -58.5t63 -87.5t23 -108q0 -42 -14 -78.5t-38 -67t-54.5 -56.5t-62.5 -45q-25 -16 -47 -33q-19 -14 -39.5 -27t-34.5 -22 q112 -126 223 -255t224 -253q23 35 41 71.5t29.5 79t18.5 93t7 116.5h90q-1 -63 -9.5 -122.5t-24 -114t-40.5 -101.5t-59 -87q49 -59 103 -121q52 -62 101 -120h-120l-143 169q-16 -14 -39.5 -33.5t-55 -39t-70 -40t-85 -36t-98.5 -25t-112 -9.5q-102 0 -185.5 29t-143.5 81 t-93 125q-33 72 -33 163zM227 389q0 -73 27 -132.5t74 -102t114.5 -66.5t146.5 -24q44 0 91 7.5t98 27t106.5 51t114.5 80.5l-461 539q-54 -36 -109.5 -72.5t-100 -81.5t-73 -100t-28.5 -126zM407 1151q0 -28 8 -55t26.5 -60t47.5 -73t73 -90q15 11 30.5 21t29.5 20 q16 11 31 20q29 20 57 41.5t51 46.5t36.5 55t13.5 66q0 41 -15.5 78t-44 64t-65.5 43t-80 16q-42 0 -77.5 -14.5t-63 -41t-43 -61.5t-15.5 -76z" />
<glyph unicode="'" horiz-adv-x="532" d="M208 1111v317h115v-317h-115z" />
<glyph unicode="(" horiz-adv-x="597" d="M214 159v1252q-2 55 8 104.5t31 94.5t54 84.5t79 78.5l58 -55q-28 -27 -49.5 -52t-37.5 -46t-26 -43t-17 -46.5t-10 -54t-4 -65.5v-1252q0 -47 7.5 -85t24 -75t43.5 -72q28 -34 69 -72l-55 -58q-49 40 -82 83t-53.5 88.5t-30 93.5t-9.5 97z" />
<glyph unicode=")" horiz-adv-x="597" d="M153 -145q39 38 66.5 72.5t43.5 71.5t24 75t8 85v1252q0 36 -3.5 65.5t-10.5 54t-16.5 46.5t-25.5 43t-37 45q-21 26 -49 53l55 55q47 -39 80 -78.5t54 -84.5t31 -95q8 -49 8 -104v-1252q0 -51 -9.5 -98t-30 -92.5t-55 -88t-80.5 -83.5z" />
<glyph unicode="*" horiz-adv-x="1004" d="M159 912l277 157q-32 17 -67 37t-70.5 40l-71 40t-68.5 37q14 20 21 34q9 14 17 34l272 -169q0 77 -3 160t-3 159h80l-7 -319l272 169l36 -68l-274 -154q31 -18 66 -38t70 -40.5l70 -41t68 -37.5l-36 -63l-272 168q0 -77 3.5 -160t3.5 -161h-80l6 321l-272 -168z" />
<glyph unicode="+" horiz-adv-x="1132" d="M129 545v74h401v400h78v-400h396v-74h-396v-400h-78v400h-401z" />
<glyph unicode="," horiz-adv-x="543" d="M208 137h124v-279l-124 -124v403z" />
<glyph unicode="-" horiz-adv-x="913" d="M182 545v77h550v-77h-550z" />
<glyph unicode="." horiz-adv-x="554" d="M195 67q0 18 6 33.5t17.5 27.5t26.5 18.5t33 6.5t33 -6.5t26 -18.5t18 -27.5t7 -33.5q0 -16 -7 -32t-18 -27t-26 -17.5t-33 -6.5t-33 6.5t-26.5 17.5t-17.5 27t-6 32z" />
<glyph unicode="/" horiz-adv-x="720" d="M0 -163l629 1900h92l-631 -1900h-90z" />
<glyph unicode="0" horiz-adv-x="995" d="M112 367v688q0 85 28.5 153.5t79.5 117.5t122.5 75.5t156.5 26.5t156 -26.5t121.5 -75.5t79 -117.5t28.5 -153.5v-688q0 -83 -28.5 -152.5t-79 -119.5t-121.5 -78t-156 -28q-87 0 -157.5 28t-121.5 78t-79.5 120t-28.5 152zM203 373q0 -63 19 -118t56 -96t93 -65 t127.5 -24t126.5 24t92 65t56 96t19 118v674q0 65 -19 120t-56 96t-92 64q-55 22 -126 22q-73 0 -128.5 -22.5t-92.5 -63.5t-56 -96t-19 -120v-674z" />
<glyph unicode="1" horiz-adv-x="995" d="M241 1091v106l281 231h97v-1428h-92v1333z" />
<glyph unicode="2" horiz-adv-x="995" d="M115 0v79l600 751q43 58 64 114t21 116q0 66 -21 119.5t-59.5 92t-92.5 58t-123 19.5q-55 0 -107 -15.5t-94.5 -48.5t-68.5 -86q-26 -54 -28 -130h-91q3 79 30.5 145t77.5 113.5t121 74.5q70 26 160 26q88 0 160.5 -25t124 -73t79.5 -115.5t28 -154.5q0 -38 -7 -73 t-20.5 -68t-32.5 -65t-44 -65l-570 -712h674v-77h-781z" />
<glyph unicode="3" horiz-adv-x="995" d="M48 332h94q9 -74 40.5 -126.5t75 -84t98.5 -45.5t113 -14q68 0 127 21t103 61t70 97.5t26 131.5t-19.5 132.5t-60.5 99t-104 62t-151 21.5h-16v78h16q158 0 233.5 75.5t75.5 216.5q0 74 -23.5 128.5t-64 91.5t-96 55.5t-119.5 18.5q-66 0 -119.5 -17t-92 -50.5 t-61.5 -81.5q-23 -49 -30 -110h-96q11 82 46 145.5t87 105t120 63t146 21.5q87 0 160 -25t123.5 -73t78 -116.5t27.5 -155.5q0 -50 -8.5 -95.5t-30 -87.5t-59.5 -79q-36 -37 -94 -64q62 -22 104.5 -58t69 -81.5t38 -102t11.5 -117.5q0 -96 -31.5 -168.5t-87 -123.5 t-132 -75.5t-166.5 -24.5q-85 0 -159 22t-129.5 65.5t-90.5 109.5t-42 154z" />
<glyph unicode="4" horiz-adv-x="995" d="M48 236v76l549 1105h99l-554 -1102h501v454h91v-454h206v-79h-206v-236h-91v236h-595z" />
<glyph unicode="5" horiz-adv-x="995" d="M121 300h90q8 -55 30 -99.5t59 -74.5t87.5 -46t116.5 -16q86 0 144.5 32.5t94 87t50.5 126t15 150.5q0 46 -4 93t-16.5 90t-32 81.5t-50.5 66.5t-74 44.5t-101 16.5q-49 0 -96.5 -11t-87 -31.5t-69.5 -48t-47 -60.5h-71v716h705v-76h-617v-514q57 53 125.5 74.5 t157.5 21.5q71 0 126 -17.5t96 -49t69 -74t46 -94.5t26 -109.5t8 -118.5q-1 -107 -23.5 -194.5t-69 -150.5t-122 -97t-182.5 -34q-78 0 -144.5 20.5t-116.5 60t-82 99t-40 136.5z" />
<glyph unicode="6" horiz-adv-x="995" d="M93 401q0 137 84 314l371 702h92l-337 -639q27 14 51.5 23.5t49.5 15t50.5 8t49.5 2.5q95 0 169.5 -32t124.5 -87.5t76.5 -131t26.5 -161.5q0 -88 -27 -166t-78.5 -135.5t-126.5 -90.5q-77 -34 -173 -34t-170.5 31t-126.5 86.5t-79 130.5t-27 164zM182 407 q0 -77 22.5 -139t64 -107.5t99 -71t128.5 -25.5q68 0 127 25.5t100 71t64.5 109t23.5 137.5q-1 71 -21 133.5t-57.5 110.5t-94.5 76t-134 28q-68 0 -127 -24.5t-103 -70.5t-68 -110.5t-24 -142.5z" />
<glyph unicode="7" horiz-adv-x="995" d="M145 1119v298h776v-79l-535 -1338h-91l530 1341h-587v-222h-93z" />
<glyph unicode="8" horiz-adv-x="995" d="M77 378q0 60 16.5 114.5t46.5 99.5t74 81q46 37 101 64q-105 58 -155 140t-50 189q0 79 28 146.5t79.5 115t122.5 74t159 26.5q86 0 158 -26.5t122.5 -74t78.5 -115t28 -146.5q0 -106 -51 -188.5t-150 -140.5q55 -25 98 -60.5t74 -81.5t47.5 -101.5t16.5 -115.5 q0 -85 -32.5 -156t-88.5 -122.5t-133.5 -81t-167.5 -29.5q-91 0 -167.5 29.5t-134 81t-89.5 123.5q-31 70 -31 155zM171 378q0 -66 25.5 -122.5t70.5 -99t104 -67.5t128 -25q68 0 127.5 25t103.5 67.5t69.5 99t25.5 122.5q0 67 -25.5 126t-69.5 102t-103.5 68t-127.5 25 q-69 0 -128 -25t-104 -68t-70.5 -101t-25.5 -127zM200 1066q0 -63 22 -116.5t61.5 -92t94.5 -59t120.5 -20.5t120 20.5t93.5 59t61 92t22 116.5t-22 116.5t-61 91.5t-93.5 59.5t-120 21.5t-120.5 -21.5t-94.5 -59.5t-61.5 -91.5t-22 -116.5z" />
<glyph unicode="9" horiz-adv-x="995" d="M93 1001.5q0 87.5 27.5 165.5t79.5 136.5t127.5 91.5t171.5 33t171 -31t126 -86.5t78 -131t27 -162.5q0 -70 -21 -149t-63 -167l-368 -701h-96l337 637q-27 -15 -51.5 -24.5t-49.5 -14.5t-49 -7q-25 -2 -50 -2q-94 0 -168 31.5t-125.5 87t-77.5 131t-26 163zM185 1011 q0 -71 20 -135.5t57.5 -111t94.5 -74t133 -27.5q69 0 128 24.5t102 70t67 110t24 143.5q0 74 -22 137t-63 108.5t-98.5 70.5t-128.5 25q-72 0 -129.5 -25t-99 -70.5t-64 -108.5t-21.5 -137z" />
<glyph unicode=":" horiz-adv-x="619" d="M255 70q0 18 7 33t17.5 26.5t26.5 17.5t34 6t33 -6t26.5 -17.5t17.5 -26.5t6 -33t-6 -33t-17.5 -26t-26.5 -18t-33 -7t-34 7t-26.5 18t-17.5 26t-7 33zM255 822q0 18 7 33.5t17.5 26.5t26.5 18t34 7t33 -7t26.5 -18t17.5 -26.5t6 -33.5t-6 -33.5t-17.5 -26.5t-26.5 -18 t-33 -7t-34 7t-26.5 18t-17.5 26.5t-7 33.5z" />
<glyph unicode=";" horiz-adv-x="619" d="M258 822q0 16 6.5 31.5t17.5 26t26 17.5t31.5 7t31.5 -7t26 -17.5t17.5 -26t6.5 -31.5t-6.5 -31.5t-17.5 -26t-26 -17.5t-31.5 -7t-31.5 7t-26 17.5t-17.5 26t-6.5 31.5zM278 137h123v-279l-123 -124v403z" />
<glyph unicode="&#x3c;" horiz-adv-x="1130" d="M129 606v82l875 345v-88l-793 -297l793 -297v-85z" />
<glyph unicode="=" horiz-adv-x="1132" d="M129 373v79h875v-79h-875zM129 712v77h875v-77h-875z" />
<glyph unicode="&#x3e;" horiz-adv-x="1130" d="M129 266v85l794 297l-794 297v88l875 -345v-82z" />
<glyph unicode="?" horiz-adv-x="959" d="M118 1100q0 69 27.5 130t76 105.5t115.5 69.5q66 25 148 25q78 0 144.5 -26t116 -71t76.5 -108t27 -137q0 -36 -7.5 -65.5t-20.5 -57.5t-29.5 -55.5t-33.5 -54.5l-177 -252q-11 -14 -19.5 -30.5t-12.5 -32t-5 -30.5q-1 -17 -1 -28v-109h-88v104q0 27 4 49t11 42.5t18 41 t22 41.5l191 272q13 20 24.5 37.5t20.5 37.5t14.5 42.5t5.5 47.5q0 57 -22.5 108t-60.5 87t-89 57.5t-109 21.5q-60 0 -112 -20.5t-90.5 -56.5t-60.5 -83t-22 -102h-82zM421 62q0 13 6 27t17 24t24.5 15.5t27.5 5.5t27.5 -5.5t24 -15.5t16.5 -23t6 -28q0 -14 -6 -28.5 t-16.5 -24.5t-23.5 -17q-14 -6 -28 -6t-27.5 6.5t-24.5 16.5t-17 24.5t-6 28.5z" />
<glyph unicode="@" horiz-adv-x="1761" d="M142 718q6 101 38 197t83.5 179t120.5 150.5t152 117t176 76.5q94 27 192 27q107 0 201.5 -24t175.5 -69.5t145.5 -110t108 -144t65.5 -173t19 -197.5q-2 -94 -30.5 -175.5t-77.5 -143t-118.5 -96.5t-155.5 -35q-38 0 -67.5 12t-51.5 32.5t-36 46.5q-13 28 -19 59 q-38 -46 -76.5 -75.5t-75.5 -45.5t-74 -22.5t-74 -6.5q-60 0 -104 18.5t-75 49t-50 72t-27 88t-8 95.5t8 95q16 91 48.5 167.5t81.5 134t117 90.5t156 33q37 0 72 -8.5t65 -26t54.5 -46.5t38.5 -71q5 33 14 66.5t13 64.5h77l-101 -557q-9 -43 -9 -82q0 -25 5.5 -45.5 t18 -36.5t34.5 -25t55 -9q46 0 85 16t71.5 42.5t57 63.5t42.5 79.5t27.5 89t9.5 92.5q3 90 -16.5 173t-59 154t-97 129.5t-129 99.5t-156.5 63.5t-178 22.5q-89 0 -173 -26t-158 -71t-136 -108t-107 -137t-72.5 -157.5t-32.5 -171.5q-6 -93 14.5 -178t63 -159.5t103 -135.5 t134.5 -105t157 -68t170 -24q54 0 110.5 9.5t112 27.5t106.5 43t95 57l47 -64q-49 -37 -104.5 -64.5t-115.5 -46t-124 -27t-127 -8.5q-98 0 -192 26t-177.5 74t-151.5 116.5t-115 151t-71 177.5q-23 94 -18 198zM581 560.5q3 -39.5 14 -76t34 -63t61 -43.5q39 -16 94 -16 q71 0 124.5 30t90.5 80t60 113.5t34 129.5q6 34 8.5 74.5t-1.5 80.5t-15 77.5t-33 67t-57 45.5q-33 17 -85 17q-51 0 -92 -14.5t-73.5 -40t-57 -60.5t-43.5 -75t-31.5 -82.5t-20.5 -86.5q-6 -37 -10 -77.5t-1 -80z" />
<glyph unicode="A" horiz-adv-x="1169" d="M5 0l540 1417h84l535 -1417h-98l-129 345h-704l-129 -345h-99zM258 427h652l-324 875z" />
<glyph unicode="B" horiz-adv-x="1290" d="M197 0v1417h513q89 0 165.5 -25t132.5 -71t88.5 -113.5t32.5 -155.5q0 -51 -12.5 -99.5t-40 -91t-70 -76.5t-102.5 -59q67 -22 114.5 -55t77.5 -78t44 -98.5t14 -113.5q0 -95 -30.5 -166t-86.5 -119t-135.5 -72t-178.5 -24h-526zM289 79h423q80 0 144.5 21t111 60 t71 94.5t24.5 126.5t-24.5 126.5t-71 94.5t-111 59.5t-144.5 20.5h-423v-603zM289 769h407q68 0 131 15.5t110 50t74 87.5t27 130q0 74 -28 127.5t-74 89t-104.5 52.5t-121.5 17h-421v-569z" />
<glyph unicode="C" horiz-adv-x="1223" d="M140 707q0 99 2.5 183.5t16.5 157.5t42.5 134.5t82.5 113.5q68 66 152.5 99t177.5 33t172.5 -26.5t139.5 -77.5t100 -126t56 -168h-89q-16 73 -50.5 132.5t-83 101.5t-110 65t-135.5 23q-80 0 -148.5 -29.5t-125.5 -82.5q-26 -28 -44.5 -56t-31 -61.5t-20 -73t-11 -89.5 t-5 -112.5t-1.5 -140.5q0 -77 1.5 -140t5 -112t11 -89t20 -74t31 -62.5t44.5 -55.5q57 -51 126 -82q68 -30 148 -30q72 0 135 23t112.5 65.5t84.5 102.5q35 59 53 133h83q-16 -96 -57 -170.5t-101.5 -126t-139.5 -78.5q-80 -27 -170 -27q-91 0 -177 31.5t-153 94.5 q-55 57 -84.5 122t-43.5 140t-15 158.5t-1 176.5z" />
<glyph unicode="D" horiz-adv-x="1333" d="M197 0v1417h491q108 0 188 -26t136.5 -72t92 -110.5t56 -140.5t27.5 -163.5t7 -178.5q0 -92 -5.5 -181.5t-25 -170.5t-53.5 -149.5t-90.5 -117.5t-138 -78t-194.5 -29h-491zM289 82h399q96 0 164.5 25t114 69.5t72.5 105t40.5 132t17 151t3.5 161.5t-4.5 159t-20 145.5 t-44 124.5t-74 97t-111.5 63.5t-158 22.5h-399v-1256z" />
<glyph unicode="E" horiz-adv-x="1159" d="M197 0v1417h883v-79h-791v-580h675v-81h-675v-595h791v-82h-883z" />
<glyph unicode="F" horiz-adv-x="1082" d="M197 0v1417h858v-79h-766v-609h651v-78h-651v-651h-92z" />
<glyph unicode="G" horiz-adv-x="1223" d="M137 563v93v54q0 80 1.5 145.5t5 119t11.5 97t22.5 80.5t36.5 69.5t52 63.5q70 71 159.5 108t185.5 37q90 0 169.5 -27.5t141.5 -79.5t103 -126t57 -164h-86q-18 73 -53.5 132.5t-85 101t-111 65t-135.5 23.5t-148 -31.5t-137 -97.5q-36 -38 -55.5 -82.5t-30 -104 t-13 -140t-2.5 -189.5q0 -113 4 -195t16.5 -143.5t35 -107t59.5 -85.5q55 -52 124 -83q68 -32 147 -32q41 0 83.5 10.5t82.5 29t74 45t61 59.5q48 61 70 131q22 69 22 162v136h-382v81h469v-230q0 -109 -29 -191.5t-87 -148.5q-32 -37 -73.5 -66.5t-88 -50.5t-97 -33 t-105.5 -12q-90 0 -175 33t-152 96q-37 38 -63 80t-42.5 87t-25 92.5t-12.5 94t-4 94.5z" />
<glyph unicode="H" horiz-adv-x="1376" d="M197 0v1417h92v-659h796v659h93v-1417h-93v677h-796v-677h-92z" />
<glyph unicode="I" horiz-adv-x="513" d="M211 0v1417h92v-1417h-92z" />
<glyph unicode="J" horiz-adv-x="942" d="M19 107l63 62q23 -22 46 -40.5t51.5 -32.5t64 -21.5t85.5 -7.5q79 0 142 25.5t107 72t69 114.5q24 69 24 154v984h95v-984q0 -106 -31 -188.5t-88.5 -140t-138.5 -88t-179 -30.5q-96 0 -171.5 29t-138.5 92z" />
<glyph unicode="K" horiz-adv-x="1256" d="M197 0v1417h92v-903l769 903h112l-447 -542l526 -875h-104l-485 814l-371 -430v-384h-92z" />
<glyph unicode="L" horiz-adv-x="1068" d="M197 0v1417h92v-1332h755v-85h-847z" />
<glyph unicode="M" horiz-adv-x="1615" d="M195 0v1411h74l545 -1082l522 1082h83v-1411h-93v1060l4 158l-48 -112l-435 -890h-69l-455 903l-42 104l5 -163v-1060h-91z" />
<glyph unicode="N" horiz-adv-x="1459" d="M197 0v1417h84l886 -1264v1264h93v-1417h-82l-889 1263v-1263h-92z" />
<glyph unicode="O" horiz-adv-x="1226" d="M137 710q0 80 1.5 145.5t5 119t11.5 97t22.5 80.5t36.5 69.5t52 63.5q70 71 159.5 108t185.5 37q99 0 190 -37q89 -37 158 -108q32 -31 54.5 -63.5t36 -69.5t22 -80.5t12.5 -97t4 -119v-145.5v-146t-4 -118.5t-12.5 -97.5t-22 -81t-35.5 -70t-55 -65q-69 -72 -158 -109 q-91 -37 -190 -37q-97 0 -186 38q-88 36 -159 108q-32 32 -53 65t-35.5 70t-22.5 81t-11.5 97.5t-5 118.5t-1.5 146zM227 710q0 -115 3 -197.5t14 -142.5t34 -104t62 -84q57 -52 125.5 -83.5t145.5 -31.5t147.5 31t125.5 84q39 41 62.5 85.5t34.5 105t14.5 141.5t3.5 196 q0 76 -1 138t-5 111t-11.5 89t-20.5 74t-32 62t-45 56q-55 53 -125.5 82.5t-147.5 29.5t-145.5 -29.5t-125.5 -82.5q-26 -28 -44.5 -56t-31 -61.5t-20 -72.5t-11 -89.5t-5 -112.5t-1.5 -138z" />
<glyph unicode="P" horiz-adv-x="1200" d="M197 0v1417h510q94 0 174.5 -26t139.5 -77t91.5 -126.5t32.5 -173.5q0 -96 -32.5 -171.5t-91.5 -126t-139.5 -78t-174.5 -27.5h-418v-611h-92zM289 690h418q74 0 137.5 20t109.5 60.5t72 101t26 142.5t-26 143.5t-72.5 103t-109.5 61t-137 19.5h-418v-651z" />
<glyph unicode="Q" horiz-adv-x="1226" d="M137 707q0 82 1.5 147t5 118.5t11.5 96.5t22.5 80t36.5 69.5t52 63.5q70 72 159.5 109t185.5 37q99 0 190 -37q89 -37 158 -109q32 -31 54.5 -63.5t36 -69.5t22 -80t12.5 -96.5t4 -118.5v-147q0 -104 -1.5 -184t-11 -142.5t-26 -112t-48.5 -91.5l202 -191l-33 -31 q-4 -8 -11.5 -15.5t-15.5 -12.5l-200 185q-33 -30 -71.5 -54.5t-81 -41t-87.5 -24.5t-92 -8q-97 0 -185.5 37.5t-159.5 107.5q-32 33 -53 65.5t-35.5 69.5t-22.5 81t-11.5 97.5t-5 118.5t-1.5 146zM227 707q0 -115 3 -197.5t14 -142.5t34 -104t62 -84q57 -52 125.5 -83.5 t145.5 -31.5q36 0 72 8.5t70.5 23t66 35t58.5 43.5l-182 179l27 28q6 8 16 17.5t19 16.5l176 -174q22 36 35 78.5t19.5 97t8.5 126t2 164.5q0 77 -1 138.5t-5 111t-11.5 89t-20.5 74t-32 62.5t-45 55q-55 54 -125.5 83t-147.5 29t-145.5 -29t-125.5 -83q-26 -27 -44.5 -55 t-31 -62t-20 -73t-11 -89.5t-5 -112t-1.5 -138.5z" />
<glyph unicode="R" horiz-adv-x="1287" d="M197 0v1417h558q88 0 164 -24t130.5 -71.5t86 -117.5t31.5 -163q0 -74 -24.5 -137t-70.5 -112t-109.5 -82t-140.5 -47l359 -663h-107l-356 663h-429v-663h-92zM289 737h451q66 0 126.5 22t108 61.5t75 95t27.5 125.5q0 73 -24.5 128.5t-68.5 94t-103.5 58t-128.5 19.5 h-463v-604z" />
<glyph unicode="S" horiz-adv-x="1079" d="M67 166l67 72q48 -49 94 -80.5t94.5 -51.5t101.5 -28t114 -8q85 0 152.5 20t114.5 59t73 95.5t26 128.5q0 68 -23 119t-63 83.5t-91 53.5q-53 20 -108 31l-161 22q-79 14 -145 43t-114 73.5t-75.5 105t-27.5 140.5q0 90 30 162t85.5 122t135.5 76t180 26q63 0 116 -8 t101 -26t92 -45.5t87 -65.5l-59 -64q-35 30 -70.5 54t-77 41t-90 26.5t-107.5 9.5q-76 0 -137 -21t-105 -61t-66.5 -96t-22.5 -125q0 -60 24 -107t64 -82t91.5 -58.5t106.5 -32.5l155 -26q86 -14 154.5 -41t116.5 -71.5t73.5 -107.5t25.5 -148q0 -90 -32.5 -162 t-92.5 -123.5t-147 -78.5t-197 -27q-77 0 -140 10.5t-118.5 34t-106 58t-98.5 79.5z" />
<glyph unicode="T" horiz-adv-x="1023" d="M19 1338v79h982v-79h-448v-1338h-93v1338h-441z" />
<glyph unicode="U" horiz-adv-x="1301" d="M177 488v929h92v-929q0 -92 27 -168t76.5 -132t120 -87t158.5 -31q93 0 163.5 31t119 85.5t74.5 132.5q25 76 25 169v929h92v-929q0 -109 -32.5 -200.5t-94 -158.5t-149 -105t-198.5 -38q-110 0 -197.5 38t-149.5 105t-94.5 159.5t-32.5 199.5z" />
<glyph unicode="V" horiz-adv-x="1175" d="M64 1417h95l430 -1272l428 1272h94l-479 -1417h-84z" />
<glyph unicode="W" horiz-adv-x="1772" d="M64 1417h92l313 -1235l380 1235h77l376 -1238l312 1238h94l-364 -1417h-73l-385 1249l-382 -1249h-74z" />
<glyph unicode="X" horiz-adv-x="1068" d="M33 0l447 723l-416 694h107l362 -603l363 603h103l-410 -694l444 -723h-110l-390 640l-396 -640h-104z" />
<glyph unicode="Y" horiz-adv-x="1093" d="M64 1417h105l382 -737l375 737h104l-438 -831v-586h-91v586z" />
<glyph unicode="Z" horiz-adv-x="1124" d="M121 0v79l780 1262h-750v76h856v-68l-780 -1272h780v-77h-886z" />
<glyph unicode="[" horiz-adv-x="613" d="M214 -163v1900h300v-77h-214v-1750h214v-73h-300z" />
<glyph unicode="\" horiz-adv-x="720" d="M0 1737h90l631 -1900h-92z" />
<glyph unicode="]" horiz-adv-x="613" d="M104 -90h214v1750h-214v77h300v-1900h-300v73z" />
<glyph unicode="^" horiz-adv-x="1111" d="M174 789l333 628h93l334 -628h-87l-294 547l-290 -547h-89z" />
<glyph unicode="_" horiz-adv-x="1135" d="M0 -281h1137v-59h-1137v59z" />
<glyph unicode="`" horiz-adv-x="1076" d="M303 1456h115l198 -297h-94q-53 77 -109.5 149t-109.5 148z" />
<glyph unicode="a" horiz-adv-x="1041" d="M79 286q0 72 23.5 128t70 95.5t113.5 61.5q67 21 152 21h357v131q0 67 -18 119.5t-55 87t-97.5 53t-144.5 18.5q-53 0 -95.5 -7.5t-77 -22.5t-65.5 -39t-60 -57l-64 51q40 44 80 73t82.5 46.5t92 24.5t107.5 7q104 0 179 -22t124.5 -66.5t73.5 -108.5q24 -66 24 -148 v-732h-86v132q-32 -42 -68.5 -69t-78.5 -43.5t-89.5 -25t-100.5 -8.5q-84 0 -153 16t-120 51t-78.5 92.5t-27.5 140.5zM163 286q0 -113 72 -168.5t223 -55.5q68 0 129 18.5t107 55.5t73.5 94.5t27.5 136.5v147h-346q-143 0 -214.5 -55.5t-71.5 -172.5z" />
<glyph unicode="b" horiz-adv-x="1105" d="M169 0v1545h86v-652q35 59 77.5 95.5t86.5 55.5t89 26t87 7q79 0 139.5 -21.5t105.5 -59t75 -89.5t49.5 -112.5t27 -128t7.5 -136t-8.5 -135t-27 -127t-48.5 -112.5t-75 -89.5t-105.5 -59t-139.5 -21.5q-44 0 -89.5 7.5t-89 28t-85 57t-76.5 92.5v-171h-86zM255 530 q0 -56 7 -112t20.5 -108t38 -96.5t61.5 -78.5t88.5 -52.5t118.5 -18.5q64 0 113 19.5t84.5 53t59 78.5t37.5 96.5t20.5 107.5t6.5 111q0 59 -6.5 116.5t-20.5 109.5t-38 96.5t-61 77t-88 51t-118 18.5q-64 0 -113 -18.5t-85 -52t-60 -78t-38.5 -97t-20.5 -110t-6 -113.5z " />
<glyph unicode="c" horiz-adv-x="961" d="M107 530q0 128 31.5 229t89 172.5t141.5 108.5q86 37 190 37q51 0 92.5 -7t81.5 -24.5t77 -46.5t76 -70q-8 -10 -15.5 -16.5t-14.5 -13t-13.5 -12.5t-15.5 -14q-32 38 -63 62.5t-62.5 39t-66.5 20.5t-76 6q-100 0 -170.5 -37t-114.5 -100.5t-63 -150t-19 -183.5 q0 -96 19 -181.5t63 -148.5t114 -100.5t171 -37.5q41 0 75.5 5.5t66 20.5t63 40t63.5 67l59 -55q-41 -45 -78 -74.5t-75 -47.5t-81 -25q-41 -7 -93 -7q-104 0 -189 38.5t-142.5 109t-89 171.5t-31.5 225z" />
<glyph unicode="d" horiz-adv-x="1105" d="M107 530.5q0 68.5 8 136t26 128t48 112.5t75.5 89.5t104.5 59.5q58 21 138 21q44 0 89 -7t90.5 -26t86.5 -56t76 -95v652h88v-1545h-88v171q-35 -57 -75.5 -93t-85 -56.5t-91 -28t-90.5 -7.5q-78 0 -137.5 21.5t-103.5 59t-75 89.5t-49.5 112.5t-26.5 127t-8 135z M195 530q0 -55 5.5 -111t19.5 -107.5t38 -96.5t59.5 -78.5t85 -53t113.5 -19.5q68 0 118.5 18.5t87.5 52.5t61.5 78.5t39.5 96.5t20.5 108t5.5 112q0 58 -5.5 114.5t-19.5 109t-38 97t-60 78t-85 52t-114 18.5q-67 0 -117.5 -18.5t-87.5 -51t-61.5 -77t-39.5 -96.5 t-20.5 -109.5t-5.5 -116.5z" />
<glyph unicode="e" horiz-adv-x="1049" d="M112 530q0 129 27.5 230.5t81 172t130 107.5t174.5 37t175.5 -35t131 -101.5t82.5 -163.5t29 -218v-40h-743q0 -109 22.5 -193.5t68 -142.5t112.5 -88q68 -31 156 -31q49 0 89 7.5t76 23.5t68.5 40t65.5 57q15 -15 30 -27q16 -12 30 -25q-38 -41 -76 -69.5t-81 -47.5 t-94 -28t-114 -9q-108 0 -191 36t-138 104.5t-83.5 169.5t-28.5 234zM200 589h652q1 14 1 28q-1 41 -7 79q-8 52 -27 97t-46.5 83.5t-64.5 66t-83.5 43t-99.5 15.5q-55 0 -99.5 -17t-81 -45.5t-63 -68.5t-45 -86.5t-27.5 -96t-9 -98.5z" />
<glyph unicode="f" horiz-adv-x="554" d="M59 1001v65h144v214q0 57 15 106.5t45 85t75.5 54.5t105.5 19h86v-72h-64q-93 0 -136.5 -50t-43.5 -141v-216h244v-65h-244v-1001h-83v1001h-144z" />
<glyph unicode="g" horiz-adv-x="1097" d="M110 530q0 70 6.5 138.5t24.5 129t47.5 111.5t73.5 89t103.5 58.5t138.5 20.5q44 0 89 -7t89 -26t85 -54.5t74 -93.5v170h88v-1151q0 -100 -29 -184t-84.5 -145t-135.5 -96t-184 -35q-59 0 -105 9t-86.5 25t-76.5 41t-75 58l61 56q30 -28 58.5 -48.5t63 -34.5t73.5 -22 q38 -8 87 -8q89 0 155 31t107.5 84t62 122.5t20.5 146.5v241q-41 -57 -82.5 -90.5t-85 -51t-86 -23t-83.5 -5.5q-79 0 -138 21.5t-103 59t-73.5 89t-47 111.5t-25 127.5t-7.5 135.5zM197 530q0 -57 4.5 -114t16.5 -109t34 -97.5t56 -78t83 -51.5q47 -18 113 -18 q69 0 121 18.5t89 51t61.5 78t39.5 97.5t20.5 109t5.5 114q0 59 -6 116.5t-21 111t-40.5 98.5t-62.5 78t-88 52q-53 18 -119 18q-63 0 -109.5 -18.5t-81 -51.5t-57.5 -78t-35.5 -97t-18 -111t-5.5 -118z" />
<glyph unicode="h" horiz-adv-x="1119" d="M169 0v1545h86v-646q68 93 150.5 135.5t178.5 42.5q87 0 157 -27t119.5 -77.5t75.5 -124t26 -163.5v-685h-87v685q0 77 -21 135t-58.5 98.5t-92 61.5t-119.5 21q-68 0 -127.5 -26t-104.5 -71.5t-71 -108.5q-26 -61 -26 -135v-660h-86z" />
<glyph unicode="i" horiz-adv-x="495" d="M171 1473q0 16 6.5 30t16 24t23 15.5t27.5 5.5q15 0 28.5 -5.5t24 -15.5t17.5 -24.5t7 -29.5q0 -14 -7 -27.5t-17.5 -24t-24 -16t-28.5 -5.5q-14 0 -27.5 5.5t-23 16t-16 24t-6.5 27.5zM203 0v1066h86v-1066h-86z" />
<glyph unicode="j" horiz-adv-x="495" d="M-33 -436h60q52 0 86.5 12.5t55 37t29 60.5t8.5 85v1307h86v-1310q0 -60 -14.5 -108t-44.5 -82.5t-75.5 -52t-106.5 -17.5h-84v68zM174 1473q0 16 6 30t16 24t23.5 15.5t27.5 5.5q15 0 28.5 -5.5t24 -15.5t17 -24.5t6.5 -29.5q0 -14 -6.5 -27.5t-17 -24t-24 -16 t-28.5 -5.5q-14 0 -27.5 5.5t-23.5 16t-16 24t-6 27.5z" />
<glyph unicode="k" horiz-adv-x="1049" d="M169 0v1545h86v-1115l545 636h110l-335 -392l418 -674h-107l-372 608l-259 -302v-306h-86z" />
<glyph unicode="l" horiz-adv-x="516" d="M169 271v1274h86v-1271q0 -49 8 -85.5t28.5 -62t55 -37.5t86.5 -12h63v-77h-81q-63 0 -109.5 19t-77.5 55t-45 86.5t-14 110.5z" />
<glyph unicode="m" horiz-adv-x="1820" d="M169 0v1066h86v-162q27 44 64 75.5t79.5 53.5t90.5 33t97 11q113 0 200.5 -55t142.5 -158q27 54 65.5 93.5t85 66.5t100 40t111.5 13q87 0 157 -27.5t118 -81t74 -130.5q26 -76 26 -175v-663h-84v663q0 82 -19.5 145t-59.5 105.5t-96 65t-130 22.5q-70 0 -127.5 -25 t-99.5 -70.5t-65 -107.5q-23 -61 -23 -135v-663h-87v663q0 164 -78.5 251t-229.5 87q-68 0 -125.5 -25t-99 -70.5t-64.5 -107.5q-23 -61 -23 -135v-663h-86z" />
<glyph unicode="n" horiz-adv-x="1119" d="M169 0v1066h86v-162q30 44 68.5 77t80 54t87.5 31.5t93 10.5q87 0 157 -27.5t119.5 -79.5t75.5 -126t26 -164v-680h-87v680q0 79 -19.5 138.5t-58 100t-94 61.5t-128.5 21q-65 0 -122.5 -25t-101.5 -70.5t-70 -107.5q-26 -61 -26 -135v-663h-86z" />
<glyph unicode="o" horiz-adv-x="1074" d="M110 530q0 69 9.5 136.5t29.5 128t52.5 112.5t80 89.5t109 59t142.5 21.5q79 0 142 -21.5t111 -59t81.5 -89.5t54.5 -112.5t30.5 -128t9.5 -136t-9.5 -135t-31 -127t-55 -112.5t-81.5 -89.5t-110.5 -59t-141.5 -21.5q-80 0 -142 21.5t-108.5 59t-79.5 89.5t-53.5 112.5 t-30 127.5t-9.5 134zM195 530q0 -55 6.5 -111.5t21.5 -108.5t41 -97.5t64 -79t88.5 -52.5t116.5 -19q68 0 119.5 19t90 52.5t63 79t39.5 97.5t21.5 108t6.5 112t-6.5 113t-21.5 110t-39.5 98t-62 78.5t-90 52.5t-120.5 19q-67 0 -118.5 -19t-89 -52.5t-63 -78.5t-40.5 -98 t-21 -110t-6 -113z" />
<glyph unicode="p" horiz-adv-x="1105" d="M169 -480v1546h86v-170q35 58 76.5 92.5t85 54.5t89 27t89.5 7q79 0 139.5 -20.5t105.5 -58.5t75 -89t48.5 -111.5t27 -127t8.5 -135t-7.5 -135.5t-27 -128t-49.5 -113t-75 -89t-105.5 -59t-139.5 -22q-42 0 -87 7t-89 26.5t-86.5 56t-77.5 95.5v-654h-86zM255 536 q0 -58 6 -115t20.5 -109t38.5 -97t60 -78.5t85 -53t113 -19.5q67 0 118 18.5t88 51.5t61 77.5t38 97.5t20.5 110.5t6.5 116.5q0 54 -6.5 110.5t-20.5 108t-37.5 96.5t-59 78t-84.5 51.5t-113 18.5q-67 0 -118.5 -18.5t-88.5 -51.5t-61.5 -77.5t-38 -96t-20.5 -107.5t-7 -112 z" />
<glyph unicode="q" horiz-adv-x="1105" d="M107 535.5q0 68.5 8 135t26.5 127t49.5 111.5t75 89t104 58.5t137 20.5q44 0 90.5 -7t91 -27t85.5 -55q40 -34 75 -92v170h88v-1546h-88v654q-35 -59 -76 -95.5t-86.5 -56t-90.5 -26.5t-89 -7q-80 0 -138.5 22t-104 59t-75.5 89t-48 113t-26 128t-8 135.5zM195 536 q0 -59 5.5 -116.5t20.5 -110.5t39.5 -97.5t61.5 -77.5t87.5 -51.5t117.5 -18.5q65 0 114 19.5t85 53t60 78.5t38 97t19.5 110t5.5 114t-5.5 112t-20.5 107.5t-39.5 96t-61.5 77.5t-87.5 51.5t-118.5 18.5q-64 0 -113.5 -18.5t-85 -51.5t-59.5 -78t-38 -96.5t-19.5 -108 t-5.5 -110.5z" />
<glyph unicode="r" horiz-adv-x="706" d="M169 0v1066h86v-180q27 46 65 81.5t81 60t89 37t91 12.5q42 0 82.5 -7t73.5 -23l-52 -72q-25 16 -53.5 21t-58.5 5q-69 0 -127 -29t-100 -77t-66.5 -110t-24.5 -129v-656h-86z" />
<glyph unicode="s" horiz-adv-x="919" d="M67 123q10 10 16.5 19t13.5 17t14 16.5t15 19.5q121 -129 326 -131q74 0 131 15.5t96.5 44.5t60 73t20.5 100q0 88 -49 135q-48 45 -152 58l-163 17q-140 16 -214.5 84.5t-74.5 186.5q0 69 24.5 124.5t70 94.5t109.5 59.5t144 20.5q97 0 182.5 -24.5t151.5 -79.5l-63 -58 q-60 44 -127 65t-144 21q-63 0 -112.5 -15.5t-83 -44.5t-50.5 -70t-17 -93q0 -85 52.5 -131.5t156.5 -57.5l161 -19q57 -8 108 -23t90 -45.5t61.5 -79t22.5 -125.5q0 -72 -27.5 -130.5t-78 -99t-122.5 -62t-161 -21.5q-123 0 -218 32.5t-170 106.5z" />
<glyph unicode="t" horiz-adv-x="600" d="M51 1001v65h146v340h87v-340h238v-65h-238v-730q0 -90 38 -142q40 -52 119 -52h81v-77h-81q-60 0 -105.5 20.5t-77 57t-46.5 86.5t-15 110v727h-146z" />
<glyph unicode="u" horiz-adv-x="1119" d="M153 386v680h88v-680q0 -79 20.5 -138.5t59 -100t94.5 -62t130 -21.5q66 0 123 25.5t100 71t67.5 107t24.5 136.5v662h88v-1066h-88v159q-60 -86 -144 -128t-180 -42q-88 0 -158.5 27.5t-120.5 79.5t-77 126t-27 164z" />
<glyph unicode="v" horiz-adv-x="995" d="M67 1066h96l333 -978l334 978h96l-383 -1066h-91z" />
<glyph unicode="w" horiz-adv-x="1617" d="M64 1066h99l286 -976l317 976h89l318 -976l283 976h98l-336 -1066h-93l-314 943l-315 -943h-92z" />
<glyph unicode="x" horiz-adv-x="897" d="M53 0l354 545l-337 521h104l278 -450l271 450h107l-337 -521l348 -545h-101l-288 469l-293 -469h-106z" />
<glyph unicode="y" horiz-adv-x="995" d="M67 1066h96l333 -978l334 978h96l-488 -1358q-31 -90 -99 -139t-165 -49h-40v76h25q47 0 81 9t58 28t41 48.5t31 71.5l88 233z" />
<glyph unicode="z" horiz-adv-x="945" d="M104 0v90l659 898h-623v78h701v-93l-656 -896h656v-77h-737z" />
<glyph unicode="{" horiz-adv-x="672" d="M110 752v67h27q41 6 70 19.5t46.5 37t25.5 56.5q7 35 7 79v469q0 76 12.5 125.5t42 78t79.5 41.5q51 12 125 12h17v-77h-14q-60 0 -95 -6t-52 -26t-22.5 -56t-5.5 -97v-468q0 -38 -7.5 -70.5t-25 -60t-44.5 -50.5t-66 -42q39 -20 66 -41.5t44.5 -49t25 -59t7.5 -70.5 v-468q0 -60 4 -97t21.5 -56.5t52.5 -26.5q37 -6 97 -6h14v-73h-17q-74 0 -124.5 11.5t-80 40.5t-42 78t-12.5 126v469q0 45 -7.5 78t-25 55.5t-46.5 36t-70 20.5h-27z" />
<glyph unicode="|" horiz-adv-x="672" d="M292 -163v1900h86v-1900h-86z" />
<glyph unicode="}" horiz-adv-x="672" d="M110 -90h13q61 0 96.5 6.5t52.5 26t21 56.5t4 97v468q0 39 7.5 70.5t24 59t44 49t68.5 41.5q-41 19 -68.5 42t-44 50.5t-24 59t-7.5 71.5v468q0 61 -4.5 97t-22.5 56t-52 26t-95 6h-13v77h16q74 0 124 -12.5t79.5 -41t41.5 -78.5q13 -49 13 -125v-469q0 -44 8 -78 t24.5 -57.5t45 -37t71.5 -19.5h29v-67h-29q-43 -5 -71.5 -19.5t-45 -37t-24.5 -56t-8 -77.5v-469q0 -77 -12.5 -126t-42 -78t-79.5 -40.5t-124 -11.5h-16v73z" />
<glyph unicode="~" horiz-adv-x="1111" d="M121 562q41 41 73.5 65.5t60 37t52.5 16.5t55 4q44 0 96 -18t106 -42q28 -13 52.5 -24t48 -19.5t45.5 -13t45 -4.5q22 0 42 3t40.5 14t43.5 29q23 20 53 50l51 -49q-42 -41 -73.5 -64.5t-59 -37t-51.5 -17.5t-52 -4q-23 0 -50.5 6.5t-56 17t-58.5 22.5q-29 14 -57 25 q-50 23 -90 36t-81 13q-24 0 -45 -2.5t-41.5 -13.5t-43.5 -29.5t-55 -48.5z" />
<glyph unicode="&#xa2;" horiz-adv-x="1100" d="M153 732q0 101 27 186t76.5 148t119 101.5t157.5 50.5v152h67v-155q44 -1 83.5 -8.5t77.5 -23.5t73 -40q37 -25 70 -61q-15 -15 -28 -25t-29 -24q-30 30 -57.5 50.5t-58 35t-62 22t-69.5 10.5v-830q69 4 130.5 32t118.5 85l63 -57l-5 11q-33 -39 -68.5 -65.5t-72.5 -43.5 t-78 -25.5t-88 -10.5v-188h-67v190q-88 11 -157.5 50t-119 101.5t-76.5 146t-27 185.5zM241 732q0 -47 6 -91.5t20.5 -87.5t36.5 -80t55 -68t75.5 -52t98.5 -30v822q-80 -13 -135.5 -51.5t-89.5 -94.5t-50.5 -124.5t-16.5 -142.5z" />
<glyph unicode="&#xa3;" horiz-adv-x="1057" d="M82 690v57h137v254q0 99 30 178t85.5 133.5t135 85t178.5 30.5q97 0 172.5 -27.5t138.5 -82.5l-60 -63q-24 19 -48.5 38t-54 33t-65 23t-83.5 9q-81 0 -144 -25.5t-107 -73.5t-65.5 -116.5t-21.5 -157.5v-238h327v-57h-327v-617h654v-73h-745v690h-137z" />
<glyph unicode="&#xa5;" horiz-adv-x="1119" d="M82 1417h100l382 -737q94 180 188.5 366.5t190.5 370.5h95l-323 -617h230v-57h-260l-79 -157v-98h339v-55h-339v-433h-92v433h-343v55h343v98l-84 157h-259v57h233z" />
<glyph unicode="&#xa9;" horiz-adv-x="1801" d="M153 729q0 104 27.5 200t76.5 179t117.5 150.5t151 115.5t177.5 75q97 26 198 26q105 0 200 -26.5t178 -74.5t150.5 -115.5t116.5 -150.5t75 -179t26 -200q0 -103 -26 -197.5t-75 -177.5t-116.5 -151.5t-150.5 -117.5t-179 -75q-94 -26 -199 -26q-102 0 -197.5 26 t-178 75t-151 117.5t-117.5 151.5t-76.5 178t-27.5 197zM236 728.5q0 -90.5 24 -175t67.5 -159.5t104.5 -137t135 -107t159 -69.5t175.5 -24.5t175.5 24.5t159.5 69.5t136 107t106 137t68.5 159.5t24 175t-24 177t-68.5 162t-106 137t-136 106.5t-159.5 70t-175.5 25 t-175.5 -25t-159 -70t-135 -106.5t-104.5 -137t-67.5 -161.5q-24 -87 -24 -177.5zM551 729q0 86 20.5 163.5t64.5 135t111 91.5q70 35 163 35q41 0 75 -6.5t64.5 -18.5t59 -31.5t61.5 -45.5l-13.5 -13.5l-11 -11t-11.5 -12.5t-15 -14q-27 28 -52.5 43.5t-50 25.5t-50.5 12.5 t-56 2.5q-83 0 -137.5 -28.5t-87.5 -77.5t-46.5 -114t-13.5 -136t13.5 -135t46.5 -113t87.5 -78.5t137.5 -29.5q30 0 56 3t50 12t49.5 25.5t53.5 44.5l51 -51q-30 -25 -59.5 -43.5t-60.5 -30.5t-65 -17.5t-75 -5.5q-63 0 -114 15t-90.5 42.5t-69 66.5t-48.5 85.5t-28 99.5 q-9 52 -9 110z" />
<glyph unicode="&#xab;" horiz-adv-x="1164" d="M112 586l402 399v-107l-298 -292l298 -297v-101zM573 586l397 399v-107l-293 -292l293 -297v-101z" />
<glyph unicode="&#xad;" horiz-adv-x="913" d="M182 545v77h550v-77h-550z" />
<glyph unicode="&#xae;" horiz-adv-x="1801" d="M153 729q0 104 27.5 200t76.5 179t117.5 150.5t151 115.5t177.5 75q97 26 198 26q105 0 200 -26.5t178 -74.5t150.5 -115.5t116.5 -150.5t75 -179t26 -200q0 -103 -26 -197.5t-75 -177.5t-116.5 -151.5t-150.5 -117.5t-179 -75q-94 -26 -199 -26q-102 0 -197.5 26 t-178 75t-151 117.5t-117.5 151.5t-76.5 178t-27.5 197zM233 729q0 -91 24 -175.5t68 -160t104.5 -138t135.5 -107t160 -69.5q86 -26 176 -26q92 0 177 25.5t159.5 70t136.5 107t105.5 138t67.5 160t24 175.5q0 92 -24 178t-67.5 161t-105.5 138t-136.5 106.5t-160 68.5 t-176 25t-176 -25t-160.5 -68.5t-135.5 -106.5t-104.5 -138t-68 -160.5t-24 -178.5zM677 326v814h255q49 0 94 -18t79.5 -50t53.5 -76q19 -42 19 -95q0 -42 -14.5 -77t-39.5 -62.5t-60 -48t-76 -33.5l204 -354h-86l-205 345h-154v-345h-70zM747 734h174q39 0 73.5 13t60 35 t39.5 53t14 66q0 39 -14 70.5t-39.5 55.5t-60.5 37t-73 13h-174v-343z" />
<glyph unicode="&#xbb;" horiz-adv-x="1164" d="M197 188v101l293 297l-293 292v107l395 -399zM651 188v101l297 297l-297 292v107l401 -399z" />
<glyph unicode="&#xbc;" horiz-adv-x="1598" d="M112 1208v74l154 135h82v-842h-70v780zM373 0l682 1417h88l-683 -1417h-87zM956 134v66l318 647h78l-322 -655h282v244h72v-244h109v-58h-109v-134h-72v134h-356z" />
<glyph unicode="&#xbd;" horiz-adv-x="1598" d="M112 1208v74l154 135h82v-842h-70v780zM342 0l683 1417h83l-678 -1417h-88zM1014 0v64l351 432q27 31 38 62t11 64q0 38 -11 69.5t-32.5 53.5t-51.5 35q-28 12 -67 12q-31 0 -60.5 -8.5t-53 -26t-37.5 -47.5q-16 -30 -16 -76h-71q3 48 20.5 88.5t48.5 69.5t73 44 q44 16 96 16q54 0 97 -15.5t74 -46t48 -72.5q17 -44 17 -96q0 -42 -18 -85.5t-53 -84.5l-326 -393h397v-59h-474z" />
<glyph unicode="&#xbe;" horiz-adv-x="1598" d="M93 774h76q5 -41 23 -69t43 -44.5t54.5 -24t58.5 -7.5q38 0 71 11.5t57.5 33.5t37.5 56t13 78q0 39 -10.5 70.5t-33.5 53.5t-58 35t-83 13h-5v56h5q44 0 77 11t53.5 32.5t30.5 52.5q11 30 11 68q0 40 -14 71t-37 51.5t-54 31.5t-64 11q-30 0 -58.5 -10t-52 -27 t-38.5 -42.5t-19 -59.5h-70q7 44 28 81.5t52.5 63.5t72 41.5t85.5 15.5q54 0 98.5 -15.5t76 -45t49 -71t17.5 -93.5q0 -28 -5.5 -55t-17.5 -52.5t-34 -48t-58 -40.5q39 -14 64 -35t39.5 -47t20 -56.5t5.5 -60.5q0 -63 -19 -108t-53.5 -74t-80.5 -42.5t-99 -13.5 q-49 0 -92.5 12.5t-77.5 38.5t-56.5 64t-28.5 89zM525 0q87 178 171.5 355t168.5 353.5t168.5 353t172.5 355.5h85l-683 -1417h-83zM1004 197l160 326q80 162 157 324h79l-318 -655h283v244h71v-244h104v-58h-104v-134h-71v134h-358v66z" />
<glyph unicode="&#xd7;" horiz-adv-x="1135" d="M174 241l342 343l-342 342l53 49l340 -338l343 338l52 -49l-343 -342l343 -343l-52 -53l-343 342l-340 -342q-16 13 -27 26t-26 27z" />
<glyph unicode="&#xf7;" horiz-adv-x="1111" d="M115 545v77h876v-77h-876zM469 216q0 18 6.5 33t17.5 27t26 18t34 6q18 0 33 -6t27 -18t18 -27.5t6 -32.5t-6 -33t-18 -27t-27.5 -17.5t-32.5 -6.5t-33 6.5t-27 17.5t-17.5 27t-6.5 33zM469 945q0 18 6.5 34t17.5 28t26 19t34 7q18 0 33 -7t27 -19t18 -28t6 -34 q0 -16 -6 -31t-18 -27.5t-27.5 -19.5t-32.5 -7t-33 7t-27 19.5t-17.5 27.5t-6.5 31z" />
<glyph unicode="&#xe01;" horiz-adv-x="1189" d="M88 858q82 145 200 216t282 71q115 0 200 -30t140.5 -85.5t83.5 -137t28 -185.5v-707h-90v707q0 96 -25.5 164.5t-73 111.5t-114.5 63t-152 20q-49 0 -100.5 -9.5t-101.5 -33t-95 -62.5t-85 -97l89 -141v-723h-86v710z" />
<glyph unicode="&#xe02;" horiz-adv-x="1012" d="M107 1055q33 41 82 63t100 22q49 0 88 -15t66.5 -42.5t41.5 -66t14 -84.5q0 -36 -12 -69t-31.5 -64.5t-44.5 -59t-49 -51.5q-28 -25 -50 -51t-37 -52t-23 -55t-8 -61v-121q0 -64 16.5 -117t49 -90t80.5 -57t111 -20q61 0 108 20t79.5 57t49.5 90t17 117v786h89v-792 q0 -79 -23.5 -144t-68.5 -112.5t-108 -73.5t-143 -26q-82 0 -146.5 26t-108 73.5t-67 112.5t-26.5 144v132q0 40 10 73t25.5 61t37 54t46 50.5t50 50.5t45 52t32.5 55t13 62q0 30 -9.5 53t-26.5 39.5t-40.5 25t-51.5 8.5q-33 0 -62 -15t-48 -36z" />
<glyph unicode="&#xe03;" horiz-adv-x="1012" d="M33 1085l52 55l112 -88l33 28q43 35 82 51.5t74.5 16.5t65.5 -13.5t53.5 -37t37 -55t13.5 -67.5q0 -26 -4 -48.5t-13.5 -45t-25.5 -45t-39 -47.5l-188 -205q-27 -31 -34.5 -62.5t-7.5 -61.5v-112q0 -60 16.5 -112t48.5 -90.5t80.5 -60t111.5 -21.5q61 0 109 20t80 57 t48.5 90t16.5 117v786h89v-792q0 -79 -23.5 -144t-68.5 -112.5t-108 -73.5t-143 -26q-82 0 -145 26t-107.5 73.5t-68.5 112.5t-27 144v124q0 55 15.5 93t39.5 60l222 236q28 27 39 54.5t11 54.5q0 24 -7 44t-20 35t-31.5 23t-40.5 8q-23 0 -51.5 -12.5t-58.5 -36.5l-76 -66z " />
<glyph unicode="&#xe04;" horiz-adv-x="1208" d="M169 0v726q2 104 33 183.5t87 131.5t136 78q79 26 181 26t183.5 -28t138 -81.5t86.5 -131t30 -178.5v-726h-90v704q0 93 -23.5 161.5t-68.5 112.5t-109.5 64.5t-146.5 20.5q-83 0 -147 -20.5t-108.5 -64.5t-68.5 -112.5t-24 -161.5v-115q30 30 69.5 46t95.5 16h185v-70 h-161q-55 0 -91.5 -14t-57.5 -40t-30.5 -65.5t-9.5 -91.5v-370h-89z" />
<glyph unicode="&#xe05;" horiz-adv-x="1231" d="M169 0v740q2 71 19.5 135.5t51 116.5t83.5 90q50 39 118 58l173 -184l178 184q71 -18 121.5 -57.5t83.5 -93t49.5 -117.5t16.5 -132v-740h-90v729q0 120 -42.5 197.5t-122.5 111.5l-157 -152q-14 -13 -33 -14t-34 14l-157 152q-80 -38 -123.5 -116t-43.5 -196v-137 q32 32 71 47t96 15h187v-70h-165q-54 0 -90.5 -14t-58 -40t-31 -65.5t-9.5 -91.5v-370h-91z" />
<glyph unicode="&#xe06;" horiz-adv-x="1169" d="M48 1082l48 58l118 -88l33 28q22 16 39.5 28.5t35.5 20.5t37 12t40 4q37 0 69 -12t56 -35.5t37.5 -55t13.5 -72.5q0 -19 -2.5 -39.5t-11 -41t-22 -44t-38.5 -48.5l-201 -216q-16 -17 -25 -38t-13 -42t-5.5 -39.5t-1.5 -31.5q0 -48 15 -94t39.5 -85.5t57.5 -74t71.5 -58 t80.5 -37.5q40 -14 81 -14q71 0 128.5 24t99 69.5t63 109.5t21.5 145v719h89v-730q-2 -96 -29.5 -173.5t-79 -132t-124 -83.5t-165.5 -29q-47 0 -95 13t-93 37t-85 58.5t-72 76.5v-171h-89v444v22q0 46 9 83q11 37 36 62l227 238q52 58 52 118q0 22 -5.5 42t-17.5 34.5 t-31.5 22.5t-42.5 8q-52 0 -101 -44l-81 -71z" />
<glyph unicode="&#xe07;" horiz-adv-x="854" d="M25 195l79 35q30 -81 90.5 -124.5t150.5 -43.5q66 0 114 19.5t78 56.5t45 90t15 117v710h-165v79h256v-794q0 -85 -23.5 -151.5t-67.5 -112.5t-107 -69t-145 -23q-63 0 -113.5 15t-90.5 43t-68.5 67t-47.5 86z" />
<glyph unicode="&#xe08;" horiz-adv-x="993" d="M8 915q25 55 63.5 97.5t88.5 72t111 45t130 15.5q94 0 171 -26t133.5 -78t87.5 -131q32 -80 32 -184v-726h-91v370q0 52 -8 90.5t-30 65t-57.5 39.5t-90.5 13h-208v73h211q57 0 106 -15q47 -14 77 -44v134q0 80 -22 143t-63.5 106.5t-104 67t-143.5 23.5q-49 0 -97 -11.5 t-89 -34.5t-73 -57t-52 -79z" />
<glyph unicode="&#xe09;" horiz-adv-x="1169" d="M156 404v259h91v-256q0 -78 21 -141t61.5 -107t97.5 -68q58 -24 129 -24q74 0 138.5 29.5t112 80t75.5 115.5q28 67 28 138v296q0 85 -27.5 148t-74 105.5t-109.5 63t-135 20.5q-52 0 -101 -11t-91.5 -33.5t-75.5 -56t-52 -78.5l-81 37q25 54 64 95.5t90.5 70t113.5 43.5 t133 15q94 0 173.5 -26t137 -78t90.5 -131q34 -80 34 -184v-726h-89v169q-72 -91 -163.5 -137t-190.5 -46q-94 0 -169 31.5t-125.5 88t-78 133t-27.5 165.5z" />
<glyph unicode="&#xe0a;" horiz-adv-x="1023" d="M110 1069q41 38 87.5 56t102.5 18q49 0 89.5 -14t68.5 -40.5t43 -64.5t15 -84q0 -55 -19 -100q-17 -45 -59 -88l-152 -163q-15 -16 -23 -32.5t-12 -33.5t-5.5 -33t-1.5 -30v-109q0 -66 15 -119t46.5 -90.5t79.5 -57.5t114 -20q130 0 191.5 64t61.5 193v465q0 32 -10 56.5 t-26.5 44.5t-36 35t-34.5 26l-14 10.5t-8 9.5t1 11.5t16 19.5l294 305l59 -57l-264 -267q33 -24 57 -54q22 -26 38.5 -62.5t16.5 -79.5v-469q0 -85 -24.5 -146.5t-70 -102.5t-108.5 -60.5t-142 -19.5q-82 0 -145 25t-107 71.5t-67.5 113t-23.5 149.5v124q0 46 11 86t36 64 l167 176q39 41 55 75t16 70q0 37 -11 62.5t-30 41.5t-45 23t-55 7q-33 0 -66.5 -18t-59.5 -39z" />
<glyph unicode="&#xe0b;" horiz-adv-x="1060" d="M41 1085l49 52l118 -85l33 28q38 31 75 47t75.5 16t72 -16t58.5 -42t39 -61.5t14 -75.5q0 -51 -24 -100q-25 -51 -77 -105l-148 -157q-16 -16 -26 -34t-12.5 -34.5t-3 -30.5t-0.5 -24v-115q0 -66 15 -118.5t45.5 -90.5t78.5 -57.5t115 -19.5q131 0 192.5 63.5t61.5 192.5 v463q0 30 -12.5 54.5t-29.5 46t-38.5 38t-37.5 28.5q-11 7 -13 18q-1 11 16 30l282 303l63 -62l-253 -267q31 -25 56 -52q22 -25 39 -60.5t17 -76.5v-469q0 -85 -24.5 -146.5t-70 -102.5t-109 -60t-141.5 -19q-83 0 -146.5 24.5t-107.5 71t-65.5 113t-21.5 149.5v121 q0 47 10.5 85t35.5 66l197 211q28 30 41.5 61t13.5 62q0 25 -8 47t-22 38t-34.5 26t-44.5 10t-48.5 -12.5t-51.5 -34.5l-76 -63z" />
<glyph unicode="&#xe0c;" horiz-adv-x="1860" d="M88 860q82 143 200 214t282 71q115 0 200 -28.5t140.5 -83.5t83.5 -135.5t28 -185.5v-282q0 -49 12.5 -95t34.5 -86.5t52 -74.5t65.5 -58t74 -38t77.5 -14q131 0 198 90t67 258v722h89v-722q0 -106 -25.5 -186.5t-72 -134t-112 -79.5t-144.5 -26q-46 0 -92 14t-87 39 t-76.5 60t-60.5 78v-177h-90v712q0 94 -25.5 159.5t-73 108.5t-114.5 63t-152 20q-49 0 -100.5 -9.5t-101.5 -32t-95 -61t-85 -96.5l89 -141v-471q0 -37 5.5 -68.5t20 -55t38.5 -36.5t61 -13h86v-79h-89q-55 0 -94 16.5t-65 48.5t-37.5 78t-11.5 104v463z" />
<glyph unicode="&#xe0d;" horiz-adv-x="1839" d="M88 860q82 143 200 214t282 71q115 0 200 -28.5t140.5 -83.5t83.5 -135.5t28 -185.5v-260q0 -86 18 -145.5t53 -96.5t87.5 -53.5t121 -16.5t120.5 16.5t87.5 53.5t54 95.5t18.5 146.5v682h89v-682q0 -88 -19 -159.5t-63 -123t-115 -79.5t-175 -28q-189 0 -278 96 q-89 97 -89 294v260q0 94 -25.5 159.5t-73 108.5t-114.5 63t-152 20q-49 0 -100.5 -9.5t-101.5 -32t-95 -61t-85 -96.5l89 -141v-471q0 -37 5.5 -68.5t20 -55t38.5 -36.5t61 -13h86v-79h-89q-55 0 -94 16.5t-65 48.5t-37.5 78t-11.5 104v463zM923 0h81q0 -23 5 -41.5 t14.5 -31.5t24.5 -20.5t37 -7.5h586v-76h-591q-28 0 -55.5 7.5t-49 27t-37 53.5t-15.5 89z" />
<glyph unicode="&#xe0e;" horiz-adv-x="1237" d="M99 79q46 3 73.5 21t41 44t18 56t4.5 55v452l-102 148q82 145 201 216q117 72 281 72q116 0 200.5 -30.5t141 -86t85 -137t28.5 -185.5v-985q0 -41 -14 -76t-41 -55.5t-65.5 -23t-83.5 20.5l-259 129q-16 8 -28.5 8t-31.5 -11l-259 -138l-42 68l289 153q22 11 41.5 10 t41.5 -12l280 -129q38 -16 60.5 -2.5t22.5 58.5v985q0 95 -26.5 162.5t-74.5 111.5t-116 65q-69 20 -151 20q-50 0 -99 -9.5t-98.5 -33.5t-96 -63t-87.5 -99l90 -143v-460q0 -80 -21 -128.5t-52.5 -76.5t-68 -39t-66.5 -14z" />
<glyph unicode="&#xe0f;" horiz-adv-x="1239" d="M99 79q46 3 73.5 21t41 44t18 56t4.5 55v452l-102 148q82 145 201 216q117 72 281 72q116 0 200.5 -30.5t141 -86t85 -137t28.5 -185.5v-975q0 -44 -16.5 -79.5t-43.5 -56t-64 -23.5t-77 20l-199 121q-16 14 -28 12q-13 -1 -29 -12l-187 -123q-21 -15 -37.5 -14t-33.5 14 l-216 168l66 47l167 -126q12 -11 22.5 -11t25.5 11l185 120q21 14 36.5 14t39.5 -14l207 -123q17 -10 34 -12t30 3.5t21 20.5t8 43v975q0 95 -26.5 162.5t-74.5 111.5t-116 65q-69 20 -151 20q-50 0 -100 -9.5t-98.5 -33.5t-95 -63t-87.5 -99l90 -143v-460q0 -80 -21 -128.5 t-52.5 -76.5t-68 -39t-66.5 -14z" />
<glyph unicode="&#xe10;" horiz-adv-x="993" d="M8 915q25 55 63.5 97.5t88.5 72t111 45t130 15.5q77 0 142 -17.5t120 -53.5l221 228l59 -55l-222 -225q49 -51 76.5 -124t27.5 -172v-726h-91v370q0 52 -8 90.5t-30 65t-57.5 39.5t-90.5 13h-208v73h211q57 0 106 -15q47 -14 77 -44v134q0 80 -22 143t-63.5 106.5 t-104 67t-143.5 23.5q-49 0 -97 -11.5t-89 -34.5t-73 -57t-52 -79zM88 -225l60 48l138 -115q13 -11 18.5 -10t16.5 10l102 100q30 28 56 28q25 0 54 -28l120 -108q5 -4 13 -9.5t16 -9t18 -4t18 5t12 17.5t4 34v140h91v-145q0 -44 -20.5 -75t-51 -45.5t-66 -9t-68.5 36.5 l-118 106q-13 14 -24 13q-11 1 -25 -13l-104 -104q-22 -19 -45.5 -19t-47.5 19z" />
<glyph unicode="&#xe11;" horiz-adv-x="1202" d="M53 1085l54 55l115 -88l33 28q42 35 81 51.5t76 16.5q32 0 60.5 -13.5t50.5 -37t36 -55t14 -67.5l174 173q65 -3 118.5 -25t91.5 -63.5t58.5 -102.5t20.5 -140v-817h-91v817q0 53 -9.5 96t-30 74t-53.5 51t-81 28l-459 -477q-16 -16 -25.5 -34t-13.5 -34.5t-5.5 -31.5 t-1.5 -23v-466h-89v466q0 49 12 86t36 62l230 235q27 28 35.5 59.5t8.5 55.5t-7 44.5t-19.5 36t-29 24t-36.5 8.5q-23 0 -51.5 -14t-58.5 -38l-67 -58q-14 -8 -24 0z" />
<glyph unicode="&#xe12;" horiz-adv-x="1848" d="M137 286v463q0 74 18 138t52 114.5t84.5 87.5t118.5 56l163 -181l161 181q72 -19 124 -57.5t86 -91t50.5 -115.5t16.5 -132v-319q0 -49 12.5 -95.5t34.5 -87t52.5 -74t65.5 -58.5t73.5 -38t76.5 -13q60 0 109.5 20t84 58.5t53 97.5t18.5 135v759h90v-759 q0 -104 -25.5 -178t-72 -120.5t-112 -68.5t-145.5 -22q-46 0 -91.5 14t-86.5 39t-76.5 60t-60.5 78v-177h-90v749q0 61 -10.5 106.5t-30.5 82t-50.5 63.5t-71.5 48l-150 -156q-15 -15 -33.5 -15.5t-31.5 15.5l-151 156q-41 -21 -72.5 -50t-52 -65.5t-30.5 -82t-10 -102.5 v-460q0 -45 9 -83.5t29 -66t52 -42.5t79 -15h89v-82h-89q-66 0 -114.5 22t-80 59.5t-48 90.5t-16.5 114z" />
<glyph unicode="&#xe13;" horiz-adv-x="1860" d="M88 860q82 143 200 214t282 71q115 0 200 -28.5t140.5 -83.5t83.5 -135.5t28 -185.5v-339q0 -77 19 -134t55 -96t86 -59t111 -20q36 0 73 13t71 35t64.5 53.5t52.5 69.5t35.5 79.5t13.5 86.5v731h89v-1132h-89v174q-29 -42 -62.5 -76.5t-71 -59t-81.5 -38.5t-95 -14 q-79 0 -145 22t-114 68.5t-75 120.5t-27 178v337q0 94 -25.5 159.5t-73 108.5t-114.5 63t-152 20q-49 0 -100 -9.5t-100 -33t-95.5 -61.5t-86.5 -95l89 -141v-471q0 -37 5.5 -68.5t20 -55t38.5 -36.5t61 -13h86v-79h-89q-55 0 -94 16.5t-65 48.5t-37.5 78t-11.5 104v463z " />
<glyph unicode="&#xe14;" horiz-adv-x="1208" d="M169 292v434q2 104 33 183.5t87 131.5t136 78q79 26 181 26t183.5 -28t138 -81.5t86.5 -131t30 -178.5v-726h-90v726q0 88 -25 152.5t-71 105.5t-109.5 61.5t-143 20.5t-143 -20t-109.5 -61.5t-71 -105.5q-24 -65 -24 -153v-434q0 -102 40 -156q42 -54 129 -54h89v-82 h-89q-65 0 -114 20.5t-81 59t-47.5 92t-15.5 120.5z" />
<glyph unicode="&#xe15;" horiz-adv-x="1208" d="M169 292v457q0 74 17 138t51 114.5t85 87.5t119 56l162 -181l163 181q71 -19 123 -57.5t85.5 -91t50 -115.5t16.5 -132v-749h-90v749q0 61 -9.5 106.5t-30.5 82t-51 63.5t-71 48l-149 -156q-15 -15 -34.5 -15.5t-32.5 15.5l-150 156q-41 -21 -72.5 -50t-52 -65.5 t-30.5 -82t-10 -102.5v-457q0 -102 41 -156t128 -54h89v-82h-89q-65 0 -114 20.5t-81 59t-47.5 92t-15.5 120.5z" />
<glyph unicode="&#xe16;" horiz-adv-x="1189" d="M88 858q82 145 200 216t282 71q115 0 200 -30t140.5 -85.5t83.5 -137t28 -185.5v-707h-90v707q0 96 -25.5 164.5t-73 111.5t-114.5 63t-152 20q-49 0 -100 -10.5t-100 -34.5t-95.5 -62t-86.5 -95l89 -141v-471q0 -37 5.5 -68.5t20 -55t38.5 -36.5t61 -13h86v-79h-89 q-55 0 -94 16.5t-65 48.5t-37.5 78t-11.5 104v463z" />
<glyph unicode="&#xe17;" horiz-adv-x="1178" d="M169 0v1134h89v-167q71 89 160 133.5t190 44.5q93 0 168.5 -28.5t127 -82.5t79.5 -131.5t28 -176.5v-726h-90v726q0 80 -22 141.5t-63 104.5t-101 66q-61 22 -135 22q-63 0 -123.5 -23t-109.5 -64t-79 -100t-30 -130v-743h-89z" />
<glyph unicode="&#xe18;" horiz-adv-x="1087" d="M129 867q0 63 29.5 114.5t81.5 87t124 56t155 20.5q110 0 206.5 -28t170.5 -79l-60 -58q-69 43 -145.5 66t-171.5 23q-68 0 -123.5 -14t-95.5 -40t-62 -63t-22 -85q0 -86 60.5 -131.5t186.5 -55.5l185 -17q66 -5 123.5 -26t100 -59t66.5 -95t24 -138q0 -79 -29 -145 t-85 -114t-138.5 -74t-187.5 -26q-41 0 -83 7t-81.5 20.5t-74.5 35.5t-61 51t-41 66t-15 81v224h89v-222q0 -43 22.5 -77.5t59 -58.5t84.5 -36.5t98 -12.5q87 0 152.5 20.5t110.5 57.5t68 88.5t23 114.5q0 48 -14 88.5t-42 71.5t-71 50.5t-101 25.5l-190 19q-162 16 -244 82 t-82 185z" />
<glyph unicode="&#xe19;" horiz-adv-x="1178" d="M169 407v727h89v-727q0 -80 21.5 -141.5t63.5 -104.5t101.5 -65.5t133.5 -22.5q62 0 123 23t110 65t79 100q31 57 31 128v745h90v-1134h-90v166q-72 -89 -161 -133t-190 -44q-93 0 -168 29t-127 82t-79 131.5t-27 175.5z" />
<glyph unicode="&#xe1a;" horiz-adv-x="1178" d="M169 404v730h89v-730q0 -82 22.5 -145t64 -105.5t103.5 -64.5t141 -22q80 0 141.5 22.5t103 65t64.5 105.5t23 144v730h90v-730q0 -100 -31.5 -178t-87.5 -131.5t-133 -81t-170 -27.5q-99 3 -176 30.5t-131.5 79t-83.5 128.5t-29 180z" />
<glyph unicode="&#xe1b;" horiz-adv-x="1178" d="M169 404v730h89v-730q0 -82 22.5 -145t64 -105.5t103.5 -64.5t141 -22q80 0 141.5 22.5t103 65t64.5 105.5t23 144v1273h90v-1273q0 -100 -31.5 -178t-87.5 -131.5t-133 -81t-170 -27.5q-99 3 -176 30.5t-131.5 79t-83.5 128.5t-29 180z" />
<glyph unicode="&#xe1c;" horiz-adv-x="1208" d="M169 384v457q0 66 15.5 121t47.5 92.5t81 58.5t114 21h89v-82h-89q-86 0 -127.5 -54.5t-41.5 -156.5v-457q0 -58 10 -103t30.5 -81.5t51.5 -64.5t73 -50l150 156q13 15 32.5 15t34.5 -15l149 -156q41 22 71 48t51 62.5t30 82.5q10 45 10 106v750h90v-750 q0 -69 -16.5 -132t-50 -115t-85 -90.5t-123.5 -57.5l-163 180l-162 -180q-67 19 -118.5 55.5t-85.5 88t-51 114.5t-17 137z" />
<glyph unicode="&#xe1d;" horiz-adv-x="1208" d="M169 384v457q0 66 15.5 121t47.5 92.5t81 58.5t114 21h89v-82h-89q-86 0 -127.5 -54.5t-41.5 -156.5v-457q0 -58 10 -103t30.5 -81.5t51.5 -64.5t73 -50l150 156q13 15 32.5 15t34.5 -15l149 -156q41 22 71 48t51 62.5t30 82.5q10 45 10 106v1293h90v-1293 q0 -69 -16.5 -132t-50 -115t-85 -90.5t-123.5 -57.5l-163 180l-162 -180q-67 19 -118.5 55.5t-85.5 88t-51 114.5t-17 137z" />
<glyph unicode="&#xe1e;" horiz-adv-x="1464" d="M104 1134h93l145 -1033l354 1033h73l353 -1033l147 1033h93l-181 -1134h-99l-350 993l-351 -993h-100z" />
<glyph unicode="&#xe1f;" horiz-adv-x="1464" d="M104 1134h93l145 -1033l354 1033h73l353 -1033l233 1576h93l-267 -1677h-99l-350 993l-351 -993h-100z" />
<glyph unicode="&#xe20;" horiz-adv-x="1239" d="M99 79q46 3 73.5 21t41 44t18 56t4.5 55v452l-102 148q82 145 201 216q117 72 281 72q116 0 201.5 -30.5t142.5 -86t84 -137t27 -185.5v-704h-89v704q0 95 -26.5 162.5t-74.5 111.5t-116 65q-69 20 -151 20q-50 0 -100 -9.5t-98.5 -33.5t-95 -63t-87.5 -99l90 -146v-457 q0 -80 -21 -128.5t-52.5 -76.5t-68 -39t-66.5 -14z" />
<glyph unicode="&#xe21;" horiz-adv-x="1178" d="M169 0v1134h89v-745q0 -45 13.5 -85.5t38 -76t57.5 -64.5t71.5 -48.5t79.5 -30.5t82 -11q74 0 134.5 22.5t101.5 65.5t63 105.5t22 140.5v727h90v-727q0 -99 -28 -176.5t-79.5 -130.5t-127 -82t-168.5 -29q-101 0 -189 44q-90 44 -161 133v-166h-89z" />
<glyph unicode="&#xe22;" horiz-adv-x="1159" d="M107 332q0 38 7 77.5t28 76.5t58.5 68.5t96.5 53.5q-57 17 -94 44.5t-58.5 59t-29.5 67t-8 68.5q0 65 17 118.5t50 90.5t81 57.5t109 20.5h137v-82h-131q-88 0 -130 -51q-43 -53 -43 -154q0 -95 75 -149q73 -54 229 -55v-70q-80 -2 -137.5 -18.5t-94.5 -47t-54.5 -76 t-17.5 -102.5q0 -52 23.5 -100t68.5 -84.5t111 -58.5t148 -22q101 0 168.5 27.5t108.5 77.5t58.5 121.5t17.5 158.5v685h90v-685q0 -109 -24 -195.5t-76.5 -146.5t-137 -91.5t-205.5 -31.5q-96 0 -166.5 19t-119 49t-79 68.5t-48 77.5t-23 74t-5.5 60z" />
<glyph unicode="&#xe23;" horiz-adv-x="934" d="M73 134l61 66q33 -33 66 -58.5t71.5 -42.5t83.5 -26t103 -9q80 0 137 20t93.5 53.5t53 78t16.5 96.5q0 55 -17.5 93t-47.5 63t-72.5 41.5t-93.5 28.5l-91 24q-73 18 -132.5 41.5t-101.5 57.5t-64.5 78.5t-22.5 104.5q0 63 22 118t64.5 95t107 64t149.5 24q49 0 94 -8 t85 -22t75.5 -33.5t68.5 -43.5l-63 -58q-30 21 -57.5 38.5t-57 28.5t-64.5 16.5t-81 5.5q-65 0 -112 -16.5t-78.5 -47t-46.5 -71.5t-15 -90q0 -44 16 -75.5t46.5 -55t73.5 -38.5q44 -16 96 -30l110 -29q64 -16 118.5 -38t94.5 -56t63 -85t23 -125q0 -65 -23.5 -124 t-72 -104.5t-122 -71.5t-171.5 -26q-66 0 -121 10.5t-101 29t-86 46.5q-40 27 -77 62z" />
<glyph unicode="&#xe24;" horiz-adv-x="1189" d="M88 858q82 145 200 216t282 71q115 0 200 -30t140.5 -85.5t83.5 -137t28 -185.5v-1128h-90v1128q0 93 -25.5 161.5t-73 112.5t-114.5 64q-67 21 -152 21q-49 0 -100 -10.5t-100 -34.5t-95.5 -62t-86.5 -95l89 -141v-471q0 -37 5.5 -68.5t20 -55t38.5 -36.5t61 -13h86v-79 h-89q-55 0 -94 16.5t-65 48.5t-37.5 78t-11.5 104v463z" />
<glyph unicode="&#xe25;" horiz-adv-x="1143" d="M123 310q0 76 25.5 139t74 108.5t120 70.5t161.5 25h381v128q0 68 -19 121.5t-61 90t-105.5 55t-151.5 18.5q-58 0 -101.5 -7.5t-81.5 -24.5t-72 -43.5t-70 -64.5l-70 59q39 38 78.5 67.5t86 50t103 31.5t127.5 11q110 0 190.5 -24.5t132.5 -70.5t78 -113.5t26 -155.5 v-781h-90v575h-370q-77 0 -133 -18.5t-94.5 -52.5t-57 -82.5t-18.5 -109t16 -105.5t51.5 -76t91.5 -47t139 -17v-81q-84 3 -154.5 18t-122.5 52t-81 98.5t-29 155.5z" />
<glyph unicode="&#xe26;" horiz-adv-x="1239" d="M99 79q46 3 73.5 21t41 44t18 56t4.5 55v452l-102 148q82 145 201 216q117 72 281 72q116 0 201.5 -30.5t142.5 -86t84 -137t27 -185.5v-1125h-89v1125q0 95 -26.5 162.5t-74.5 111.5t-116 65q-69 20 -151 20q-50 0 -100 -9.5t-98.5 -33.5t-95 -63t-87.5 -99l93 -146 v-457q0 -52 -10 -91t-26.5 -67.5t-38 -47.5t-45.5 -30t-47 -15.5t-44 -6.5z" />
<glyph unicode="&#xe27;" horiz-adv-x="926" d="M56 940q26 46 64 84.5t83.5 64.5t97.5 41t109 15q93 0 167 -32.5t124.5 -91t77.5 -140.5t27 -182v-261q0 -90 -23 -172t-71.5 -143t-123 -97.5t-178.5 -36.5q-44 0 -87.5 8t-82.5 24t-73 40t-60 57l59 59q22 -28 48.5 -47.5t58 -33.5t66.5 -20t71 -6q78 0 135.5 29.5 t95 80t56.5 117.5q18 67 18 141v261q0 74 -16.5 141t-53.5 116.5t-94.5 78t-140.5 28.5q-44 0 -86 -11t-79 -31.5t-67 -50.5t-49 -69z" />
<glyph unicode="&#xe28;" horiz-adv-x="1205" d="M169 0v726q2 104 33 183.5t87 131.5t136 78q79 26 181 26q82 0 150.5 -19t121.5 -55l210 220l63 -59l-208 -210q49 -52 75 -127.5t26 -168.5v-726h-90v704q0 93 -23.5 161.5t-68.5 112.5t-109.5 64.5t-146.5 20.5q-83 0 -147 -20.5t-108.5 -64.5t-68.5 -112.5t-24 -161.5 v-115q30 30 69.5 46t95.5 16h185v-70h-161q-55 0 -91.5 -14t-57.5 -40t-30.5 -65.5t-9.5 -91.5v-370h-89z" />
<glyph unicode="&#xe29;" horiz-adv-x="1211" d="M169 404v730h89v-730q0 -82 22.5 -145t64 -105.5t103.5 -64.5t141 -22q80 0 141.5 22.5t103 65t64.5 105.5t23 144v191h-217q-27 0 -54.5 6t-49.5 24.5t-37 52t-15 88.5h81q0 -22 3.5 -40t12 -31.5t24 -21t38.5 -7.5h214v468h90v-468h145v-71h-145v-191 q0 -100 -31.5 -178t-87.5 -131.5t-133 -81t-170 -27.5q-99 3 -176 30.5t-131.5 79t-83.5 128.5t-29 180z" />
<glyph unicode="&#xe2a;" horiz-adv-x="1143" d="M123 310q0 76 25.5 139t74 108.5t120 70.5t161.5 25h381v128q0 68 -19 121.5t-61 90t-105.5 55t-151.5 18.5q-58 0 -101.5 -7.5t-81.5 -24.5t-72 -43.5t-70 -64.5l-70 59q39 38 78.5 67.5t86 50t103 31.5t127.5 11q184 0 285 -68l204 214l59 -59l-203 -204 q41 -44 61.5 -107t20.5 -140v-781h-90v575h-370q-77 0 -133.5 -18.5t-95 -52.5t-57.5 -82.5t-19 -109t15.5 -105.5t52 -76t93 -47t139.5 -17v-81q-84 3 -154.5 18t-122.5 52t-81 98.5t-29 155.5z" />
<glyph unicode="&#xe2b;" horiz-adv-x="1178" d="M169 0v1134h89v-586l712 595l58 -72l-242 -198q58 -28 100.5 -69t70 -91t40.5 -108q14 -60 14 -120v-485h-90v485q0 62 -14 116t-38.5 96.5t-61.5 72.5t-86 47l-463 -381v-436h-89z" />
<glyph unicode="&#xe2c;" horiz-adv-x="1478" d="M104 1134h93l145 -1033l354 1033h73l353 -1033l110 780q11 82 -27 130t-131 52v71h82q40 0 71.5 12t55 31.5t39 46.5t22.5 56l23 85h92l-34 -116q-11 -35 -27 -62.5t-38.5 -48t-50.5 -37.5q-27 -16 -62 -30q27 -16 43.5 -39.5t24 -49.5t8 -53.5t-4.5 -50.5l-137 -878h-99 l-350 993l-351 -993h-100z" />
<glyph unicode="&#xe2d;" horiz-adv-x="1111" d="M126 651h390v-70h-302v-68.5t2.5 -71t6.5 -66t10 -52.5q14 -50 41 -97t68.5 -81.5t95.5 -56.5q55 -21 121 -21q67 0 119 20t91 54t65 82t43.5 103t25 116.5t7.5 124.5q0 59 -7 118.5t-23.5 115t-44.5 104.5t-71 84.5t-102 56t-137 20.5q-50 0 -90 -7t-78.5 -23.5 t-74.5 -41.5q-35 -25 -74 -62l-66 59q42 39 84.5 69.5t87.5 49.5t98.5 28.5t117.5 9.5q114 0 201.5 -37t146.5 -111t90 -182t31 -251q0 -135 -30.5 -243t-87 -183t-138.5 -115q-80 -40 -184 -40q-77 0 -142.5 23t-117.5 64.5t-90 99.5q-39 59 -58 130q-9 27 -13 67.5 t-6.5 88.5t-4 97.5t-1.5 94.5z" />
<glyph unicode="&#xe2e;" horiz-adv-x="1111" d="M126 651h390v-70h-302v-68.5t2.5 -71t6.5 -66t10 -52.5q14 -50 41 -97t68.5 -81.5t95.5 -56.5q55 -21 121 -21q67 0 118.5 19t90.5 53.5t65.5 82t42.5 102.5t23 117q8 63 8 126q0 59 -7 118.5t-23.5 115t-43.5 104.5t-69.5 84.5t-101.5 56t-137 20.5q-50 0 -90 -7 t-78.5 -23.5t-74.5 -41.5q-35 -25 -74 -62l-66 59q42 39 84.5 69.5t87.5 49.5t98.5 28.5t117.5 9.5q77 0 141 -18q66 -20 118 -53l215 225l59 -58l-214 -214q74 -74 112 -189t38 -274q0 -135 -30.5 -243t-87 -183t-138.5 -115q-80 -40 -184 -40q-77 0 -142.5 23t-117.5 64.5 t-90 99.5q-39 59 -58 130q-9 27 -13 67.5t-6.5 88.5t-4 97.5t-1.5 94.5z" />
<glyph unicode="&#xe2f;" horiz-adv-x="1146" d="M137 827q0 66 16.5 122.5t48 97.5t81 64t113.5 23h89v-82h-70q-53 0 -89.5 -16.5t-57.5 -45t-31 -70.5t-10 -93q0 -72 21 -129t62 -96t101 -59.5t140 -20.5q67 0 128 24.5t107.5 69t74.5 106.5t28 136v276h91v-1134h-91v616q-25 -38 -64 -69.5t-84 -54.5t-94.5 -35.5 t-95.5 -12.5q-95 0 -171.5 26t-130.5 75.5t-83 120.5t-29 161z" />
<glyph unicode="&#xe30;" horiz-adv-x="642" d="M96 389h81q0 -52 21 -76t57 -24h270v-73h-273q-27 0 -54.5 7t-49.5 27t-37 53.5t-15 85.5zM96 937h81q0 -52 21 -76.5t57 -24.5h270v-73h-273q-27 0 -54.5 7.5t-49.5 27t-37 53.5t-15 86z" />
<glyph unicode="&#xe31;" d="M-625 1562h82q0 -52 21 -74.5t56 -22.5h511v-76h-514q-27 0 -54.5 7.5t-50 27t-37 53t-14.5 85.5z" />
<glyph unicode="&#xe32;" horiz-adv-x="813" d="M19 1011q43 69 117.5 101.5t181.5 32.5q164 0 245.5 -93t81.5 -263v-789h-89v784q0 64 -12 115.5t-41 88.5t-74 57.5t-111 20.5q-80 0 -138.5 -24.5t-94.5 -79.5z" />
<glyph unicode="&#xe33;" horiz-adv-x="813" d="M-399 1537q0 39 14.5 71.5t39 57.5t57.5 40t72 15q37 0 69.5 -15t56.5 -40t39 -57.5t15 -71.5q0 -37 -15 -69t-39 -57t-56 -39t-70.5 -14t-71.5 14t-57.5 39t-39 57t-14.5 69zM-323 1537q0 -23 8 -41.5t22.5 -32.5t34.5 -22t42 -8q23 0 43 8t33.5 22t21.5 33t8 41 q0 25 -8 44t-21.5 33.5t-33 22t-43.5 7.5t-43 -7.5t-33.5 -22t-22.5 -33.5t-8 -44zM19 1011q43 69 117.5 101.5t181.5 32.5q164 0 245.5 -93t81.5 -263v-789h-89v784q0 64 -12 115.5t-41 88.5t-74 57.5t-111 20.5q-80 0 -138.5 -24.5t-94.5 -79.5z" />
<glyph unicode="&#xe34;" d="M-1011 1386v79h842v-79h-842z" />
<glyph unicode="&#xe35;" d="M-1011 1386v79h756v204h86v-283h-842z" />
<glyph unicode="&#xe36;" d="M-1007 1386v79h544q-6 5 -11.5 15.5t-10.5 22.5t-8 26t-3 25q0 35 13 66.5t35.5 55t53.5 36.5q30 14 65.5 14t67 -13.5t54.5 -37t37 -55t14 -67t-14 -65.5t-37 -53t-54.5 -36t-67.5 -13h-678zM-418 1553.5q0 -19.5 7.5 -35.5t20 -28t29 -18.5t32.5 -6.5q19 0 37 6.5 t31 18.5t20.5 28t7.5 35.5t-7.5 37t-20.5 30t-30 19.5q-19 7 -38 7q-18 0 -33.5 -7t-28 -19.5t-20 -30t-7.5 -37z" />
<glyph unicode="&#xe37;" d="M-1011 1386v79h529v204h86v-204h141v204h86v-283h-842z" />
<glyph unicode="&#xe38;" d="M-375 -182h33q49 0 82 -6.5t53.5 -26t29 -55.5t8.5 -94v-158h-86v158q0 37 -4 58t-13.5 32t-27.5 13.5t-48 2.5h-27v76z" />
<glyph unicode="&#xe39;" d="M-656 -182h53q36 0 59 -7.5t38.5 -22.5t20.5 -40t5 -60v-28q0 -18 5.5 -37.5t18 -36t34.5 -27.5t55 -11t55 11t34 27.5t17.5 36t5.5 37.5v158h86v-158q0 -41 -15 -74.5t-41.5 -57.5t-62.5 -37q-35 -13 -79 -13q-47 0 -84 13t-61.5 37t-38 57.5t-13.5 74.5q0 25 -1.5 41.5 t-6.5 26t-14 13.5t-25 4h-45v73z" />
<glyph unicode="&#xe3a;" d="M-295 -260q0 16 6.5 30t17.5 24.5t25 17.5q13 6 30 6q16 0 29.5 -6.5t24.5 -17t18 -25.5q7 -13 7 -29q0 -17 -7 -31.5t-18 -24.5t-24.5 -17t-29.5 -7q-17 0 -30.5 7t-24.5 17t-17.5 24.5t-6.5 31.5z" />
<glyph unicode="&#xe3e;" />
<glyph unicode="&#xe3f;" horiz-adv-x="1293" d="M197 0v1417h403v142h93v-142h17q89 0 165.5 -25t132.5 -71t88.5 -113.5t32.5 -155.5q0 -51 -12.5 -99.5t-40 -91t-70 -76.5t-102.5 -59q67 -22 114.5 -55t77.5 -78t44 -98.5t14 -113.5q0 -95 -30.5 -166t-86.5 -119t-135.5 -72t-178.5 -24h-30v-151h-93v151h-403zM289 79 h311v603h-311v-603zM289 769h311v569h-311v-569zM693 79h19q80 0 144.5 21t111 60t71 94.5t24.5 126.5t-24.5 126.5t-71 94.5t-111 59.5t-144.5 20.5h-19v-603zM693 769h3q68 0 131 15.5t110 50t74 87.5t27 130q0 74 -28 127.5t-74 89t-104.5 52.5t-121.5 17h-17v-569z" />
<glyph unicode="&#xe40;" horiz-adv-x="495" d="M169 249v885h89v-882q0 -37 5.5 -68t19 -54t36.5 -35.5t59 -12.5h88v-82h-91q-54 0 -93.5 17t-64.5 49.5t-36.5 79t-11.5 103.5z" />
<glyph unicode="&#xe41;" horiz-adv-x="1031" d="M169 249v885h89v-882q0 -37 5.5 -68t19 -54t36.5 -35.5t59 -12.5h88v-82h-91q-54 0 -93.5 17t-64.5 49.5t-36.5 79t-11.5 103.5zM704 249v885h91v-882q0 -37 4.5 -68t17.5 -54t36.5 -35.5t61.5 -12.5h86v-82h-89q-54 0 -94 17t-64.5 49.5t-37 79t-12.5 103.5z" />
<glyph unicode="&#xe42;" horiz-adv-x="557" d="M22 1614l16 57h594v-68h-413q36 -33 55 -68.5t30 -70.5t14 -66t3 -54v-1089q0 -39 3 -70.5t17.5 -55.5t42 -37t76.5 -13h67v-79h-89q-57 0 -97 19t-64.5 52.5t-35.5 79.5t-11 101v1095q0 57 -13.5 104.5t-40.5 83t-66 56t-88 23.5z" />
<glyph unicode="&#xe43;" horiz-adv-x="557" d="M19 1482q11 50 40 89.5t67 65.5t82 40.5t87 14.5q67 0 117.5 -16t84 -46.5t50.5 -74t17 -96.5q0 -33 -10.5 -62.5t-27 -58t-38.5 -55.5t-44.5 -52t-44.5 -48.5t-40 -45.5q-14 -16 -22 -31t-11.5 -30.5t-4 -31.5t-0.5 -33v-756q0 -39 3 -70.5t17.5 -55.5t42 -37t76.5 -13 h67v-79h-89q-57 0 -97 19t-64.5 52.5t-35.5 79.5t-11 101v752q0 22 1.5 42t7 40.5t19 44t39.5 53.5q30 37 62.5 71t58.5 67.5t44 67t18 69.5q0 45 -15.5 75.5t-41.5 47.5t-59.5 24.5t-68.5 7.5q-26 0 -55 -8.5t-56.5 -24.5t-49.5 -45t-35 -71z" />
<glyph unicode="&#xe44;" horiz-adv-x="578" d="M-41 1603v68h571l18 -57q-52 -3 -91 -23.5t-65 -56t-39 -83.5t-13 -104v-1092q0 -39 4 -70.5t17.5 -55.5t41 -37t77.5 -13h68v-79h-88q-57 0 -97.5 19t-66 52.5t-36.5 79.5t-11 101v1092q0 23 3.5 54.5t14 66t31 70t53.5 68.5h-392z" />
<glyph unicode="&#xe45;" horiz-adv-x="813" d="M19 1011q43 69 117.5 101.5t181.5 32.5q164 0 245.5 -93t81.5 -263v-1212h-89v1207q0 64 -12 115.5t-41 88.5t-74 57.5t-111 20.5q-80 0 -138.5 -24.5t-94.5 -79.5z" />
<glyph unicode="&#xe46;" horiz-adv-x="1135" d="M132 860q0 59 10.5 105t34.5 80.5t63 57.5t97 40l222 -184l215 184q40 -11 75.5 -31t61.5 -48t41 -65t15 -84v-1338h-89v1335q0 22 -2 41.5t-11.5 37t-26 32.5t-43.5 29l-211 -171q-11 -8 -25.5 -8t-25.5 8l-210 171q-23 -11 -43 -22t-34 -31.5t-22 -52.5q-8 -34 -8 -86 q0 -35 1.5 -68t14 -59t40 -41t79.5 -15v-71h-17q-44 0 -81.5 12t-64 42t-41.5 79q-15 47 -15 121z" />
<glyph unicode="&#xe47;" d="M-1017 1606q0 38 16 76.5t45 68.5t70 51q39 20 91 21h603v-80h-603q-35 0 -60 -14t-40.5 -35t-23 -45t-7.5 -43q0 -22 7.5 -44t20.5 -40.5t29.5 -34.5t35.5 -25l180 107q13 8 28 7.5t30 -7.5l185 -107q18 9 33 21.5t25 30.5t13 40t-1 52h91q4 -43 -7 -82t-35 -70.5 t-58.5 -53.5t-77.5 -30l-198 126l-200 -123q-41 11 -75 30t-60 48t-41.5 67t-15.5 88z" />
<glyph unicode="&#xe48;" d="M-255 1839v202h86v-202h-86z" />
<glyph unicode="&#xe49;" d="M-482 1839v60q13 1 24 4q11 1 22 3q11 1 21 4q14 3 28 11t26.5 21.5t20.5 33t8 43.5q0 43 -26 67q-28 24 -80 24v74q87 -3 138 -38.5t51 -111.5q0 -26 -11 -60t-43 -67h370v-68h-549z" />
<glyph unicode="&#xe4a;" d="M-732 2000q0 39 11 69t27.5 53t37.5 39q23 17 42 28q6 3 14 5.5t19 2.5t22 -3q11 -2 23 -13l106 -96l93 99q8 9 18.5 12t20.5 2t19 -3q10 -3 16 -6q22 -11 43 -26.5t38.5 -38t28.5 -53.5t11 -71v-98h164v-63h-244v161q0 33 -8 55.5t-20 37t-25 23t-22 10.5l-99 -107 q-27 -33 -62 0l-120 110q-38 -15 -56.5 -47t-18.5 -71q0 -22 7.5 -42.5t21 -37t34 -26t45.5 -9.5v-66h-3q-42 0 -76 15t-58.5 40t-37 55t-12.5 60z" />
<glyph unicode="&#xe4b;" d="M-421 1989v70h172v158h80v-158h172v-70h-172v-150h-80v150h-172z" />
<glyph unicode="&#xe4c;" d="M-255 1671q0 55 15 88.5t37 51.5t49.5 24t54.5 6h178v-74h-175q-25 0 -40 -5.5t-24 -17.5t-11.5 -30t-2.5 -43h-81z" />
<glyph unicode="&#xe4d;" d="M-399 1537q0 39 14.5 71.5t39 57.5t57.5 40t72 15q37 0 69.5 -15t56.5 -40t39 -57.5t15 -71.5q0 -37 -15 -69t-39 -57t-56 -39t-70.5 -14t-71.5 14t-57.5 39t-39 57t-14.5 69zM-323 1537q0 -23 8 -41.5t22.5 -32.5t34.5 -22t42 -8q23 0 43 8t33.5 22t21.5 33t8 41 q0 25 -8 44t-21.5 33.5t-33 22t-43.5 7.5t-43 -7.5t-33.5 -22t-22.5 -33.5t-8 -44z" />
<glyph unicode="&#xe4e;" d="M-263 1389q0 47 9 77t23.5 48t35 24.5t44.5 6.5q0 40 14 62.5t34.5 32t45 11t46.5 1.5h88v-72h-74q-26 0 -41 -3.5t-22.5 -14t-10 -27.5t-2.5 -44h-56q-16 0 -25 -8.5t-14 -22t-5.5 -32t-0.5 -39.5h-89z" />
<glyph unicode="&#xe4f;" horiz-adv-x="1443" d="M145 562q0 79 20.5 151.5t57.5 136.5t89 116.5t115 89.5t135 57.5t150 20.5q80 0 153 -20.5t137 -57.5t116 -89.5t89 -116.5t57.5 -136.5t20.5 -151.5q0 -77 -20.5 -149.5t-57.5 -135.5t-89 -115t-116 -89t-137 -57.5t-153 -20.5q-76 0 -149 20.5t-136 57.5t-115 89 t-89 115t-57.5 135t-20.5 150zM241 562q0 -66 16.5 -126.5t47.5 -112.5t74 -95.5t95 -74t112.5 -47t125.5 -16.5q68 0 128.5 16.5t114 47t97 74t74 95.5t47 112.5t16.5 126.5q0 100 -37 187t-101.5 151t-151.5 101t-187 37q-98 0 -183.5 -37t-149.5 -101t-101 -151t-37 -187 zM410 562q0 63 24 118.5t65 97t96.5 65.5t116.5 24q63 0 119.5 -24t97.5 -65.5t65.5 -97t24.5 -118.5q0 -62 -24.5 -117.5t-65.5 -96.5t-97.5 -65.5t-119.5 -24.5q-61 0 -116.5 24.5t-96.5 65.5t-65 96.5t-24 117.5zM501 562q0 -44 17.5 -82.5t45.5 -67t66.5 -45t82 -16.5 t82.5 16.5t68.5 45t46 67t16.5 82.5t-16.5 82t-46 67t-68.5 46t-82.5 17t-82 -17t-66.5 -46t-45.5 -67t-17.5 -82z" />
<glyph unicode="&#xe50;" horiz-adv-x="1306" d="M129 485q0 103 34 194t101.5 158t165 106t223.5 39q127 0 224.5 -39t165 -106t101.5 -157.5t34 -194.5t-34 -194.5t-101.5 -158.5t-165 -107t-224.5 -39q-126 0 -223.5 39t-165 107t-101.5 158.5t-34 194.5zM222 485q0 -90 31.5 -167t87.5 -133t136.5 -89.5t176 -33.5 t176 33.5t137 89.5t87.5 134q31 76 31 166q0 88 -31 164.5t-87.5 132.5t-136 87.5t-177.5 34.5q-95 -1 -175.5 -33.5t-136.5 -88.5t-88 -132q-31 -77 -31 -165z" />
<glyph unicode="&#xe51;" horiz-adv-x="1239" d="M99 482q0 113 39.5 204.5t109.5 157.5t166 102t208 36q119 0 215.5 -39t164 -111.5t104.5 -172.5t37 -223q0 -118 -29.5 -212.5t-81 -170t-124 -134.5t-159.5 -104l-42 64q79 46 142 100t108.5 121t70 150.5t24.5 187.5q0 107 -33.5 193t-91.5 146t-136.5 92t-168.5 35 q-85 -1 -161.5 -31t-135.5 -85t-94.5 -132.5t-35.5 -173.5q0 -182 82 -273t248 -97l2 -85q-115 0 -196.5 35t-133.5 96t-75 144.5t-23 179.5z" />
<glyph unicode="&#xe52;" horiz-adv-x="1349" d="M112 415v876h94v-873q0 -66 20.5 -117.5t56 -91t84.5 -68.5t105.5 -46.5t116 -26t118.5 -9.5q60 0 117 9t107.5 26.5t94 46.5t73.5 68.5t47.5 91.5t17.5 117v182q0 49 -10.5 96t-32.5 85t-53.5 65.5t-74.5 42.5l-146 -155q-36 -35 -63 0l-147 155q-57 -22 -91 -62.5 t-50 -97.5l-84 31q14 44 38 81t55 66t68 48.5t78 32.5l163 -177l161 177q72 -22 124 -60t86 -88.5t52 -110.5t18 -129v-182q0 -112 -41 -194t-113.5 -134t-173.5 -76.5t-220 -24.5t-226.5 24.5t-190 76t-130.5 132.5t-48 193z" />
<glyph unicode="&#xe53;" horiz-adv-x="1326" d="M96 485q0 85 23 161.5t63 141t95 114t115 80.5l271 -219l269 219q63 -31 117 -79.5t94.5 -112.5t64.5 -139.5t24 -162.5q0 -84 -14.5 -156t-39 -133.5t-56 -112t-67.5 -91.5l-73 41q26 35 53.5 80.5t51 100t38.5 121.5q15 65 15 147q0 60 -15 119t-42.5 110.5t-64.5 92 t-81 66.5l-241 -196q-34 -30 -67 0l-243 196q-35 -25 -71 -65.5t-64 -92t-45 -109.5q-18 -61 -18 -121q0 -85 19 -159.5t58 -131t99.5 -90t139.5 -37.5v-75q-74 3 -133 23.5t-104 56.5t-78 83.5t-53.5 102t-30 112t-9.5 115.5z" />
<glyph unicode="&#xe54;" horiz-adv-x="1391" d="M96 485q0 103 28.5 191t88.5 153.5t149 101.5q90 36 208 36h527l199 200l59 -56l-218 -222h-567q-90 -1 -161 -31.5t-120 -83.5t-75 -127t-26 -162q0 -90 26 -165.5t75 -130.5t120 -85.5t161 -30.5h277q-72 61 -106 129.5t-34 142.5q0 55 20.5 105.5t61 87.5t100.5 59 q62 22 141 22h17v-76h-6q-63 2 -109.5 -14.5t-76.5 -44.5t-44 -65t-14 -77q0 -49 18 -97t52 -87.5t86.5 -63.5t117.5 -24h118v-70h-619q-118 0 -207.5 37t-149.5 101.5t-88.5 153.5t-28.5 193z" />
<glyph unicode="&#xe55;" horiz-adv-x="1391" d="M99 485q0 103 28.5 191t88 153.5t148.5 101.5t209 36h104q-15 22 -23.5 46.5t-8.5 55.5q0 38 14.5 71t39 57.5t57.5 39.5t71 15q37 0 69.5 -15t57 -39.5t39 -57.5t14.5 -71q0 -28 -9 -54t-25 -48h127l199 200l59 -56l-218 -222h-567q-91 -1 -161.5 -31.5t-119 -83.5 t-74.5 -127t-26 -162q0 -90 26 -165.5t74.5 -130.5t119 -85.5t161.5 -30.5h276q-71 61 -105 129.5t-34 142.5q0 55 20.5 105.5t61 87.5t100.5 59q62 22 141 22h16v-76h-5q-63 2 -109.5 -14.5t-77 -44.5t-44 -65t-13.5 -77q0 -49 18 -97t52 -87.5t86 -63.5t118 -24h118v-70 h-619q-120 0 -209 37t-148.5 101.5t-88 153.5t-28.5 193zM715 1069q0 -24 9 -43.5t24.5 -35t35.5 -23.5t43 -8q24 0 43.5 8t35.5 23.5t25 36t9 42.5q0 24 -9 44.5t-25 35.5t-35.5 23.5t-43.5 8.5q-23 0 -43 -8.5t-35.5 -23.5t-24.5 -35.5t-9 -44.5z" />
<glyph unicode="&#xe56;" horiz-adv-x="1349" d="M45 1111l62 59l266 -269q27 14 66 28.5t84.5 27t96.5 20.5t103 8q135 0 233.5 -39t164 -107.5t98.5 -159t33 -194.5t-33 -194.5t-98.5 -156.5t-164.5 -104q-101 -38 -233 -38q-107 0 -192.5 26t-146.5 71t-96.5 107t-43.5 133v-3q-6 58 5 100.5t31.5 71.5t44 47.5 t42.5 29.5l45 -74q-13 -9 -28 -21.5t-25.5 -32.5t-16 -48.5t-3 -69.5t20.5 -76t47 -63t66 -50t79.5 -37t86 -22.5t84.5 -7.5q104 0 186.5 30.5t137 85.5t83.5 131q29 75 29 165q0 88 -29 164.5t-85 132.5t-137 89t-185 33q-60 0 -112.5 -9.5t-98.5 -24.5t-84.5 -34 t-68.5 -39z" />
<glyph unicode="&#xe57;" horiz-adv-x="1379" d="M96 458q0 101 27.5 182t72.5 145t104 113.5t121 83.5l253 -222l252 222q19 -9 42.5 -24t48 -34.5t48.5 -42.5t45.5 -48.5t38.5 -52.5q18 -29 29 -57v466h91v-729q0 -85 -20.5 -159t-50 -133.5t-64.5 -103.5q-35 -45 -63 -72l-75 44q26 30 57.5 69.5t59 91t45 116.5 t17.5 145q0 67 -21.5 130t-57.5 117t-78.5 97t-83.5 71l-227 -196q-17 -15 -34.5 -16t-32.5 16l-228 198q-38 -31 -77 -71t-72 -90t-54 -113.5t-21 -142.5q0 -94 24 -165t67.5 -119.5t102.5 -75.5t128 -28v-78q-74 3 -133 22t-105.5 52t-79.5 77.5t-55 95.5t-31.5 106.5 t-9.5 112.5z" />
<glyph unicode="&#xe58;" horiz-adv-x="1343" d="M96 490q0 59 11 117.5t34 112t60 98.5t86.5 78.5t112.5 52t143 18.5h526l194 200l60 -59l-209 -219h-571q-84 -1 -150 -30.5t-111.5 -82.5t-69.5 -125.5t-24 -160.5q0 -67 18.5 -125t48.5 -107.5t69 -88.5q39 -37 80 -68l233 194q33 30 67 0l233 -196q33 17 62 40.5 t50 53t32.5 66.5t11.5 81q0 33 -6.5 60t-20.5 49t-32.5 38.5t-40.5 28.5l26 76q39 -14 69 -37t52 -54.5t33 -73t11 -90.5q0 -58 -15 -106.5t-45.5 -90t-77.5 -78.5t-112 -70l-263 224l-261 -221q-63 31 -120 81t-101 113t-68.5 140t-24.5 161z" />
<glyph unicode="&#xe59;" horiz-adv-x="1500" d="M96 485q0 103 33 194t96 158t154.5 106t209.5 39q126 0 224.5 -67.5t177.5 -196.5q2 55 18 102t46 80.5t75 51.5t110 18h208v-69h-208q-44 0 -74 -12t-50 -34t-32.5 -51t-18 -61.5t-6.5 -67.5q-1 -37 -1 -69l300 -570l-78 -39l-337 628q-39 72 -81.5 125t-87.5 87 t-91.5 50.5t-93.5 16.5q-90 0 -163.5 -33t-126 -89t-82.5 -132q-29 -77 -29 -165t28 -163t78.5 -130.5t122 -88t158.5 -36.5v-81q-115 3 -204 42.5t-150.5 107.5t-93 158t-31.5 191z" />
<glyph unicode="&#xe5a;" horiz-adv-x="1512" d="M137 827q0 66 16.5 122.5t48 97.5t81 64t113.5 23h89v-82h-70q-53 0 -89.5 -16.5t-57.5 -45t-31 -70.5t-10 -93q0 -72 21 -129t62 -96t101 -59.5t140 -20.5q67 0 128 24.5t107.5 69t74.5 106.5t28 136v276h86v-1134h-86v616q-25 -38 -64 -69.5t-84 -54.5t-94.5 -35.5 t-95.5 -12.5q-95 0 -171.5 26t-130.5 75.5t-83 120.5t-29 161zM1252 0v1134h92v-1134h-92z" />
<glyph unicode="&#xe5b;" horiz-adv-x="2479" d="M174 578q0 75 16.5 137.5t45 113.5t67 88t83 61.5t92.5 37t95 12.5q41 0 74.5 -8t59.5 -18.5t46 -24t36 -26.5l-60 -67q-39 33 -80 47t-82 14q-57 0 -112.5 -23t-99 -69.5t-69.5 -115t-26 -159.5q0 -109 38.5 -187.5t103 -127.5t147.5 -72q81 -22 172 -22q82 0 153 29 t128.5 78.5t99.5 116t66 140t28 149.5t-12 145l63 43q24 -25 51.5 -60t57.5 -76t60.5 -86t59 -88.5t54.5 -83.5t47 -72q15 25 33 56.5t35.5 65t34 67.5t31.5 65.5t27.5 58t20.5 43.5l48 11l126 -171h369v-67h-403l-100 138q-13 -27 -30 -62.5t-37 -74t-41.5 -78.5t-43.5 -77 t-42 -70q-20 -35 -36 -60q-17 30 -37.5 66t-43.5 75.5t-48.5 80.5t-51.5 81t-52 75.5t-51 65.5q-7 -89 -31 -168.5t-61.5 -146t-87.5 -120.5t-110.5 -91.5t-129 -57t-142.5 -19.5q-137 0 -240.5 37t-172 103t-102.5 155t-34 193z" />
<glyph unicode="&#x2000;" horiz-adv-x="1108" />
<glyph unicode="&#x2001;" horiz-adv-x="2217" />
<glyph unicode="&#x2002;" horiz-adv-x="1108" />
<glyph unicode="&#x2003;" horiz-adv-x="2217" />
<glyph unicode="&#x2004;" horiz-adv-x="739" />
<glyph unicode="&#x2005;" horiz-adv-x="554" />
<glyph unicode="&#x2006;" horiz-adv-x="369" />
<glyph unicode="&#x2007;" horiz-adv-x="369" />
<glyph unicode="&#x2008;" horiz-adv-x="277" />
<glyph unicode="&#x2009;" horiz-adv-x="443" />
<glyph unicode="&#x200a;" horiz-adv-x="123" />
<glyph unicode="&#x200b;" />
<glyph unicode="&#x2010;" horiz-adv-x="913" d="M182 545v77h550v-77h-550z" />
<glyph unicode="&#x2011;" horiz-adv-x="913" d="M182 545v77h550v-77h-550z" />
<glyph unicode="&#x2012;" horiz-adv-x="913" d="M182 545v77h550v-77h-550z" />
<glyph unicode="&#x2013;" horiz-adv-x="1135" d="M115 545v74h904v-74h-904z" />
<glyph unicode="&#x2014;" horiz-adv-x="1924" d="M182 545v74h1563v-74h-1563z" />
<glyph unicode="&#x2018;" horiz-adv-x="575" d="M222 1296v155l129 115v-270h-129z" />
<glyph unicode="&#x2019;" horiz-adv-x="575" d="M222 1211v271h129v-152z" />
<glyph unicode="&#x201c;" horiz-adv-x="919" d="M222 1296v155l129 115v-270h-129zM567 1296v155l129 115v-270h-129z" />
<glyph unicode="&#x201d;" horiz-adv-x="919" d="M222 1211v271h129v-152zM567 1211v271h129v-152z" />
<glyph unicode="&#x2022;" horiz-adv-x="1231" d="M375 573q0 49 19.5 93t52.5 76.5t76.5 52t92.5 19.5q50 0 94 -19.5t76.5 -52t52 -76.5t19.5 -93q0 -50 -19.5 -93.5t-52 -76.5t-76.5 -52t-94 -19q-49 0 -92.5 19t-76.5 52t-52.5 76.5t-19.5 93.5z" />
<glyph unicode="&#x202f;" horiz-adv-x="443" />
<glyph unicode="&#x205f;" horiz-adv-x="554" />
<glyph unicode="&#x20ac;" horiz-adv-x="1267" d="M45 553v79h150v254h-150v76h152q4 57 11.5 102.5t23 83.5t37 72t54.5 65q69 71 158 108t188 37q90 0 166.5 -26t137 -76.5t101.5 -124.5t60 -170h-87q-17 74 -51 134.5t-83.5 101.5t-111 63.5t-132.5 22.5q-80 0 -150 -30q-72 -29 -127 -78q-25 -28 -42.5 -56.5 t-30.5 -62t-21 -74t-12 -92.5h388v-76h-393v-254h393v-79h-393q0 -73 6 -129.5t19 -100.5t34.5 -78.5t51.5 -67.5q55 -58 126 -86.5t151 -28.5q72 0 134.5 23t111.5 65.5t85 102.5q36 59 52 133h82q-19 -93 -61.5 -167t-102.5 -126t-137 -79.5t-164 -27.5q-100 0 -191 38 q-89 36 -157 108q-39 37 -63.5 77t-38 89.5t-19 111t-5.5 143.5h-150z" />
<glyph unicode="&#x2122;" horiz-adv-x="1705" d="M82 1355v62h587v-62h-257v-769h-78v769h-252zM847 586v831h76l285 -550l285 550h76v-831h-76v691l-20 -45l-224 -426h-82l-224 426l-20 45v-691h-76z" />
<glyph unicode="&#x25cc;" horiz-adv-x="1574" d="M381 674l107 52q-6 -30 -6 -57.5t6 -49.5zM496 384l37 112q30 -47 75 -75zM510 959l106 -36q-43 -28 -73 -71zM732 970l57 107l49 -104q-24 2 -46 2q-33 0 -60 -5zM737 367q25 -5 55 -5q22 0 41 5l-44 -98zM962 923l118 36l-42 -110q-32 44 -76 74zM964 415q42 28 69 67 l27 -98zM1091 625q5 19 6 44q-1 24 -6 52l98 -52z" />
<glyph unicode="&#x25fc;" horiz-adv-x="1064" d="M0 0v1066h1066v-1066h-1066z" />
<glyph unicode="&#xf700;" horiz-adv-x="993" d="M8 915q25 55 63.5 97.5t88.5 72t111 45t130 15.5q77 0 142 -17.5t120 -53.5l221 228l59 -55l-222 -225q49 -51 76.5 -124t27.5 -172v-726h-91v370q0 52 -8 90.5t-30 65t-57.5 39.5t-90.5 13h-181v75h184q57 0 106 -15q47 -16 77 -46v134q0 80 -22 143t-63.5 106.5 t-104 67t-143.5 23.5q-49 0 -97 -11.5t-89 -34.5t-73 -57t-52 -79z" />
<glyph unicode="&#xf701;" d="M-1134 1386v79h716v-79h-716z" />
<glyph unicode="&#xf702;" d="M-1134 1386v79h630v212h86v-291h-716z" />
<glyph unicode="&#xf703;" d="M-1134 1386v79h438q-5 5 -10.5 15.5t-11 22.5t-8.5 26t-3 25q0 35 13 66.5t35.5 55t53.5 36.5q30 14 65.5 14t67 -13.5t55 -37t37 -55t13.5 -67t-13.5 -65.5t-37 -53t-55 -36t-67.5 -13h-572zM-651 1553.5q0 -19.5 7.5 -35.5t20 -28t29 -18.5t32.5 -6.5q19 0 37 6.5 t31 18.5t20.5 28t7.5 35.5t-7.5 37t-20.5 30t-30 19.5q-19 7 -38 7q-18 0 -33.5 -7t-28 -19.5t-20 -30t-7.5 -37z" />
<glyph unicode="&#xf704;" d="M-1134 1386v79h402v212h87v-212h141v212h86v-291h-716z" />
<glyph unicode="&#xf705;" d="M-629 1400v334h91v-334h-91z" />
<glyph unicode="&#xf706;" d="M-967 1400v62l66 11q13 2 28 11t27.5 23.5t20.5 34.5t8 46q0 83 -106 83v74q87 -2 138 -39t51 -111q0 -26 -11 -59.5t-44 -65.5h403v-70h-581z" />
<glyph unicode="&#xf707;" d="M-1038 1562q0 38 10.5 69t28 53.5t38.5 39t40 27.5q6 3 14 5.5t19 3t23 -2.5q13 -3 24 -14l107 -96l91 98q9 10 19 13.5t19.5 3.5t19.5 -3t15 -5q22 -11 44 -27.5t39 -39t27.5 -53.5t10.5 -72v-97h191v-65h-269v162q0 33 -8.5 56t-20 37.5t-25.5 22t-22 11.5l-98 -107 q-29 -33 -62 0l-121 110q-38 -16 -59 -51t-19 -72q0 -22 8.5 -41.5t23.5 -35t35 -24.5q21 -9 46 -9v-67q-44 0 -79 15t-59 39.5t-37.5 55t-13.5 60.5z" />
<glyph unicode="&#xf708;" d="M-841 1548v71h170v157h82v-157h171v-71h-171v-151h-82v151h-170z" />
<glyph unicode="&#xf709;" d="M-732 1400q0 55 15.5 88t37 50.5t49 24t55.5 6.5h176v-73h-176q-25 0 -40 -6t-23.5 -18t-11.5 -29.5t-3 -42.5h-79z" />
<glyph unicode="&#xf70a;" d="M-258 1400v334h89v-334h-89z" />
<glyph unicode="&#xf70b;" d="M-666 1400v62l69 11q13 2 28.5 11t27.5 23.5t19.5 34.5t7.5 46q2 83 -105 83v74q87 -2 136.5 -39t49.5 -111q0 -14 -2 -29t-8 -31t-17 -33q-9 -17 -25 -32h400v-70h-581z" />
<glyph unicode="&#xf70c;" d="M-878 1562q0 38 11 69t28 53.5t37.5 39t41.5 27.5q5 3 14 5.5t19 3t22 -2.5t23 -14l107 -96l93 98q8 10 17.5 13.5t20 2.5t19.5 -4t15 -6q22 -11 43.5 -26t39 -38.5t28 -53.5t10.5 -71v-97h216v-65h-294v162q0 33 -8.5 56t-20.5 37.5t-24.5 22t-23.5 11.5l-99 -107 q-27 -33 -60 0l-120 110q-20 -8 -35 -22t-25 -31t-15 -36t-5 -37q0 -22 8.5 -41t22.5 -35t34.5 -25t47.5 -9v-64q-46 0 -81 15t-59 39t-36 55t-12 61z" />
<glyph unicode="&#xf70d;" d="M-423 1551v71h171v156h81v-156h171v-71h-171v-151h-81v151h-171z" />
<glyph unicode="&#xf70e;" d="M-433 1400q0 55 15 88t37.5 50.5t51 24t55.5 6.5h223v-73h-223q-25 0 -40 -6t-24.5 -18t-12 -29.5t-2.5 -42.5h-80z" />
<glyph unicode="&#xf70f;" horiz-adv-x="1839" d="M88 860q82 143 200 214t282 71q115 0 200 -28.5t140.5 -83.5t83.5 -135.5t28 -185.5v-334q0 -86 18 -145.5t53 -96t87.5 -53t121 -16.5t120.5 16.5t87.5 53t54 96.5t18.5 145v756h89v-756q0 -88 -19 -159t-63 -122.5t-115 -79.5t-175 -28q-189 0 -278 96t-89 293v334 q0 94 -25.5 159.5t-73 108.5t-114.5 63t-152 20q-49 0 -100.5 -9.5t-101.5 -32t-95 -61t-85 -96.5l89 -141v-471q0 -37 5.5 -68.5t20 -55t38.5 -36.5t61 -13h86v-79h-89q-55 0 -94 16.5t-65 48.5t-37.5 78t-11.5 104v463z" />
<glyph unicode="&#xf710;" d="M-769 1562h84q0 -52 20.5 -74.5t56.5 -22.5h649v-76h-652q-27 0 -54.5 7.5t-50 27t-37 53t-16.5 85.5z" />
<glyph unicode="&#xf711;" d="M-778 1537q0 39 15 71.5t39.5 57.5t57.5 40t71 15q37 0 69.5 -15t57 -40t39 -57.5t14.5 -71.5q0 -37 -14.5 -69t-39 -57t-57 -39t-69.5 -14q-38 0 -71 14t-57.5 39t-39.5 57t-15 69zM-701 1537q0 -23 8 -41.5t21.5 -32.5t33.5 -22t43 -8q24 0 43.5 8t33.5 22t22 33t8 41 q0 25 -8 44t-22 33.5t-33.5 22t-43.5 7.5q-23 0 -43 -7.5t-33.5 -22t-21.5 -33.5t-8 -44z" />
<glyph unicode="&#xf712;" d="M-1052 1585q0 38 15 76t44 68.5t70 50.5t93 22h482v-81h-482q-33 0 -57.5 -14t-41 -34.5t-25 -43.5t-8.5 -44q0 -22 7 -43t20 -40.5t30 -34.5t35 -26l123 107q15 11 31 12.5t28 -12.5l129 -107q18 10 33 23t25.5 30.5t13 39.5t-0.5 51h89q4 -42 -6.5 -80.5t-34 -70 t-58 -54t-75.5 -31.5l-145 131l-142 -128q-41 11 -75.5 31t-60.5 48.5t-41 67t-15 86.5z" />
<glyph unicode="&#xf713;" d="M-504 1839v202h86v-202h-86z" />
<glyph unicode="&#xf714;" d="M-734 1839v60l65 11q14 3 29 11.5t27.5 23t20.5 35t8 45.5q0 85 -106 85v74q87 -3 138 -41.5t51 -114.5q0 -25 -11 -56.5t-44 -64.5h387v-68h-565z" />
<glyph unicode="&#xf715;" d="M-1017 2000q0 39 11 69t29 53t39 39q20 17 39 28q6 3 15 5.5t19 2.5t22 -3q13 -2 24 -13l107 -96l93 99q8 9 17.5 12t20 2t19.5 -3.5t14 -5.5q22 -11 44 -26.5t39.5 -38t28 -53t10.5 -71.5v-98h157v-63h-235v161q0 33 -8.5 56.5t-20.5 37.5t-25 22t-23 10l-99 -107 q-27 -33 -60 0l-120 110q-39 -15 -58 -47t-19 -71q0 -22 7 -42.5t21 -37t34 -26t48 -9.5v-66h-3q-43 0 -77 15t-58 40t-38 55t-14 60z" />
<glyph unicode="&#xf716;" d="M-674 1986v70h173v158h80v-158h172v-70h-172v-150h-80v150h-173z" />
<glyph unicode="&#xf717;" d="M-519 1671q0 55 15 88.5t37.5 51.5t50 24t54.5 6h183v-74h-180q-25 0 -40.5 -5.5t-24.5 -17.5t-11.5 -30t-2.5 -43h-81z" />
<glyph unicode="&#xf718;" d="M-375 -455h33q49 0 82 -6t53.5 -26t29 -55.5t8.5 -94.5v-158h-86v158q0 37 -4 58t-13.5 32t-27.5 14t-48 3h-27v75z" />
<glyph unicode="&#xf719;" d="M-656 -458h53q36 0 59 -6.5t38.5 -22.5t20.5 -40t5 -59v-28q0 -18 5.5 -37.5t18 -36t34.5 -27.5t55 -11t55 11t34 27.5t17.5 35.5t5.5 38v156h86v-156q0 -41 -15 -75t-41.5 -57.5t-62.5 -37.5q-35 -13 -79 -13q-47 0 -84 13.5t-61.5 37t-38 57.5t-13.5 75q0 25 -1.5 41.5 t-6.5 26t-14 12.5q-9 4 -25 4h-45v72z" />
<glyph unicode="&#xf71a;" d="M-295 -527q0 16 6.5 30.5t17.5 24.5t25 16q13 7 30 7q16 0 29.5 -6.5t24.5 -16.5t18 -25t7 -30q0 -17 -7 -31.5t-18 -24.5t-24.5 -16.5t-29.5 -6.5q-17 0 -30.5 6.5t-24.5 16.5t-17.5 24.5t-6.5 31.5z" />
<glyph unicode="&#xf71d;" horiz-adv-x="1478" d="M104 1134h93l145 -1033l354 1033h73l353 -1033l110 780q11 82 -27 130t-131 52v71h82q40 0 71.5 12t55 31.5t39 46.5t22.5 56l23 85h92l-34 -116q-11 -35 -27 -62.5t-38.5 -48t-50.5 -37.5q-27 -16 -62 -30q27 -16 43.5 -39.5t24 -49.5t8 -53.5t-4.5 -50.5l-137 -878h-99 l-350 993l-351 -993h-100z" />
<glyph unicode="&#xf881;" horiz-adv-x="1954" d="M88 858q82 145 200 216t282 71q115 0 200 -30t140.5 -85.5t83.5 -137t28 -185.5v-1128h-90v1128q0 93 -25.5 161.5t-73 112.5t-114.5 64q-67 21 -152 21q-49 0 -100 -10.5t-100 -34.5t-95.5 -62t-86.5 -95l89 -141v-471q0 -37 5.5 -68.5t20 -55t38.5 -36.5t61 -13h86v-79 h-89q-55 0 -94 16.5t-65 48.5t-37.5 78t-11.5 104v463zM1162 1011q42 69 117 101.5t180 32.5q164 0 245.5 -93t81.5 -263v-1212h-89v1207q0 64 -12 115.5t-40 88.5t-73.5 57.5t-112.5 20.5q-79 0 -137.5 -24.5t-95.5 -79.5z" />
<glyph unicode="&#xf882;" horiz-adv-x="2005" d="M99 79q46 3 73.5 21t41 44t18 56t4.5 55v452l-102 148q82 145 201 216q117 72 281 72q116 0 201.5 -30.5t142.5 -86t84 -137t27 -185.5v-1125h-89v1125q0 95 -26.5 162.5t-74.5 111.5t-116 65q-69 20 -151 20q-50 0 -100 -9.5t-98.5 -33.5t-95 -63t-87.5 -99l93 -146 v-457q0 -52 -10 -91t-26.5 -67.5t-38 -47.5t-45.5 -30t-47 -15.5t-44 -6.5zM1211 1011q43 69 117.5 101.5t181.5 32.5q164 0 246.5 -93t82.5 -263v-1212h-91v1207q0 64 -12.5 115.5t-40.5 88.5t-73.5 57.5t-111.5 20.5q-80 0 -139 -24.5t-94 -79.5z" />
<glyph d="M-743 1389q0 47 8.5 77t23.5 48t35.5 24.5t43.5 6.5q0 40 14 62.5t35 32t46 11t47 1.5h86v-72h-73q-27 0 -42 -3.5t-22 -14t-9.5 -27.5t-2.5 -44h-55q-17 0 -26 -8.5t-13.5 -22t-5 -32t-0.5 -39.5h-90z" />
<glyph horiz-adv-x="813" d="M-778 1537q0 39 15 71.5t39.5 57.5t57.5 40t71 15q37 0 69.5 -15t57 -40t39 -57.5t14.5 -71.5q0 -37 -14.5 -69t-39 -57t-57 -39t-69.5 -14q-38 0 -71 14t-57.5 39t-39.5 57t-15 69zM-701 1537q0 -23 8 -41.5t21.5 -32.5t33.5 -22t43 -8q24 0 43.5 8t33.5 22t22 33t8 41 q0 25 -8 44t-22 33.5t-33.5 22t-43.5 7.5q-23 0 -43 -7.5t-33.5 -22t-21.5 -33.5t-8 -44zM19 1011q43 69 117.5 101.5t181.5 32.5q164 0 245.5 -93t81.5 -263v-789h-89v784q0 64 -12 115.5t-41 88.5t-74 57.5t-111 20.5q-80 0 -138.5 -24.5t-94.5 -79.5z" />
<glyph horiz-adv-x="813" d="M-778 1537q0 39 15 71.5t39.5 57.5t57.5 40t71 15q37 0 69.5 -15t57 -40t39 -57.5t14.5 -71.5q0 -37 -14.5 -69t-39 -57t-57 -39t-69.5 -14q-38 0 -71 14t-57.5 39t-39.5 57t-15 69zM-701 1537q0 -23 8 -41.5t21.5 -32.5t33.5 -22t43 -8q24 0 43.5 8t33.5 22t22 33t8 41 q0 25 -8 44t-22 33.5t-33.5 22t-43.5 7.5q-23 0 -43 -7.5t-33.5 -22t-21.5 -33.5t-8 -44zM19 1011q43 69 117.5 101.5t181.5 32.5q164 0 245.5 -93t81.5 -263v-789h-89v784q0 64 -12 115.5t-41 88.5t-74 57.5t-111 20.5q-80 0 -138.5 -24.5t-94.5 -79.5z" />
<glyph d="M-899 1386v79h730v-79h-730z" />
<glyph d="M-899 1386v79h644v204h86v-283h-730z" />
<glyph d="M-899 1386v79h436q-6 5 -11.5 15.5t-10.5 22.5t-8 26t-3 25q0 35 13 66.5t35.5 55t53.5 36.5q30 14 65.5 14t67 -13.5t54.5 -37t37 -55t14 -67t-14 -65.5t-37 -53t-54.5 -36t-67.5 -13h-570zM-418 1553.5q0 -19.5 7.5 -35.5t20 -28t29 -18.5t32.5 -6.5q19 0 37 6.5 t31 18.5t20.5 28t7.5 35.5t-7.5 37t-20.5 30t-30 19.5q-19 7 -38 7q-18 0 -33.5 -7t-28 -19.5t-20 -30t-7.5 -37z" />
<glyph d="M-899 1386v79h417v212h86v-212h141v212h86v-291h-730z" />
<glyph d="M-1341 1386v79h1018v-79h-1018z" />
<glyph d="M-1341 1386v79h931v212h87v-291h-1018z" />
<glyph d="M-1341 1386v79h738q-5 5 -11.5 15.5t-11 22.5t-8 26t-3.5 25q0 35 13 66.5t36.5 55t53.5 37t65.5 13.5t67 -13.5t55 -37t36.5 -55t13 -67t-13 -65.5t-36.5 -53t-55 -36t-67.5 -13h-872zM-559 1553.5q0 -19.5 7.5 -35.5t20 -28t29 -18.5t33.5 -6.5q20 0 37.5 6.5t30 18.5 t20.5 28t8 35.5t-8 37t-20.5 30t-30 19.5t-37.5 7q-17 0 -33.5 -7t-29 -19.5t-20 -30t-7.5 -37z" />
<glyph d="M-1341 1386v79h704v212h86v-212h141v212h87v-291h-1018z" />
<glyph d="M-410 1839v202h87v-202h-87z" />
<glyph d="M-640 1839v60l67 11q14 3 29 11.5t27.5 23t20.5 35t8 45.5q0 85 -107 85v74q88 -3 138 -41.5t50 -114.5q0 -25 -10 -56.5t-43 -64.5h370v-68h-550z" />
<glyph d="M-904 2000q0 39 11 69t28.5 53t38.5 39q20 17 40 28q5 3 14 5.5t19 2.5t23 -3q12 -2 23 -13l107 -96l93 99q8 9 17.5 12t20 2t19.5 -3.5t14 -5.5q22 -11 44 -26.5t40 -38t28 -53t10 -71.5v-98h158v-63h-236v161q0 33 -8 56.5t-20.5 37.5t-25.5 22t-23 10l-98 -107 q-28 -33 -60 0l-121 110q-38 -15 -57.5 -47t-19.5 -71q0 -22 7 -42.5t21.5 -37t34 -26t47.5 -9.5v-66h-3q-42 0 -76.5 15t-58.5 40t-37.5 55t-13.5 60z" />
<glyph d="M-578 1989v70h171v158h81v-158h173v-70h-173v-150h-81v150h-171z" />
<glyph d="M-1341 1386v79h1172v-79h-1172z" />
<glyph d="M-1341 1386v79h1086v204h86v-283h-1172z" />
<glyph d="M-1341 1386v79h878q-6 5 -11.5 15.5t-10.5 22.5t-8 26t-3 25q0 35 13 66.5t35.5 55t53.5 36.5q30 14 65.5 14t67 -13.5t54.5 -37t37 -55t14 -67t-14 -65.5t-37 -53t-54.5 -36t-67.5 -13h-1012zM-418 1553.5q0 -19.5 7.5 -35.5t20 -28t29 -18.5t32.5 -6.5q19 0 37 6.5 t31 18.5t20.5 28t7.5 35.5t-7.5 37t-20.5 30t-30 19.5q-19 7 -38 7q-18 0 -33.5 -7t-28 -19.5t-20 -30t-7.5 -37z" />
<glyph d="M-1341 1386v79h859v204h86v-204h141v204h86v-283h-1172z" />
<glyph d="M-255 1770v271h86v-271h-86z" />
<glyph d="M-688 1770v60q11 2 25 4q11 2 23 4q11 1 21 3q13 3 28.5 11t27.5 22t20.5 33t8.5 44q0 42 -27.5 66t-79.5 24v74q88 -2 137 -38t49 -111q0 -26 -10 -60.5t-42 -66.5h370v-69h-551z" />
<glyph d="M-890 1932q0 38 10.5 68t28.5 53.5t39 39.5q20 17 39 28q6 3 15 5.5t19 2.5t22 -3q13 -2 24 -13l107 -96l91 98q9 10 19 12.5t19.5 2t19.5 -3t15 -5.5q22 -11 44 -27t39 -38.5t27.5 -53.5t10.5 -70v-99h164v-63h-242v162q0 33 -8.5 55.5t-20 37t-24.5 22.5t-23 11 l-98 -107q-28 -33 -62 0l-121 109q-38 -15 -56.5 -47t-18.5 -70q0 -22 7 -42.5t20.5 -37t34 -26t48.5 -9.5v-66h-3q-43 0 -77 15t-58 39.5t-37.5 55t-13.5 60.5z" />
<glyph d="M-421 1921v70h172v157h80v-157h172v-70h-172v-151h-80v151h-172z" />
<glyph d="M-1044 1386v79h841v-79h-841z" />
<glyph d="M-1044 1386v79h755v204h86v-283h-841z" />
<glyph d="M-433 1344q0 55 15 88.5t37.5 51.5t51 23t55.5 5h189v-74h-175q-26 0 -43.5 -5t-26 -17.5t-12 -30.5t-3.5 -41h-88z" />
<glyph horiz-adv-x="995" d="M112 367v407q0 85 28.5 153.5t79.5 117t122.5 76t156.5 27.5t156 -27.5t121.5 -76t79 -117.5t28.5 -153v-407q0 -83 -28.5 -152.5t-79 -119.5t-121.5 -78t-156 -28q-87 0 -157.5 28t-121.5 78t-79.5 120t-28.5 152zM203 373q0 -63 19 -118t56 -96t93 -65t127.5 -24 t126.5 24t92 65t56 96t19 118v393q0 66 -19 121.5t-56 95.5t-92 63t-126 23q-73 0 -128.5 -23t-92.5 -63t-56 -96.5t-19 -120.5v-393z" />
<glyph horiz-adv-x="854" d="M171 797v107l281 230h99v-1134h-93v1038z" />
<glyph horiz-adv-x="995" d="M145 0v79l487 469q58 59 93 127t35 144q0 52 -19.5 98.5t-55.5 81t-84 55.5q-50 20 -105 20q-52 0 -98.5 -19t-82.5 -52.5t-57.5 -81t-21.5 -102.5h-88q0 69 27.5 129t72.5 104t109 70q62 26 139 26q81 0 146 -26t111 -70.5t70 -104t24 -128.5q0 -96 -38 -174t-105 -146 l-438 -420h618v-79h-739z" />
<glyph horiz-adv-x="995" d="M48 53h94q9 -74 40.5 -125t75 -83.5t98.5 -46.5t113 -14q68 0 127 21t103 61.5t70 98t26 131.5t-19.5 133t-60.5 98.5t-104 61t-151 21.5h-16v78h16q158 0 233.5 75t75.5 218q0 74 -23.5 128.5t-64 91.5t-96 55t-119.5 18q-66 0 -119.5 -17t-92 -50.5t-61.5 -81.5 t-30 -108h-96q11 82 46 144t87 104t120 64t146 22q87 0 160 -25.5t123.5 -72.5t77.5 -117q28 -67 28 -155q0 -49 -8.5 -96t-30 -89.5t-59.5 -77.5q-36 -36 -94 -63q62 -22 104.5 -57.5t69 -82t38 -101.5t11.5 -118q0 -96 -31.5 -169.5t-87 -123.5t-132 -75t-166.5 -25 q-85 0 -159 22t-129.5 66.5t-90.5 109.5t-42 152z" />
<glyph horiz-adv-x="995" d="M48 0v77l549 1104h99l-554 -1102h501v454h91v-454h206v-79h-206v-236h-91v236h-595z" />
<glyph horiz-adv-x="995" d="M121 19h90q8 -55 30 -98.5t59 -74t87.5 -46.5t116.5 -16q86 0 144.5 32.5t94 87t50.5 126t15 149.5q0 46 -4 92.5t-16.5 90.5t-32 82t-50.5 67t-74 45.5t-101 16.5q-49 0 -96.5 -12t-87 -31.5t-69.5 -48t-47 -60.5h-71v716h705v-77h-617v-512q57 52 125.5 73.5 t157.5 21.5q71 0 126 -17.5t96 -49t69 -75t46 -94.5t26 -109t8 -119q-1 -106 -23.5 -194t-69 -150t-122 -97t-182.5 -35q-78 0 -144.5 21t-116.5 61t-82 98.5t-40 135.5z" />
<glyph horiz-adv-x="995" d="M93 401q0 137 84 314l371 702h92l-337 -639q27 14 51.5 23.5t49.5 15t50.5 8t49.5 2.5q95 0 169.5 -32t124.5 -87.5t76.5 -131t26.5 -161.5q0 -88 -27 -166t-78.5 -135.5t-126.5 -90.5q-77 -34 -173 -34t-170.5 31t-126.5 86.5t-79 130.5t-27 164zM182 407 q0 -77 22.5 -139t64 -107.5t99 -71t128.5 -25.5q68 0 127 25.5t100 71t64.5 109t23.5 137.5q-1 71 -21 133.5t-57.5 110.5t-94.5 76t-134 28q-68 0 -127 -24.5t-103 -70.5t-68 -110.5t-24 -142.5z" />
<glyph horiz-adv-x="995" d="M145 838v299h776v-79l-535 -1339h-91l530 1341h-587v-222h-93z" />
<glyph horiz-adv-x="995" d="M77 378q0 60 16.5 114.5t46.5 99.5t74 81q46 37 101 64q-105 58 -155 140t-50 189q0 79 28 146.5t79.5 115t122.5 74t159 26.5q86 0 158 -26.5t122.5 -74t78.5 -115t28 -146.5q0 -106 -51 -188.5t-150 -140.5q55 -25 98 -60.5t74 -81.5t47.5 -101.5t16.5 -115.5 q0 -85 -32.5 -156t-88.5 -122.5t-133.5 -81t-167.5 -29.5q-91 0 -167.5 29.5t-134 81t-89.5 123.5q-31 70 -31 155zM171 378q0 -66 25.5 -122.5t70.5 -99t104 -67.5t128 -25q68 0 127.5 25t103.5 67.5t69.5 99t25.5 122.5q0 67 -25.5 126t-69.5 102t-103.5 68t-127.5 25 q-69 0 -128 -25t-104 -68t-70.5 -101t-25.5 -127zM200 1066q0 -63 22 -116.5t61.5 -92t94.5 -59t120.5 -20.5t120 20.5t93.5 59t61 92t22 116.5t-22 116.5t-61 91.5t-93.5 59.5t-120 21.5t-120.5 -21.5t-94.5 -59.5t-61.5 -91.5t-22 -116.5z" />
<glyph horiz-adv-x="995" d="M93 720.5q0 87.5 27.5 165.5t79.5 136t127.5 92t171.5 34t171 -31.5t126 -87t78 -130.5q27 -77 27 -165q0 -70 -21 -148.5t-63 -164.5l-368 -702h-96l337 637q-52 -30 -100 -38q-50 -8 -100 -8q-94 0 -168 31.5t-125.5 86t-77.5 130t-26 163zM185 729q0 -71 20 -134 t57.5 -111t94.5 -75.5t133 -27.5q69 0 128 24.5t102 70.5t67 110q24 63 24 143q0 74 -22 137.5t-63 109.5t-98.5 70.5t-128.5 24.5q-72 0 -129.5 -24.5t-99 -70.5t-64 -109.5t-21.5 -137.5z" />
<glyph d="M-849 1608q0 39 14 75t42.5 65.5t68 49t90.5 20.5h478v-70h-478q-33 0 -59 -13.5t-43.5 -35.5t-25.5 -46q-9 -23 -9 -45q0 -50 25 -90.5t72 -61.5l126 98q14 11 27.5 11t27.5 -11l131 -98q20 10 36 23t26 30t14 40.5t0 53.5h78q4 -41 -6.5 -78t-32.5 -67t-54.5 -51 t-73.5 -29l-147 113l-144 -110q-38 11 -71.5 30t-59 47t-39.5 65q-13 39 -13 85z" />
<glyph d="M-769 1562h84q0 -52 20.5 -74.5t56.5 -22.5h742v-76h-745q-27 0 -54.5 7.5t-50 27t-37 53t-16.5 85.5z" />
<glyph d="M-504 1697v335h86v-335h-86z" />
<glyph d="M-954 1697v62l68 11q13 3 27.5 11t27 23t20.5 35.5t8 45.5q0 41 -27 63q-28 22 -80 22v73q89 -3 139 -40.5t50 -114.5q0 -26 -11 -57t-42 -64h359v-70h-539z" />
<glyph d="M-1156 1860q0 39 11 69t28 52.5t38 38.5t41 28q5 3 13 6.5t19 3.5t23 -4q13 -4 24 -14l107 -95l92 98q8 9 18 12t20 3t19.5 -3.5t14.5 -6.5q22 -11 44 -26.5t39 -37.5t27.5 -53t10.5 -71v-98h157v-65h-235v163q0 33 -8.5 56t-20 37t-25 22.5t-22.5 10.5l-98 -106 q-29 -32 -62 0l-120 109q-39 -15 -57.5 -47t-18.5 -71q0 -21 7 -42t20.5 -37t34 -26t48.5 -10v-67h-3q-42 0 -77 16t-58.5 40t-37 54.5t-13.5 60.5z" />
<glyph d="M-674 1847v70h173v157h80v-157h172v-70h-172v-152h-80v152h-173z" />
<glyph d="M-255 1697v335h86v-335h-86z" />
<glyph d="M-482 1697v62q13 0 24 3q11 1 22 3t21 5q14 3 28 11t26.5 22t20.5 33t8 44q0 42 -26 66q-28 24 -80 24v73q87 -3 138 -38t51 -112q0 -24 -11 -58.5t-43 -67.5h370v-70h-549z" />
<glyph d="M-732 1860q0 39 11 69t27.5 52.5t37.5 38.5q23 16 42 28q6 3 14 6.5t19 3.5t22 -4t23 -14l106 -96l93 99q8 9 18.5 12t20.5 3t19 -4q10 -3 16 -6q22 -11 43 -26.5t38.5 -37.5t28.5 -53.5t11 -70.5v-98h164v-65h-244v163q0 33 -8 55t-20 37t-25 23.5t-22 10.5l-99 -106 q-27 -33 -62 0l-120 109q-38 -15 -56.5 -47t-18.5 -71q0 -21 7.5 -42t21 -37t34 -26t45.5 -10v-67h-3q-42 0 -76 16t-58.5 40t-37 54.5t-12.5 60.5z" />
<glyph d="M-421 1850v69h172v158h80v-158h172v-69h-172v-153h-80v153h-172z" />
<glyph d="M-622 1839v202h88v-202h-88z" />
<glyph d="M-789 1986v70h170v158h82v-158h170v-70h-170v-150h-82v150h-170z" />
</font>
</defs>
</svg>
