<svg xmlns="http://www.w3.org/2000/svg" xmlns:xlink="http://www.w3.org/1999/xlink" width="37.824" height="36.054" viewBox="0 0 37.824 36.054">
  <defs>
    <linearGradient id="linear-gradient" x1="0.5" x2="0.5" y2="1" gradientUnits="objectBoundingBox">
      <stop offset="0" stop-color="#accaed"/>
      <stop offset="1" stop-color="#84b1e4"/>
    </linearGradient>
  </defs>
  <g id="write" transform="translate(0 -11.976)">
    <path id="Path_7910" data-name="Path 7910" d="M453.472,189.948h-2.364A1.108,1.108,0,0,0,450,191.056v16.252a1.108,1.108,0,0,0,1.108,1.108h2.364a1.108,1.108,0,0,0,1.108-1.108V191.056A1.108,1.108,0,0,0,453.472,189.948Z" transform="translate(-416.757 -164.824)" fill="url(#linear-gradient)"/>
    <path id="Path_7911" data-name="Path 7911" d="M241.918,18.13l1.847-3.2a1.478,1.478,0,0,0-.541-2.018l-1.28-.739a1.477,1.477,0,0,0-2.018.541l-1.847,3.2Z" transform="translate(-220.491 0)" fill="#accaed"/>
    <path id="Path_7912" data-name="Path 7912" d="M1.316,147.322a1.333,1.333,0,0,0,1.806-.506l9.056-15.685a2.954,2.954,0,0,0-2.456.51l-3.137,2.353a8.127,8.127,0,0,0-2.226,2.551L.329,143.791a2.606,2.606,0,0,0,.975,3.524l.013.007Z" transform="translate(0 -110.278)" fill="url(#linear-gradient)"/>
    <path id="Path_7913" data-name="Path 7913" d="M102.738,106.688h4.8l7.627-13.211-3.839-2.216L102.417,106.7C102.523,106.693,102.63,106.688,102.738,106.688Z" transform="translate(-94.851 -73.428)" fill="url(#linear-gradient)"/>
    <path id="Path_7914" data-name="Path 7914" d="M19,393.75l-1.146,1.986a1.108,1.108,0,0,0-.119.3l-1.057,4.472a.887.887,0,0,0,1.471.849l3.344-3.151a1.107,1.107,0,0,0,.2-.252l.906-1.57A4.814,4.814,0,0,1,19,393.75Z" transform="translate(-15.421 -353.57)" fill="#84b1e4"/>
    <path id="Path_7915" data-name="Path 7915" d="M120.041,430.092h-7l-1.463,2.533a2.585,2.585,0,0,0,4.446-1.794,2.586,2.586,0,1,0,5.171,0v-.169C120.928,430.539,120.314,430.227,120.041,430.092Z" transform="translate(-103.336 -387.228)" fill="#84b1e4"/>
    <path id="Path_7916" data-name="Path 7916" d="M87.573,162.6l-5.864,10.157H83.45a1.108,1.108,0,0,1,0,2.216h-9.1a2.586,2.586,0,1,0,0,5.171h9.341l1.226.612a15.268,15.268,0,0,0,6.794,1.6,15.813,15.813,0,0,0,5.78-1.109v-14.4H95.74Z" transform="translate(-66.459 -139.494)" fill="url(#linear-gradient)"/>
  </g>
</svg>
