<svg xmlns="http://www.w3.org/2000/svg" width="30.522" height="39" viewBox="0 0 30.522 39">
  <g id="Resume" transform="translate(-6 -1)">
    <path id="Path_7920" data-name="Path 7920" d="M15.586,14.519a3.391,3.391,0,1,1,4.7,0,8.419,8.419,0,0,1,2.221,2.2,5.935,5.935,0,1,0-9.14,0,8.419,8.419,0,0,1,2.221-2.2Z" transform="translate(-0.913 -0.912)" fill="#accbed"/>
    <circle id="Ellipse_20" data-name="Ellipse 20" cx="1.671" cy="1.671" r="1.671" transform="translate(14.914 9.914)" fill="#accbed"/>
    <path id="Path_7921" data-name="Path 7921" d="M35,2V7.087h5.087Z" transform="translate(-4.413 -0.152)" fill="#accbed"/>
    <path id="Path_7922" data-name="Path 7922" d="M15.1,19.385a5.935,5.935,0,0,0,6.613,0C19.543,16.232,17.27,16.232,15.1,19.385Z" transform="translate(-1.385 -2.438)" fill="#accbed"/>
    <path id="Path_7923" data-name="Path 7923" d="M29.739,8.63a.848.848,0,0,1-.848-.848V1H6V40H36.522V8.63ZM17.022,4.391a7.63,7.63,0,1,1-7.63,7.63,7.63,7.63,0,0,1,7.63-7.63ZM27.2,36.609H10.239a.848.848,0,1,1,0-1.7H27.2a.848.848,0,1,1,0,1.7Zm5.087-4.239H10.239a.848.848,0,1,1,0-1.7H32.283a.848.848,0,1,1,0,1.7Zm0-4.239H10.239a.848.848,0,1,1,0-1.7H32.283a.848.848,0,1,1,0,1.7Zm0-4.239H10.239a.848.848,0,1,1,0-1.7H32.283a.848.848,0,1,1,0,1.7Zm0-5.087H27.2a.848.848,0,1,1,0-1.7h5.087a.848.848,0,1,1,0,1.7Zm0-4.239H27.2a.848.848,0,1,1,0-1.7h5.087a.848.848,0,1,1,0,1.7Z" transform="translate(0 0)" fill="#accbed"/>
  </g>
</svg>
