<svg xmlns="http://www.w3.org/2000/svg" width="12.667" height="12.667" viewBox="0 0 12.667 12.667">
  <path id="Icon_awesome-phone-alt" data-name="Icon awesome-phone-alt" d="M12.305,8.951,9.535,7.764a.594.594,0,0,0-.693.171l-1.227,1.5A9.17,9.17,0,0,1,3.231,5.05l1.5-1.227A.592.592,0,0,0,4.9,3.13L3.713.359a.6.6,0,0,0-.68-.344L.46.609A.594.594,0,0,0,0,1.188,11.478,11.478,0,0,0,11.479,12.667a.594.594,0,0,0,.579-.46l.594-2.573a.6.6,0,0,0-.347-.683Z" transform="translate(0 0)" fill="#6b9ed5"/>
</svg>
