<svg id="save-file" xmlns="http://www.w3.org/2000/svg" width="133.716" height="134.002" viewBox="0 0 133.716 134.002">
  <path id="Path_7975" data-name="Path 7975" d="M78.062,104.868H6.595A4.467,4.467,0,0,1,2.128,100.4V24.467A4.467,4.467,0,0,1,6.595,20H78.062Z" transform="translate(-2.128 20.201)" fill="#5e87ca"/>
  <path id="Path_7976" data-name="Path 7976" d="M75,82.4H12.467A4.467,4.467,0,0,1,8,77.934V6.467A4.467,4.467,0,0,1,12.467,2H73.152a4.466,4.466,0,0,1,3.157,1.308L96.026,23.025a4.467,4.467,0,0,1,1.309,3.158V77.934A4.467,4.467,0,0,1,92.868,82.4Z" transform="translate(5.114 -2)" fill="#c8cded"/>
  <path id="Path_7977" data-name="Path 7977" d="M58.2,2V19.867a4.467,4.467,0,0,1-4.467,4.467H22.467A4.467,4.467,0,0,1,18,19.867V2Z" transform="translate(17.448 -2)" fill="#858bb5"/>
  <path id="Path_7978" data-name="Path 7978" d="M69.6,60.2V24.467A4.467,4.467,0,0,0,65.134,20H20.467A4.467,4.467,0,0,0,16,24.467V60.2Z" transform="translate(14.981 20.201)" fill="#858bb5"/>
  <path id="Path_7979" data-name="Path 7979" d="M108.863,64.2v40.2a4.467,4.467,0,0,1-4.467,4.467h-93.8A4.467,4.467,0,0,1,6.128,104.4V28.467A4.467,4.467,0,0,1,10.595,24h98.268Z" transform="translate(2.805 25.134)" fill="#78a0d4"/>
  <path id="Path_7980" data-name="Path 7980" d="M95.177,99.934V24H10.595a4.467,4.467,0,0,0-4.467,4.467V99.934Z" transform="translate(2.805 25.134)" fill="#8cb6e5"/>
  <path id="Path_7981" data-name="Path 7981" d="M12,46H87.934V72.8H12Z" transform="translate(10.048 52.268)" fill="#e2e7f6"/>
  <path id="Path_7982" data-name="Path 7982" d="M12,46H81.234V66.1H12Z" transform="translate(10.048 52.268)" fill="#f7fafd"/>
  <path id="Path_7983" data-name="Path 7983" d="M15,49H77.534v4.467H15Z" transform="translate(13.748 55.968)" fill="#78a0d4"/>
  <path id="Path_7984" data-name="Path 7984" d="M24,53H46.334v4.467H24Z" transform="translate(24.848 60.901)" fill="#78a0d4"/>
  <path id="Path_7985" data-name="Path 7985" d="M89,86.4H26.467A4.467,4.467,0,0,1,22,81.934V10.467A4.467,4.467,0,0,1,26.467,6H87.152a4.466,4.466,0,0,1,3.157,1.308l19.717,19.717a4.467,4.467,0,0,1,1.309,3.158V81.934a4.467,4.467,0,0,1-4.467,4.467Z" transform="translate(22.381 2.933)" fill="#e2e7f6"/>
  <path id="Path_7986" data-name="Path 7986" d="M93.468,75.234V10.467L90.31,7.309A4.467,4.467,0,0,0,87.152,6H26.467A4.467,4.467,0,0,0,22,10.467V75.234Z" transform="translate(22.381 2.933)" fill="#f7fafd"/>
  <path id="Path_7987" data-name="Path 7987" d="M69.734,6V23.867a4.467,4.467,0,0,1-4.467,4.467h-26.8A4.467,4.467,0,0,1,34,23.867V6Z" transform="translate(37.182 2.933)" fill="#c8cded"/>
  <path id="Path_7988" data-name="Path 7988" d="M83.6,64.2V28.467A4.467,4.467,0,0,0,79.134,24H34.467A4.467,4.467,0,0,0,30,28.467V64.2Z" transform="translate(32.248 25.134)" fill="#c8cded"/>
  <g id="Group_7573" data-name="Group 7573" transform="translate(68.948 8.933)">
    <path id="Path_7989" data-name="Path 7989" d="M33,27H59.8v4.467H33Z" transform="translate(-33 19.901)" fill="#e2e7f6"/>
    <path id="Path_7990" data-name="Path 7990" d="M33,31H73.2v4.467H33Z" transform="translate(-33 24.834)" fill="#e2e7f6"/>
    <path id="Path_7991" data-name="Path 7991" d="M33,35H73.2v4.467H33Z" transform="translate(-33 29.768)" fill="#e2e7f6"/>
    <path id="Path_7992" data-name="Path 7992" d="M63.985,18.592V6H34V23.058H59.518A4.467,4.467,0,0,0,63.985,18.592Z" transform="translate(-31.767 -6)" fill="#e2e7f6"/>
  </g>
  <path id="Path_7993" data-name="Path 7993" d="M42,10h8.933V23.4H42Z" transform="translate(47.049 7.867)" fill="#5e87ca"/>
  <path id="Path_7994" data-name="Path 7994" d="M42,10h5.845v8.315H42Z" transform="translate(47.049 7.867)" fill="#78a0d4"/>
</svg>
