<svg id="uoload-file-graphic" xmlns="http://www.w3.org/2000/svg" width="73.251" height="68.995" viewBox="0 0 73.251 68.995">
  <g id="Group_49526" data-name="Group 49526" transform="translate(0 2.524)">
    <g id="Group_49523" data-name="Group 49523" transform="translate(5.326)">
      <g id="Group_49522" data-name="Group 49522">
        <path id="Path_8078" data-name="Path 8078" d="M70.162,88.676a20.154,20.154,0,0,1,36.944-13.428.841.841,0,0,1-1.417.907,18.472,18.472,0,0,0-33.858,12.31.841.841,0,0,1-1.67.211Z" transform="translate(-70.001 -66)" fill="#94bce5"/>
      </g>
    </g>
    <path id="Path_8079" data-name="Path 8079" d="M98,135.595c-.189,0-48.083-.009-48.147-.011a11.966,11.966,0,0,1-1.211-23.8,15.941,15.941,0,0,1,29.973-10.8,11.967,11.967,0,0,1,18.612,10.708A11.967,11.967,0,1,1,98,135.595Z" transform="translate(-38.353 -86.794)" fill="#94bce5"/>
    <path id="Path_8080" data-name="Path 8080" d="M58.218,142.219l48.1.011a10.284,10.284,0,1,0-1.593-20.444.842.842,0,0,1-.961-.961,10.285,10.285,0,0,0-16.7-9.528.842.842,0,0,1-1.337-.392A14.257,14.257,0,1,0,58.9,120.523a.842.842,0,0,1-.743,1.152,10.282,10.282,0,0,0,.064,20.544Z" transform="translate(-46.67 -95.111)" fill="#e0effe"/>
    <g id="Group_49525" data-name="Group 49525" transform="translate(14.849 9.255)">
      <g id="Group_49524" data-name="Group 49524">
        <path id="Path_8081" data-name="Path 8081" d="M127.435,131.86a.841.841,0,0,1-.841-.841A10.03,10.03,0,0,1,136.613,121a.841.841,0,0,1,0,1.683,8.345,8.345,0,0,0-8.336,8.336A.842.842,0,0,1,127.435,131.86Z" transform="translate(-126.594 -121)" fill="#94bce5"/>
      </g>
    </g>
  </g>
  <circle id="Ellipse_36" data-name="Ellipse 36" cx="5.89" cy="5.89" r="5.89" transform="translate(59.789 0.841)" fill="#fff"/>
  <path id="Path_8082" data-name="Path 8082" d="M395.377,64.462a6.731,6.731,0,1,1,6.731-6.731A6.739,6.739,0,0,1,395.377,64.462Zm0-11.78a5.048,5.048,0,1,0,5.048,5.048A5.054,5.054,0,0,0,395.377,52.683Z" transform="translate(-329.699 -51)" fill="#94bce5"/>
  <circle id="Ellipse_37" data-name="Ellipse 37" cx="3.366" cy="3.366" r="3.366" transform="translate(6.78 58.056)" fill="#fff"/>
  <g id="Group_49527" data-name="Group 49527" transform="translate(0.049 2.524)">
    <path id="Path_8083" data-name="Path 8083" d="M77.853,399.414a4.207,4.207,0,1,1,4.207-4.207A4.212,4.212,0,0,1,77.853,399.414Zm0-6.731a2.524,2.524,0,1,0,2.524,2.524A2.527,2.527,0,0,0,77.853,392.683Z" transform="translate(-67.756 -336.309)" fill="#94bce5"/>
    <circle id="Ellipse_38" data-name="Ellipse 38" cx="1.262" cy="1.262" r="1.262" transform="translate(48.801)" fill="#448ed9"/>
    <circle id="Ellipse_39" data-name="Ellipse 39" cx="1.262" cy="1.262" r="1.262" transform="translate(66.47 15.987)" fill="#448ed9"/>
    <circle id="Ellipse_40" data-name="Ellipse 40" cx="1.262" cy="1.262" r="1.262" transform="translate(3.366)" fill="#448ed9"/>
    <circle id="Ellipse_41" data-name="Ellipse 41" cx="1.262" cy="1.262" r="1.262" transform="translate(70.677 50.484)" fill="#3a8bd6"/>
    <circle id="Ellipse_42" data-name="Ellipse 42" cx="1.262" cy="1.262" r="1.262" transform="translate(56.374 63.946)" fill="#448ed9"/>
    <circle id="Ellipse_43" data-name="Ellipse 43" cx="1.262" cy="1.262" r="1.262" transform="translate(0 62.263)" fill="#4591db"/>
  </g>
  <path id="Path_8084" data-name="Path 8084" d="M182.3,391v5.048H148.646V391H182.3Z" transform="translate(-130.086 -333.785)" fill="#e0effe"/>
  <path id="Path_8085" data-name="Path 8085" d="M182.3,281v18.511H148.646V281Z" transform="translate(-130.086 -242.296)" fill="#fff"/>
  <path id="Path_8086" data-name="Path 8086" d="M253.931,329.15l8.533,10.408h-7.692l-4.687-5.716Z" transform="translate(-214.456 -282.343)" fill="#fff"/>
  <path id="Path_8087" data-name="Path 8087" d="M186.509,333.842l4.687,5.716h-17.55l9.018-10.408Z" transform="translate(-150.879 -282.343)" fill="#fff"/>
  <path id="Path_8088" data-name="Path 8088" d="M171.17,301a2.524,2.524,0,1,1-2.524,2.524A2.525,2.525,0,0,1,171.17,301Z" transform="translate(-146.72 -258.93)" fill="#96c5fb"/>
  <path id="Path_8089" data-name="Path 8089" d="M178.143,301.242H144.487a.841.841,0,0,1-.841-.841V276.841a.841.841,0,0,1,.841-.841h33.656a.841.841,0,0,1,.841.841V300.4A.841.841,0,0,1,178.143,301.242Zm-32.815-1.683H177.3V277.683H145.329Z" transform="translate(-125.927 -238.137)" fill="#4591db"/>
  <path id="Path_8090" data-name="Path 8090" d="M258.307,336.241a.839.839,0,0,1-.651-.308l-7.883-9.614-3.194,3.9a.841.841,0,1,1-1.3-1.067l3.845-4.692a.841.841,0,0,1,1.3,0l8.533,10.408a.841.841,0,0,1-.65,1.375Z" transform="translate(-210.297 -278.184)" fill="#448ed9"/>
  <path id="Path_8091" data-name="Path 8091" d="M187.038,336.24a.839.839,0,0,1-.651-.308l-7.9-9.636-8.364,9.654a.841.841,0,0,1-1.272-1.1l9.018-10.408a.873.873,0,0,1,.648-.29.842.842,0,0,1,.639.308l8.532,10.408a.842.842,0,0,1-.65,1.375Z" transform="translate(-146.72 -278.184)" fill="#448ed9"/>
  <path id="Path_8092" data-name="Path 8092" d="M178.143,387.683H144.487a.841.841,0,1,1,0-1.683h33.656a.841.841,0,1,1,0,1.683Z" transform="translate(-125.927 -329.626)" fill="#1c80ca"/>
  <path id="Path_8093" data-name="Path 8093" d="M167.012,302.731a3.366,3.366,0,1,1,3.366-3.366A3.369,3.369,0,0,1,167.012,302.731Zm0-5.048a1.683,1.683,0,1,0,1.683,1.683A1.685,1.685,0,0,0,167.012,297.683Z" transform="translate(-142.562 -254.772)" fill="#448ed9"/>
</svg>
